<svg width="309" height="233" viewBox="0 0 309 233" fill="none" xmlns="http://www.w3.org/2000/svg">
<g clip-path="url(#clip0_659_5907)">
<g filter="url(#filter0_d_659_5907)">
<rect x="102.247" y="123.964" width="82.3068" height="82.3068" rx="41.1534" fill="white"/>
<g clip-path="url(#clip1_659_5907)">
<path d="M162.004 165.117C162.004 167.089 161.855 169.061 161.52 170.959C160.516 177.247 155.53 182.233 149.242 183.237C147.344 183.572 145.372 183.721 143.4 183.721C141.428 183.721 139.457 183.572 137.559 183.237C131.271 182.233 126.285 177.247 125.281 170.959C124.946 169.061 124.797 167.089 124.797 165.117C124.797 163.145 124.946 161.173 125.281 159.276C126.285 152.988 131.271 148.002 137.559 146.997C139.457 146.663 141.428 146.514 143.4 146.514C145.372 146.514 147.344 146.663 149.242 146.997C155.53 148.002 160.516 152.988 161.52 159.276C161.855 161.173 162.004 163.145 162.004 165.117Z" fill="url(#paint0_linear_659_5907)"/>
<path d="M154.451 176.726H135.698C134.471 176.726 133.28 176.056 132.722 174.977C132.052 173.712 132.313 172.186 133.317 171.182L146.377 158.122H137.001C134.433 158.122 132.35 156.038 132.35 153.471H149.614C150.842 153.471 152.032 154.141 152.591 155.22C153.26 156.485 153 158.01 151.995 159.015L138.973 172.112H149.8C152.367 172.112 154.451 174.158 154.451 176.726Z" fill="white"/>
</g>
</g>
<g opacity="0.2">
<rect x="207.104" y="123.964" width="82.3068" height="82.3068" rx="41.1534" fill="white"/>
<g clip-path="url(#clip2_659_5907)">
<path d="M237.622 169.951C237.622 172.09 235.894 173.818 233.755 173.818C231.616 173.818 229.888 172.09 229.888 169.951C229.888 167.813 231.616 166.084 233.755 166.084H237.622V169.951ZM239.556 169.951C239.556 167.813 241.284 166.084 243.423 166.084C245.562 166.084 247.29 167.813 247.29 169.951V179.619C247.29 181.758 245.562 183.486 243.423 183.486C241.284 183.486 239.556 181.758 239.556 179.619V169.951Z" fill="#E01E5A"/>
<path d="M243.423 154.424C241.284 154.424 239.556 152.695 239.556 150.557C239.556 148.418 241.284 146.689 243.423 146.689C245.562 146.689 247.29 148.418 247.29 150.557V154.424H243.423ZM243.423 156.387C245.562 156.387 247.29 158.115 247.29 160.254C247.29 162.393 245.562 164.121 243.423 164.121H233.726C231.587 164.121 229.859 162.393 229.859 160.254C229.859 158.115 231.587 156.387 233.726 156.387H243.423Z" fill="#36C5F0"/>
<path d="M258.921 160.254C258.921 158.115 260.65 156.387 262.788 156.387C264.927 156.387 266.656 158.115 266.656 160.254C266.656 162.393 264.927 164.121 262.788 164.121H258.921V160.254ZM256.988 160.254C256.988 162.393 255.259 164.121 253.12 164.121C250.982 164.121 249.253 162.393 249.253 160.254V150.557C249.253 148.418 250.982 146.689 253.12 146.689C255.259 146.689 256.988 148.418 256.988 150.557V160.254Z" fill="#2EB67D"/>
<path d="M253.12 175.752C255.259 175.752 256.988 177.481 256.988 179.619C256.988 181.758 255.259 183.486 253.12 183.486C250.982 183.486 249.253 181.758 249.253 179.619V175.752H253.12ZM253.12 173.818C250.982 173.818 249.253 172.09 249.253 169.951C249.253 167.813 250.982 166.084 253.12 166.084H262.818C264.956 166.084 266.685 167.813 266.685 169.951C266.685 172.09 264.956 173.818 262.818 173.818H253.12Z" fill="#ECB22E"/>
</g>
</g>
<g filter="url(#filter1_d_659_5907)">
<rect x="47" y="27" width="82.3068" height="82.3068" rx="41.1534" fill="white"/>
<g clip-path="url(#clip3_659_5907)">
<path d="M98.2096 58.0967H78.0972V78.2091H98.2096V58.0967Z" fill="white"/>
<path d="M98.21 87.2603L107.261 78.2095L102.735 77.4375L98.21 78.2095L97.384 82.3489L98.21 87.2603Z" fill="#EA4335"/>
<path d="M69.0464 78.2095V84.2433C69.0464 85.9102 70.3964 87.2603 72.0632 87.2603H78.0971L79.0263 82.7349L78.0971 78.2095L73.1662 77.4375L69.0464 78.2095Z" fill="#188038"/>
<path d="M107.261 58.0971V52.0632C107.261 50.3964 105.911 49.0464 104.244 49.0464H98.21C97.6594 51.2909 97.3841 52.9426 97.384 54.0016C97.384 55.0606 97.6593 56.4257 98.21 58.0971C100.212 58.6703 101.72 58.9569 102.735 58.9569C103.75 58.9569 105.259 58.6704 107.261 58.0971Z" fill="#1967D2"/>
<path d="M107.26 58.0967H98.2095V78.2091H107.26V58.0967Z" fill="#FBBC04"/>
<path d="M98.2096 78.21H78.0972V87.2607H98.2096V78.21Z" fill="#34A853"/>
<path d="M98.2095 49.0464H72.0633C70.3964 49.0464 69.0464 50.3964 69.0464 52.0632V78.2095H78.0971V58.0971H98.2095V49.0464Z" fill="#4285F4"/>
<path d="M82.2226 73.6994C81.4708 73.1916 80.9503 72.45 80.6663 71.4693L82.4111 70.7504C82.5693 71.3538 82.8459 71.8214 83.2408 72.1533C83.6329 72.4851 84.1106 72.6486 84.6687 72.6486C85.2393 72.6486 85.7295 72.4751 86.1394 72.1281C86.5493 71.7811 86.7554 71.3387 86.7554 70.8033C86.7554 70.2551 86.5392 69.8076 86.1068 69.4607C85.6744 69.1138 85.1313 68.9403 84.4827 68.9403H83.4745V67.2132H84.3796C84.9377 67.2132 85.4078 67.0623 85.7899 66.7605C86.172 66.459 86.3631 66.0465 86.3631 65.5211C86.3631 65.0536 86.1922 64.6814 85.8504 64.4024C85.5085 64.1233 85.0759 63.9825 84.5505 63.9825C84.0376 63.9825 83.6304 64.1184 83.3287 64.3923C83.0271 64.667 82.8004 65.0139 82.6699 65.4005L80.9429 64.6814C81.1715 64.0328 81.5915 63.4596 82.2074 62.9643C82.8233 62.4691 83.6102 62.2202 84.5656 62.2202C85.2721 62.2202 85.9081 62.3561 86.4713 62.63C87.0344 62.904 87.4768 63.2836 87.7961 63.7664C88.1156 64.2515 88.2738 64.7946 88.2738 65.3979C88.2738 66.0138 88.1256 66.5344 87.829 66.9617C87.5324 67.3891 87.1677 67.7158 86.7352 67.9447V68.0477C87.2936 68.2779 87.7786 68.6561 88.1381 69.1414C88.5026 69.6316 88.6862 70.2174 88.6862 70.9013C88.6862 71.585 88.5126 72.196 88.1657 72.7314C87.8188 73.267 87.3388 73.6893 86.7302 73.9961C86.1193 74.3028 85.433 74.4588 84.6713 74.4588C83.7888 74.4612 82.9743 74.2073 82.2226 73.6994ZM92.9398 65.0409L91.0242 66.4261L90.0663 64.9731L93.503 62.4941H94.8203V74.1871H92.9398V65.0409Z" fill="#4285F4"/>
</g>
</g>
<g opacity="0.7" filter="url(#filter2_d_659_5907)">
<rect x="147.347" y="27" width="82.3068" height="82.3068" rx="41.1534" fill="white"/>
<g clip-path="url(#clip4_659_5907)">
<path d="M193.151 68.1592C193.151 69.5015 192.909 70.8329 192.436 72.0892C191.18 72.5619 189.848 72.8042 188.506 72.8043H188.493C187.151 72.8042 185.819 72.5619 184.563 72.0892C184.09 70.8329 183.848 69.5015 183.848 68.1592V68.1464C183.848 66.7604 184.103 65.4396 184.563 64.2164C185.819 63.7437 187.151 63.5014 188.493 63.5013H188.506C189.892 63.5013 191.219 63.756 192.436 64.2164C192.909 65.4728 193.151 66.8041 193.151 68.1464V68.1592ZM206.849 65.0524H195.985L203.657 57.3738C203.056 56.5282 202.386 55.7344 201.653 55.0007C200.919 54.2655 200.125 53.593 199.28 52.9903L191.601 60.6631V49.8044C190.578 49.6386 189.543 49.5534 188.507 49.5498H188.488C187.434 49.5498 186.405 49.6463 185.4 49.8044V60.6689L177.727 52.9961C176.876 53.592 176.079 54.2629 175.347 55.0007C174.61 55.7323 173.937 56.5263 173.337 57.3738L181.01 65.0524H170.151C170.151 65.0524 169.896 67.093 169.896 68.1464V68.1592C169.896 69.2138 169.993 70.2486 170.151 71.2532H181.016L173.343 78.926C174.543 80.627 176.023 82.1116 177.72 83.3165L185.399 75.6437V86.5023C186.404 86.6651 187.433 86.757 188.487 86.757H188.512C189.566 86.757 190.595 86.6651 191.6 86.5023V75.6437L199.273 83.3165C200.127 82.7351 200.92 82.0572 201.646 81.3178H201.652C202.392 80.5895 203.065 79.7951 203.662 78.9446L195.989 71.2718H206.848C207.011 70.2719 207.102 69.2487 207.102 68.2011V68.1534C207.102 67.0988 207.011 66.0698 206.848 65.071L206.849 65.0524Z" fill="#F1A62D"/>
</g>
</g>
<g opacity="0.1">
<rect x="247.693" y="27" width="82.3068" height="82.3068" rx="41.1534" fill="white"/>
<g clip-path="url(#clip5_659_5907)">
<path d="M269.506 48.0635L293.837 46.2664C296.826 46.01 297.594 46.1829 299.473 47.5491L307.24 53.0205C308.521 53.9615 308.947 54.2179 308.947 55.2424V85.2503C308.947 87.131 308.264 88.2435 305.874 88.4132L277.619 90.1246C275.825 90.2095 274.971 89.9531 274.031 88.7558L268.311 81.3183C267.286 79.9495 266.86 78.9249 266.86 77.7271V51.0536C266.86 49.5159 267.543 48.2337 269.506 48.0635Z" fill="white"/>
<path fill-rule="evenodd" clip-rule="evenodd" d="M293.837 46.2668L269.506 48.064C267.543 48.2337 266.86 49.5164 266.86 51.0536V77.7271C266.86 78.9245 267.286 79.949 268.311 81.3183L274.031 88.7553C274.971 89.9527 275.825 90.2095 277.619 90.1242L305.874 88.4137C308.263 88.2435 308.948 87.131 308.948 85.2508V55.2429C308.948 54.2711 308.564 53.991 307.434 53.1617L299.473 47.5491C297.594 46.1829 296.826 46.01 293.837 46.2664V46.2668ZM278.258 54.7517C275.951 54.9069 275.427 54.9421 274.117 53.8767L270.786 51.2269C270.447 50.8839 270.617 50.4561 271.47 50.3708L294.86 48.6616C296.825 48.4901 297.848 49.1747 298.616 49.7727L302.627 52.6793C302.799 52.7659 303.225 53.2773 302.712 53.2773L278.557 54.7315L278.258 54.7517ZM275.568 84.9944V59.52C275.568 58.4075 275.91 57.8944 276.933 57.8082L304.676 56.1839C305.617 56.099 306.043 56.697 306.043 57.8078V83.1124C306.043 84.2249 305.871 85.1659 304.335 85.2508L277.786 86.7898C276.25 86.8747 275.569 86.3633 275.569 84.9944H275.568ZM301.776 60.8858C301.946 61.6553 301.776 62.4248 301.006 62.5128L299.726 62.7665V81.5747C298.615 82.1727 297.592 82.5144 296.738 82.5144C295.371 82.5144 295.03 82.0865 294.007 80.8052L285.639 67.6399V80.3773L288.286 80.9767C288.286 80.9767 288.286 82.5157 286.15 82.5157L280.263 82.8574C280.091 82.5144 280.263 81.66 280.859 81.4898L282.397 81.0633V64.222L280.263 64.0492C280.092 63.2797 280.518 62.1685 281.714 62.0823L288.032 61.6571L296.738 74.9925V63.1948L294.519 62.9398C294.347 61.9974 295.03 61.3128 295.883 61.2292L301.776 60.8858Z" fill="black"/>
</g>
</g>
</g>
<defs>
<filter id="filter0_d_659_5907" x="82.2471" y="119.964" width="122.307" height="122.307" filterUnits="userSpaceOnUse" color-interpolation-filters="sRGB">
<feFlood flood-opacity="0" result="BackgroundImageFix"/>
<feColorMatrix in="SourceAlpha" type="matrix" values="0 0 0 0 0 0 0 0 0 0 0 0 0 0 0 0 0 0 127 0" result="hardAlpha"/>
<feMorphology radius="12" operator="erode" in="SourceAlpha" result="effect1_dropShadow_659_5907"/>
<feOffset dy="16"/>
<feGaussianBlur stdDeviation="16"/>
<feComposite in2="hardAlpha" operator="out"/>
<feColorMatrix type="matrix" values="0 0 0 0 0.054902 0 0 0 0 0.0705882 0 0 0 0 0.105882 0 0 0 0.1 0"/>
<feBlend mode="normal" in2="BackgroundImageFix" result="effect1_dropShadow_659_5907"/>
<feBlend mode="normal" in="SourceGraphic" in2="effect1_dropShadow_659_5907" result="shape"/>
</filter>
<filter id="filter1_d_659_5907" x="27" y="23" width="122.307" height="122.307" filterUnits="userSpaceOnUse" color-interpolation-filters="sRGB">
<feFlood flood-opacity="0" result="BackgroundImageFix"/>
<feColorMatrix in="SourceAlpha" type="matrix" values="0 0 0 0 0 0 0 0 0 0 0 0 0 0 0 0 0 0 127 0" result="hardAlpha"/>
<feMorphology radius="12" operator="erode" in="SourceAlpha" result="effect1_dropShadow_659_5907"/>
<feOffset dy="16"/>
<feGaussianBlur stdDeviation="16"/>
<feComposite in2="hardAlpha" operator="out"/>
<feColorMatrix type="matrix" values="0 0 0 0 0.054902 0 0 0 0 0.0705882 0 0 0 0 0.105882 0 0 0 0.1 0"/>
<feBlend mode="normal" in2="BackgroundImageFix" result="effect1_dropShadow_659_5907"/>
<feBlend mode="normal" in="SourceGraphic" in2="effect1_dropShadow_659_5907" result="shape"/>
</filter>
<filter id="filter2_d_659_5907" x="145.347" y="26" width="86.3069" height="86.3066" filterUnits="userSpaceOnUse" color-interpolation-filters="sRGB">
<feFlood flood-opacity="0" result="BackgroundImageFix"/>
<feColorMatrix in="SourceAlpha" type="matrix" values="0 0 0 0 0 0 0 0 0 0 0 0 0 0 0 0 0 0 127 0" result="hardAlpha"/>
<feOffset dy="1"/>
<feGaussianBlur stdDeviation="1"/>
<feComposite in2="hardAlpha" operator="out"/>
<feColorMatrix type="matrix" values="0 0 0 0 0.0392157 0 0 0 0 0.0509804 0 0 0 0 0.0784314 0 0 0 0.03 0"/>
<feBlend mode="normal" in2="BackgroundImageFix" result="effect1_dropShadow_659_5907"/>
<feBlend mode="normal" in="SourceGraphic" in2="effect1_dropShadow_659_5907" result="shape"/>
</filter>
<linearGradient id="paint0_linear_659_5907" x1="1005.34" y1="3703.97" x2="2964.97" y2="309.779" gradientUnits="userSpaceOnUse">
<stop stop-color="#0845BF"/>
<stop offset="0.1911" stop-color="#0950DE"/>
<stop offset="0.3823" stop-color="#0B59F6"/>
<stop offset="0.5" stop-color="#0B5CFF"/>
<stop offset="0.6732" stop-color="#0E5EFE"/>
<stop offset="0.7774" stop-color="#1665FC"/>
<stop offset="0.8633" stop-color="#246FF9"/>
<stop offset="0.9388" stop-color="#387FF4"/>
<stop offset="1" stop-color="#4F90EE"/>
</linearGradient>
<clipPath id="clip0_659_5907">
<rect width="309" height="233" fill="white"/>
</clipPath>
<clipPath id="clip1_659_5907">
<rect width="37.2072" height="37.2072" fill="white" transform="translate(124.797 146.514)"/>
</clipPath>
<clipPath id="clip2_659_5907">
<rect width="37.2072" height="37.2072" fill="white" transform="translate(229.654 146.514)"/>
</clipPath>
<clipPath id="clip3_659_5907">
<rect width="38.2139" height="38.2139" fill="white" transform="translate(69.0464 49.0464)"/>
</clipPath>
<clipPath id="clip4_659_5907">
<rect width="37.2072" height="37.2072" fill="white" transform="translate(169.896 49.5498)"/>
</clipPath>
<clipPath id="clip5_659_5907">
<rect width="43.9721" height="43.9721" fill="white" transform="translate(266.86 46.167)"/>
</clipPath>
</defs>
</svg>
