<svg width="230" height="157" viewBox="0 0 230 157" fill="none" xmlns="http://www.w3.org/2000/svg">
<g filter="url(#filter0_d_4205_65242)">
<path d="M169.981 2.92761H8.96785C5.67433 2.92761 3.00439 5.59754 3.00439 8.89107L3.00439 38.7084C3.00439 42.0019 5.67433 44.6718 8.96785 44.6718H169.981C173.275 44.6718 175.945 42.0019 175.945 38.7084V8.89107C175.945 5.59754 173.275 2.92761 169.981 2.92761Z" fill="white"/>
</g>
<path d="M85.298 12.4688H54.288C52.3119 12.4688 50.71 14.0707 50.71 16.0468C50.71 18.0229 52.3119 19.6249 54.288 19.6249H85.298C87.2741 19.6249 88.8761 18.0229 88.8761 16.0468C88.8761 14.0707 87.2741 12.4688 85.298 12.4688Z" fill="#D0D5DD"/>
<path d="M106.766 27.9733H54.288C52.3119 27.9733 50.71 29.5752 50.71 31.5513C50.71 33.5275 52.3119 35.1294 54.288 35.1294H106.766C108.743 35.1294 110.345 33.5275 110.345 31.5513C110.345 29.5752 108.743 27.9733 106.766 27.9733Z" fill="#EAECF0"/>
<path d="M35.2066 6.50659H12.5455C9.25196 6.50659 6.58203 9.17652 6.58203 12.47L6.58203 35.1312C6.58203 38.4247 9.25196 41.0946 12.5455 41.0946H35.2066C38.5002 41.0946 41.1701 38.4247 41.1701 35.1312L41.1701 12.47C41.1701 9.17652 38.5002 6.50659 35.2066 6.50659Z" fill="#98A2B3"/>
<path d="M21.1569 27.7128H23.5423L23.5686 26.7945C23.5686 25.5875 24.3295 25.2726 25.4053 24.9315C26.4845 24.6245 27.4343 23.9745 28.1113 23.0798C28.7883 22.185 29.1555 21.0942 29.1575 19.9723C29.1811 19.2872 29.0623 18.6048 28.8085 17.9681C28.5548 17.3313 28.1716 16.7542 27.6832 16.2733C27.1948 15.7923 26.612 15.418 25.9714 15.174C25.3309 14.9299 24.6467 14.8215 23.9621 14.8556C23.2387 14.8398 22.5195 14.9712 21.8484 15.2417C21.1772 15.5122 20.5679 15.9162 20.0576 16.4292C19.5472 16.9423 19.1464 17.5536 18.8794 18.2262C18.6124 18.8988 18.4848 19.6186 18.5044 20.342H20.9709C20.9615 19.9426 21.032 19.5453 21.1781 19.1735C21.3243 18.8017 21.5431 18.4627 21.822 18.1766C22.1008 17.8905 22.4339 17.6628 22.8018 17.5071C23.1697 17.3514 23.565 17.2706 23.9645 17.2696C24.3248 17.2487 24.6854 17.3057 25.0217 17.4365C25.358 17.5674 25.6622 17.7691 25.9137 18.028C26.1651 18.2869 26.3578 18.5969 26.4788 18.9369C26.5998 19.2769 26.6461 19.639 26.6147 19.9985C26.5988 20.5804 26.3965 21.1418 26.0374 21.6C25.6784 22.0583 25.1817 22.3891 24.6205 22.5437L23.7546 22.8872C22.9069 23.0915 22.1667 23.6066 21.6808 24.3307C21.1948 25.0548 20.9985 25.9349 21.1307 26.7968L21.1569 27.7128ZM22.3377 33.3829C22.5713 33.3912 22.8042 33.3526 23.0226 33.2693C23.241 33.1861 23.4404 33.0599 23.6092 32.8982C23.778 32.7365 23.9127 32.5426 24.0053 32.328C24.0978 32.1134 24.1464 31.8824 24.1482 31.6487C24.1461 31.4152 24.0973 31.1845 24.0046 30.9701C23.9119 30.7558 23.7771 30.5622 23.6084 30.4008C23.4396 30.2394 23.2402 30.1134 23.022 30.0303C22.8038 29.9472 22.5711 29.9086 22.3377 29.9169C22.1043 29.9086 21.8716 29.9472 21.6534 30.0303C21.4352 30.1134 21.2358 30.2394 21.067 30.4008C20.8983 30.5622 20.7636 30.7558 20.6708 30.9701C20.5781 31.1845 20.5293 31.4152 20.5272 31.6487C20.529 31.8824 20.5776 32.1134 20.6701 32.328C20.7627 32.5426 20.8974 32.7365 21.0662 32.8982C21.235 33.0599 21.4345 33.1861 21.6529 33.2693C21.8713 33.3526 22.1041 33.3912 22.3377 33.3829Z" fill="white"/>
<g filter="url(#filter1_d_4205_65242)">
<path d="M60.2496 54.2124H221.263C222.845 54.2124 224.361 54.8407 225.48 55.9591C226.598 57.0774 227.226 58.5943 227.226 60.1759V89.9931C227.226 91.5748 226.598 93.0916 225.48 94.2099C224.361 95.3283 222.845 95.9566 221.263 95.9566H60.2496C58.668 95.9566 57.1512 95.3283 56.0328 94.2099C54.9144 93.0916 54.2861 91.5748 54.2861 89.9931L54.2861 60.1759C54.2861 58.5943 54.9144 57.0774 56.0328 55.9591C57.1512 54.8407 58.668 54.2124 60.2496 54.2124V54.2124Z" fill="white"/>
</g>
<path d="M136.58 63.7537H105.57C103.594 63.7537 101.992 65.3556 101.992 67.3317C101.992 69.3079 103.594 70.9098 105.57 70.9098H136.58C138.556 70.9098 140.158 69.3079 140.158 67.3317C140.158 65.3556 138.556 63.7537 136.58 63.7537Z" fill="#D0D5DD"/>
<path d="M158.049 79.2582H105.57C103.594 79.2582 101.992 80.8601 101.992 82.8363C101.992 84.8124 103.594 86.4143 105.57 86.4143H158.049C160.025 86.4143 161.627 84.8124 161.627 82.8363C161.627 80.8601 160.025 79.2582 158.049 79.2582Z" fill="#EAECF0"/>
<path d="M86.4879 57.7911H63.8267C60.5332 57.7911 57.8633 60.4611 57.8633 63.7546L57.8633 86.4157C57.8633 89.7093 60.5332 92.3792 63.8267 92.3792H86.4879C89.7814 92.3792 92.4513 89.7093 92.4513 86.4157V63.7546C92.4513 60.4611 89.7814 57.7911 86.4879 57.7911Z" fill="#98A2B3"/>
<path d="M72.4377 78.9974H74.8231L74.8493 78.079C74.8493 76.872 75.6103 76.5571 76.6861 76.216C77.7652 75.909 78.7151 75.259 79.3921 74.3643C80.069 73.4696 80.4363 72.3788 80.4383 71.2568C80.4619 70.5718 80.3431 69.8893 80.0893 69.2526C79.8355 68.6159 79.4523 68.0388 78.964 67.5578C78.4756 67.0769 77.8927 66.7025 77.2522 66.4585C76.6117 66.2145 75.9275 66.1061 75.2429 66.1402C74.5194 66.1244 73.8003 66.2557 73.1291 66.5262C72.4579 66.7967 71.8487 67.2008 71.3383 67.7138C70.828 68.2268 70.4272 68.8382 70.1602 69.5108C69.8932 70.1833 69.7656 70.9032 69.7852 71.6265H72.2516C72.2423 71.2271 72.3127 70.8299 72.4589 70.458C72.605 70.0862 72.8239 69.7473 73.1027 69.4611C73.3815 69.175 73.7147 68.9474 74.0826 68.7916C74.4505 68.6359 74.8458 68.5552 75.2453 68.5542C75.6056 68.5333 75.9661 68.5902 76.3025 68.7211C76.6388 68.8519 76.943 69.0537 77.1944 69.3125C77.4459 69.5714 77.6386 69.8814 77.7596 70.2214C77.8805 70.5615 77.9269 70.9235 77.8955 71.283C77.8796 71.8649 77.6772 72.4264 77.3182 72.8846C76.9592 73.3428 76.4625 73.6736 75.9013 73.8282L75.0354 74.1717C74.1876 74.376 73.4475 74.8912 72.9616 75.6152C72.4756 76.3393 72.2793 77.2194 72.4115 78.0814L72.4377 78.9974ZM73.6185 84.6674C73.852 84.6757 74.0849 84.6371 74.3033 84.5539C74.5217 84.4706 74.7212 84.3444 74.89 84.1827C75.0588 84.0211 75.1934 83.8272 75.286 83.6126C75.3786 83.398 75.4272 83.167 75.429 82.9333C75.4269 82.6997 75.378 82.469 75.2853 82.2547C75.1926 82.0403 75.0579 81.8467 74.8891 81.6853C74.7204 81.5239 74.521 81.3979 74.3028 81.3148C74.0845 81.2317 73.8518 81.1932 73.6185 81.2015C73.3851 81.1932 73.1524 81.2317 72.9342 81.3148C72.7159 81.3979 72.5165 81.5239 72.3478 81.6853C72.179 81.8467 72.0443 82.0403 71.9516 82.2547C71.8589 82.469 71.81 82.6997 71.808 82.9333C71.8097 83.167 71.8583 83.398 71.9509 83.6126C72.0435 83.8272 72.1781 84.0211 72.3469 84.1827C72.5157 84.3444 72.7152 84.4706 72.9336 84.5539C73.152 84.6371 73.3849 84.6757 73.6185 84.6674Z" fill="white"/>
<g filter="url(#filter2_d_4205_65242)">
<path d="M8.96346 105.498H169.977C171.558 105.498 173.075 106.126 174.194 107.245C175.312 108.363 175.94 109.88 175.94 111.462V141.279C175.94 142.861 175.312 144.377 174.194 145.496C173.075 146.614 171.558 147.242 169.977 147.242H8.96346C7.38185 147.242 5.86502 146.614 4.74666 145.496C3.62829 144.377 3 142.861 3 141.279L3 111.462C3 109.88 3.62829 108.363 4.74666 107.245C5.86502 106.126 7.38185 105.498 8.96346 105.498V105.498Z" fill="white"/>
</g>
<path d="M85.2965 115.04H54.2866C52.3105 115.04 50.7085 116.642 50.7085 118.618C50.7085 120.594 52.3105 122.196 54.2866 122.196H85.2965C87.2727 122.196 88.8746 120.594 88.8746 118.618C88.8746 116.642 87.2727 115.04 85.2965 115.04Z" fill="#D0D5DD"/>
<path d="M106.765 130.545H54.2866C52.3105 130.545 50.7085 132.147 50.7085 134.123C50.7085 136.099 52.3105 137.701 54.2866 137.701H106.765C108.741 137.701 110.343 136.099 110.343 134.123C110.343 132.147 108.741 130.545 106.765 130.545Z" fill="#EAECF0"/>
<path d="M35.2057 109.078H12.5445C9.25099 109.078 6.58105 111.748 6.58105 115.041L6.58105 137.702C6.58105 140.996 9.25099 143.666 12.5445 143.666H35.2057C38.4992 143.666 41.1691 140.996 41.1691 137.702L41.1691 115.041C41.1691 111.748 38.4992 109.078 35.2057 109.078Z" fill="#98A2B3"/>
<path d="M21.156 130.284H23.5413L23.5676 129.366C23.5676 128.159 24.3285 127.844 25.4043 127.503C26.4835 127.196 27.4334 126.546 28.1103 125.651C28.7873 124.756 29.1545 123.665 29.1565 122.543C29.1802 121.858 29.0613 121.176 28.8076 120.539C28.5538 119.903 28.1706 119.325 27.6822 118.844C27.1939 118.363 26.611 117.989 25.9705 117.745C25.33 117.501 24.6458 117.393 23.9612 117.427C23.2377 117.411 22.5186 117.542 21.8474 117.813C21.1762 118.083 20.567 118.487 20.0566 119C19.5462 119.513 19.1454 120.125 18.8784 120.797C18.6114 121.47 18.4839 122.19 18.5034 122.913H20.9699C20.9605 122.514 21.031 122.116 21.1771 121.745C21.3233 121.373 21.5422 121.034 21.821 120.748C22.0998 120.462 22.4329 120.234 22.8008 120.078C23.1687 119.923 23.564 119.842 23.9636 119.841C24.3238 119.82 24.6844 119.877 25.0207 120.008C25.3571 120.139 25.6613 120.34 25.9127 120.599C26.1641 120.858 26.3569 121.168 26.4778 121.508C26.5988 121.848 26.6451 122.21 26.6137 122.57C26.5978 123.152 26.3955 123.713 26.0365 124.171C25.6774 124.629 25.1807 124.96 24.6195 125.115L23.7536 125.458C22.9059 125.663 22.1658 126.178 21.6798 126.902C21.1939 127.626 20.9975 128.506 21.1297 129.368L21.156 130.284ZM22.3367 135.954C22.5703 135.962 22.8032 135.924 23.0216 135.84C23.24 135.757 23.4395 135.631 23.6083 135.469C23.777 135.308 23.9117 135.114 24.0043 134.899C24.0969 134.685 24.1455 134.454 24.1472 134.22C24.1451 133.986 24.0963 133.756 24.0036 133.541C23.9109 133.327 23.7762 133.133 23.6074 132.972C23.4387 132.811 23.2393 132.685 23.021 132.601C22.8028 132.518 22.5701 132.48 22.3367 132.488C22.1033 132.48 21.8707 132.518 21.6524 132.601C21.4342 132.685 21.2348 132.811 21.066 132.972C20.8973 133.133 20.7626 133.327 20.6699 133.541C20.5771 133.756 20.5283 133.986 20.5262 134.22C20.528 134.454 20.5766 134.685 20.6692 134.899C20.7617 135.114 20.8964 135.308 21.0652 135.469C21.234 135.631 21.4335 135.757 21.6519 135.84C21.8703 135.924 22.1031 135.962 22.3367 135.954Z" fill="white"/>
<defs>
<filter id="filter0_d_4205_65242" x="0.569556" y="0.492774" width="185.115" height="53.9185" filterUnits="userSpaceOnUse" color-interpolation-filters="sRGB">
<feFlood flood-opacity="0" result="BackgroundImageFix"/>
<feColorMatrix in="SourceAlpha" type="matrix" values="0 0 0 0 0 0 0 0 0 0 0 0 0 0 0 0 0 0 127 0" result="hardAlpha"/>
<feOffset dx="3.65226" dy="3.65226"/>
<feGaussianBlur stdDeviation="3.04355"/>
<feColorMatrix type="matrix" values="0 0 0 0 0.230539 0 0 0 0 0.370572 0 0 0 0 0.482993 0 0 0 0.1 0"/>
<feBlend mode="normal" in2="BackgroundImageFix" result="effect1_dropShadow_4205_65242"/>
<feBlend mode="normal" in="SourceGraphic" in2="effect1_dropShadow_4205_65242" result="shape"/>
</filter>
<filter id="filter1_d_4205_65242" x="51.8513" y="51.7776" width="185.115" height="53.9185" filterUnits="userSpaceOnUse" color-interpolation-filters="sRGB">
<feFlood flood-opacity="0" result="BackgroundImageFix"/>
<feColorMatrix in="SourceAlpha" type="matrix" values="0 0 0 0 0 0 0 0 0 0 0 0 0 0 0 0 0 0 127 0" result="hardAlpha"/>
<feOffset dx="3.65226" dy="3.65226"/>
<feGaussianBlur stdDeviation="3.04355"/>
<feColorMatrix type="matrix" values="0 0 0 0 0.230539 0 0 0 0 0.370572 0 0 0 0 0.482993 0 0 0 0.1 0"/>
<feBlend mode="normal" in2="BackgroundImageFix" result="effect1_dropShadow_4205_65242"/>
<feBlend mode="normal" in="SourceGraphic" in2="effect1_dropShadow_4205_65242" result="shape"/>
</filter>
<filter id="filter2_d_4205_65242" x="0.565162" y="103.063" width="185.115" height="53.9185" filterUnits="userSpaceOnUse" color-interpolation-filters="sRGB">
<feFlood flood-opacity="0" result="BackgroundImageFix"/>
<feColorMatrix in="SourceAlpha" type="matrix" values="0 0 0 0 0 0 0 0 0 0 0 0 0 0 0 0 0 0 127 0" result="hardAlpha"/>
<feOffset dx="3.65226" dy="3.65226"/>
<feGaussianBlur stdDeviation="3.04355"/>
<feColorMatrix type="matrix" values="0 0 0 0 0.230539 0 0 0 0 0.370572 0 0 0 0 0.482993 0 0 0 0.1 0"/>
<feBlend mode="normal" in2="BackgroundImageFix" result="effect1_dropShadow_4205_65242"/>
<feBlend mode="normal" in="SourceGraphic" in2="effect1_dropShadow_4205_65242" result="shape"/>
</filter>
</defs>
</svg>
