<svg width="750" height="615" viewBox="0 0 750 615" fill="none" xmlns="http://www.w3.org/2000/svg">
<g id="No Internet">
<g id="circle">
<path id="Stroke 1" d="M27.2402 282.548V288.881" stroke="#9ED6FC" stroke-width="2.921" stroke-linecap="round"/>
<g id="Group 8">
<path id="Stroke 2" d="M13.0195 285.979L18.1946 291.306" stroke="#9ED6FC" stroke-width="2.921" stroke-linecap="round"/>
<path id="Stroke 4" d="M6.9668 300.161H14.2843" stroke="#9ED6FC" stroke-width="2.921" stroke-linecap="round"/>
<path id="Stroke 6" d="M12.4277 314.596L17.6028 309.268" stroke="#9ED6FC" stroke-width="2.921" stroke-linecap="round"/>
</g>
<path id="Stroke 9" d="M27.2402 316.323V309.99" stroke="#9ED6FC" stroke-width="2.921" stroke-linecap="round"/>
<path id="Stroke 10" d="M37.7934 312.102L33.5713 307.88" stroke="#9ED6FC" stroke-width="2.921" stroke-linecap="round"/>
<path id="Stroke 11" d="M46.2384 301.545H39.9053" stroke="#9ED6FC" stroke-width="2.921" stroke-linecap="round"/>
<path id="Stroke 12" d="M42.018 286.768L37.7959 290.991" stroke="#9ED6FC" stroke-width="2.921" stroke-linecap="round"/>
<path id="Stroke 13" d="M367.113 5.99954V10.2216" stroke="#9ED6FC" stroke-width="2.921" stroke-linecap="round"/>
<path id="Stroke 15" d="M354.454 18.667H358.676" stroke="#9ED6FC" stroke-width="2.921" stroke-linecap="round"/>
<path id="Stroke 16" d="M367.116 31.3336V27.1115" stroke="#9ED6FC" stroke-width="2.921" stroke-linecap="round"/>
<path id="Stroke 17" d="M377.674 18.6666H373.452" stroke="#9ED6FC" stroke-width="2.921" stroke-linecap="round"/>
<path id="Stroke 18" d="M122.24 183.328V189.661" stroke="#9ED6FC" stroke-width="2.921" stroke-linecap="round"/>
<path id="Stroke 19" d="M103.242 202.327H109.575" stroke="#9ED6FC" stroke-width="2.921" stroke-linecap="round"/>
<path id="Stroke 20" d="M122.237 219.216V212.882" stroke="#9ED6FC" stroke-width="2.921" stroke-linecap="round"/>
<path id="Stroke 21" d="M139.13 202.328H132.797" stroke="#9ED6FC" stroke-width="2.921" stroke-linecap="round"/>
<g id="Group 42">
<path id="Stroke 22" d="M576.646 413.516C581.691 413.516 585.783 417.608 585.783 422.655C585.783 427.703 581.691 431.794 576.646 431.794C571.601 431.794 567.51 427.703 567.51 422.655" stroke="#9ED6FC" stroke-width="2.921" stroke-linecap="round"/>
<path id="Stroke 24" d="M618.35 533.652C619.479 541.533 614.009 548.836 606.132 549.965C598.254 551.093 590.952 545.622 589.823 537.743C588.694 529.864 594.164 522.561 602.041 521.432" stroke="#9ED6FC" stroke-width="2.921" stroke-linecap="round"/>
<path id="Fill 26" fill-rule="evenodd" clip-rule="evenodd" d="M618.458 330.602C623.883 328.91 632.199 322.275 634.124 315.137C635.87 321.447 643.187 328.91 649.789 329.474C642.357 332.106 635.251 339.924 634.124 346.065C633.357 339.805 623.529 331.514 618.458 330.602Z" fill="url(#paint0_linear_4205_65291)"/>
<path id="Fill 28" fill-rule="evenodd" clip-rule="evenodd" d="M61.5923 410.7C64.3056 409.853 68.4617 406.537 69.4241 402.968C70.2969 406.121 73.9548 409.853 77.256 410.137C73.5408 411.451 69.9887 415.36 69.4241 418.431C69.0406 415.301 64.1264 411.155 61.5923 410.7Z" fill="#C2F5DA"/>
<path id="Fill 30" fill-rule="evenodd" clip-rule="evenodd" d="M111.943 117.036C111.943 120.951 108.771 124.123 104.858 124.123C100.944 124.123 97.7739 120.951 97.7739 117.036C97.7739 113.123 100.944 109.95 104.858 109.95C108.771 109.95 111.943 113.123 111.943 117.036Z" fill="url(#paint1_linear_4205_65291)"/>
<path id="Fill 32" fill-rule="evenodd" clip-rule="evenodd" d="M530.31 561.96C530.31 568.502 525.007 573.804 518.469 573.804C511.928 573.804 506.626 568.502 506.626 561.96C506.626 555.419 511.928 550.116 518.469 550.116C525.007 550.116 530.31 555.419 530.31 561.96Z" fill="url(#paint2_linear_4205_65291)"/>
<path id="Fill 34" fill-rule="evenodd" clip-rule="evenodd" d="M749.033 103.975C749.033 109.165 744.829 113.371 739.642 113.371C734.454 113.371 730.25 109.165 730.25 103.975C730.25 98.7858 734.454 94.5802 739.642 94.5802C744.829 94.5802 749.033 98.7858 749.033 103.975Z" fill="#C2F5DA"/>
<path id="Stroke 36" fill-rule="evenodd" clip-rule="evenodd" d="M244.345 542.769C244.345 546.041 241.695 548.692 238.424 548.692C235.155 548.692 232.504 546.041 232.504 542.769C232.504 539.498 235.155 536.846 238.424 536.846C241.695 536.846 244.345 539.498 244.345 542.769Z" stroke="#9ED6FC" stroke-width="2.921" stroke-linecap="round"/>
<path id="Stroke 38" fill-rule="evenodd" clip-rule="evenodd" d="M240.829 71.511C240.829 75.4261 237.656 78.5973 233.744 78.5973C229.832 78.5973 226.66 75.4261 226.66 71.511C226.66 67.5976 229.832 64.4247 233.744 64.4247C237.656 64.4247 240.829 67.5976 240.829 71.511Z" stroke="#9ED6FC" stroke-width="2.921" stroke-linecap="round"/>
<path id="Stroke 40" fill-rule="evenodd" clip-rule="evenodd" d="M421.537 608.357C417.009 610.08 411.943 607.805 410.221 603.279C408.498 598.75 410.771 593.681 415.3 591.96C419.825 590.237 424.891 592.51 426.614 597.038C428.338 601.567 426.064 606.634 421.537 608.357Z" stroke="#9ED6FC" stroke-width="2.921" stroke-linecap="round"/>
</g>
</g>
<path id="Fill 1" fill-rule="evenodd" clip-rule="evenodd" d="M297.448 461.889H337.938L316.728 529.372L411.208 433.932H354.326L386.141 294.142L297.448 461.889Z" fill="url(#paint3_linear_4205_65291)"/>
<g id="Group 6">
<path id="Fill 2" fill-rule="evenodd" clip-rule="evenodd" d="M539.658 251.724C529.675 244.631 518.02 239.741 505.389 237.791C498.48 177.43 447.239 130.552 385.029 130.552C346.261 130.552 311.754 148.766 289.572 177.103C281.788 174.496 273.479 173.073 264.816 173.073C225.039 173.073 192.238 202.889 187.503 241.388C154.586 251.593 130.685 282.281 130.685 318.544C130.685 363.024 166.636 399.095 211.073 399.304C213.361 399.612 215.688 399.792 218.06 399.792H482.187C487.063 400.706 492.066 401.204 497.207 401.204C541.821 401.204 577.975 365.044 577.975 320.436C577.975 291.401 562.651 265.956 539.658 251.724Z" fill="white"/>
<path id="Vector 269" d="M402.375 238.708C394.682 232.939 391.625 223.778 391.625 219C398.791 230.467 418.5 241.694 427.458 245.875C420.291 247.667 409.541 244.083 402.375 238.708Z" fill="url(#paint4_linear_4205_65291)"/>
<path id="Vector 270" d="M305.625 238.708C313.318 232.939 316.375 223.778 316.375 219C309.209 230.467 289.5 241.694 280.542 245.875C287.709 247.667 298.459 244.083 305.625 238.708Z" fill="url(#paint5_linear_4205_65291)"/>
<path id="Vector 271" d="M348.266 333.925L344.796 335.082C343.047 335.665 341.131 335.457 339.548 334.512C336.702 332.814 335.804 329.151 338.634 327.425C341.849 325.466 346.653 324 352.792 324C358.96 324 364.097 325.827 367.416 328.067C370.22 329.959 368.997 333.487 365.925 334.902C364.394 335.607 362.652 335.703 361.052 335.17L357.317 333.925C354.38 332.946 351.204 332.946 348.266 333.925Z" fill="url(#paint6_linear_4205_65291)"/>
<g id="Group 26817">
<ellipse id="Ellipse 147" cx="394.525" cy="281.215" rx="29.9366" ry="29.9213" transform="rotate(-33.2931 394.525 281.215)" fill="#E6E5E6"/>
<ellipse id="Ellipse 148" cx="394.905" cy="280.08" rx="28.8929" ry="28.8781" transform="rotate(-33.2931 394.905 280.08)" fill="black"/>
<ellipse id="Ellipse 145" cx="401.394" cy="289.597" rx="7.16667" ry="5.375" transform="rotate(-19.3326 401.394 289.597)" fill="white"/>
<ellipse id="Ellipse 146" cx="387.702" cy="268.524" rx="17.7201" ry="12.2111" transform="rotate(-33.2931 387.702 268.524)" fill="white"/>
</g>
<g id="Group 26818">
<ellipse id="Ellipse 147_2" cx="319.276" cy="281.215" rx="29.9366" ry="29.9213" transform="rotate(-33.2931 319.276 281.215)" fill="#E6E5E6"/>
<ellipse id="Ellipse 148_2" cx="319.655" cy="280.08" rx="28.8929" ry="28.8781" transform="rotate(-33.2931 319.655 280.08)" fill="black"/>
<ellipse id="Ellipse 145_2" cx="326.145" cy="289.597" rx="7.16667" ry="5.375" transform="rotate(-19.3326 326.145 289.597)" fill="white"/>
<ellipse id="Ellipse 146_2" cx="312.452" cy="268.524" rx="17.7201" ry="12.2111" transform="rotate(-33.2931 312.452 268.524)" fill="white"/>
</g>
</g>
</g>
<defs>
<linearGradient id="paint0_linear_4205_65291" x1="634.124" y1="315.137" x2="634.124" y2="346.065" gradientUnits="userSpaceOnUse">
<stop stop-color="#E5F4FE"/>
<stop offset="1" stop-color="#7FC9FA"/>
</linearGradient>
<linearGradient id="paint1_linear_4205_65291" x1="104.858" y1="109.95" x2="104.858" y2="124.123" gradientUnits="userSpaceOnUse">
<stop stop-color="#E5F4FE"/>
<stop offset="1" stop-color="#7FC9FA"/>
</linearGradient>
<linearGradient id="paint2_linear_4205_65291" x1="518.468" y1="550.116" x2="518.468" y2="573.804" gradientUnits="userSpaceOnUse">
<stop stop-color="#E5F4FE"/>
<stop offset="1" stop-color="#7FC9FA"/>
</linearGradient>
<linearGradient id="paint3_linear_4205_65291" x1="354.328" y1="294.142" x2="354.328" y2="529.372" gradientUnits="userSpaceOnUse">
<stop stop-color="#E5F4FE"/>
<stop offset="1" stop-color="#7FC9FA"/>
</linearGradient>
<linearGradient id="paint4_linear_4205_65291" x1="409.541" y1="219" x2="409.541" y2="246.341" gradientUnits="userSpaceOnUse">
<stop stop-color="#E5F4FE"/>
<stop offset="1" stop-color="#7FC9FA"/>
</linearGradient>
<linearGradient id="paint5_linear_4205_65291" x1="298.459" y1="219" x2="298.459" y2="246.341" gradientUnits="userSpaceOnUse">
<stop stop-color="#E5F4FE"/>
<stop offset="1" stop-color="#7FC9FA"/>
</linearGradient>
<linearGradient id="paint6_linear_4205_65291" x1="351.896" y1="321.667" x2="351.896" y2="336" gradientUnits="userSpaceOnUse">
<stop stop-color="#E5F4FE"/>
<stop offset="1" stop-color="#7FC9FA"/>
</linearGradient>
</defs>
</svg>
