<svg width="281" height="281" viewBox="0 0 281 281" fill="none" xmlns="http://www.w3.org/2000/svg">
<g clip-path="url(#clip0_76_2581)">
<g opacity="0.3">
<g clip-path="url(#clip1_76_2581)">
<path d="M45.4619 277.053C42.8879 274.48 42.8869 271.9 45.4569 269.329C42.8869 271.9 40.3069 271.898 37.7339 269.325C40.3069 271.898 40.3089 274.478 37.7379 277.049C40.3089 274.478 42.8879 274.48 45.4619 277.053ZM38.5059 270.098C40.5699 272.161 42.6239 272.162 44.6859 270.101C42.6239 272.162 42.6259 274.217 44.6889 276.28C42.6259 274.217 40.5709 274.216 38.5099 276.277C40.5709 274.216 40.5699 272.161 38.5059 270.098Z" fill="#375DFB"/>
<path d="M84.06 238.455C81.487 235.881 81.485 233.301 84.056 230.73C81.485 233.301 78.906 233.3 76.332 230.726C78.906 233.3 78.907 235.88 76.336 238.45C78.907 235.88 81.487 235.881 84.06 238.455ZM77.105 231.499C79.168 233.563 81.223 233.564 83.284 231.502C81.223 233.564 81.224 235.618 83.288 237.682C81.224 235.618 79.17 235.617 77.108 237.678C79.17 235.617 79.168 233.563 77.105 231.499Z" fill="#375DFB"/>
<path d="M123.475 277.869C120.383 274.777 120.381 271.688 123.469 268.6C120.381 271.688 117.292 271.686 114.201 268.595C117.292 271.686 117.294 274.776 114.206 277.864C117.294 274.776 120.383 274.777 123.475 277.869ZM115.128 269.522C117.601 271.995 120.073 271.997 122.543 269.526C120.073 271.997 120.074 274.468 122.547 276.941C120.074 274.468 117.602 274.467 115.132 276.937C117.602 274.467 117.601 271.995 115.128 269.522Z" fill="#375DFB"/>
<path d="M122.659 199.856C120.085 197.282 120.084 194.703 122.655 192.132C120.084 194.703 117.504 194.701 114.931 192.128C117.504 194.701 117.506 197.281 114.935 199.852C117.506 197.281 120.085 197.282 122.659 199.856ZM115.703 192.901C117.767 194.964 119.821 194.965 121.883 192.904C119.821 194.965 119.823 197.02 121.886 199.083C119.823 197.02 117.768 197.019 115.707 199.08C117.768 197.019 117.767 194.964 115.703 192.901Z" fill="#375DFB"/>
<path d="M162.073 239.27C158.982 236.179 158.98 233.089 162.068 230.001C158.98 233.089 155.89 233.088 152.799 229.996C155.89 233.088 155.892 236.177 152.804 239.265C155.892 236.177 158.982 236.179 162.073 239.27ZM153.727 230.924C156.2 233.397 158.671 233.398 161.142 230.928C158.671 233.398 158.673 235.87 161.146 238.343C158.673 235.87 156.201 235.868 153.731 238.339C156.201 235.868 156.2 233.397 153.727 230.924Z" fill="#375DFB"/>
<path d="M201.487 278.684C197.878 275.075 197.876 271.476 201.481 267.871C197.876 271.476 194.277 271.474 190.668 267.865C194.277 271.474 194.279 275.073 190.674 278.678C194.279 275.073 197.878 275.075 201.487 278.684ZM191.75 268.947C194.632 271.829 197.521 271.831 200.4 268.952C197.521 271.831 197.523 274.72 200.405 277.602C197.523 274.72 194.634 274.718 191.754 277.598C194.634 274.718 194.632 271.829 191.75 268.947Z" fill="#375DFB"/>
<path d="M161.257 161.257C158.684 158.684 158.683 156.104 161.253 153.533C158.683 156.104 156.103 156.103 153.529 153.529C156.103 156.103 156.104 158.683 153.533 161.253C156.104 158.683 158.684 158.684 161.257 161.257ZM154.302 154.302C156.365 156.365 158.42 156.367 160.481 154.305C158.42 156.367 158.421 158.421 160.485 160.485C158.421 158.421 156.367 158.42 154.305 160.481C156.367 158.42 156.365 156.365 154.302 154.302Z" fill="#375DFB"/>
<path d="M200.672 200.672C197.58 197.58 197.579 194.491 200.666 191.403C197.579 194.491 194.489 194.489 191.398 191.398C194.489 194.489 194.491 197.579 191.403 200.666C194.491 197.579 197.58 197.58 200.672 200.672ZM192.325 192.325C194.798 194.798 197.27 194.8 199.74 192.329C197.27 194.8 197.271 197.271 199.744 199.744C197.271 197.271 194.799 197.27 192.329 199.74C194.799 197.27 194.798 194.798 192.325 192.325Z" fill="#375DFB"/>
<path d="M240.086 240.086C236.477 236.477 236.475 232.877 240.08 229.272C236.475 232.877 232.875 232.875 229.266 229.266C232.875 232.875 232.877 236.475 229.272 240.08C232.877 236.475 236.477 236.477 240.086 240.086ZM230.348 230.348C233.231 233.231 236.12 233.232 238.999 230.353C236.12 233.232 236.121 236.121 239.004 239.004C236.121 236.121 233.232 236.12 230.353 238.999C233.232 236.12 233.231 233.231 230.348 230.348Z" fill="#375DFB"/>
<path d="M279.5 279.5C275.381 275.381 275.379 271.256 279.493 267.142C275.379 271.256 271.254 271.254 267.135 267.135C271.254 271.254 271.256 275.379 267.142 279.493C271.256 275.379 275.381 275.381 279.5 279.5ZM268.371 268.371C271.671 271.671 274.962 271.673 278.258 268.377C274.962 271.673 274.963 274.964 278.263 278.263C274.963 274.964 271.673 274.962 268.377 278.258C271.673 274.962 271.671 271.671 268.371 268.371Z" fill="#375DFB"/>
<path d="M199.856 122.659C197.282 120.085 197.281 117.506 199.852 114.935C197.281 117.506 194.701 117.504 192.128 114.931C194.701 117.504 194.703 120.084 192.132 122.655C194.703 120.084 197.282 120.085 199.856 122.659ZM192.9 115.703C194.964 117.767 197.019 117.768 199.08 115.707C197.019 117.768 197.02 119.823 199.083 121.886C197.02 119.823 194.965 119.822 192.904 121.883C194.965 119.822 194.964 117.767 192.9 115.703Z" fill="#375DFB"/>
<path d="M239.27 162.073C236.179 158.982 236.177 155.892 239.265 152.804C236.177 155.892 233.087 155.89 229.996 152.799C233.087 155.89 233.089 158.98 230.001 162.068C233.089 158.98 236.179 158.982 239.27 162.073ZM230.924 153.727C233.397 156.2 235.868 156.201 238.339 153.731C235.868 156.201 235.87 158.673 238.343 161.146C235.87 158.673 233.398 158.671 230.928 161.142C233.398 158.671 233.397 156.2 230.924 153.727Z" fill="#375DFB"/>
<path d="M278.684 201.487C275.075 197.878 275.073 194.279 278.678 190.674C275.073 194.279 271.474 194.277 267.865 190.668C271.474 194.277 271.476 197.876 267.871 201.481C271.476 197.876 275.075 197.878 278.684 201.487ZM268.947 191.75C271.829 194.632 274.718 194.634 277.598 191.755C274.718 194.634 274.72 197.523 277.602 200.405C274.72 197.523 271.831 197.521 268.951 200.401C271.831 197.521 271.829 194.632 268.947 191.75Z" fill="#375DFB"/>
<path d="M238.454 84.06C235.881 81.487 235.879 78.907 238.45 76.336C235.879 78.907 233.3 78.906 230.726 76.332C233.3 78.906 233.301 81.485 230.73 84.056C233.301 81.485 235.881 81.487 238.454 84.06ZM231.499 77.105C233.562 79.168 235.617 79.17 237.678 77.108C235.617 79.17 235.618 81.224 237.682 83.288C235.618 81.224 233.564 81.223 231.502 83.284C233.564 81.223 233.562 79.168 231.499 77.105Z" fill="#375DFB"/>
<path d="M277.869 123.475C274.777 120.383 274.776 117.294 277.864 114.206C274.776 117.294 271.686 117.292 268.595 114.201C271.686 117.292 271.688 120.382 268.6 123.469C271.688 120.382 274.777 120.383 277.869 123.475ZM269.522 115.128C271.995 117.601 274.467 117.602 276.937 115.132C274.467 117.602 274.468 120.074 276.941 122.547C274.468 120.074 271.997 120.073 269.526 122.543C271.997 120.073 271.995 117.601 269.522 115.128Z" fill="#375DFB"/>
<path d="M277.053 45.4619C274.48 42.8879 274.478 40.3079 277.049 37.7379C274.478 40.3079 271.898 40.3069 269.325 37.7339C271.898 40.3069 271.9 42.8869 269.329 45.4579C271.9 42.8869 274.48 42.8879 277.053 45.4619ZM270.098 38.5059C272.161 40.5699 274.216 40.5709 276.277 38.5099C274.216 40.5709 274.217 42.6259 276.28 44.6889C274.217 42.6259 272.162 42.6239 270.101 44.6859C272.162 42.6239 272.161 40.5699 270.098 38.5059Z" fill="#375DFB"/>
<path d="M6.455 276.645C4.137 274.327 4.136 272.01 6.452 269.694C4.136 272.01 1.818 272.008 -0.5 269.69C1.818 272.008 1.82 274.325 -0.496 276.641C1.82 274.325 4.137 274.327 6.455 276.645ZM0.196 270.385C2.05 272.24 3.904 272.241 5.757 270.388C3.904 272.241 3.905 274.095 5.76 275.95C3.905 274.095 2.051 274.094 0.199 275.947C2.051 274.094 2.05 272.24 0.196 270.385Z" fill="#375DFB"/>
<path d="M45.0541 238.047C42.7361 235.728 42.7341 233.411 45.0501 231.095C42.7341 233.411 40.4171 233.41 38.0991 231.091C40.4171 233.41 40.4181 235.727 38.1021 238.043C40.4181 235.727 42.7361 235.728 45.0541 238.047ZM38.7941 231.787C40.6491 233.642 42.5031 233.643 44.3551 231.79C42.5031 233.643 42.5041 235.496 44.3581 237.351C42.5041 235.496 40.6501 235.495 38.7971 237.348C40.6501 235.495 40.6491 233.642 38.7941 231.787Z" fill="#375DFB"/>
<path d="M84.468 277.461C81.632 274.625 81.63 271.798 84.463 268.964C81.63 271.798 78.803 271.796 75.967 268.96C78.803 271.796 78.805 274.623 75.972 277.456C78.805 274.623 81.632 274.625 84.468 277.461ZM76.817 269.81C79.082 272.074 81.352 272.076 83.614 269.814C81.352 272.076 81.354 274.346 83.618 276.611C81.354 274.346 79.083 274.345 76.821 276.607C79.083 274.345 79.082 272.074 76.817 269.81Z" fill="#375DFB"/>
<path d="M83.653 199.448C81.334 197.13 81.333 194.813 83.649 192.497C81.333 194.813 79.016 194.811 76.697 192.493C79.016 194.811 79.017 197.128 76.701 199.444C79.017 197.128 81.334 197.13 83.653 199.448ZM77.393 193.188C79.247 195.043 81.101 195.044 82.954 193.191C81.101 195.044 81.102 196.898 82.957 198.753C81.102 196.898 79.248 196.897 77.396 198.75C79.248 196.897 79.247 195.043 77.393 193.188Z" fill="#375DFB"/>
<path d="M123.067 238.862C120.23 236.026 120.229 233.199 123.062 230.366C120.229 233.199 117.402 233.198 114.566 230.361C117.402 233.198 117.403 236.024 114.57 238.858C117.403 236.024 120.23 236.026 123.067 238.862ZM115.416 231.211C117.68 233.476 119.951 233.477 122.213 231.215C119.951 233.477 119.952 235.748 122.217 238.012C119.952 235.748 117.681 235.747 115.419 238.008C117.681 235.747 117.68 233.476 115.416 231.211Z" fill="#375DFB"/>
<path d="M162.481 278.277C159.135 274.93 159.133 271.578 162.475 268.235C159.133 271.578 155.78 271.576 152.434 268.23C155.78 271.576 155.782 274.928 152.44 278.271C155.782 274.928 159.135 274.93 162.481 278.277ZM153.439 269.235C156.121 271.916 158.793 271.918 161.472 269.239C158.793 271.918 158.794 274.59 161.476 277.272C158.794 274.59 156.122 274.589 153.443 277.267C156.122 274.589 156.121 271.916 153.439 269.235Z" fill="#375DFB"/>
<path d="M122.251 160.85C119.933 158.531 119.931 156.214 122.247 153.898C119.931 156.214 117.614 156.213 115.296 153.894C117.614 156.213 117.615 158.53 115.299 160.846C117.615 158.53 119.933 158.531 122.251 160.85ZM115.991 154.59C117.846 156.444 119.7 156.446 121.552 154.593C119.7 156.446 119.701 158.299 121.556 160.154C119.701 158.299 117.847 158.298 115.994 160.151C117.847 158.298 117.846 156.444 115.991 154.59Z" fill="#375DFB"/>
<path d="M161.665 200.264C158.829 197.428 158.827 194.601 161.661 191.767C158.827 194.601 156 194.599 153.164 191.763C156 194.599 156.002 197.426 153.169 200.259C156.002 197.426 158.829 197.428 161.665 200.264ZM154.014 192.613C156.279 194.877 158.549 194.879 160.811 192.617C158.549 194.879 158.551 197.149 160.815 199.414C158.551 197.149 156.28 197.148 154.018 199.41C156.28 197.148 156.279 194.877 154.014 192.613Z" fill="#375DFB"/>
<path d="M201.079 239.678C197.733 236.332 197.731 232.979 201.074 229.637C197.731 232.979 194.379 232.978 191.033 229.631C194.379 232.978 194.381 236.33 191.038 239.672C194.381 236.33 197.733 236.332 201.079 239.678ZM192.037 230.636C194.719 233.318 197.392 233.319 200.07 230.64C197.392 233.319 197.393 235.992 200.075 238.673C197.393 235.992 194.721 235.99 192.042 238.669C194.721 235.99 194.719 233.318 192.037 230.636Z" fill="#375DFB"/>
<path d="M240.494 279.092C236.629 275.228 236.627 271.366 240.487 267.506C236.627 271.366 232.765 271.364 228.901 267.5C232.765 271.364 232.767 275.226 228.908 279.086C232.767 275.226 236.629 275.228 240.494 279.092ZM230.06 268.659C233.152 271.75 236.241 271.752 239.329 268.664C236.241 271.752 236.243 274.842 239.334 277.933C236.243 274.842 233.153 274.84 230.066 277.928C233.153 274.84 233.152 271.75 230.06 268.659Z" fill="#375DFB"/>
<path d="M160.85 122.251C158.531 119.933 158.53 117.615 160.846 115.299C158.53 117.615 156.213 117.614 153.894 115.296C156.213 117.614 156.214 119.931 153.898 122.247C156.214 119.931 158.531 119.933 160.85 122.251ZM154.59 115.991C156.444 117.846 158.298 117.847 160.151 115.994C158.298 117.847 158.299 119.701 160.154 121.556C158.299 119.701 156.445 119.7 154.593 121.552C156.445 119.7 156.444 117.846 154.59 115.991Z" fill="#375DFB"/>
<path d="M200.264 161.665C197.428 158.829 197.426 156.002 200.259 153.169C197.426 156.002 194.599 156 191.763 153.164C194.599 156 194.601 158.827 191.767 161.661C194.601 158.827 197.428 158.829 200.264 161.665ZM192.613 154.014C194.877 156.279 197.148 156.28 199.41 154.018C197.148 156.28 197.149 158.551 199.414 160.815C197.149 158.551 194.878 158.55 192.617 160.811C194.878 158.55 194.877 156.279 192.613 154.014Z" fill="#375DFB"/>
<path d="M239.678 201.079C236.332 197.733 236.33 194.381 239.672 191.038C236.33 194.381 232.978 194.379 229.631 191.033C232.978 194.379 232.979 197.731 229.637 201.074C232.979 197.731 236.332 197.733 239.678 201.079ZM230.636 192.037C233.318 194.719 235.99 194.721 238.669 192.042C235.99 194.721 235.992 197.393 238.673 200.075C235.992 197.393 233.319 197.392 230.64 200.07C233.319 197.392 233.318 194.719 230.636 192.037Z" fill="#375DFB"/>
<path d="M279.092 240.494C275.228 236.63 275.226 232.768 279.086 228.908C275.226 232.768 271.364 232.765 267.5 228.901C271.364 232.765 271.366 236.627 267.506 240.487C271.366 236.627 275.228 236.63 279.092 240.494ZM268.659 230.061C271.75 233.152 274.84 233.154 277.928 230.066C274.84 233.154 274.842 236.243 277.933 239.334C274.842 236.243 271.752 236.241 268.664 239.329C271.752 236.241 271.75 233.152 268.659 230.061Z" fill="#375DFB"/>
<path d="M199.448 83.653C197.13 81.334 197.128 79.017 199.444 76.701C197.128 79.017 194.811 79.016 192.493 76.697C194.811 79.016 194.812 81.333 192.497 83.649C194.812 81.333 197.13 81.334 199.448 83.653ZM193.188 77.393C195.043 79.247 196.897 79.248 198.749 77.396C196.897 79.248 196.898 81.102 198.753 82.957C196.898 81.102 195.044 81.101 193.191 82.954C195.044 81.101 195.043 79.247 193.188 77.393Z" fill="#375DFB"/>
<path d="M238.862 123.067C236.026 120.231 236.024 117.403 238.858 114.57C236.024 117.403 233.197 117.402 230.361 114.566C233.197 117.402 233.199 120.229 230.366 123.062C233.199 120.229 236.026 120.231 238.862 123.067ZM231.211 115.416C233.476 117.68 235.747 117.681 238.008 115.42C235.747 117.681 235.748 119.952 238.012 122.217C235.748 119.952 233.477 119.951 231.215 122.213C233.477 119.951 233.476 117.68 231.211 115.416Z" fill="#375DFB"/>
<path d="M278.276 162.481C274.93 159.135 274.928 155.782 278.271 152.44C274.928 155.782 271.576 155.781 268.23 152.434C271.576 155.781 271.578 159.133 268.235 162.475C271.578 159.133 274.93 159.135 278.276 162.481ZM269.234 153.439C271.916 156.121 274.589 156.122 277.267 153.443C274.589 156.122 274.59 158.795 277.272 161.476C274.59 158.795 271.918 158.793 269.239 161.472C271.918 158.793 271.916 156.121 269.234 153.439Z" fill="#375DFB"/>
<path d="M238.047 45.0541C235.728 42.7351 235.727 40.4181 238.043 38.1021C235.727 40.4181 233.41 40.4171 231.091 38.0991C233.41 40.4171 233.411 42.7341 231.095 45.0501C233.411 42.7341 235.728 42.7351 238.047 45.0541ZM231.787 38.7941C233.642 40.6491 235.495 40.6501 237.348 38.7971C235.495 40.6501 235.496 42.5041 237.351 44.3581C235.496 42.5041 233.643 42.5031 231.79 44.3551C233.643 42.5031 233.642 40.6491 231.787 38.7941Z" fill="#375DFB"/>
<path d="M277.461 84.468C274.625 81.632 274.623 78.805 277.456 75.972C274.623 78.805 271.796 78.803 268.96 75.967C271.796 78.803 271.798 81.63 268.964 84.464C271.798 81.63 274.625 81.632 277.461 84.468ZM269.81 76.817C272.074 79.082 274.345 79.083 276.607 76.821C274.345 79.083 274.346 81.354 276.611 83.618C274.346 81.354 272.075 81.352 269.814 83.614C272.075 81.352 272.074 79.082 269.81 76.817Z" fill="#375DFB"/>
<path d="M276.645 6.455C274.327 4.137 274.325 1.82 276.641 -0.496C274.325 1.82 272.008 1.818 269.69 -0.5C272.008 1.818 272.01 4.136 269.694 6.452C272.01 4.136 274.327 4.137 276.645 6.455ZM270.385 0.196C272.24 2.05 274.094 2.051 275.947 0.199C274.094 2.051 274.095 3.905 275.95 5.76C274.095 3.905 272.241 3.904 270.388 5.757C272.241 3.904 272.24 2.05 270.385 0.196Z" fill="#375DFB"/>
</g>
</g>
</g>
<defs>
<clipPath id="clip0_76_2581">
<rect width="281" height="281" fill="white"/>
</clipPath>
<clipPath id="clip1_76_2581">
<rect width="281" height="281" fill="white" transform="translate(-0.5 -0.5)"/>
</clipPath>
</defs>
</svg>
