<svg width="186" height="46" viewBox="0 0 186 46" fill="none" xmlns="http://www.w3.org/2000/svg">
<g clip-path="url(#clip0_1845_58453)">
<path d="M4.53613 13.401V23.2223C6.23793 17.3259 11.6352 13.2651 17.7723 13.2651H34.7448C38.4139 13.2651 41.3883 10.2907 41.3883 6.62158C41.3883 2.95244 38.4139 -0.0219727 34.7448 -0.0219727H17.9591C10.5458 -0.0219727 4.53613 5.9877 4.53613 13.401Z" fill="#2EA378"/>
<path d="M34.7448 -0.0219727H27.7804C14.9429 -0.0219727 4.53613 10.3848 4.53613 23.2223C6.23793 17.3259 11.6352 13.2651 17.7723 13.2651H34.7448C38.4139 13.2651 41.3883 10.2907 41.3883 6.62158C41.3883 2.95244 38.4139 -0.0219727 34.7448 -0.0219727Z" fill="#37C390"/>
<path d="M28.8645 16.3677H19.3393C15.7848 16.3677 12.9033 19.2491 12.9033 22.8036C12.9033 26.3581 15.7848 29.2396 19.3393 29.2396H28.8645C32.4189 29.2396 35.3004 26.3581 35.3004 22.8036C35.3004 19.2491 32.4189 16.3677 28.8645 16.3677Z" fill="#2EA378"/>
<path d="M17.6401 29.8267V39.3572C17.6401 42.9827 14.701 45.9218 11.0754 45.9218C7.44984 45.9218 4.51074 42.9827 4.51074 39.3572V29.4078C4.51074 22.2345 10.3258 16.4194 17.4991 16.4194H30.306C23.1973 16.824 17.6401 22.7065 17.6401 29.8267Z" fill="#37C390"/>
</g>
<path d="M55.6105 32.4497V21.017C55.6105 18.6074 56.3691 16.7331 57.8863 15.3944C59.4035 14.0557 61.5097 13.3863 64.205 13.3863C65.2939 13.3863 66.3024 13.5024 67.2305 13.7344C68.1766 13.9486 68.9976 14.2699 69.6938 14.6983L68.3551 18.1254C67.7839 17.7506 67.1591 17.4828 66.4809 17.3222C65.8204 17.1615 65.16 17.0812 64.4995 17.0812C63.0002 17.0812 61.8667 17.4114 61.0992 18.0719C60.3317 18.7145 59.9479 19.6873 59.9479 20.9903V32.4497H55.6105ZM58.3147 25.6222V22.1416H67.6589V25.6222H58.3147ZM77.1166 32.6639C75.4922 32.6639 74.2249 32.2355 73.3146 31.3787C72.4043 30.522 71.9491 29.2903 71.9491 27.6839V12.5831H76.1259V27.4429C76.1259 28.0498 76.2776 28.5228 76.5811 28.8619C76.9024 29.1832 77.3486 29.3439 77.9198 29.3439C78.1518 29.3439 78.375 29.3171 78.5891 29.2636C78.8033 29.21 78.9729 29.1475 79.0979 29.0761L79.2853 32.3158C78.9283 32.4229 78.5624 32.5033 78.1875 32.5568C77.8305 32.6282 77.4735 32.6639 77.1166 32.6639ZM88.2231 32.6639C86.5809 32.6639 85.1351 32.3426 83.8857 31.7C82.654 31.0574 81.6991 30.1828 81.0208 29.0761C80.3425 27.9516 80.0034 26.6754 80.0034 25.2474C80.0034 23.8016 80.3336 22.5253 80.994 21.4187C81.6723 20.2941 82.5916 19.4195 83.7518 18.7948C84.912 18.1522 86.2329 17.8309 87.7144 17.8309C89.071 17.8309 90.3115 18.1165 91.436 18.6877C92.5606 19.2589 93.462 20.0889 94.1402 21.1777C94.8185 22.2665 95.1577 23.5785 95.1577 25.1135L83.5376 27.3626L83.484 24.9261L92.6944 23.159L91.2754 24.6048C91.2754 23.8908 91.1237 23.2661 90.8202 22.7306C90.5168 22.1951 90.0973 21.7757 89.5618 21.4722C89.0442 21.1509 88.4284 20.9903 87.7144 20.9903C87.0004 20.9903 86.3668 21.1509 85.8134 21.4722C85.2779 21.7757 84.8585 22.2308 84.555 22.8377C84.2516 23.4267 84.0999 24.1496 84.0999 25.0064C84.0999 25.9525 84.2694 26.7468 84.6086 27.3893C84.9477 28.0319 85.4297 28.5139 86.0544 28.8352C86.697 29.1565 87.4556 29.3171 88.3302 29.3171C89.0977 29.3171 89.7671 29.2011 90.3383 28.969C90.9095 28.737 91.445 28.3889 91.9447 27.9248L94.167 30.3345C93.5066 31.0842 92.6766 31.6643 91.677 32.0749C90.6774 32.4676 89.5261 32.6639 88.2231 32.6639ZM95.7524 32.4497L102.205 23.989L102.125 26.2916L95.9398 18.0451H100.625L104.534 23.4267L102.767 23.4803L106.81 18.0451H111.255L105.043 26.2113V23.9622L111.469 32.4497H106.73L102.633 26.72L104.374 26.961L100.304 32.4497H95.7524ZM122.011 32.6639C120.797 32.6639 119.735 32.3962 118.825 31.8607C117.914 31.3252 117.2 30.513 116.683 29.4242C116.183 28.3175 115.933 26.9253 115.933 25.2474C115.933 23.5517 116.174 22.1594 116.656 21.0706C117.138 19.9818 117.834 19.1696 118.744 18.6341C119.655 18.0986 120.743 17.8309 122.011 17.8309C123.367 17.8309 124.581 18.1433 125.652 18.768C126.741 19.3749 127.598 20.2317 128.222 21.3383C128.865 22.445 129.186 23.748 129.186 25.2474C129.186 26.7646 128.865 28.0766 128.222 29.1832C127.598 30.2899 126.741 31.1467 125.652 31.7536C124.581 32.3605 123.367 32.6639 122.011 32.6639ZM113.496 37.6439V18.0451H117.486V20.9903L117.406 25.2742L117.673 29.5313V37.6439H113.496ZM121.288 29.2368C121.984 29.2368 122.6 29.0761 123.135 28.7548C123.689 28.4336 124.126 27.9784 124.447 27.3893C124.786 26.7825 124.956 26.0685 124.956 25.2474C124.956 24.4085 124.786 23.6945 124.447 23.1054C124.126 22.5164 123.689 22.0612 123.135 21.74C122.6 21.4187 121.984 21.258 121.288 21.258C120.592 21.258 119.967 21.4187 119.414 21.74C118.86 22.0612 118.423 22.5164 118.102 23.1054C117.78 23.6945 117.62 24.4085 117.62 25.2474C117.62 26.0685 117.78 26.7825 118.102 27.3893C118.423 27.9784 118.86 28.4336 119.414 28.7548C119.967 29.0761 120.592 29.2368 121.288 29.2368ZM138.837 32.6639C137.301 32.6639 135.936 32.3426 134.74 31.7C133.562 31.0574 132.625 30.1828 131.929 29.0761C131.25 27.9516 130.911 26.6754 130.911 25.2474C130.911 23.8016 131.25 22.5253 131.929 21.4187C132.625 20.2941 133.562 19.4195 134.74 18.7948C135.936 18.1522 137.301 17.8309 138.837 17.8309C140.354 17.8309 141.71 18.1522 142.906 18.7948C144.102 19.4195 145.039 20.2852 145.718 21.3919C146.396 22.4986 146.735 23.7837 146.735 25.2474C146.735 26.6754 146.396 27.9516 145.718 29.0761C145.039 30.1828 144.102 31.0574 142.906 31.7C141.71 32.3426 140.354 32.6639 138.837 32.6639ZM138.837 29.2368C139.533 29.2368 140.157 29.0761 140.711 28.7548C141.264 28.4336 141.701 27.9784 142.023 27.3893C142.344 26.7825 142.505 26.0685 142.505 25.2474C142.505 24.4085 142.344 23.6945 142.023 23.1054C141.701 22.5164 141.264 22.0612 140.711 21.74C140.157 21.4187 139.533 21.258 138.837 21.258C138.14 21.258 137.516 21.4187 136.962 21.74C136.409 22.0612 135.963 22.5164 135.624 23.1054C135.302 23.6945 135.142 24.4085 135.142 25.2474C135.142 26.0685 135.302 26.7825 135.624 27.3893C135.963 27.9784 136.409 28.4336 136.962 28.7548C137.516 29.0761 138.14 29.2368 138.837 29.2368ZM149.527 32.4497V18.0451H153.704V32.4497H149.527ZM151.615 16.037C150.848 16.037 150.223 15.8139 149.741 15.3677C149.259 14.9214 149.018 14.3681 149.018 13.7076C149.018 13.0472 149.259 12.4939 149.741 12.0476C150.223 11.6014 150.848 11.3783 151.615 11.3783C152.383 11.3783 153.007 11.5925 153.489 12.0209C153.971 12.4314 154.212 12.9669 154.212 13.6273C154.212 14.3235 153.971 14.9036 153.489 15.3677C153.025 15.8139 152.401 16.037 151.615 16.037ZM166.335 17.8309C167.478 17.8309 168.495 18.0629 169.388 18.527C170.298 18.9733 171.012 19.6694 171.529 20.6154C172.047 21.5436 172.306 22.7395 172.306 24.2032V32.4497H168.129V24.8458C168.129 23.6856 167.87 22.8288 167.353 22.2754C166.853 21.7221 166.139 21.4454 165.211 21.4454C164.55 21.4454 163.952 21.5882 163.417 21.8738C162.899 22.1416 162.489 22.561 162.185 23.1322C161.9 23.7034 161.757 24.4352 161.757 25.3277V32.4497H157.58V18.0451H161.569V22.0345L160.82 20.8296C161.337 19.8657 162.078 19.125 163.042 18.6074C164.006 18.0897 165.104 17.8309 166.335 17.8309ZM181.393 32.6639C179.68 32.6639 178.35 32.2355 177.404 31.3787C176.476 30.5041 176.012 29.21 176.012 27.4964V14.8589H180.188V27.4429C180.188 28.0498 180.34 28.5228 180.644 28.8619C180.965 29.1832 181.402 29.3439 181.956 29.3439C182.616 29.3439 183.187 29.1654 183.669 28.8084L184.767 31.7536C184.339 32.057 183.821 32.2891 183.214 32.4497C182.625 32.5925 182.018 32.6639 181.393 32.6639ZM178.314 21.5793V18.3664H183.749V21.5793H178.314Z" fill="#525866"/>
<defs>
<clipPath id="clip0_1845_58453">
<rect width="45.8989" height="45.8989" fill="white"/>
</clipPath>
</defs>
</svg>
