<svg width="1440" height="691" viewBox="0 0 1440 691" fill="none" xmlns="http://www.w3.org/2000/svg">
<path opacity="0.3" d="M-56.5172 0H-114V57.5M-56.5172 0V57.5M-56.5172 0H0.965514M-114 57.5H-56.5172M-114 57.5V115M-56.5172 57.5H0.965514M-56.5172 57.5V115M0.965514 0V57.5M0.965514 0H58.4483M0.965514 57.5H58.4483M0.965514 57.5V115M-56.5172 115H-114M-56.5172 115H0.965514M-56.5172 115V172.5M-114 115V172.5M58.4483 0V57.5M58.4483 0H115.931M58.4483 57.5H115.931M58.4483 57.5V115M0.965514 115H58.4483M0.965514 115V172.5M115.931 0V57.5M115.931 0H173.414M115.931 57.5H173.414M115.931 57.5V115M58.4483 115H115.931M58.4483 115V172.5M173.414 0V57.5M173.414 0H230.897M173.414 57.5H230.897M173.414 57.5V115M115.931 115H173.414M115.931 115V172.5M230.897 0V57.5M230.897 0H288.379M230.897 57.5H288.379M230.897 57.5V115M173.414 115H230.897M173.414 115V172.5M288.379 0V57.5M288.379 0H345.862M288.379 57.5H345.862M288.379 57.5V115M230.897 115H288.379M230.897 115V172.5M345.862 0V57.5M345.862 0H403.345M345.862 57.5H403.345M345.862 57.5V115M288.379 115H345.862M288.379 115V172.5M403.345 0V57.5M403.345 0H460.828M403.345 57.5H460.828M403.345 57.5V115M345.862 115H403.345M345.862 115V172.5M460.828 0V57.5M460.828 0H518.31M460.828 57.5H518.31M460.828 57.5V115M403.345 115H460.828M403.345 115V172.5M518.31 0V57.5M518.31 0H575.793M518.31 57.5H575.793M518.31 57.5V115M460.828 115H518.31M460.828 115V172.5M575.793 0V57.5M575.793 0H633.276M575.793 57.5H633.276M575.793 57.5V115M518.31 115H575.793M518.31 115V172.5M633.276 0V57.5M633.276 0H690.759M633.276 57.5H690.759M633.276 57.5V115M575.793 115H633.276M575.793 115V172.5M690.759 0V57.5M690.759 0H748.241M690.759 57.5H748.241M690.759 57.5V115M633.276 115H690.759M633.276 115V172.5M748.241 0V57.5M748.241 0H805.724M748.241 57.5H805.724M748.241 57.5V115M690.759 115H748.241M690.759 115V172.5M805.724 0V57.5M805.724 0H863.207M805.724 57.5H863.207M805.724 57.5V115M748.241 115H805.724M748.241 115V172.5M863.207 0V57.5M863.207 0H920.69M863.207 57.5H920.69M863.207 57.5V115M805.724 115H863.207M805.724 115V172.5M920.69 0V57.5M920.69 0H978.172M920.69 57.5H978.172M920.69 57.5V115M863.207 115H920.69M863.207 115V172.5M978.172 0V57.5M978.172 0H1035.66M978.172 57.5H1035.66M978.172 57.5V115M920.69 115H978.172M920.69 115V172.5M1035.66 0V57.5M1035.66 0H1093.14M1035.66 57.5H1093.14M1035.66 57.5V115M978.172 115H1035.66M978.172 115V172.5M1093.14 0V57.5M1093.14 0H1150.62M1093.14 57.5H1150.62M1093.14 57.5V115M1035.66 115H1093.14M1035.66 115V172.5M1150.62 0V57.5M1150.62 0H1208.1M1150.62 57.5H1208.1M1150.62 57.5V115M1093.14 115H1150.62M1093.14 115V172.5M1208.1 0V57.5M1208.1 0H1265.59M1208.1 57.5H1265.59M1208.1 57.5V115M1150.62 115H1208.1M1150.62 115V172.5M1265.59 0V57.5M1265.59 0H1323.07M1265.59 57.5H1323.07M1265.59 57.5V115M1208.1 115H1265.59M1208.1 115V172.5M1323.07 0V57.5M1323.07 0H1380.55M1323.07 57.5H1380.55M1323.07 57.5V115M1265.59 115H1323.07M1265.59 115V172.5M1380.55 0V57.5M1380.55 0H1438.03M1380.55 57.5H1438.03M1380.55 57.5V115M1323.07 115H1380.55M1323.07 115V172.5M1438.03 0V57.5M1438.03 0H1495.52M1438.03 57.5H1495.52M1438.03 57.5V115M1380.55 115H1438.03M1380.55 115V172.5M1495.52 0V57.5M1495.52 0H1553V57.5M1495.52 57.5H1553M1495.52 57.5V115M1438.03 115H1495.52M1438.03 115V172.5M1553 57.5V115M1495.52 115H1553M1495.52 115V172.5M1553 115V172.5M-56.5172 172.5H-114M-56.5172 172.5H0.965514M-56.5172 172.5V230M-114 172.5V230M0.965514 172.5H58.4483M0.965514 172.5V230M58.4483 172.5H115.931M58.4483 172.5V230M115.931 172.5H173.414M115.931 172.5V230M173.414 172.5H230.897M173.414 172.5V230M230.897 172.5H288.379M230.897 172.5V230M288.379 172.5H345.862M288.379 172.5V230M345.862 172.5H403.345M345.862 172.5V230M403.345 172.5H460.828M403.345 172.5V230M460.828 172.5H518.31M460.828 172.5V230M518.31 172.5H575.793M518.31 172.5V230M575.793 172.5H633.276M575.793 172.5V230M633.276 172.5H690.759M633.276 172.5V230M690.759 172.5H748.241M690.759 172.5V230M748.241 172.5H805.724M748.241 172.5V230M805.724 172.5H863.207M805.724 172.5V230M863.207 172.5H920.69M863.207 172.5V230M920.69 172.5H978.172M920.69 172.5V230M978.172 172.5H1035.66M978.172 172.5V230M1035.66 172.5H1093.14M1035.66 172.5V230M1093.14 172.5H1150.62M1093.14 172.5V230M1150.62 172.5H1208.1M1150.62 172.5V230M1208.1 172.5H1265.59M1208.1 172.5V230M1265.59 172.5H1323.07M1265.59 172.5V230M1323.07 172.5H1380.55M1323.07 172.5V230M1380.55 172.5H1438.03M1380.55 172.5V230M1438.03 172.5H1495.52M1438.03 172.5V230M1495.52 172.5H1553M1495.52 172.5V230M1553 172.5V230M-56.5172 230H-114M-56.5172 230H0.965514M-56.5172 230V287.5M-114 230V287.5M0.965514 230H58.4483M0.965514 230V287.5M58.4483 230H115.931M58.4483 230V287.5M115.931 230H173.414M115.931 230V287.5M173.414 230H230.897M173.414 230V287.5M230.897 230H288.379M230.897 230V287.5M288.379 230H345.862M288.379 230V287.5M345.862 230H403.345M345.862 230V287.5M403.345 230H460.828M403.345 230V287.5M460.828 230H518.31M460.828 230V287.5M518.31 230H575.793M518.31 230V287.5M575.793 230H633.276M575.793 230V287.5M633.276 230H690.759M633.276 230V287.5M690.759 230H748.241M690.759 230V287.5M748.241 230H805.724M748.241 230V287.5M805.724 230H863.207M805.724 230V287.5M863.207 230H920.69M863.207 230V287.5M920.69 230H978.172M920.69 230V287.5M978.172 230H1035.66M978.172 230V287.5M1035.66 230H1093.14M1035.66 230V287.5M1093.14 230H1150.62M1093.14 230V287.5M1150.62 230H1208.1M1150.62 230V287.5M1208.1 230H1265.59M1208.1 230V287.5M1265.59 230H1323.07M1265.59 230V287.5M1323.07 230H1380.55M1323.07 230V287.5M1380.55 230H1438.03M1380.55 230V287.5M1438.03 230H1495.52M1438.03 230V287.5M1495.52 230H1553M1495.52 230V287.5M1553 230V287.5M-56.5172 287.5H-114M-56.5172 287.5H0.965514M-56.5172 287.5V345M-114 287.5V345M0.965514 287.5H58.4483M0.965514 287.5V345M58.4483 287.5H115.931M58.4483 287.5V345M115.931 287.5H173.414M115.931 287.5V345M173.414 287.5H230.897M173.414 287.5V345M230.897 287.5H288.379M230.897 287.5V345M288.379 287.5H345.862M288.379 287.5V345M345.862 287.5H403.345M345.862 287.5V345M403.345 287.5H460.828M403.345 287.5V345M460.828 287.5H518.31M460.828 287.5V345M518.31 287.5H575.793M518.31 287.5V345M575.793 287.5H633.276M575.793 287.5V345M633.276 287.5H690.759M633.276 287.5V345M690.759 287.5H748.241M690.759 287.5V345M748.241 287.5H805.724M748.241 287.5V345M805.724 287.5H863.207M805.724 287.5V345M863.207 287.5H920.69M863.207 287.5V345M920.69 287.5H978.172M920.69 287.5V345M978.172 287.5H1035.66M978.172 287.5V345M1035.66 287.5H1093.14M1035.66 287.5V345M1093.14 287.5H1150.62M1093.14 287.5V345M1150.62 287.5H1208.1M1150.62 287.5V345M1208.1 287.5H1265.59M1208.1 287.5V345M1265.59 287.5H1323.07M1265.59 287.5V345M1323.07 287.5H1380.55M1323.07 287.5V345M1380.55 287.5H1438.03M1380.55 287.5V345M1438.03 287.5H1495.52M1438.03 287.5V345M1495.52 287.5H1553M1495.52 287.5V345M1553 287.5V345M-56.5172 345H-114M-56.5172 345H0.965514M-56.5172 345V402.5M-114 345V402.5M0.965514 345H58.4483M0.965514 345V402.5M58.4483 345H115.931M58.4483 345V402.5M115.931 345H173.414M115.931 345V402.5M173.414 345H230.897M173.414 345V402.5M230.897 345H288.379M230.897 345V402.5M288.379 345H345.862M288.379 345V402.5M345.862 345H403.345M345.862 345V402.5M403.345 345H460.828M403.345 345V402.5M460.828 345H518.31M460.828 345V402.5M518.31 345H575.793M518.31 345V402.5M575.793 345H633.276M575.793 345V402.5M633.276 345H690.759M633.276 345V402.5M690.759 345H748.241M690.759 345V402.5M748.241 345H805.724M748.241 345V402.5M805.724 345H863.207M805.724 345V402.5M863.207 345H920.69M863.207 345V402.5M920.69 345H978.172M920.69 345V402.5M978.172 345H1035.66M978.172 345V402.5M1035.66 345H1093.14M1035.66 345V402.5M1093.14 345H1150.62M1093.14 345V402.5M1150.62 345H1208.1M1150.62 345V402.5M1208.1 345H1265.59M1208.1 345V402.5M1265.59 345H1323.07M1265.59 345V402.5M1323.07 345H1380.55M1323.07 345V402.5M1380.55 345H1438.03M1380.55 345V402.5M1438.03 345H1495.52M1438.03 345V402.5M1495.52 345H1553M1495.52 345V402.5M1553 345V402.5M-56.5172 402.5H-114M-56.5172 402.5H0.965514M-56.5172 402.5V460M-114 402.5V460M0.965514 402.5H58.4483M0.965514 402.5V460M58.4483 402.5H115.931M58.4483 402.5V460M115.931 402.5H173.414M115.931 402.5V460M173.414 402.5H230.897M173.414 402.5V460M230.897 402.5H288.379M230.897 402.5V460M288.379 402.5H345.862M288.379 402.5V460M345.862 402.5H403.345M345.862 402.5V460M403.345 402.5H460.828M403.345 402.5V460M460.828 402.5H518.31M460.828 402.5V460M518.31 402.5H575.793M518.31 402.5V460M575.793 402.5H633.276M575.793 402.5V460M633.276 402.5H690.759M633.276 402.5V460M690.759 402.5H748.241M690.759 402.5V460M748.241 402.5H805.724M748.241 402.5V460M805.724 402.5H863.207M805.724 402.5V460M863.207 402.5H920.69M863.207 402.5V460M920.69 402.5H978.172M920.69 402.5V460M978.172 402.5H1035.66M978.172 402.5V460M1035.66 402.5H1093.14M1035.66 402.5V460M1093.14 402.5H1150.62M1093.14 402.5V460M1150.62 402.5H1208.1M1150.62 402.5V460M1208.1 402.5H1265.59M1208.1 402.5V460M1265.59 402.5H1323.07M1265.59 402.5V460M1323.07 402.5H1380.55M1323.07 402.5V460M1380.55 402.5H1438.03M1380.55 402.5V460M1438.03 402.5H1495.52M1438.03 402.5V460M1495.52 402.5H1553M1495.52 402.5V460M1553 402.5V460M-56.5172 460H-114M-56.5172 460H0.965514M-56.5172 460V517.5M-114 460V517.5M0.965514 460H58.4483M0.965514 460V517.5M58.4483 460H115.931M58.4483 460V517.5M115.931 460H173.414M115.931 460V517.5M173.414 460H230.897M173.414 460V517.5M230.897 460H288.379M230.897 460V517.5M288.379 460H345.862M288.379 460V517.5M345.862 460H403.345M345.862 460V517.5M403.345 460H460.828M403.345 460V517.5M460.828 460H518.31M460.828 460V517.5M518.31 460H575.793M518.31 460V517.5M575.793 460H633.276M575.793 460V517.5M633.276 460H690.759M633.276 460V517.5M690.759 460H748.241M690.759 460V517.5M748.241 460H805.724M748.241 460V517.5M805.724 460H863.207M805.724 460V517.5M863.207 460H920.69M863.207 460V517.5M920.69 460H978.172M920.69 460V517.5M978.172 460H1035.66M978.172 460V517.5M1035.66 460H1093.14M1035.66 460V517.5M1093.14 460H1150.62M1093.14 460V517.5M1150.62 460H1208.1M1150.62 460V517.5M1208.1 460H1265.59M1208.1 460V517.5M1265.59 460H1323.07M1265.59 460V517.5M1323.07 460H1380.55M1323.07 460V517.5M1380.55 460H1438.03M1380.55 460V517.5M1438.03 460H1495.52M1438.03 460V517.5M1495.52 460H1553M1495.52 460V517.5M1553 460V517.5M-56.5172 517.5H-114M-56.5172 517.5H0.965514M-56.5172 517.5V575M-114 517.5V575M0.965514 517.5H58.4483M0.965514 517.5V575M58.4483 517.5H115.931M58.4483 517.5V575M115.931 517.5H173.414M115.931 517.5V575M173.414 517.5H230.897M173.414 517.5V575M230.897 517.5H288.379M230.897 517.5V575M288.379 517.5H345.862M288.379 517.5V575M345.862 517.5H403.345M345.862 517.5V575M403.345 517.5H460.828M403.345 517.5V575M460.828 517.5H518.31M460.828 517.5V575M518.31 517.5H575.793M518.31 517.5V575M575.793 517.5H633.276M575.793 517.5V575M633.276 517.5H690.759M633.276 517.5V575M690.759 517.5H748.241M690.759 517.5V575M748.241 517.5H805.724M748.241 517.5V575M805.724 517.5H863.207M805.724 517.5V575M863.207 517.5H920.69M863.207 517.5V575M920.69 517.5H978.172M920.69 517.5V575M978.172 517.5H1035.66M978.172 517.5V575M1035.66 517.5H1093.14M1035.66 517.5V575M1093.14 517.5H1150.62M1093.14 517.5V575M1150.62 517.5H1208.1M1150.62 517.5V575M1208.1 517.5H1265.59M1208.1 517.5V575M1265.59 517.5H1323.07M1265.59 517.5V575M1323.07 517.5H1380.55M1323.07 517.5V575M1380.55 517.5H1438.03M1380.55 517.5V575M1438.03 517.5H1495.52M1438.03 517.5V575M1495.52 517.5H1553M1495.52 517.5V575M1553 517.5V575M-56.5172 575H-114M-56.5172 575H0.965514M-56.5172 575V632.5M-114 575V632.5M0.965514 575H58.4483M0.965514 575V632.5M58.4483 575H115.931M58.4483 575V632.5M115.931 575H173.414M115.931 575V632.5M173.414 575H230.897M173.414 575V632.5M230.897 575H288.379M230.897 575V632.5M288.379 575H345.862M288.379 575V632.5M345.862 575H403.345M345.862 575V632.5M403.345 575H460.828M403.345 575V632.5M460.828 575H518.31M460.828 575V632.5M518.31 575H575.793M518.31 575V632.5M575.793 575H633.276M575.793 575V632.5M633.276 575H690.759M633.276 575V632.5M690.759 575H748.241M690.759 575V632.5M748.241 575H805.724M748.241 575V632.5M805.724 575H863.207M805.724 575V632.5M863.207 575H920.69M863.207 575V632.5M920.69 575H978.172M920.69 575V632.5M978.172 575H1035.66M978.172 575V632.5M1035.66 575H1093.14M1035.66 575V632.5M1093.14 575H1150.62M1093.14 575V632.5M1150.62 575H1208.1M1150.62 575V632.5M1208.1 575H1265.59M1208.1 575V632.5M1265.59 575H1323.07M1265.59 575V632.5M1323.07 575H1380.55M1323.07 575V632.5M1380.55 575H1438.03M1380.55 575V632.5M1438.03 575H1495.52M1438.03 575V632.5M1495.52 575H1553M1495.52 575V632.5M1553 575V632.5M-56.5172 632.5H-114M-56.5172 632.5H0.965514M-56.5172 632.5V690M-114 632.5V690H-56.5172M0.965514 632.5H58.4483M0.965514 632.5V690M58.4483 632.5H115.931M58.4483 632.5V690M115.931 632.5H173.414M115.931 632.5V690M173.414 632.5H230.897M173.414 632.5V690M230.897 632.5H288.379M230.897 632.5V690M288.379 632.5H345.862M288.379 632.5V690M345.862 632.5H403.345M345.862 632.5V690M403.345 632.5H460.828M403.345 632.5V690M460.828 632.5H518.31M460.828 632.5V690M518.31 632.5H575.793M518.31 632.5V690M575.793 632.5H633.276M575.793 632.5V690M633.276 632.5H690.759M633.276 632.5V690M690.759 632.5H748.241M690.759 632.5V690M748.241 632.5H805.724M748.241 632.5V690M805.724 632.5H863.207M805.724 632.5V690M863.207 632.5H920.69M863.207 632.5V690M920.69 632.5H978.172M920.69 632.5V690M978.172 632.5H1035.66M978.172 632.5V690M1035.66 632.5H1093.14M1035.66 632.5V690M1093.14 632.5H1150.62M1093.14 632.5V690M1150.62 632.5H1208.1M1150.62 632.5V690M1208.1 632.5H1265.59M1208.1 632.5V690M1265.59 632.5H1323.07M1265.59 632.5V690M1323.07 632.5H1380.55M1323.07 632.5V690M1380.55 632.5H1438.03M1380.55 632.5V690M1438.03 632.5H1495.52M1438.03 632.5V690M1495.52 632.5H1553M1495.52 632.5V690M1553 632.5V690H1495.52M-56.5172 690H0.965514M0.965514 690H58.4483M58.4483 690H115.931M115.931 690H173.414M173.414 690H230.897M230.897 690H288.379M288.379 690H345.862M345.862 690H403.345M403.345 690H460.828M460.828 690H518.31M518.31 690H575.793M575.793 690H633.276M633.276 690H690.759M690.759 690H748.241M748.241 690H805.724M805.724 690H863.207M863.207 690H920.69M920.69 690H978.172M978.172 690H1035.66M1035.66 690H1093.14M1093.14 690H1150.62M1150.62 690H1208.1M1208.1 690H1265.59M1265.59 690H1323.07M1323.07 690H1380.55M1380.55 690H1438.03M1438.03 690H1495.52" stroke="url(#paint0_radial_1_9519)" stroke-opacity="0.56"/>
<defs>
<radialGradient id="paint0_radial_1_9519" cx="0" cy="0" r="1" gradientUnits="userSpaceOnUse" gradientTransform="translate(719.5 51.3076) rotate(90) scale(858.187 618.624)">
<stop stop-color="#CDD0D5"/>
<stop offset="0.574718" stop-opacity="0"/>
</radialGradient>
</defs>
</svg>
