<svg width="52" height="51" viewBox="0 0 52 51" fill="none" xmlns="http://www.w3.org/2000/svg">
<g clip-path="url(#clip0_472_51581)">
<rect x="1.01636" y="1.72754" width="48.4503" height="48.4503" rx="16.77" fill="#E0FAEC"/>
<g clip-path="url(#clip1_472_51581)">
<path d="M14.9565 19.7633V25.5496C15.9592 22.0757 19.1391 19.6833 22.7548 19.6833H32.7544C34.9161 19.6833 36.6685 17.9308 36.6685 15.7691C36.6685 13.6074 34.9161 11.855 32.7544 11.855H22.8649C18.4972 11.855 14.9565 15.3957 14.9565 19.7633Z" fill="#2EA378"/>
<path d="M32.7544 11.855H28.6512C21.0879 11.855 14.9565 17.9863 14.9565 25.5496C15.9592 22.0757 19.1391 19.6833 22.7548 19.6833H32.7544C34.9161 19.6833 36.6685 17.9308 36.6685 15.7691C36.6685 13.6074 34.9161 11.855 32.7544 11.855Z" fill="#37C390"/>
<path d="M29.29 21.5117H23.6781C21.5839 21.5117 19.8862 23.2094 19.8862 25.3036C19.8862 27.3977 21.5839 29.0954 23.6781 29.0954H29.29C31.3841 29.0954 33.0818 27.3977 33.0818 25.3036C33.0818 23.2094 31.3841 21.5117 29.29 21.5117Z" fill="#2EA378"/>
<path d="M22.6767 29.4406V35.0556C22.6767 37.1916 20.9451 38.9233 18.8091 38.9233C16.673 38.9233 14.9414 37.1916 14.9414 35.0556V29.1938C14.9414 24.9675 18.3674 21.5415 22.5937 21.5415H30.1391C25.9509 21.7799 22.6767 25.2456 22.6767 29.4406Z" fill="#37C390"/>
</g>
</g>
<defs>
<clipPath id="clip0_472_51581">
<path d="M0 9.72543C0 4.74713 4.03571 0.711426 9.014 0.711426H42.8165C47.7948 0.711426 51.8305 4.74713 51.8305 9.72543V41.2744C51.8305 46.2527 47.7948 50.2884 42.8165 50.2884H9.01399C4.0357 50.2884 0 46.2527 0 41.2744V9.72543Z" fill="white"/>
</clipPath>
<clipPath id="clip1_472_51581">
<rect width="27.042" height="27.042" fill="white" transform="translate(12.2839 11.8682)"/>
</clipPath>
</defs>
</svg>
