<svg width="415" height="315" viewBox="0 0 415 315" fill="none" xmlns="http://www.w3.org/2000/svg">
<rect x="20" width="296" height="183" rx="16" fill="#A7ECFA"/>
<path d="M47.544 42H45.4474L50.1584 28.9091H52.4403L57.1513 42H55.0547L51.3537 31.2869H51.2514L47.544 42ZM47.8956 36.8736H54.6967V38.5355H47.8956V36.8736ZM63.2382 32.1818V33.7159H57.6899V32.1818H63.2382ZM59.2112 42V31.044C59.2112 30.4304 59.3454 29.9212 59.6139 29.5163C59.8823 29.1072 60.2382 28.8026 60.6813 28.6023C61.1245 28.3977 61.6061 28.2955 62.126 28.2955C62.5095 28.2955 62.8376 28.3274 63.1103 28.3913C63.3831 28.451 63.5855 28.5064 63.7176 28.5575L63.2701 30.1044C63.1806 30.0788 63.0656 30.049 62.925 30.0149C62.7843 29.9766 62.6139 29.9574 62.4136 29.9574C61.9491 29.9574 61.6167 30.0724 61.4164 30.3026C61.2204 30.5327 61.1224 30.8651 61.1224 31.2997V42H59.2112ZM69.6127 32.1818V33.7159H64.0644V32.1818H69.6127ZM65.5857 42V31.044C65.5857 30.4304 65.7199 29.9212 65.9884 29.5163C66.2569 29.1072 66.6127 28.8026 67.0559 28.6023C67.4991 28.3977 67.9806 28.2955 68.5005 28.2955C68.884 28.2955 69.2121 28.3274 69.4849 28.3913C69.7576 28.451 69.96 28.5064 70.0921 28.5575L69.6447 30.1044C69.5552 30.0788 69.4401 30.049 69.2995 30.0149C69.1589 29.9766 68.9884 29.9574 68.7881 29.9574C68.3236 29.9574 67.9912 30.0724 67.791 30.3026C67.5949 30.5327 67.4969 30.8651 67.4969 31.2997V42H65.5857ZM71.3146 42V32.1818H73.2259V42H71.3146ZM72.2798 30.6669C71.9475 30.6669 71.6619 30.5561 71.4233 30.3345C71.1889 30.1087 71.0717 29.8402 71.0717 29.5291C71.0717 29.2138 71.1889 28.9453 71.4233 28.7237C71.6619 28.4979 71.9475 28.3849 72.2798 28.3849C72.6122 28.3849 72.8956 28.4979 73.13 28.7237C73.3686 28.9453 73.4879 29.2138 73.4879 29.5291C73.4879 29.8402 73.3686 30.1087 73.13 30.3345C72.8956 30.5561 72.6122 30.6669 72.2798 30.6669ZM77.4383 28.9091V42H75.5271V28.9091H77.4383ZM79.7395 42V32.1818H81.6507V42H79.7395ZM80.7047 30.6669C80.3723 30.6669 80.0868 30.5561 79.8482 30.3345C79.6138 30.1087 79.4966 29.8402 79.4966 29.5291C79.4966 29.2138 79.6138 28.9453 79.8482 28.7237C80.0868 28.4979 80.3723 28.3849 80.7047 28.3849C81.0371 28.3849 81.3205 28.4979 81.5548 28.7237C81.7935 28.9453 81.9128 29.2138 81.9128 29.5291C81.9128 29.8402 81.7935 30.1087 81.5548 30.3345C81.3205 30.5561 81.0371 30.6669 80.7047 30.6669ZM86.8092 42.2173C86.187 42.2173 85.6245 42.1023 85.1217 41.8722C84.6188 41.6378 84.2204 41.299 83.9263 40.8558C83.6366 40.4126 83.4917 39.8693 83.4917 39.2259C83.4917 38.6719 83.5982 38.2159 83.8113 37.858C84.0244 37.5 84.312 37.2166 84.6742 37.0078C85.0364 36.799 85.4413 36.6413 85.8887 36.5348C86.3361 36.4283 86.7921 36.3473 87.2566 36.2919C87.8447 36.2237 88.3219 36.1683 88.6884 36.1257C89.0549 36.0788 89.3212 36.0043 89.4874 35.902C89.6536 35.7997 89.7367 35.6335 89.7367 35.4034V35.3587C89.7367 34.8004 89.579 34.3679 89.2637 34.0611C88.9526 33.7543 88.4881 33.6009 87.8702 33.6009C87.2268 33.6009 86.7197 33.7436 86.3489 34.0291C85.9825 34.3104 85.7289 34.6236 85.5883 34.9688L83.7921 34.5597C84.0052 33.9631 84.3163 33.4815 84.7253 33.1151C85.1387 32.7443 85.6138 32.4759 86.1508 32.3097C86.6877 32.1392 87.2523 32.054 87.8447 32.054C88.2367 32.054 88.6522 32.1009 89.0911 32.1946C89.5343 32.2841 89.9477 32.4503 90.3312 32.6932C90.719 32.9361 91.0364 33.2834 91.2836 33.7351C91.5307 34.1825 91.6543 34.7642 91.6543 35.4801V42H89.7878V40.6577H89.7111C89.5876 40.9048 89.4022 41.1477 89.155 41.3864C88.9079 41.625 88.5904 41.8232 88.2026 41.9808C87.8148 42.1385 87.3503 42.2173 86.8092 42.2173ZM87.2246 40.6832C87.753 40.6832 88.2048 40.5788 88.5798 40.37C88.959 40.1612 89.2467 39.8885 89.4427 39.5518C89.643 39.2109 89.7431 38.8466 89.7431 38.4588V37.1932C89.6749 37.2614 89.5428 37.3253 89.3468 37.3849C89.155 37.4403 88.9356 37.4893 88.6884 37.532C88.4413 37.5703 88.2005 37.6065 87.9661 37.6406C87.7317 37.6705 87.5357 37.696 87.378 37.7173C87.0073 37.7642 86.6685 37.843 86.3617 37.9538C86.0592 38.0646 85.8163 38.2244 85.633 38.4332C85.454 38.6378 85.3646 38.9105 85.3646 39.2514C85.3646 39.7244 85.5393 40.0824 85.8887 40.3253C86.2381 40.5639 86.6834 40.6832 87.2246 40.6832ZM98.5131 32.1818V33.7159H93.1501V32.1818H98.5131ZM94.5883 29.8295H96.4996V39.1172C96.4996 39.4879 96.555 39.767 96.6658 39.9545C96.7765 40.1378 96.9193 40.2635 97.094 40.3317C97.273 40.3956 97.4669 40.4276 97.6757 40.4276C97.8291 40.4276 97.9633 40.4169 98.0784 40.3956C98.1935 40.3743 98.2829 40.3572 98.3469 40.3445L98.692 41.9233C98.5812 41.9659 98.4236 42.0085 98.219 42.0511C98.0145 42.098 97.7588 42.1236 97.452 42.1278C96.9491 42.1364 96.4804 42.0469 96.0457 41.8594C95.6111 41.6719 95.2595 41.3821 94.991 40.9901C94.7226 40.598 94.5883 40.1058 94.5883 39.5135V29.8295ZM104.483 42.1982C103.516 42.1982 102.683 41.9915 101.984 41.5781C101.289 41.1605 100.752 40.5746 100.373 39.8203C99.9982 39.0618 99.8107 38.1733 99.8107 37.1548C99.8107 36.1491 99.9982 35.2628 100.373 34.4957C100.752 33.7287 101.281 33.13 101.958 32.6996C102.64 32.2692 103.437 32.054 104.349 32.054C104.903 32.054 105.44 32.1456 105.96 32.3288C106.48 32.5121 106.946 32.7997 107.36 33.1918C107.773 33.5838 108.099 34.093 108.338 34.7195C108.576 35.3416 108.696 36.098 108.696 36.9886V37.6662H100.891V36.2344H106.823C106.823 35.7315 106.721 35.2862 106.516 34.8984C106.311 34.5064 106.024 34.1974 105.653 33.9716C105.287 33.7457 104.856 33.6328 104.362 33.6328C103.825 33.6328 103.356 33.7649 102.956 34.0291C102.559 34.2891 102.252 34.63 102.035 35.0518C101.822 35.4695 101.716 35.9233 101.716 36.4134V37.532C101.716 38.1882 101.831 38.7464 102.061 39.2067C102.295 39.6669 102.621 40.0185 103.039 40.2614C103.456 40.5 103.944 40.6193 104.502 40.6193C104.865 40.6193 105.195 40.5682 105.493 40.4659C105.792 40.3594 106.049 40.2017 106.267 39.9929C106.484 39.7841 106.65 39.5263 106.765 39.2195L108.574 39.5455C108.429 40.0781 108.169 40.5447 107.794 40.9453C107.424 41.3416 106.957 41.6506 106.395 41.8722C105.836 42.0895 105.199 42.1982 104.483 42.1982ZM117.168 28.9091V42H115.193V28.9091H117.168ZM121.533 36.1705V42H119.621V32.1818H121.456V33.7798H121.577C121.803 33.2599 122.157 32.8423 122.638 32.527C123.124 32.2116 123.736 32.054 124.473 32.054C125.142 32.054 125.728 32.1946 126.231 32.4759C126.734 32.7528 127.124 33.1662 127.401 33.7159C127.678 34.2656 127.816 34.9453 127.816 35.755V42H125.905V35.9851C125.905 35.2734 125.719 34.7173 125.349 34.3168C124.978 33.9119 124.469 33.7095 123.821 33.7095C123.378 33.7095 122.984 33.8054 122.638 33.9972C122.298 34.1889 122.027 34.4702 121.827 34.8409C121.631 35.2074 121.533 35.6506 121.533 36.1705ZM134.245 42.1982C133.295 42.1982 132.476 41.983 131.79 41.5526C131.109 41.1179 130.584 40.5192 130.218 39.7564C129.851 38.9936 129.668 38.12 129.668 37.1357C129.668 36.1385 129.856 35.2585 130.231 34.4957C130.606 33.7287 131.134 33.13 131.816 32.6996C132.498 32.2692 133.301 32.054 134.226 32.054C134.971 32.054 135.636 32.1925 136.22 32.4695C136.804 32.7422 137.275 33.1257 137.633 33.62C137.995 34.1143 138.21 34.6918 138.278 35.3523H136.418C136.316 34.892 136.082 34.4957 135.715 34.1634C135.353 33.831 134.867 33.6648 134.258 33.6648C133.725 33.6648 133.258 33.8054 132.858 34.0866C132.462 34.3636 132.153 34.7599 131.931 35.2756C131.709 35.7869 131.599 36.392 131.599 37.0909C131.599 37.8068 131.707 38.4247 131.925 38.9446C132.142 39.4645 132.449 39.8672 132.845 40.1527C133.246 40.4382 133.717 40.581 134.258 40.581C134.62 40.581 134.948 40.5149 135.242 40.3828C135.54 40.2464 135.79 40.0526 135.99 39.8011C136.194 39.5497 136.337 39.2472 136.418 38.8935H138.278C138.21 39.5284 138.003 40.0952 137.658 40.5938C137.313 41.0923 136.851 41.4844 136.271 41.7699C135.696 42.0554 135.02 42.1982 134.245 42.1982ZM144.188 42.1982C143.267 42.1982 142.464 41.9872 141.778 41.5653C141.092 41.1435 140.559 40.5533 140.18 39.7947C139.801 39.0362 139.611 38.1499 139.611 37.1357C139.611 36.1172 139.801 35.2266 140.18 34.4638C140.559 33.701 141.092 33.1087 141.778 32.6868C142.464 32.2649 143.267 32.054 144.188 32.054C145.108 32.054 145.912 32.2649 146.598 32.6868C147.284 33.1087 147.816 33.701 148.196 34.4638C148.575 35.2266 148.765 36.1172 148.765 37.1357C148.765 38.1499 148.575 39.0362 148.196 39.7947C147.816 40.5533 147.284 41.1435 146.598 41.5653C145.912 41.9872 145.108 42.1982 144.188 42.1982ZM144.194 40.5938C144.791 40.5938 145.285 40.4361 145.677 40.1207C146.069 39.8054 146.359 39.3857 146.546 38.8615C146.738 38.3374 146.834 37.7599 146.834 37.1293C146.834 36.5028 146.738 35.9276 146.546 35.4034C146.359 34.875 146.069 34.451 145.677 34.1314C145.285 33.8118 144.791 33.652 144.194 33.652C143.593 33.652 143.095 33.8118 142.698 34.1314C142.306 34.451 142.015 34.875 141.823 35.4034C141.635 35.9276 141.541 36.5028 141.541 37.1293C141.541 37.7599 141.635 38.3374 141.823 38.8615C142.015 39.3857 142.306 39.8054 142.698 40.1207C143.095 40.4361 143.593 40.5938 144.194 40.5938ZM150.628 42V32.1818H152.462V33.7798H152.584C152.788 33.2386 153.123 32.8168 153.587 32.5142C154.052 32.2074 154.608 32.054 155.256 32.054C155.912 32.054 156.462 32.2074 156.905 32.5142C157.352 32.821 157.683 33.2429 157.896 33.7798H157.998C158.232 33.2557 158.605 32.8381 159.116 32.527C159.628 32.2116 160.237 32.054 160.945 32.054C161.835 32.054 162.562 32.3331 163.124 32.8913C163.691 33.4496 163.974 34.2912 163.974 35.4162V42H162.063V35.5952C162.063 34.9304 161.882 34.4489 161.52 34.1506C161.158 33.8523 160.725 33.7031 160.222 33.7031C159.6 33.7031 159.116 33.8949 158.771 34.2784C158.426 34.6577 158.254 35.1456 158.254 35.7422V42H156.349V35.4737C156.349 34.9411 156.183 34.5128 155.85 34.1889C155.518 33.8651 155.085 33.7031 154.553 33.7031C154.19 33.7031 153.856 33.799 153.549 33.9908C153.246 34.1783 153.001 34.4403 152.814 34.777C152.631 35.1136 152.539 35.5036 152.539 35.9467V42H150.628Z" fill="#525866"/>
<path d="M64.1364 156.818V98.6364H67.8636V156.818H64.1364ZM74.8864 117.25C74.6742 115.265 73.7803 113.72 72.2045 112.614C70.6439 111.508 68.6136 110.955 66.1136 110.955C64.3561 110.955 62.8485 111.22 61.5909 111.75C60.3333 112.28 59.3712 113 58.7045 113.909C58.0379 114.818 57.697 115.856 57.6818 117.023C57.6818 117.992 57.9015 118.833 58.3409 119.545C58.7955 120.258 59.4091 120.864 60.1818 121.364C60.9545 121.848 61.8106 122.258 62.75 122.591C63.6894 122.924 64.6364 123.205 65.5909 123.432L69.9545 124.523C71.7121 124.932 73.4015 125.485 75.0227 126.182C76.6591 126.879 78.1212 127.758 79.4091 128.818C80.7121 129.879 81.7424 131.159 82.5 132.659C83.2576 134.159 83.6364 135.917 83.6364 137.932C83.6364 140.659 82.9394 143.061 81.5455 145.136C80.1515 147.197 78.1364 148.811 75.5 149.977C72.8788 151.129 69.7045 151.705 65.9773 151.705C62.3561 151.705 59.2121 151.144 56.5455 150.023C53.8939 148.902 51.8182 147.265 50.3182 145.114C48.8333 142.962 48.0303 140.341 47.9091 137.25H56.2045C56.3258 138.871 56.8258 140.22 57.7045 141.295C58.5833 142.371 59.7273 143.174 61.1364 143.705C62.5606 144.235 64.1515 144.5 65.9091 144.5C67.7424 144.5 69.3485 144.227 70.7273 143.682C72.1212 143.121 73.2121 142.348 74 141.364C74.7879 140.364 75.1894 139.197 75.2045 137.864C75.1894 136.652 74.8333 135.652 74.1364 134.864C73.4394 134.061 72.4621 133.394 71.2045 132.864C69.9621 132.318 68.5076 131.833 66.8409 131.409L61.5455 130.045C57.7121 129.061 54.6818 127.568 52.4545 125.568C50.2424 123.553 49.1364 120.879 49.1364 117.545C49.1364 114.803 49.8788 112.402 51.3636 110.341C52.8636 108.28 54.9015 106.682 57.4773 105.545C60.053 104.394 62.9697 103.818 66.2273 103.818C69.5303 103.818 72.4242 104.394 74.9091 105.545C77.4091 106.682 79.3712 108.265 80.7955 110.295C82.2197 112.311 82.9545 114.629 83 117.25H74.8864ZM92.4034 151L112.199 111.818V111.5H89.2216V104.455H120.926V111.659L101.153 151H92.4034ZM135.852 140.045L135.83 130.114H137.148L149.693 116.091H159.307L143.875 133.273H142.17L135.852 140.045ZM128.352 151V104.455H136.58V151H128.352ZM150.261 151L138.898 135.114L144.443 129.318L160.102 151H150.261ZM175.08 120.545L165.705 155.375H161.202L170.577 120.545H175.08ZM178.361 151V129.182H183.276V132.889H183.531C183.986 131.639 184.739 130.664 185.79 129.963C186.841 129.253 188.096 128.898 189.554 128.898C191.031 128.898 192.277 129.258 193.29 129.977C194.313 130.687 195.032 131.658 195.449 132.889H195.676C196.159 131.677 196.973 130.711 198.119 129.991C199.275 129.262 200.643 128.898 202.224 128.898C204.232 128.898 205.87 129.532 207.139 130.801C208.408 132.07 209.043 133.921 209.043 136.355V151H203.886V137.151C203.886 135.796 203.527 134.807 202.807 134.182C202.087 133.547 201.206 133.23 200.165 133.23C198.924 133.23 197.954 133.618 197.253 134.395C196.562 135.162 196.216 136.161 196.216 137.392V151H191.173V136.938C191.173 135.811 190.832 134.911 190.151 134.239C189.478 133.566 188.598 133.23 187.509 133.23C186.77 133.23 186.098 133.42 185.491 133.798C184.885 134.168 184.402 134.693 184.043 135.375C183.683 136.047 183.503 136.833 183.503 137.733V151H178.361Z" fill="#0E121B"/>
<g filter="url(#filter0_d_1_29625)">
<path d="M20 218.2C20 211.479 20 208.119 21.3079 205.552C22.4584 203.294 24.2942 201.458 26.5521 200.308C29.1191 199 32.4794 199 39.2 199H375.8C382.521 199 385.881 199 388.448 200.308C390.706 201.458 392.542 203.294 393.692 205.552C395 208.119 395 211.479 395 218.2V259.8C395 266.521 395 269.881 393.692 272.448C392.542 274.706 390.706 276.542 388.448 277.692C385.881 279 382.521 279 375.8 279H39.2C32.4794 279 29.1191 279 26.5521 277.692C24.2942 276.542 22.4584 274.706 21.3079 272.448C20 269.881 20 266.521 20 259.8V218.2Z" fill="white"/>
<rect x="39" y="219" width="43" height="43" rx="21.5" fill="#E0FAEC"/>
<g clip-path="url(#clip0_1_29625)">
<path d="M51.3722 235.007V240.142C52.262 237.059 55.0842 234.936 58.2932 234.936H67.1679C69.0865 234.936 70.6417 233.381 70.6417 231.462C70.6417 229.544 69.0865 227.988 67.1679 227.988H58.3909C54.5146 227.988 51.3722 231.131 51.3722 235.007Z" fill="#2EA378"/>
<path d="M67.1679 227.988H63.5263C56.8138 227.988 51.3722 233.43 51.3722 240.142C52.262 237.059 55.0842 234.936 58.2932 234.936H67.1679C69.0865 234.936 70.6417 233.381 70.6417 231.462C70.6417 229.544 69.0865 227.988 67.1679 227.988Z" fill="#37C390"/>
<path d="M64.0931 236.558H59.1125C57.2539 236.558 55.7472 238.065 55.7472 239.924C55.7472 241.782 57.2539 243.289 59.1125 243.289H64.0931C65.9517 243.289 67.4584 241.782 67.4584 239.924C67.4584 238.065 65.9517 236.558 64.0931 236.558Z" fill="#2EA378"/>
<path d="M58.2237 243.596V248.579C58.2237 250.475 56.6869 252.012 54.7911 252.012C52.8953 252.012 51.3585 250.475 51.3585 248.579V243.377C51.3585 239.626 54.3992 236.585 58.15 236.585H64.8466C61.1295 236.797 58.2237 239.873 58.2237 243.596Z" fill="#37C390"/>
</g>
<g filter="url(#filter1_dd_1_29625)">
<path d="M109.739 233.364H111.83V241.545C111.826 242.295 111.667 242.941 111.352 243.483C111.038 244.021 110.598 244.436 110.034 244.727C109.473 245.015 108.82 245.159 108.074 245.159C107.392 245.159 106.778 245.038 106.233 244.795C105.691 244.549 105.261 244.186 104.943 243.705C104.625 243.223 104.466 242.625 104.466 241.909H106.562C106.566 242.223 106.634 242.494 106.767 242.722C106.903 242.949 107.091 243.123 107.33 243.244C107.568 243.366 107.843 243.426 108.153 243.426C108.491 243.426 108.777 243.356 109.011 243.216C109.246 243.072 109.424 242.86 109.545 242.58C109.67 242.299 109.735 241.955 109.739 241.545V233.364ZM117.656 245.17C116.804 245.17 116.065 244.983 115.44 244.608C114.815 244.233 114.331 243.708 113.986 243.034C113.645 242.36 113.475 241.572 113.475 240.67C113.475 239.769 113.645 238.979 113.986 238.301C114.331 237.623 114.815 237.097 115.44 236.722C116.065 236.347 116.804 236.159 117.656 236.159C118.509 236.159 119.247 236.347 119.872 236.722C120.497 237.097 120.98 237.623 121.321 238.301C121.666 238.979 121.838 239.769 121.838 240.67C121.838 241.572 121.666 242.36 121.321 243.034C120.98 243.708 120.497 244.233 119.872 244.608C119.247 244.983 118.509 245.17 117.656 245.17ZM117.668 243.523C118.13 243.523 118.516 243.396 118.827 243.142C119.137 242.884 119.369 242.54 119.52 242.108C119.675 241.676 119.753 241.195 119.753 240.665C119.753 240.131 119.675 239.648 119.52 239.216C119.369 238.78 119.137 238.434 118.827 238.176C118.516 237.919 118.13 237.79 117.668 237.79C117.194 237.79 116.8 237.919 116.486 238.176C116.175 238.434 115.942 238.78 115.787 239.216C115.636 239.648 115.56 240.131 115.56 240.665C115.56 241.195 115.636 241.676 115.787 242.108C115.942 242.54 116.175 242.884 116.486 243.142C116.8 243.396 117.194 243.523 117.668 243.523ZM123.408 245V236.273H125.465V245H123.408ZM124.442 235.034C124.116 235.034 123.836 234.926 123.601 234.71C123.366 234.491 123.249 234.227 123.249 233.92C123.249 233.61 123.366 233.347 123.601 233.131C123.836 232.911 124.116 232.801 124.442 232.801C124.772 232.801 125.052 232.911 125.283 233.131C125.518 233.347 125.635 233.61 125.635 233.92C125.635 234.227 125.518 234.491 125.283 234.71C125.052 234.926 124.772 235.034 124.442 235.034ZM129.461 239.886V245H127.404V236.273H129.37V237.756H129.472C129.673 237.267 129.993 236.879 130.432 236.591C130.875 236.303 131.423 236.159 132.074 236.159C132.677 236.159 133.201 236.288 133.648 236.545C134.099 236.803 134.447 237.176 134.694 237.665C134.944 238.153 135.067 238.746 135.063 239.443V245H133.006V239.761C133.006 239.178 132.855 238.722 132.552 238.392C132.252 238.062 131.838 237.898 131.307 237.898C130.947 237.898 130.627 237.977 130.347 238.136C130.07 238.292 129.853 238.517 129.694 238.812C129.538 239.108 129.461 239.466 129.461 239.886ZM140.861 245V233.364H148.316V235.131H142.969V238.29H147.805V240.057H142.969V245H140.861ZM152.026 233.364V245H149.97V233.364H152.026ZM157.829 245.17C156.954 245.17 156.198 244.989 155.562 244.625C154.929 244.258 154.443 243.739 154.102 243.068C153.761 242.394 153.59 241.6 153.59 240.688C153.59 239.79 153.761 239.002 154.102 238.324C154.447 237.642 154.928 237.112 155.545 236.733C156.162 236.35 156.888 236.159 157.721 236.159C158.259 236.159 158.767 236.246 159.244 236.42C159.725 236.591 160.149 236.856 160.517 237.216C160.888 237.576 161.179 238.034 161.392 238.591C161.604 239.144 161.71 239.803 161.71 240.568V241.199H154.556V239.812H159.738C159.734 239.419 159.649 239.068 159.482 238.761C159.316 238.451 159.083 238.206 158.784 238.028C158.488 237.85 158.143 237.761 157.75 237.761C157.329 237.761 156.96 237.864 156.642 238.068C156.323 238.269 156.075 238.534 155.897 238.864C155.723 239.189 155.634 239.547 155.63 239.938V241.148C155.63 241.655 155.723 242.091 155.909 242.455C156.094 242.814 156.354 243.091 156.687 243.284C157.02 243.473 157.411 243.568 157.857 243.568C158.157 243.568 158.428 243.527 158.67 243.443C158.912 243.356 159.123 243.229 159.301 243.062C159.479 242.896 159.613 242.689 159.704 242.443L161.625 242.659C161.503 243.167 161.272 243.61 160.931 243.989C160.594 244.364 160.162 244.655 159.636 244.864C159.109 245.068 158.507 245.17 157.829 245.17ZM164.768 236.273L166.529 239.494L168.319 236.273H170.495L167.865 240.636L170.541 245H168.376L166.529 241.858L164.7 245H162.518L165.177 240.636L162.586 236.273H164.768ZM171.91 248.273V236.273H173.933V237.716H174.052C174.158 237.504 174.308 237.278 174.501 237.04C174.694 236.797 174.956 236.591 175.285 236.42C175.615 236.246 176.035 236.159 176.547 236.159C177.221 236.159 177.829 236.331 178.371 236.676C178.916 237.017 179.348 237.523 179.666 238.193C179.988 238.86 180.149 239.678 180.149 240.648C180.149 241.606 179.992 242.42 179.677 243.091C179.363 243.761 178.935 244.273 178.393 244.625C177.852 244.977 177.238 245.153 176.552 245.153C176.052 245.153 175.638 245.07 175.308 244.903C174.979 244.737 174.713 244.536 174.513 244.301C174.316 244.062 174.162 243.837 174.052 243.625H173.967V248.273H171.91ZM173.927 240.636C173.927 241.201 174.007 241.695 174.166 242.119C174.329 242.544 174.562 242.875 174.865 243.114C175.172 243.348 175.543 243.466 175.979 243.466C176.433 243.466 176.814 243.345 177.121 243.102C177.427 242.856 177.658 242.521 177.814 242.097C177.973 241.669 178.052 241.182 178.052 240.636C178.052 240.095 177.975 239.614 177.819 239.193C177.664 238.773 177.433 238.443 177.126 238.205C176.819 237.966 176.437 237.847 175.979 237.847C175.539 237.847 175.166 237.962 174.859 238.193C174.552 238.424 174.319 238.748 174.16 239.165C174.005 239.581 173.927 240.072 173.927 240.636ZM185.541 245.17C184.689 245.17 183.95 244.983 183.325 244.608C182.7 244.233 182.215 243.708 181.871 243.034C181.53 242.36 181.359 241.572 181.359 240.67C181.359 239.769 181.53 238.979 181.871 238.301C182.215 237.623 182.7 237.097 183.325 236.722C183.95 236.347 184.689 236.159 185.541 236.159C186.393 236.159 187.132 236.347 187.757 236.722C188.382 237.097 188.865 237.623 189.206 238.301C189.551 238.979 189.723 239.769 189.723 240.67C189.723 241.572 189.551 242.36 189.206 243.034C188.865 243.708 188.382 244.233 187.757 244.608C187.132 244.983 186.393 245.17 185.541 245.17ZM185.552 243.523C186.015 243.523 186.401 243.396 186.712 243.142C187.022 242.884 187.253 242.54 187.405 242.108C187.56 241.676 187.638 241.195 187.638 240.665C187.638 240.131 187.56 239.648 187.405 239.216C187.253 238.78 187.022 238.434 186.712 238.176C186.401 237.919 186.015 237.79 185.552 237.79C185.079 237.79 184.685 237.919 184.371 238.176C184.06 238.434 183.827 238.78 183.672 239.216C183.52 239.648 183.445 240.131 183.445 240.665C183.445 241.195 183.52 241.676 183.672 242.108C183.827 242.54 184.06 242.884 184.371 243.142C184.685 243.396 185.079 243.523 185.552 243.523ZM191.293 245V236.273H193.35V245H191.293ZM192.327 235.034C192.001 235.034 191.721 234.926 191.486 234.71C191.251 234.491 191.134 234.227 191.134 233.92C191.134 233.61 191.251 233.347 191.486 233.131C191.721 232.911 192.001 232.801 192.327 232.801C192.656 232.801 192.937 232.911 193.168 233.131C193.403 233.347 193.52 233.61 193.52 233.92C193.52 234.227 193.403 234.491 193.168 234.71C192.937 234.926 192.656 235.034 192.327 235.034ZM197.345 239.886V245H195.289V236.273H197.254V237.756H197.357C197.558 237.267 197.878 236.879 198.317 236.591C198.76 236.303 199.308 236.159 199.959 236.159C200.561 236.159 201.086 236.288 201.533 236.545C201.984 236.803 202.332 237.176 202.578 237.665C202.828 238.153 202.951 238.746 202.948 239.443V245H200.891V239.761C200.891 239.178 200.739 238.722 200.436 238.392C200.137 238.062 199.722 237.898 199.192 237.898C198.832 237.898 198.512 237.977 198.232 238.136C197.955 238.292 197.737 238.517 197.578 238.812C197.423 239.108 197.345 239.466 197.345 239.886ZM209.221 236.273V237.864H204.203V236.273H209.221ZM205.442 234.182H207.499V242.375C207.499 242.652 207.541 242.864 207.624 243.011C207.711 243.155 207.825 243.254 207.965 243.307C208.105 243.36 208.26 243.386 208.431 243.386C208.56 243.386 208.677 243.377 208.783 243.358C208.893 243.339 208.976 243.322 209.033 243.307L209.38 244.915C209.27 244.953 209.113 244.994 208.908 245.04C208.707 245.085 208.461 245.112 208.169 245.119C207.654 245.134 207.19 245.057 206.777 244.886C206.364 244.712 206.037 244.443 205.794 244.08C205.556 243.716 205.438 243.261 205.442 242.716V234.182ZM214.137 235.131V233.364H223.421V235.131H219.824V245H217.734V235.131H214.137ZM227.485 245.17C226.633 245.17 225.894 244.983 225.269 244.608C224.644 244.233 224.159 243.708 223.815 243.034C223.474 242.36 223.303 241.572 223.303 240.67C223.303 239.769 223.474 238.979 223.815 238.301C224.159 237.623 224.644 237.097 225.269 236.722C225.894 236.347 226.633 236.159 227.485 236.159C228.337 236.159 229.076 236.347 229.701 236.722C230.326 237.097 230.809 237.623 231.15 238.301C231.495 238.979 231.667 239.769 231.667 240.67C231.667 241.572 231.495 242.36 231.15 243.034C230.809 243.708 230.326 244.233 229.701 244.608C229.076 244.983 228.337 245.17 227.485 245.17ZM227.496 243.523C227.959 243.523 228.345 243.396 228.656 243.142C228.966 242.884 229.197 242.54 229.349 242.108C229.504 241.676 229.582 241.195 229.582 240.665C229.582 240.131 229.504 239.648 229.349 239.216C229.197 238.78 228.966 238.434 228.656 238.176C228.345 237.919 227.959 237.79 227.496 237.79C227.023 237.79 226.629 237.919 226.315 238.176C226.004 238.434 225.771 238.78 225.616 239.216C225.464 239.648 225.389 240.131 225.389 240.665C225.389 241.195 225.464 241.676 225.616 242.108C225.771 242.54 226.004 242.884 226.315 243.142C226.629 243.396 227.023 243.523 227.496 243.523ZM236.475 245.153C235.79 245.153 235.176 244.977 234.634 244.625C234.093 244.273 233.665 243.761 233.35 243.091C233.036 242.42 232.879 241.606 232.879 240.648C232.879 239.678 233.038 238.86 233.356 238.193C233.678 237.523 234.112 237.017 234.657 236.676C235.203 236.331 235.811 236.159 236.481 236.159C236.992 236.159 237.413 236.246 237.742 236.42C238.072 236.591 238.333 236.797 238.526 237.04C238.72 237.278 238.869 237.504 238.975 237.716H239.061V233.364H241.123V245H239.1V243.625H238.975C238.869 243.837 238.716 244.062 238.515 244.301C238.314 244.536 238.049 244.737 237.72 244.903C237.39 245.07 236.975 245.153 236.475 245.153ZM237.049 243.466C237.485 243.466 237.856 243.348 238.163 243.114C238.47 242.875 238.703 242.544 238.862 242.119C239.021 241.695 239.1 241.201 239.1 240.636C239.1 240.072 239.021 239.581 238.862 239.165C238.706 238.748 238.475 238.424 238.169 238.193C237.865 237.962 237.492 237.847 237.049 237.847C236.591 237.847 236.208 237.966 235.901 238.205C235.595 238.443 235.364 238.773 235.208 239.193C235.053 239.614 234.975 240.095 234.975 240.636C234.975 241.182 235.053 241.669 235.208 242.097C235.367 242.521 235.6 242.856 235.907 243.102C236.218 243.345 236.598 243.466 237.049 243.466ZM245.65 245.176C245.097 245.176 244.599 245.078 244.156 244.881C243.716 244.68 243.368 244.384 243.11 243.994C242.857 243.604 242.73 243.123 242.73 242.551C242.73 242.059 242.821 241.652 243.002 241.33C243.184 241.008 243.432 240.75 243.747 240.557C244.061 240.364 244.415 240.218 244.809 240.119C245.207 240.017 245.618 239.943 246.042 239.898C246.554 239.845 246.968 239.797 247.287 239.756C247.605 239.71 247.836 239.642 247.98 239.551C248.127 239.456 248.201 239.311 248.201 239.114V239.08C248.201 238.652 248.074 238.32 247.821 238.085C247.567 237.85 247.201 237.733 246.724 237.733C246.22 237.733 245.821 237.843 245.525 238.062C245.234 238.282 245.037 238.542 244.934 238.841L243.014 238.568C243.165 238.038 243.415 237.595 243.764 237.239C244.112 236.879 244.538 236.61 245.042 236.432C245.546 236.25 246.103 236.159 246.713 236.159C247.133 236.159 247.552 236.208 247.968 236.307C248.385 236.405 248.766 236.568 249.11 236.795C249.455 237.019 249.732 237.324 249.94 237.71C250.152 238.097 250.258 238.58 250.258 239.159V245H248.281V243.801H248.213C248.088 244.044 247.912 244.271 247.684 244.483C247.461 244.691 247.179 244.86 246.838 244.989C246.501 245.114 246.105 245.176 245.65 245.176ZM246.184 243.665C246.597 243.665 246.955 243.583 247.258 243.42C247.561 243.254 247.794 243.034 247.957 242.761C248.124 242.489 248.207 242.191 248.207 241.869V240.841C248.143 240.894 248.033 240.943 247.877 240.989C247.726 241.034 247.555 241.074 247.366 241.108C247.177 241.142 246.989 241.172 246.804 241.199C246.618 241.225 246.457 241.248 246.321 241.267C246.014 241.309 245.739 241.377 245.497 241.472C245.254 241.566 245.063 241.699 244.923 241.869C244.783 242.036 244.713 242.252 244.713 242.517C244.713 242.896 244.851 243.182 245.127 243.375C245.404 243.568 245.756 243.665 246.184 243.665ZM253.116 248.273C252.836 248.273 252.576 248.25 252.338 248.205C252.103 248.163 251.915 248.114 251.775 248.057L252.253 246.455C252.552 246.542 252.819 246.583 253.054 246.58C253.289 246.576 253.495 246.502 253.673 246.358C253.855 246.218 254.008 245.983 254.133 245.653L254.309 245.182L251.145 236.273H253.326L255.338 242.864H255.429L257.446 236.273H259.633L256.139 246.057C255.976 246.519 255.76 246.915 255.491 247.244C255.222 247.578 254.893 247.831 254.503 248.006C254.116 248.184 253.654 248.273 253.116 248.273Z" fill="#0E121B"/>
</g>
</g>
<defs>
<filter id="filter0_d_1_29625" x="0" y="195" width="415" height="120" filterUnits="userSpaceOnUse" color-interpolation-filters="sRGB">
<feFlood flood-opacity="0" result="BackgroundImageFix"/>
<feColorMatrix in="SourceAlpha" type="matrix" values="0 0 0 0 0 0 0 0 0 0 0 0 0 0 0 0 0 0 127 0" result="hardAlpha"/>
<feMorphology radius="12" operator="erode" in="SourceAlpha" result="effect1_dropShadow_1_29625"/>
<feOffset dy="16"/>
<feGaussianBlur stdDeviation="16"/>
<feComposite in2="hardAlpha" operator="out"/>
<feColorMatrix type="matrix" values="0 0 0 0 0.054902 0 0 0 0 0.0705882 0 0 0 0 0.105882 0 0 0 0.1 0"/>
<feBlend mode="normal" in2="BackgroundImageFix" result="effect1_dropShadow_1_29625"/>
<feBlend mode="normal" in="SourceGraphic" in2="effect1_dropShadow_1_29625" result="shape"/>
</filter>
<filter id="filter1_dd_1_29625" x="93" y="221" width="293" height="38" filterUnits="userSpaceOnUse" color-interpolation-filters="sRGB">
<feFlood flood-opacity="0" result="BackgroundImageFix"/>
<feColorMatrix in="SourceAlpha" type="matrix" values="0 0 0 0 0 0 0 0 0 0 0 0 0 0 0 0 0 0 127 0" result="hardAlpha"/>
<feOffset dy="1"/>
<feGaussianBlur stdDeviation="1.5"/>
<feComposite in2="hardAlpha" operator="out"/>
<feColorMatrix type="matrix" values="0 0 0 0 0.560784 0 0 0 0 0.560784 0 0 0 0 0.560784 0 0 0 0.2 0"/>
<feBlend mode="normal" in2="BackgroundImageFix" result="effect1_dropShadow_1_29625"/>
<feColorMatrix in="SourceAlpha" type="matrix" values="0 0 0 0 0 0 0 0 0 0 0 0 0 0 0 0 0 0 127 0" result="hardAlpha"/>
<feMorphology radius="1" operator="dilate" in="SourceAlpha" result="effect2_dropShadow_1_29625"/>
<feOffset/>
<feComposite in2="hardAlpha" operator="out"/>
<feColorMatrix type="matrix" values="0 0 0 0 0.921569 0 0 0 0 0.921569 0 0 0 0 0.921569 0 0 0 1 0"/>
<feBlend mode="normal" in2="effect1_dropShadow_1_29625" result="effect2_dropShadow_1_29625"/>
<feBlend mode="normal" in="SourceGraphic" in2="effect2_dropShadow_1_29625" result="shape"/>
</filter>
<clipPath id="clip0_1_29625">
<rect width="24" height="24" fill="white" transform="translate(49 228)"/>
</clipPath>
</defs>
</svg>
