<svg width="311" height="277" viewBox="0 0 311 277" fill="none" xmlns="http://www.w3.org/2000/svg">
<rect x="15" y="104" width="296" height="173" rx="16" fill="#D4FFCD"/>
<path d="M40.7926 134.609V132.909H50.924V134.609H46.8395V146H44.8707V134.609H40.7926ZM55.4512 146.198C54.5308 146.198 53.7275 145.987 53.0414 145.565C52.3554 145.143 51.8227 144.553 51.4434 143.795C51.0642 143.036 50.8745 142.15 50.8745 141.136C50.8745 140.117 51.0642 139.227 51.4434 138.464C51.8227 137.701 52.3554 137.109 53.0414 136.687C53.7275 136.265 54.5308 136.054 55.4512 136.054C56.3717 136.054 57.175 136.265 57.861 136.687C58.5471 137.109 59.0798 137.701 59.459 138.464C59.8383 139.227 60.0279 140.117 60.0279 141.136C60.0279 142.15 59.8383 143.036 59.459 143.795C59.0798 144.553 58.5471 145.143 57.861 145.565C57.175 145.987 56.3717 146.198 55.4512 146.198ZM55.4576 144.594C56.0542 144.594 56.5485 144.436 56.9406 144.121C57.3326 143.805 57.6224 143.386 57.8099 142.862C58.0017 142.337 58.0975 141.76 58.0975 141.129C58.0975 140.503 58.0017 139.928 57.8099 139.403C57.6224 138.875 57.3326 138.451 56.9406 138.131C56.5485 137.812 56.0542 137.652 55.4576 137.652C54.8568 137.652 54.3582 137.812 53.9619 138.131C53.5698 138.451 53.2779 138.875 53.0862 139.403C52.8987 139.928 52.8049 140.503 52.8049 141.129C52.8049 141.76 52.8987 142.337 53.0862 142.862C53.2779 143.386 53.5698 143.805 53.9619 144.121C54.3582 144.436 54.8568 144.594 55.4576 144.594ZM66.4744 136.182V137.716H61.1115V136.182H66.4744ZM62.5497 133.83H64.4609V143.117C64.4609 143.488 64.5163 143.767 64.6271 143.955C64.7379 144.138 64.8806 144.263 65.0553 144.332C65.2343 144.396 65.4282 144.428 65.637 144.428C65.7904 144.428 65.9247 144.417 66.0397 144.396C66.1548 144.374 66.2443 144.357 66.3082 144.344L66.6534 145.923C66.5426 145.966 66.3849 146.009 66.1803 146.051C65.9758 146.098 65.7201 146.124 65.4133 146.128C64.9105 146.136 64.4417 146.047 64.0071 145.859C63.5724 145.672 63.2208 145.382 62.9524 144.99C62.6839 144.598 62.5497 144.106 62.5497 143.513V133.83ZM71.1758 146.217C70.5536 146.217 69.9911 146.102 69.4883 145.872C68.9855 145.638 68.587 145.299 68.293 144.856C68.0032 144.413 67.8583 143.869 67.8583 143.226C67.8583 142.672 67.9649 142.216 68.1779 141.858C68.391 141.5 68.6786 141.217 69.0409 141.008C69.4031 140.799 69.8079 140.641 70.2553 140.535C70.7028 140.428 71.1588 140.347 71.6232 140.292C72.2113 140.224 72.6886 140.168 73.0551 140.126C73.4215 140.079 73.6879 140.004 73.8541 139.902C74.0203 139.8 74.1034 139.634 74.1034 139.403V139.359C74.1034 138.8 73.9457 138.368 73.6303 138.061C73.3193 137.754 72.8548 137.601 72.2369 137.601C71.5934 137.601 71.0863 137.744 70.7156 138.029C70.3491 138.31 70.0955 138.624 69.9549 138.969L68.1588 138.56C68.3718 137.963 68.6829 137.482 69.092 137.115C69.5053 136.744 69.9805 136.476 70.5174 136.31C71.0543 136.139 71.619 136.054 72.2113 136.054C72.6034 136.054 73.0188 136.101 73.4578 136.195C73.9009 136.284 74.3143 136.45 74.6978 136.693C75.0856 136.936 75.4031 137.283 75.6502 137.735C75.8974 138.183 76.021 138.764 76.021 139.48V146H74.1545V144.658H74.0778C73.9542 144.905 73.7688 145.148 73.5217 145.386C73.2745 145.625 72.957 145.823 72.5693 145.981C72.1815 146.138 71.717 146.217 71.1758 146.217ZM71.5913 144.683C72.1197 144.683 72.5714 144.579 72.9464 144.37C73.3257 144.161 73.6133 143.888 73.8093 143.552C74.0096 143.211 74.1097 142.847 74.1097 142.459V141.193C74.0416 141.261 73.9095 141.325 73.7134 141.385C73.5217 141.44 73.3022 141.489 73.0551 141.532C72.8079 141.57 72.5671 141.607 72.3328 141.641C72.0984 141.67 71.9024 141.696 71.7447 141.717C71.3739 141.764 71.0352 141.843 70.7284 141.954C70.4258 142.065 70.1829 142.224 69.9997 142.433C69.8207 142.638 69.7312 142.911 69.7312 143.251C69.7312 143.724 69.9059 144.082 70.2553 144.325C70.6048 144.564 71.0501 144.683 71.5913 144.683ZM80.2078 132.909V146H78.2966V132.909H80.2078ZM87.1561 146V132.909H95.3635V134.609H89.1312V138.598H94.9352V140.292H89.1312V144.3H95.4402V146H87.1561ZM100.436 146.217C99.8135 146.217 99.251 146.102 98.7481 145.872C98.2453 145.638 97.8469 145.299 97.5528 144.856C97.2631 144.413 97.1182 143.869 97.1182 143.226C97.1182 142.672 97.2247 142.216 97.4378 141.858C97.6508 141.5 97.9385 141.217 98.3007 141.008C98.6629 140.799 99.0677 140.641 99.5152 140.535C99.9626 140.428 100.419 140.347 100.883 140.292C101.471 140.224 101.948 140.168 102.315 140.126C102.681 140.079 102.948 140.004 103.114 139.902C103.28 139.8 103.363 139.634 103.363 139.403V139.359C103.363 138.8 103.206 138.368 102.89 138.061C102.579 137.754 102.115 137.601 101.497 137.601C100.853 137.601 100.346 137.744 99.9754 138.029C99.6089 138.31 99.3554 138.624 99.2148 138.969L97.4186 138.56C97.6317 137.963 97.9427 137.482 98.3518 137.115C98.7652 136.744 99.2403 136.476 99.7773 136.31C100.314 136.139 100.879 136.054 101.471 136.054C101.863 136.054 102.279 136.101 102.718 136.195C103.161 136.284 103.574 136.45 103.958 136.693C104.345 136.936 104.663 137.283 104.91 137.735C105.157 138.183 105.281 138.764 105.281 139.48V146H103.414V144.658H103.338C103.214 144.905 103.029 145.148 102.782 145.386C102.534 145.625 102.217 145.823 101.829 145.981C101.441 146.138 100.977 146.217 100.436 146.217ZM100.851 144.683C101.38 144.683 101.831 144.579 102.206 144.37C102.585 144.161 102.873 143.888 103.069 143.552C103.269 143.211 103.37 142.847 103.37 142.459V141.193C103.301 141.261 103.169 141.325 102.973 141.385C102.782 141.44 102.562 141.489 102.315 141.532C102.068 141.57 101.827 141.607 101.593 141.641C101.358 141.67 101.162 141.696 101.005 141.717C100.634 141.764 100.295 141.843 99.9882 141.954C99.6856 142.065 99.4427 142.224 99.2595 142.433C99.0805 142.638 98.991 142.911 98.991 143.251C98.991 143.724 99.1658 144.082 99.5152 144.325C99.8646 144.564 100.31 144.683 100.851 144.683ZM107.556 146V136.182H109.404V137.741H109.506C109.685 137.213 110 136.798 110.452 136.495C110.908 136.188 111.424 136.035 111.999 136.035C112.118 136.035 112.259 136.039 112.421 136.048C112.587 136.056 112.717 136.067 112.811 136.08V137.908C112.734 137.886 112.598 137.863 112.402 137.837C112.206 137.808 112.01 137.793 111.814 137.793C111.362 137.793 110.959 137.888 110.605 138.08C110.256 138.268 109.979 138.53 109.774 138.866C109.57 139.199 109.468 139.578 109.468 140.004V146H107.556ZM116.106 140.17V146H114.195V136.182H116.029V137.78H116.151C116.376 137.26 116.73 136.842 117.212 136.527C117.697 136.212 118.309 136.054 119.046 136.054C119.715 136.054 120.301 136.195 120.804 136.476C121.307 136.753 121.697 137.166 121.974 137.716C122.251 138.266 122.389 138.945 122.389 139.755V146H120.478V139.985C120.478 139.273 120.293 138.717 119.922 138.317C119.551 137.912 119.042 137.71 118.394 137.71C117.951 137.71 117.557 137.805 117.212 137.997C116.871 138.189 116.6 138.47 116.4 138.841C116.204 139.207 116.106 139.651 116.106 140.17ZM124.682 146V136.182H126.594V146H124.682ZM125.648 134.667C125.315 134.667 125.03 134.556 124.791 134.335C124.557 134.109 124.44 133.84 124.44 133.529C124.44 133.214 124.557 132.945 124.791 132.724C125.03 132.498 125.315 132.385 125.648 132.385C125.98 132.385 126.263 132.498 126.498 132.724C126.736 132.945 126.856 133.214 126.856 133.529C126.856 133.84 126.736 134.109 126.498 134.335C126.263 134.556 125.98 134.667 125.648 134.667ZM130.806 140.17V146H128.895V136.182H130.729V137.78H130.851C131.077 137.26 131.43 136.842 131.912 136.527C132.398 136.212 133.009 136.054 133.746 136.054C134.415 136.054 135.001 136.195 135.504 136.476C136.007 136.753 136.397 137.166 136.674 137.716C136.951 138.266 137.089 138.945 137.089 139.755V146H135.178V139.985C135.178 139.273 134.993 138.717 134.622 138.317C134.251 137.912 133.742 137.71 133.094 137.71C132.651 137.71 132.257 137.805 131.912 137.997C131.571 138.189 131.3 138.47 131.1 138.841C130.904 139.207 130.806 139.651 130.806 140.17ZM143.499 149.886C142.719 149.886 142.048 149.784 141.486 149.58C140.927 149.375 140.471 149.104 140.118 148.768C139.764 148.431 139.5 148.063 139.325 147.662L140.968 146.984C141.083 147.172 141.236 147.37 141.428 147.579C141.624 147.792 141.888 147.973 142.221 148.122C142.557 148.271 142.99 148.346 143.518 148.346C144.243 148.346 144.842 148.169 145.315 147.815C145.788 147.466 146.024 146.908 146.024 146.141V144.21H145.903C145.788 144.419 145.621 144.651 145.404 144.907C145.191 145.163 144.897 145.384 144.522 145.572C144.147 145.759 143.659 145.853 143.058 145.853C142.283 145.853 141.584 145.672 140.962 145.31C140.344 144.943 139.854 144.404 139.491 143.692C139.133 142.977 138.954 142.097 138.954 141.053C138.954 140.009 139.131 139.114 139.485 138.368C139.843 137.622 140.333 137.051 140.955 136.655C141.577 136.254 142.283 136.054 143.071 136.054C143.68 136.054 144.172 136.156 144.547 136.361C144.922 136.561 145.214 136.795 145.423 137.064C145.636 137.332 145.8 137.569 145.915 137.773H146.056V136.182H147.929V146.217C147.929 147.061 147.733 147.754 147.341 148.295C146.949 148.836 146.418 149.237 145.749 149.496C145.084 149.756 144.334 149.886 143.499 149.886ZM143.48 144.268C144.03 144.268 144.494 144.14 144.873 143.884C145.257 143.624 145.547 143.254 145.743 142.772C145.943 142.286 146.043 141.705 146.043 141.027C146.043 140.366 145.945 139.785 145.749 139.282C145.553 138.779 145.266 138.387 144.886 138.106C144.507 137.82 144.038 137.678 143.48 137.678C142.905 137.678 142.425 137.827 142.042 138.125C141.658 138.419 141.368 138.82 141.172 139.327C140.981 139.834 140.885 140.401 140.885 141.027C140.885 141.67 140.983 142.235 141.179 142.721C141.375 143.207 141.665 143.586 142.048 143.859C142.436 144.131 142.913 144.268 143.48 144.268ZM157.579 138.579L155.847 138.886C155.775 138.664 155.66 138.453 155.502 138.253C155.348 138.053 155.14 137.888 154.875 137.761C154.611 137.633 154.281 137.569 153.885 137.569C153.344 137.569 152.892 137.69 152.53 137.933C152.167 138.172 151.986 138.481 151.986 138.86C151.986 139.188 152.108 139.452 152.351 139.653C152.594 139.853 152.986 140.017 153.527 140.145L155.086 140.503C155.99 140.712 156.663 141.033 157.106 141.468C157.549 141.903 157.771 142.467 157.771 143.162C157.771 143.75 157.601 144.274 157.26 144.734C156.923 145.19 156.452 145.548 155.847 145.808C155.246 146.068 154.549 146.198 153.757 146.198C152.657 146.198 151.76 145.964 151.066 145.495C150.371 145.022 149.945 144.351 149.787 143.482L151.635 143.2C151.75 143.682 151.986 144.046 152.344 144.293C152.702 144.536 153.169 144.658 153.744 144.658C154.371 144.658 154.871 144.528 155.246 144.268C155.621 144.004 155.809 143.682 155.809 143.303C155.809 142.996 155.694 142.738 155.464 142.529C155.238 142.32 154.89 142.163 154.422 142.056L152.76 141.692C151.844 141.483 151.166 141.151 150.727 140.695C150.292 140.239 150.075 139.661 150.075 138.962C150.075 138.383 150.237 137.876 150.561 137.441C150.885 137.006 151.332 136.668 151.903 136.425C152.474 136.178 153.128 136.054 153.866 136.054C154.927 136.054 155.762 136.284 156.371 136.744C156.981 137.2 157.383 137.812 157.579 138.579Z" fill="#525866"/>
<path d="M61.9545 198.455V245H53.5V209.227H53.1136C52.8106 209.697 52.2348 210.205 51.3864 210.75C50.5379 211.28 49.447 211.735 48.1136 212.114C46.7955 212.492 45.2576 212.682 43.5 212.682V205.864C45.1061 205.864 46.5379 205.583 47.7955 205.023C49.053 204.462 50.1212 203.765 51 202.932C51.8939 202.098 52.5833 201.273 53.0682 200.455C53.553 199.636 53.8182 198.97 53.8636 198.455H61.9545ZM73.8239 245V238.909L89.983 223.068C91.5284 221.508 92.8163 220.121 93.8466 218.909C94.8769 217.697 95.6496 216.523 96.1648 215.386C96.6799 214.25 96.9375 213.038 96.9375 211.75C96.9375 210.28 96.6042 209.023 95.9375 207.977C95.2708 206.917 94.3542 206.098 93.1875 205.523C92.0208 204.947 90.6951 204.659 89.2102 204.659C87.6799 204.659 86.339 204.977 85.1875 205.614C84.036 206.235 83.142 207.121 82.5057 208.273C81.8845 209.424 81.5739 210.795 81.5739 212.386H73.5511C73.5511 209.432 74.2254 206.864 75.5739 204.682C76.9223 202.5 78.7784 200.811 81.142 199.614C83.5208 198.417 86.2481 197.818 89.3239 197.818C92.4451 197.818 95.1875 198.402 97.5511 199.568C99.9148 200.735 101.748 202.333 103.051 204.364C104.369 206.394 105.028 208.712 105.028 211.318C105.028 213.061 104.695 214.773 104.028 216.455C103.362 218.136 102.188 220 100.506 222.045C98.839 224.091 96.4981 226.568 93.483 229.477L85.4602 237.636V237.955H105.733V245H73.8239ZM121.165 234.045L121.142 224.114H122.46L135.006 210.091H144.619L129.188 227.273H127.483L121.165 234.045ZM113.665 245V198.455H121.892V245H113.665ZM135.574 245L124.21 229.114L129.756 223.318L145.415 245H135.574ZM162.08 242.25V210.795H169.216V242.25H162.08ZM149.92 230.091V222.955H181.375V230.091H149.92Z" fill="#0E121B"/>
<g filter="url(#filter0_d_1_29598)">
<path d="M15 17.0288C15 12.1183 15 9.66299 15.9557 7.78741C16.7963 6.13761 18.1376 4.79627 19.7874 3.95565C21.663 3 24.1183 3 29.0288 3H274.971C279.882 3 282.337 3 284.213 3.95565C285.862 4.79627 287.204 6.13761 288.044 7.78741C289 9.66299 289 12.1183 289 17.0288V79.9605C289 84.8711 289 87.3263 288.044 89.2019C287.204 90.8517 285.862 92.1931 284.213 93.0337C282.337 93.9893 279.882 93.9893 274.971 93.9893H29.0288C24.1183 93.9893 21.663 93.9893 19.7874 93.0337C18.1376 92.1931 16.7963 90.8517 15.9557 89.2019C15 87.3263 15 84.8711 15 79.9605V17.0288Z" fill="white"/>
<g clip-path="url(#clip0_1_29598)">
<rect x="28.8826" y="19.0748" width="31.4187" height="31.4187" rx="15.7093" fill="#CDF19F"/>
<g clip-path="url(#clip1_1_29598)">
<path d="M60.9573 39.2313V46.1885C60.9573 47.2303 60.1128 48.0748 59.071 48.0748H30.0382C28.9964 48.0748 28.1519 47.2303 28.1519 46.1885V39.2313C28.1519 38.1896 28.9964 37.345 30.0382 37.345H36.4311C37.2259 37.345 37.9354 37.8433 38.2054 38.5909L38.6674 39.871C38.9372 40.6186 39.6468 41.1169 40.4417 41.1169H48.6676C49.4625 41.1169 50.172 40.6187 50.4419 39.871L50.904 38.5909C51.1738 37.8433 51.8834 37.345 52.6783 37.345H59.0711C60.1128 37.345 60.9573 38.1896 60.9573 39.2313Z" fill="url(#paint0_linear_1_29598)"/>
<path d="M28.1519 43.3829V46.1886C28.1519 47.2303 28.9964 48.0749 30.0382 48.0749H59.071C60.1128 48.0749 60.9573 47.2303 60.9573 46.1886V43.3829H28.1519Z" fill="url(#paint1_linear_1_29598)"/>
<path d="M52.6513 43.2351C52.5727 43.1278 52.4462 43.0571 52.3011 43.0571H36.8073C36.5461 43.0571 36.344 43.2863 36.3768 43.5455L36.6179 45.4551C36.6334 45.5772 36.6996 45.6807 36.7925 45.7491C36.8093 45.7724 38.147 47.1083 39.1158 48.075H57.4911L52.6513 43.2351Z" fill="url(#paint2_linear_1_29598)"/>
<path d="M52.0606 45.8347H37.0493C36.8306 45.8347 36.6461 45.672 36.6187 45.4551L36.3775 43.5455C36.3448 43.2862 36.5468 43.0571 36.8081 43.0571H52.3018C52.5631 43.0571 52.7651 43.2863 52.7324 43.5455L52.4912 45.4551C52.4638 45.672 52.2793 45.8347 52.0606 45.8347Z" fill="url(#paint3_linear_1_29598)"/>
</g>
</g>
<path d="M36.6121 26.9644L43.9164 35.3436C44.4236 35.9254 45.4313 35.9254 45.9384 35.3436L53.2427 26.9644C53.8741 26.2401 53.2785 25.2016 52.2317 25.2016H49.4103V15.2145C49.4103 14.9252 49.14 14.6908 48.8065 14.6908H41.0483C40.7148 14.6908 40.4445 14.9252 40.4445 15.2145V25.2016H37.6232C36.5763 25.2016 35.9807 26.2401 36.6121 26.9644Z" fill="#29A060"/>
<g filter="url(#filter1_dd_1_29598)">
<path d="M80.0957 27.4587H77.2146V18.9564H80.1539C80.998 18.9564 81.7231 19.1266 82.3293 19.467C82.9381 19.8047 83.4059 20.2904 83.7325 20.9242C84.059 21.558 84.2223 22.3164 84.2223 23.1993C84.2223 24.0849 84.0577 24.846 83.7283 25.4826C83.4017 26.1192 82.9298 26.6076 82.3126 26.9481C81.6982 27.2885 80.9592 27.4587 80.0957 27.4587ZM78.7548 26.1261H80.021C80.6133 26.1261 81.1073 26.0181 81.5031 25.8023C81.8989 25.5836 82.1964 25.2584 82.3957 24.8266C82.5949 24.3921 82.6946 23.8497 82.6946 23.1993C82.6946 22.5489 82.5949 22.0092 82.3957 21.5802C82.1964 21.1484 81.9016 20.826 81.5114 20.6129C81.1239 20.397 80.6424 20.289 80.0667 20.289H78.7548V26.1261ZM85.4907 27.4587V21.082H86.9936V27.4587H85.4907ZM86.2463 20.177C86.0083 20.177 85.8035 20.0981 85.6319 19.9403C85.4603 19.7798 85.3745 19.5874 85.3745 19.3633C85.3745 19.1363 85.4603 18.944 85.6319 18.7862C85.8035 18.6257 86.0083 18.5454 86.2463 18.5454C86.4871 18.5454 86.6919 18.6257 86.8607 18.7862C87.0323 18.944 87.1181 19.1363 87.1181 19.3633C87.1181 19.5874 87.0323 19.7798 86.8607 19.9403C86.6919 20.0981 86.4871 20.177 86.2463 20.177ZM91.1836 29.9828C90.6439 29.9828 90.1803 29.9095 89.7928 29.7628C89.4054 29.6189 89.094 29.4251 88.8587 29.1816C88.6235 28.938 88.4602 28.6682 88.3689 28.372L89.7223 28.0441C89.7831 28.1686 89.8717 28.2918 89.988 28.4136C90.1042 28.5381 90.2606 28.6405 90.4571 28.7208C90.6564 28.8038 90.9068 28.8453 91.2085 28.8453C91.6347 28.8453 91.9876 28.7415 92.2671 28.534C92.5467 28.3291 92.6864 27.9915 92.6864 27.521V26.3129H92.6117C92.5342 26.4679 92.4207 26.627 92.2713 26.7903C92.1246 26.9536 91.9295 27.0906 91.6859 27.2013C91.4451 27.312 91.1421 27.3674 90.7767 27.3674C90.2869 27.3674 89.8427 27.2525 89.4441 27.0228C89.0483 26.7903 88.7328 26.4444 88.4976 25.9849C88.2651 25.5227 88.1488 24.9443 88.1488 24.2496C88.1488 23.5494 88.2651 22.9585 88.4976 22.4769C88.7328 21.9925 89.0497 21.6258 89.4483 21.3767C89.8468 21.1249 90.291 20.999 90.7809 20.999C91.1545 20.999 91.4617 21.0626 91.7025 21.1899C91.9461 21.3145 92.1398 21.4653 92.2837 21.6424C92.4277 21.8168 92.537 21.9815 92.6117 22.1365H92.6947V21.082H94.1768V27.5625C94.1768 28.1077 94.0468 28.5589 93.7866 28.9159C93.5264 29.2729 93.1708 29.54 92.7197 29.7171C92.2685 29.8943 91.7565 29.9828 91.1836 29.9828ZM91.196 26.1883C91.5143 26.1883 91.7856 26.1109 92.0097 25.9559C92.2339 25.8009 92.4041 25.5781 92.5204 25.2875C92.6366 24.9969 92.6947 24.6481 92.6947 24.2413C92.6947 23.84 92.6366 23.4885 92.5204 23.1868C92.4069 22.8851 92.2381 22.6513 92.0139 22.4852C91.7925 22.3164 91.5199 22.232 91.196 22.232C90.8612 22.232 90.5816 22.3191 90.3574 22.4935C90.1333 22.6679 89.9644 22.9073 89.851 23.2117C89.7375 23.5134 89.6807 23.8566 89.6807 24.2413C89.6807 24.6315 89.7375 24.9733 89.851 25.2667C89.9672 25.5573 90.1374 25.7843 90.3616 25.9476C90.5885 26.1081 90.8667 26.1883 91.196 26.1883ZM95.5885 27.4587V21.082H97.0913V27.4587H95.5885ZM96.344 20.177C96.106 20.177 95.9012 20.0981 95.7296 19.9403C95.558 19.7798 95.4722 19.5874 95.4722 19.3633C95.4722 19.1363 95.558 18.944 95.7296 18.7862C95.9012 18.6257 96.106 18.5454 96.344 18.5454C96.5848 18.5454 96.7896 18.6257 96.9585 18.7862C97.13 18.944 97.2158 19.1363 97.2158 19.3633C97.2158 19.5874 97.13 19.7798 96.9585 19.9403C96.7896 20.0981 96.5848 20.177 96.344 20.177ZM101.692 21.082V22.2444H98.0265V21.082H101.692ZM98.9316 19.5542H100.434V25.5407C100.434 25.7428 100.465 25.8977 100.526 26.0057C100.589 26.1109 100.672 26.1828 100.775 26.2216C100.877 26.2603 100.991 26.2797 101.115 26.2797C101.209 26.2797 101.295 26.2728 101.373 26.2589C101.453 26.2451 101.514 26.2326 101.555 26.2216L101.809 27.3964C101.728 27.4241 101.613 27.4546 101.464 27.4878C101.317 27.521 101.137 27.5404 100.924 27.5459C100.548 27.557 100.209 27.5002 99.9072 27.3757C99.6055 27.2484 99.3661 27.0519 99.189 26.7862C99.0146 26.5205 98.9288 26.1883 98.9316 25.7898V19.5542ZM104.656 27.5874C104.251 27.5874 103.888 27.5154 103.564 27.3715C103.243 27.2248 102.988 27.009 102.8 26.7239C102.614 26.4388 102.522 26.0873 102.522 25.6694C102.522 25.3096 102.588 25.0121 102.721 24.7768C102.854 24.5416 103.035 24.3534 103.265 24.2122C103.495 24.0711 103.753 23.9645 104.041 23.8926C104.332 23.8178 104.632 23.7639 104.942 23.7306C105.316 23.6919 105.619 23.6573 105.851 23.6269C106.084 23.5936 106.253 23.5438 106.358 23.4774C106.466 23.4082 106.52 23.3017 106.52 23.1577V23.1328C106.52 22.8201 106.427 22.5779 106.241 22.4063C106.056 22.2347 105.789 22.1489 105.44 22.1489C105.072 22.1489 104.78 22.2292 104.564 22.3897C104.351 22.5502 104.207 22.7398 104.132 22.9585L102.729 22.7592C102.84 22.3717 103.023 22.0479 103.277 21.7877C103.532 21.5248 103.843 21.3283 104.211 21.1982C104.579 21.0654 104.986 20.999 105.432 20.999C105.739 20.999 106.045 21.0349 106.349 21.1069C106.654 21.1789 106.932 21.2979 107.184 21.4639C107.436 21.6272 107.638 21.85 107.79 22.1323C107.945 22.4146 108.022 22.7675 108.022 23.191V27.4587H106.578V26.5827H106.528C106.437 26.7599 106.308 26.9259 106.142 27.0809C105.979 27.2331 105.772 27.3563 105.523 27.4504C105.277 27.5417 104.988 27.5874 104.656 27.5874ZM105.046 26.4831C105.347 26.4831 105.609 26.4236 105.83 26.3046C106.052 26.1828 106.222 26.0223 106.341 25.823C106.463 25.6237 106.524 25.4065 106.524 25.1712V24.4198C106.477 24.4585 106.396 24.4945 106.283 24.5277C106.172 24.561 106.048 24.59 105.909 24.6149C105.771 24.6398 105.634 24.662 105.498 24.6813C105.363 24.7007 105.245 24.7173 105.145 24.7312C104.921 24.7616 104.721 24.8114 104.543 24.8806C104.366 24.9498 104.227 25.0467 104.124 25.1712C104.022 25.293 103.971 25.4508 103.971 25.6445C103.971 25.9213 104.072 26.1302 104.274 26.2714C104.476 26.4125 104.733 26.4831 105.046 26.4831ZM110.908 18.9564V27.4587H109.405V18.9564H110.908ZM118.043 27.4587H115.162V18.9564H118.102C118.946 18.9564 119.671 19.1266 120.277 19.467C120.886 19.8047 121.354 20.2904 121.68 20.9242C122.007 21.558 122.17 22.3164 122.17 23.1993C122.17 24.0849 122.005 24.846 121.676 25.4826C121.349 26.1192 120.878 26.6076 120.26 26.9481C119.646 27.2885 118.907 27.4587 118.043 27.4587ZM116.703 26.1261H117.969C118.561 26.1261 119.055 26.0181 119.451 25.8023C119.847 25.5836 120.144 25.2584 120.343 24.8266C120.543 24.3921 120.642 23.8497 120.642 23.1993C120.642 22.5489 120.543 22.0092 120.343 21.5802C120.144 21.1484 119.849 20.826 119.459 20.6129C119.072 20.397 118.59 20.289 118.014 20.289H116.703V26.1261ZM126.22 27.5833C125.597 27.5833 125.058 27.4463 124.601 27.1723C124.144 26.8983 123.79 26.5149 123.538 26.0223C123.289 25.5296 123.164 24.954 123.164 24.2953C123.164 23.6365 123.289 23.0595 123.538 22.5641C123.79 22.0687 124.144 21.684 124.601 21.41C125.058 21.136 125.597 20.999 126.22 20.999C126.843 20.999 127.382 21.136 127.839 21.41C128.296 21.684 128.649 22.0687 128.898 22.5641C129.15 23.0595 129.275 23.6365 129.275 24.2953C129.275 24.954 129.15 25.5296 128.898 26.0223C128.649 26.5149 128.296 26.8983 127.839 27.1723C127.382 27.4463 126.843 27.5833 126.22 27.5833ZM126.228 26.3793C126.566 26.3793 126.848 26.2866 127.075 26.1012C127.302 25.913 127.471 25.6611 127.582 25.3456C127.695 25.0301 127.752 24.6786 127.752 24.2911C127.752 23.9009 127.695 23.548 127.582 23.2325C127.471 22.9142 127.302 22.6609 127.075 22.4727C126.848 22.2845 126.566 22.1904 126.228 22.1904C125.882 22.1904 125.594 22.2845 125.365 22.4727C125.138 22.6609 124.968 22.9142 124.854 23.2325C124.743 23.548 124.688 23.9009 124.688 24.2911C124.688 24.6786 124.743 25.0301 124.854 25.3456C124.968 25.6611 125.138 25.913 125.365 26.1012C125.594 26.2866 125.882 26.3793 126.228 26.3793ZM131.556 27.4587L129.754 21.082H131.286L132.407 25.5656H132.465L133.611 21.082H135.126L136.272 25.5407H136.334L137.438 21.082H138.975L137.169 27.4587H135.604L134.408 23.1494H134.321L133.125 27.4587H131.556ZM141.398 23.7223V27.4587H139.895V21.082H141.332V22.1655H141.406C141.553 21.8085 141.787 21.5248 142.108 21.3145C142.432 21.1041 142.832 20.999 143.308 20.999C143.748 20.999 144.131 21.0931 144.458 21.2813C144.787 21.4695 145.042 21.7421 145.222 22.0991C145.404 22.4561 145.494 22.8893 145.491 23.3985V27.4587H143.989V23.631C143.989 23.2048 143.878 22.8713 143.657 22.6305C143.438 22.3897 143.135 22.2693 142.747 22.2693C142.484 22.2693 142.251 22.3274 142.046 22.4437C141.844 22.5572 141.685 22.7218 141.568 22.9377C141.455 23.1536 141.398 23.4151 141.398 23.7223ZM148.394 18.9564V27.4587H146.891V18.9564H148.394ZM152.592 27.5833C151.969 27.5833 151.429 27.4463 150.973 27.1723C150.516 26.8983 150.162 26.5149 149.91 26.0223C149.661 25.5296 149.536 24.954 149.536 24.2953C149.536 23.6365 149.661 23.0595 149.91 22.5641C150.162 22.0687 150.516 21.684 150.973 21.41C151.429 21.136 151.969 20.999 152.592 20.999C153.215 20.999 153.754 21.136 154.211 21.41C154.668 21.684 155.02 22.0687 155.27 22.5641C155.521 23.0595 155.647 23.6365 155.647 24.2953C155.647 24.954 155.521 25.5296 155.27 26.0223C155.02 26.5149 154.668 26.8983 154.211 27.1723C153.754 27.4463 153.215 27.5833 152.592 27.5833ZM152.6 26.3793C152.938 26.3793 153.22 26.2866 153.447 26.1012C153.674 25.913 153.843 25.6611 153.954 25.3456C154.067 25.0301 154.124 24.6786 154.124 24.2911C154.124 23.9009 154.067 23.548 153.954 23.2325C153.843 22.9142 153.674 22.6609 153.447 22.4727C153.22 22.2845 152.938 22.1904 152.6 22.1904C152.254 22.1904 151.966 22.2845 151.737 22.4727C151.51 22.6609 151.339 22.9142 151.226 23.2325C151.115 23.548 151.06 23.9009 151.06 24.2911C151.06 24.6786 151.115 25.0301 151.226 25.3456C151.339 25.6611 151.51 25.913 151.737 26.1012C151.966 26.2866 152.254 26.3793 152.6 26.3793ZM158.629 27.5874C158.225 27.5874 157.861 27.5154 157.537 27.3715C157.216 27.2248 156.962 27.009 156.774 26.7239C156.588 26.4388 156.495 26.0873 156.495 25.6694C156.495 25.3096 156.562 25.0121 156.695 24.7768C156.828 24.5416 157.009 24.3534 157.239 24.2122C157.468 24.0711 157.727 23.9645 158.015 23.8926C158.305 23.8178 158.606 23.7639 158.916 23.7306C159.289 23.6919 159.592 23.6573 159.825 23.6269C160.057 23.5936 160.226 23.5438 160.331 23.4774C160.439 23.4082 160.493 23.3017 160.493 23.1577V23.1328C160.493 22.8201 160.401 22.5779 160.215 22.4063C160.03 22.2347 159.763 22.1489 159.414 22.1489C159.046 22.1489 158.754 22.2292 158.538 22.3897C158.325 22.5502 158.181 22.7398 158.106 22.9585L156.703 22.7592C156.814 22.3717 156.996 22.0479 157.251 21.7877C157.506 21.5248 157.817 21.3283 158.185 21.1982C158.553 21.0654 158.96 20.999 159.406 20.999C159.713 20.999 160.019 21.0349 160.323 21.1069C160.628 21.1789 160.906 21.2979 161.158 21.4639C161.409 21.6272 161.611 21.85 161.764 22.1323C161.919 22.4146 161.996 22.7675 161.996 23.191V27.4587H160.551V26.5827H160.502C160.41 26.7599 160.282 26.9259 160.116 27.0809C159.952 27.2331 159.746 27.3563 159.497 27.4504C159.251 27.5417 158.961 27.5874 158.629 27.5874ZM159.02 26.4831C159.321 26.4831 159.583 26.4236 159.804 26.3046C160.026 26.1828 160.196 26.0223 160.315 25.823C160.437 25.6237 160.497 25.4065 160.497 25.1712V24.4198C160.45 24.4585 160.37 24.4945 160.257 24.5277C160.146 24.561 160.021 24.59 159.883 24.6149C159.745 24.6398 159.608 24.662 159.472 24.6813C159.336 24.7007 159.219 24.7173 159.119 24.7312C158.895 24.7616 158.694 24.8114 158.517 24.8806C158.34 24.9498 158.2 25.0467 158.098 25.1712C157.995 25.293 157.944 25.4508 157.944 25.6445C157.944 25.9213 158.045 26.1302 158.247 26.2714C158.449 26.4125 158.707 26.4831 159.02 26.4831ZM165.745 27.5708C165.244 27.5708 164.796 27.4421 164.4 27.1847C164.004 26.9273 163.691 26.5537 163.462 26.0638C163.232 25.5739 163.117 24.9789 163.117 24.2786C163.117 23.5701 163.233 22.9723 163.466 22.4852C163.701 21.9953 164.018 21.6258 164.417 21.3767C164.815 21.1249 165.259 20.999 165.749 20.999C166.123 20.999 166.43 21.0626 166.671 21.1899C166.912 21.3145 167.103 21.4653 167.244 21.6424C167.385 21.8168 167.494 21.9815 167.572 22.1365H167.634V18.9564H169.141V27.4587H167.663V26.454H167.572C167.494 26.609 167.382 26.7737 167.235 26.9481C167.089 27.1197 166.895 27.2664 166.654 27.3881C166.413 27.5099 166.11 27.5708 165.745 27.5708ZM166.164 26.3378C166.483 26.3378 166.754 26.252 166.978 26.0804C167.202 25.906 167.372 25.6639 167.489 25.3539C167.605 25.0439 167.663 24.6827 167.663 24.2703C167.663 23.858 167.605 23.4995 167.489 23.1951C167.375 22.8907 167.206 22.654 166.982 22.4852C166.761 22.3164 166.488 22.232 166.164 22.232C165.829 22.232 165.55 22.3191 165.326 22.4935C165.102 22.6679 164.933 22.9086 164.819 23.2159C164.706 23.5231 164.649 23.8746 164.649 24.2703C164.649 24.6689 164.706 25.0245 164.819 25.3373C164.936 25.6473 165.106 25.8922 165.33 26.0721C165.557 26.2492 165.835 26.3378 166.164 26.3378Z" fill="#0E121B"/>
</g>
<path d="M79.4346 48.5793V39.2799H80.0303V48.5793H79.4346ZM81.1528 42.255C81.1189 41.9378 80.976 41.6907 80.7242 41.514C80.4747 41.3372 80.1502 41.2488 79.7506 41.2488C79.4697 41.2488 79.2288 41.2912 79.0278 41.3759C78.8268 41.4607 78.673 41.5757 78.5664 41.721C78.4599 41.8663 78.4054 42.0322 78.403 42.2187C78.403 42.3737 78.4381 42.5081 78.5083 42.6219C78.581 42.7357 78.679 42.8326 78.8025 42.9125C78.926 42.99 79.0629 43.0554 79.213 43.1087C79.3632 43.1619 79.5145 43.2067 79.6671 43.2431L80.3645 43.4174C80.6455 43.4828 80.9155 43.5712 81.1746 43.6826C81.4362 43.794 81.6699 43.9345 81.8757 44.104C82.084 44.2735 82.2486 44.4781 82.3697 44.7179C82.4908 44.9576 82.5514 45.2386 82.5514 45.5607C82.5514 45.9966 82.44 46.3804 82.2172 46.7122C81.9944 47.0415 81.6723 47.2994 81.2509 47.4859C80.8319 47.67 80.3246 47.762 79.7288 47.762C79.1501 47.762 78.6475 47.6724 78.2213 47.4932C77.7975 47.314 77.4657 47.0524 77.226 46.7085C76.9887 46.3647 76.8603 45.9457 76.8409 45.4517H78.1668C78.1862 45.7108 78.2661 45.9263 78.4066 46.0983C78.547 46.2702 78.7299 46.3986 78.9551 46.4833C79.1827 46.5681 79.437 46.6105 79.7179 46.6105C80.011 46.6105 80.2677 46.5669 80.4881 46.4797C80.7109 46.3901 80.8852 46.2666 81.0111 46.1092C81.1371 45.9493 81.2012 45.7629 81.2037 45.5498C81.2012 45.356 81.1443 45.1962 81.0329 45.0703C80.9215 44.9419 80.7653 44.8353 80.5643 44.7506C80.3658 44.6634 80.1333 44.5859 79.8669 44.5181L79.0205 44.3001C78.4078 44.1427 77.9235 43.9042 77.5675 43.5845C77.2139 43.2624 77.0371 42.835 77.0371 42.3022C77.0371 41.8639 77.1558 41.4801 77.3931 41.1507C77.6328 40.8214 77.9586 40.5659 78.3703 40.3842C78.782 40.2002 79.2481 40.1082 79.7688 40.1082C80.2967 40.1082 80.7593 40.2002 81.1564 40.3842C81.556 40.5659 81.8696 40.8189 82.0973 41.1434C82.3249 41.4655 82.4424 41.8361 82.4496 42.255H81.1528ZM83.4801 42.6001C83.4801 42.1085 83.5902 41.6762 83.8106 41.3033C84.031 40.9279 84.3337 40.6349 84.7188 40.4242C85.1062 40.2135 85.547 40.1082 86.041 40.1082C86.5205 40.1082 86.9564 40.2099 87.3487 40.4133C87.7435 40.6143 88.0571 40.9013 88.2896 41.2742C88.5245 41.6472 88.6395 42.0903 88.6347 42.6037C88.6323 42.8556 88.5971 43.1099 88.5293 43.3666C88.4615 43.6209 88.355 43.8921 88.2097 44.1803C88.0644 44.466 87.8755 44.7821 87.643 45.1284L85.9357 47.6494H84.5517L86.4115 44.925C86.3195 44.9516 86.2251 44.9734 86.1282 44.9903C86.0338 45.0073 85.9357 45.0158 85.834 45.0158C85.3787 45.0158 84.973 44.9128 84.6171 44.707C84.2635 44.5012 83.985 44.2166 83.7816 43.8533C83.5806 43.4901 83.4801 43.0723 83.4801 42.6001ZM84.7733 42.5674C84.7733 42.8362 84.8277 43.0748 84.9367 43.283C85.0457 43.4889 85.1958 43.6511 85.3872 43.7698C85.5785 43.886 85.7988 43.9442 86.0483 43.9442C86.2977 43.9442 86.5181 43.886 86.7094 43.7698C86.9032 43.6535 87.0545 43.4925 87.1635 43.2867C87.2725 43.0808 87.327 42.8435 87.327 42.5747C87.327 42.3034 87.2725 42.0649 87.1635 41.8591C87.0545 41.6508 86.9032 41.4873 86.7094 41.3687C86.5181 41.25 86.2977 41.1907 86.0483 41.1907C85.7988 41.1907 85.5773 41.25 85.3835 41.3687C85.1922 41.4849 85.0421 41.6472 84.9331 41.8554C84.8265 42.0613 84.7733 42.2986 84.7733 42.5674ZM89.6851 42.6001C89.6851 42.1085 89.7953 41.6762 90.0156 41.3033C90.236 40.9279 90.5387 40.6349 90.9238 40.4242C91.3113 40.2135 91.752 40.1082 92.246 40.1082C92.7255 40.1082 93.1614 40.2099 93.5538 40.4133C93.9485 40.6143 94.2621 40.9013 94.4946 41.2742C94.7295 41.6472 94.8445 42.0903 94.8397 42.6037C94.8373 42.8556 94.8022 43.1099 94.7344 43.3666C94.6665 43.6209 94.56 43.8921 94.4147 44.1803C94.2694 44.466 94.0805 44.7821 93.848 45.1284L92.1407 47.6494H90.7567L92.6166 44.925C92.5245 44.9516 92.4301 44.9734 92.3332 44.9903C92.2388 45.0073 92.1407 45.0158 92.039 45.0158C91.5837 45.0158 91.1781 44.9128 90.8221 44.707C90.4685 44.5012 90.19 44.2166 89.9866 43.8533C89.7856 43.4901 89.6851 43.0723 89.6851 42.6001ZM90.9783 42.5674C90.9783 42.8362 91.0328 43.0748 91.1417 43.283C91.2507 43.4889 91.4009 43.6511 91.5922 43.7698C91.7835 43.886 92.0039 43.9442 92.2533 43.9442C92.5027 43.9442 92.7231 43.886 92.9144 43.7698C93.1082 43.6535 93.2595 43.4925 93.3685 43.2867C93.4775 43.0808 93.532 42.8435 93.532 42.5747C93.532 42.3034 93.4775 42.0649 93.3685 41.8591C93.2595 41.6508 93.1082 41.4873 92.9144 41.3687C92.7231 41.25 92.5027 41.1907 92.2533 41.1907C92.0039 41.1907 91.7823 41.25 91.5885 41.3687C91.3972 41.4849 91.2471 41.6472 91.1381 41.8554C91.0315 42.0613 90.9783 42.2986 90.9783 42.5674ZM95.8374 47.7293C95.617 47.7293 95.4281 47.6518 95.2707 47.4968C95.1133 47.3418 95.0358 47.1529 95.0382 46.9301C95.0358 46.7122 95.1133 46.5257 95.2707 46.3707C95.4281 46.2157 95.617 46.1382 95.8374 46.1382C96.0505 46.1382 96.2358 46.2157 96.3932 46.3707C96.553 46.5257 96.6342 46.7122 96.6366 46.9301C96.6342 47.0779 96.5954 47.2123 96.5203 47.3333C96.4477 47.4544 96.3508 47.5513 96.2297 47.624C96.1111 47.6942 95.9803 47.7293 95.8374 47.7293ZM100.381 47.7911C99.7833 47.7911 99.2699 47.6397 98.8412 47.337C98.415 47.0318 98.0869 46.5923 97.8568 46.0184C97.6292 45.442 97.5153 44.7482 97.5153 43.9369C97.5178 43.1256 97.6328 42.4354 97.8604 41.8663C98.0905 41.2948 98.4186 40.8589 98.8449 40.5586C99.2735 40.2583 99.7857 40.1082 100.381 40.1082C100.977 40.1082 101.489 40.2583 101.918 40.5586C102.347 40.8589 102.675 41.2948 102.902 41.8663C103.133 42.4378 103.248 43.128 103.248 43.9369C103.248 44.7506 103.133 45.4456 102.902 46.022C102.675 46.5959 102.347 47.0343 101.918 47.337C101.492 47.6397 100.98 47.7911 100.381 47.7911ZM100.381 46.6541C100.846 46.6541 101.213 46.4252 101.482 45.9675C101.753 45.5074 101.889 44.8305 101.889 43.9369C101.889 43.346 101.827 42.8495 101.704 42.4475C101.58 42.0455 101.406 41.7428 101.181 41.5394C100.955 41.3335 100.689 41.2306 100.381 41.2306C99.9189 41.2306 99.5532 41.4607 99.2844 41.9208C99.0156 42.3785 98.88 43.0505 98.8775 43.9369C98.8751 44.5302 98.9345 45.0291 99.0555 45.4335C99.1791 45.8379 99.3534 46.1431 99.5786 46.3489C99.8039 46.5523 100.071 46.6541 100.381 46.6541ZM107.146 47.7911C106.548 47.7911 106.034 47.6397 105.606 47.337C105.179 47.0318 104.851 46.5923 104.621 46.0184C104.394 45.442 104.28 44.7482 104.28 43.9369C104.282 43.1256 104.397 42.4354 104.625 41.8663C104.855 41.2948 105.183 40.8589 105.609 40.5586C106.038 40.2583 106.55 40.1082 107.146 40.1082C107.742 40.1082 108.254 40.2583 108.682 40.5586C109.111 40.8589 109.439 41.2948 109.667 41.8663C109.897 42.4378 110.012 43.128 110.012 43.9369C110.012 44.7506 109.897 45.4456 109.667 46.022C109.439 46.5959 109.111 47.0343 108.682 47.337C108.256 47.6397 107.744 47.7911 107.146 47.7911ZM107.146 46.6541C107.611 46.6541 107.978 46.4252 108.247 45.9675C108.518 45.5074 108.653 44.8305 108.653 43.9369C108.653 43.346 108.592 42.8495 108.468 42.4475C108.345 42.0455 108.17 41.7428 107.945 41.5394C107.72 41.3335 107.453 41.2306 107.146 41.2306C106.683 41.2306 106.318 41.4607 106.049 41.9208C105.78 42.3785 105.644 43.0505 105.642 43.9369C105.64 44.5302 105.699 45.0291 105.82 45.4335C105.943 45.8379 106.118 46.1431 106.343 46.3489C106.568 46.5523 106.836 46.6541 107.146 46.6541Z" fill="#1FC16B"/>
<path d="M23.7679 70.7563C23.7679 67.4999 23.7679 65.8718 24.4017 64.628C24.9591 63.534 25.8486 62.6445 26.9426 62.0871C28.1864 61.4533 29.8145 61.4533 33.0709 61.4533H270.929C274.185 61.4533 275.814 61.4533 277.057 62.0871C278.151 62.6445 279.041 63.534 279.598 64.628C280.232 65.8718 280.232 67.4999 280.232 70.7563V75.9184C280.232 79.1747 280.232 80.8029 279.598 82.0467C279.041 83.1407 278.151 84.0302 277.057 84.5876C275.814 85.2213 274.185 85.2213 270.929 85.2213H33.0709C29.8145 85.2213 28.1864 85.2213 26.9426 84.5876C25.8486 84.0302 24.9591 83.1407 24.4017 82.0467C23.7679 80.8029 23.7679 79.1747 23.7679 75.9184V70.7563Z" fill="#F5F7FA"/>
<g filter="url(#filter2_ddi_1_29598)">
<path d="M36.0471 76.8373H33.7513V69.3978H36.1488C36.8705 69.3978 37.488 69.5468 38.0014 69.8446C38.5148 70.1401 38.9084 70.5651 39.182 71.1197C39.4557 71.6718 39.5925 72.3329 39.5925 73.1031C39.5925 73.878 39.4545 74.5452 39.1784 75.1046C38.9023 75.6616 38.5003 76.0902 37.9724 76.3905C37.4444 76.6884 36.8027 76.8373 36.0471 76.8373ZM34.6522 76.0382H35.989C36.6041 76.0382 37.1139 75.9195 37.5183 75.6822C37.9227 75.4449 38.2242 75.107 38.4228 74.6687C38.6214 74.2304 38.7207 73.7085 38.7207 73.1031C38.7207 72.5025 38.6226 71.9854 38.4265 71.5519C38.2303 71.116 37.9373 70.7818 37.5474 70.5494C37.1575 70.3144 36.6719 70.197 36.0907 70.197H34.6522V76.0382ZM43.1957 76.9536C42.692 76.9536 42.25 76.8337 41.8698 76.594C41.492 76.3542 41.1966 76.0188 40.9835 75.5877C40.7728 75.1567 40.6674 74.653 40.6674 74.0766C40.6674 73.4954 40.7728 72.988 40.9835 72.5545C41.1966 72.121 41.492 71.7844 41.8698 71.5447C42.25 71.3049 42.692 71.1851 43.1957 71.1851C43.6994 71.1851 44.1402 71.3049 44.518 71.5447C44.8982 71.7844 45.1936 72.121 45.4043 72.5545C45.6174 72.988 45.724 73.4954 45.724 74.0766C45.724 74.653 45.6174 75.1567 45.4043 75.5877C45.1936 76.0188 44.8982 76.3542 44.518 76.594C44.1402 76.8337 43.6994 76.9536 43.1957 76.9536ZM43.1957 76.1835C43.5783 76.1835 43.8931 76.0854 44.1402 75.8892C44.3872 75.6931 44.57 75.4352 44.6887 75.1155C44.8073 74.7958 44.8667 74.4495 44.8667 74.0766C44.8667 73.7036 44.8073 73.3561 44.6887 73.034C44.57 72.7119 44.3872 72.4516 44.1402 72.253C43.8931 72.0544 43.5783 71.9552 43.1957 71.9552C42.8131 71.9552 42.4982 72.0544 42.2512 72.253C42.0042 72.4516 41.8214 72.7119 41.7027 73.034C41.584 73.3561 41.5247 73.7036 41.5247 74.0766C41.5247 74.4495 41.584 74.7958 41.7027 75.1155C41.8214 75.4352 42.0042 75.6931 42.2512 75.8892C42.4982 76.0854 42.8131 76.1835 43.1957 76.1835ZM48.0485 76.8373L46.3484 71.2577H47.2493L48.4553 75.5296H48.5135L49.7049 71.2577H50.6203L51.7973 75.5151H51.8554L53.0614 71.2577H53.9623L52.2623 76.8373H51.4195L50.199 72.5509H50.1118L48.8912 76.8373H48.0485ZM55.8945 73.4808V76.8373H55.0372V71.2577H55.8655V72.1295H55.9381C56.0689 71.8462 56.2675 71.6185 56.5338 71.4466C56.8002 71.2722 57.1441 71.1851 57.5655 71.1851C57.9433 71.1851 58.2739 71.2625 58.5572 71.4175C58.8405 71.5701 59.0609 71.8026 59.2183 72.115C59.3757 72.425 59.4544 72.8173 59.4544 73.2919V76.8373H58.5972V73.3501C58.5972 72.9117 58.4833 72.5703 58.2557 72.3257C58.028 72.0787 57.7156 71.9552 57.3185 71.9552C57.0448 71.9552 56.8002 72.0145 56.5847 72.1332C56.3716 72.2518 56.2033 72.425 56.0798 72.6526C55.9563 72.8803 55.8945 73.1563 55.8945 73.4808ZM61.8198 69.3978V76.8373H60.9625V69.3978H61.8198ZM65.5983 76.9536C65.0946 76.9536 64.6526 76.8337 64.2724 76.594C63.8946 76.3542 63.5991 76.0188 63.386 75.5877C63.1753 75.1567 63.07 74.653 63.07 74.0766C63.07 73.4954 63.1753 72.988 63.386 72.5545C63.5991 72.121 63.8946 71.7844 64.2724 71.5447C64.6526 71.3049 65.0946 71.1851 65.5983 71.1851C66.102 71.1851 66.5427 71.3049 66.9205 71.5447C67.3007 71.7844 67.5962 72.121 67.8069 72.5545C68.02 72.988 68.1265 73.4954 68.1265 74.0766C68.1265 74.653 68.02 75.1567 67.8069 75.5877C67.5962 76.0188 67.3007 76.3542 66.9205 76.594C66.5427 76.8337 66.102 76.9536 65.5983 76.9536ZM65.5983 76.1835C65.9809 76.1835 66.2957 76.0854 66.5427 75.8892C66.7898 75.6931 66.9726 75.4352 67.0913 75.1155C67.2099 74.7958 67.2693 74.4495 67.2693 74.0766C67.2693 73.7036 67.2099 73.3561 67.0913 73.034C66.9726 72.7119 66.7898 72.4516 66.5427 72.253C66.2957 72.0544 65.9809 71.9552 65.5983 71.9552C65.2156 71.9552 64.9008 72.0544 64.6538 72.253C64.4068 72.4516 64.224 72.7119 64.1053 73.034C63.9866 73.3561 63.9273 73.7036 63.9273 74.0766C63.9273 74.4495 63.9866 74.7958 64.1053 75.1155C64.224 75.4352 64.4068 75.6931 64.6538 75.8892C64.9008 76.0854 65.2156 76.1835 65.5983 76.1835ZM71.0187 76.9681C70.6651 76.9681 70.3442 76.9015 70.056 76.7683C69.7678 76.6327 69.539 76.4378 69.3695 76.1835C69.1999 75.9268 69.1152 75.6168 69.1152 75.2535C69.1152 74.9339 69.1782 74.6747 69.3041 74.4762C69.43 74.2752 69.5983 74.1178 69.809 74.0039C70.0197 73.8901 70.2522 73.8054 70.5065 73.7497C70.7632 73.6915 71.0211 73.6455 71.2802 73.6116C71.6192 73.568 71.8941 73.5353 72.1048 73.5135C72.3179 73.4893 72.4729 73.4494 72.5698 73.3937C72.6691 73.338 72.7187 73.2411 72.7187 73.1031V73.074C72.7187 72.7156 72.6206 72.4371 72.4245 72.2385C72.2307 72.0399 71.9365 71.9406 71.5417 71.9406C71.1325 71.9406 70.8116 72.0302 70.5791 72.2094C70.3466 72.3886 70.1832 72.58 70.0887 72.7834L69.275 72.4928C69.4203 72.1537 69.6141 71.8898 69.8562 71.7009C70.1008 71.5096 70.3672 71.3764 70.6554 71.3013C70.946 71.2238 71.2318 71.1851 71.5127 71.1851C71.6919 71.1851 71.8977 71.2068 72.1302 71.2504C72.3651 71.2916 72.5916 71.3776 72.8095 71.5084C73.0299 71.6391 73.2127 71.8365 73.358 72.1005C73.5033 72.3644 73.576 72.718 73.576 73.1612V76.8373H72.7187V76.0818H72.6751C72.617 76.2029 72.5201 76.3324 72.3845 76.4705C72.2489 76.6085 72.0685 76.7259 71.8433 76.8228C71.618 76.9197 71.3432 76.9681 71.0187 76.9681ZM71.1494 76.198C71.4885 76.198 71.7742 76.1314 72.0067 75.9982C72.2416 75.865 72.4184 75.6931 72.5371 75.4824C72.6582 75.2717 72.7187 75.0501 72.7187 74.8176V74.033C72.6824 74.0766 72.6025 74.1165 72.479 74.1529C72.3579 74.1868 72.2174 74.217 72.0576 74.2437C71.9002 74.2679 71.7464 74.2897 71.5962 74.3091C71.4485 74.326 71.3286 74.3406 71.2366 74.3527C71.0138 74.3817 70.8055 74.4289 70.6118 74.4943C70.4205 74.5573 70.2655 74.653 70.1468 74.7813C70.0306 74.9072 69.9725 75.0792 69.9725 75.2971C69.9725 75.595 70.0827 75.8202 70.303 75.9728C70.5258 76.1229 70.808 76.198 71.1494 76.198ZM77.1892 76.9536C76.7242 76.9536 76.3137 76.8361 75.9577 76.6012C75.6017 76.3639 75.3232 76.0297 75.1222 75.5986C74.9212 75.1651 74.8207 74.653 74.8207 74.0621C74.8207 73.476 74.9212 72.9674 75.1222 72.5364C75.3232 72.1053 75.6029 71.7723 75.9614 71.5374C76.3198 71.3025 76.7339 71.1851 77.2037 71.1851C77.5669 71.1851 77.8539 71.2456 78.0646 71.3667C78.2777 71.4853 78.44 71.621 78.5514 71.7735C78.6652 71.9237 78.7536 72.0472 78.8166 72.1441H78.8892V69.3978H79.7465V76.8373H78.9183V75.9801H78.8166C78.7536 76.0818 78.664 76.2101 78.5477 76.3651C78.4315 76.5177 78.2656 76.6545 78.0501 76.7756C77.8345 76.8943 77.5476 76.9536 77.1892 76.9536ZM77.3054 76.1835C77.6493 76.1835 77.9399 76.0939 78.1772 75.9147C78.4145 75.733 78.595 75.4824 78.7185 75.1627C78.842 74.8406 78.9037 74.4689 78.9037 74.0475C78.9037 73.631 78.8432 73.2665 78.7221 72.9541C78.601 72.6393 78.4218 72.3947 78.1845 72.2203C77.9472 72.0436 77.6541 71.9552 77.3054 71.9552C76.9421 71.9552 76.6394 72.0484 76.3973 72.2349C76.1575 72.4189 75.9771 72.6696 75.856 72.9868C75.7373 73.3016 75.678 73.6552 75.678 74.0475C75.678 74.4447 75.7386 74.8055 75.8596 75.13C75.9831 75.4521 76.1648 75.7088 76.4045 75.9001C76.6467 76.089 76.947 76.1835 77.3054 76.1835ZM90.2113 69.3978V76.8373H89.3395L85.2855 70.9962H85.2129V76.8373H84.312V69.3978H85.1838L89.2523 75.2535H89.3249V69.3978H90.2113ZM94.106 76.9536C93.6023 76.9536 93.1603 76.8337 92.7801 76.594C92.4023 76.3542 92.1069 76.0188 91.8937 75.5877C91.6831 75.1567 91.5777 74.653 91.5777 74.0766C91.5777 73.4954 91.6831 72.988 91.8937 72.5545C92.1069 72.121 92.4023 71.7844 92.7801 71.5447C93.1603 71.3049 93.6023 71.1851 94.106 71.1851C94.6097 71.1851 95.0504 71.3049 95.4282 71.5447C95.8084 71.7844 96.1039 72.121 96.3146 72.5545C96.5277 72.988 96.6343 73.4954 96.6343 74.0766C96.6343 74.653 96.5277 75.1567 96.3146 75.5877C96.1039 76.0188 95.8084 76.3542 95.4282 76.594C95.0504 76.8337 94.6097 76.9536 94.106 76.9536ZM94.106 76.1835C94.4886 76.1835 94.8034 76.0854 95.0504 75.8892C95.2975 75.6931 95.4803 75.4352 95.599 75.1155C95.7176 74.7958 95.777 74.4495 95.777 74.0766C95.777 73.7036 95.7176 73.3561 95.599 73.034C95.4803 72.7119 95.2975 72.4516 95.0504 72.253C94.8034 72.0544 94.4886 71.9552 94.106 71.9552C93.7233 71.9552 93.4085 72.0544 93.1615 72.253C92.9145 72.4516 92.7317 72.7119 92.613 73.034C92.4943 73.3561 92.435 73.7036 92.435 74.0766C92.435 74.4495 92.4943 74.7958 92.613 75.1155C92.7317 75.4352 92.9145 75.6931 93.1615 75.8892C93.4085 76.0854 93.7233 76.1835 94.106 76.1835ZM98.9588 76.8373L97.2587 71.2577H98.1596L99.3656 75.5296H99.4237L100.615 71.2577H101.531L102.708 75.5151H102.766L103.972 71.2577H104.873L103.173 76.8373H102.33L101.109 72.5509H101.022L99.8015 76.8373H98.9588Z" fill="#0E121B"/>
<path d="M261.6 73.7027H269.637C269.839 73.7027 270.003 73.5391 270.003 73.3374C270.003 73.1356 269.839 72.972 269.637 72.972H261.6C261.398 72.972 261.235 73.1356 261.235 73.3374C261.235 73.5391 261.398 73.7027 261.6 73.7027Z" fill="#0E121B"/>
<path d="M269.121 73.3374L266.091 76.367C266.022 76.4356 265.984 76.5285 265.984 76.6254C265.984 76.7223 266.022 76.8152 266.091 76.8837C266.159 76.9522 266.252 76.9907 266.349 76.9907C266.446 76.9907 266.539 76.9522 266.608 76.8837L269.896 73.5957C270.038 73.453 270.038 73.2217 269.896 73.079L266.608 69.791C266.539 69.7225 266.446 69.684 266.349 69.684C266.252 69.684 266.159 69.7225 266.091 69.791C266.022 69.8596 265.984 69.9525 265.984 70.0494C265.984 70.1463 266.022 70.2392 266.091 70.3077L269.121 73.3374Z" fill="#0E121B"/>
</g>
</g>
<defs>
<filter id="filter0_d_1_29598" x="0.386666" y="0.0773335" width="303.227" height="120.216" filterUnits="userSpaceOnUse" color-interpolation-filters="sRGB">
<feFlood flood-opacity="0" result="BackgroundImageFix"/>
<feColorMatrix in="SourceAlpha" type="matrix" values="0 0 0 0 0 0 0 0 0 0 0 0 0 0 0 0 0 0 127 0" result="hardAlpha"/>
<feMorphology radius="8.768" operator="erode" in="SourceAlpha" result="effect1_dropShadow_1_29598"/>
<feOffset dy="11.6907"/>
<feGaussianBlur stdDeviation="11.6907"/>
<feComposite in2="hardAlpha" operator="out"/>
<feColorMatrix type="matrix" values="0 0 0 0 0.054902 0 0 0 0 0.0705882 0 0 0 0 0.105882 0 0 0 0.1 0"/>
<feBlend mode="normal" in2="BackgroundImageFix" result="effect1_dropShadow_1_29598"/>
<feBlend mode="normal" in="SourceGraphic" in2="effect1_dropShadow_1_29598" result="shape"/>
</filter>
<filter id="filter1_dd_1_29598" x="67.5306" y="9.53604" width="215.701" height="29.8453" filterUnits="userSpaceOnUse" color-interpolation-filters="sRGB">
<feFlood flood-opacity="0" result="BackgroundImageFix"/>
<feColorMatrix in="SourceAlpha" type="matrix" values="0 0 0 0 0 0 0 0 0 0 0 0 0 0 0 0 0 0 127 0" result="hardAlpha"/>
<feOffset dy="1"/>
<feGaussianBlur stdDeviation="1.5"/>
<feComposite in2="hardAlpha" operator="out"/>
<feColorMatrix type="matrix" values="0 0 0 0 0.560784 0 0 0 0 0.560784 0 0 0 0 0.560784 0 0 0 0.2 0"/>
<feBlend mode="normal" in2="BackgroundImageFix" result="effect1_dropShadow_1_29598"/>
<feColorMatrix in="SourceAlpha" type="matrix" values="0 0 0 0 0 0 0 0 0 0 0 0 0 0 0 0 0 0 127 0" result="hardAlpha"/>
<feMorphology radius="1" operator="dilate" in="SourceAlpha" result="effect2_dropShadow_1_29598"/>
<feOffset/>
<feComposite in2="hardAlpha" operator="out"/>
<feColorMatrix type="matrix" values="0 0 0 0 0.921569 0 0 0 0 0.921569 0 0 0 0 0.921569 0 0 0 1 0"/>
<feBlend mode="normal" in2="effect1_dropShadow_1_29598" result="effect2_dropShadow_1_29598"/>
<feBlend mode="normal" in="SourceGraphic" in2="effect2_dropShadow_1_29598" result="shape"/>
</filter>
<filter id="filter2_ddi_1_29598" x="20.7679" y="59.4533" width="262.464" height="29.768" filterUnits="userSpaceOnUse" color-interpolation-filters="sRGB">
<feFlood flood-opacity="0" result="BackgroundImageFix"/>
<feColorMatrix in="SourceAlpha" type="matrix" values="0 0 0 0 0 0 0 0 0 0 0 0 0 0 0 0 0 0 127 0" result="hardAlpha"/>
<feOffset dy="1"/>
<feGaussianBlur stdDeviation="1.5"/>
<feComposite in2="hardAlpha" operator="out"/>
<feColorMatrix type="matrix" values="0 0 0 0 0.560784 0 0 0 0 0.560784 0 0 0 0 0.560784 0 0 0 0.2 0"/>
<feBlend mode="normal" in2="BackgroundImageFix" result="effect1_dropShadow_1_29598"/>
<feColorMatrix in="SourceAlpha" type="matrix" values="0 0 0 0 0 0 0 0 0 0 0 0 0 0 0 0 0 0 127 0" result="hardAlpha"/>
<feMorphology radius="1" operator="dilate" in="SourceAlpha" result="effect2_dropShadow_1_29598"/>
<feOffset/>
<feComposite in2="hardAlpha" operator="out"/>
<feColorMatrix type="matrix" values="0 0 0 0 0.921569 0 0 0 0 0.921569 0 0 0 0 0.921569 0 0 0 1 0"/>
<feBlend mode="normal" in2="effect1_dropShadow_1_29598" result="effect2_dropShadow_1_29598"/>
<feBlend mode="normal" in="SourceGraphic" in2="effect2_dropShadow_1_29598" result="shape"/>
<feColorMatrix in="SourceAlpha" type="matrix" values="0 0 0 0 0 0 0 0 0 0 0 0 0 0 0 0 0 0 127 0" result="hardAlpha"/>
<feOffset dy="-2.4"/>
<feComposite in2="hardAlpha" operator="arithmetic" k2="-1" k3="1"/>
<feColorMatrix type="matrix" values="0 0 0 0 0.243137 0 0 0 0 0.243137 0 0 0 0 0.243137 0 0 0 0.04 0"/>
<feBlend mode="normal" in2="shape" result="effect3_innerShadow_1_29598"/>
</filter>
<linearGradient id="paint0_linear_1_29598" x1="44.5551" y1="37.4042" x2="44.5551" y2="51.2663" gradientUnits="userSpaceOnUse">
<stop stop-color="#FFCF95"/>
<stop offset="0.427" stop-color="#FFC954"/>
<stop offset="1" stop-color="#FFC200"/>
</linearGradient>
<linearGradient id="paint1_linear_1_29598" x1="44.5551" y1="43.9655" x2="44.5551" y2="48.3267" gradientUnits="userSpaceOnUse">
<stop stop-color="#FFC200" stop-opacity="0"/>
<stop offset="0.203" stop-color="#FFBB00" stop-opacity="0.203"/>
<stop offset="0.499" stop-color="#FFA700" stop-opacity="0.499"/>
<stop offset="0.852" stop-color="#FF8800" stop-opacity="0.852"/>
<stop offset="1" stop-color="#FF7800"/>
</linearGradient>
<linearGradient id="paint2_linear_1_29598" x1="53.3376" y1="56.2582" x2="41.7459" y2="38.8161" gradientUnits="userSpaceOnUse">
<stop stop-color="#FFC200" stop-opacity="0"/>
<stop offset="0.203" stop-color="#FFBB00" stop-opacity="0.203"/>
<stop offset="0.499" stop-color="#FFA700" stop-opacity="0.499"/>
<stop offset="0.852" stop-color="#FF8800" stop-opacity="0.852"/>
<stop offset="1" stop-color="#FF7800"/>
</linearGradient>
<linearGradient id="paint3_linear_1_29598" x1="44.5554" y1="47.4512" x2="44.5554" y2="45.2989" gradientUnits="userSpaceOnUse">
<stop stop-color="#FF9102"/>
<stop offset="0.128" stop-color="#FF9409"/>
<stop offset="0.314" stop-color="#FF9C1D"/>
<stop offset="0.537" stop-color="#FFAA3D"/>
<stop offset="0.785" stop-color="#FFBC69"/>
<stop offset="1" stop-color="#FFCF95"/>
</linearGradient>
<clipPath id="clip0_1_29598">
<rect x="28.8826" y="19.0748" width="31.4187" height="31.4187" rx="15.7093" fill="white"/>
</clipPath>
<clipPath id="clip1_1_29598">
<rect width="32.8054" height="32.8054" fill="white" transform="translate(28.1519 17.3749)"/>
</clipPath>
</defs>
</svg>
