<svg width="296" height="351" viewBox="0 0 296 351" fill="none" xmlns="http://www.w3.org/2000/svg">
<rect width="296" height="351" rx="16" fill="white"/>
<path d="M21.7636 133.211C22.3212 132.487 22.8788 132.097 23.4364 132.042C24.0497 131.93 24.5515 132.042 24.9418 132.376C25.3879 132.654 25.6388 133.1 25.6945 133.712C25.7503 134.325 25.4994 134.993 24.9418 135.717C24.0497 136.886 23.4085 138.084 23.0182 139.309C22.6836 140.478 22.5164 141.564 22.5164 142.566L22.2655 140.896C23.7152 140.896 24.8861 141.313 25.7782 142.148C26.6703 142.928 27.1164 144.014 27.1164 145.406C27.1164 146.742 26.6982 147.856 25.8618 148.747C25.0255 149.582 23.9382 150 22.6 150C21.1503 150 20.0073 149.527 19.1709 148.58C18.3903 147.578 18 146.158 18 144.32C18 143.151 18.0836 141.954 18.2509 140.729C18.4739 139.448 18.8642 138.167 19.4218 136.886C20.0352 135.606 20.8158 134.381 21.7636 133.211ZM35.6473 133.211C36.2048 132.487 36.7624 132.097 37.32 132.042C37.9333 131.93 38.4352 132.042 38.8255 132.376C39.2715 132.654 39.5224 133.1 39.5782 133.712C39.6339 134.325 39.383 134.993 38.8255 135.717C37.9333 136.886 37.2921 138.084 36.9018 139.309C36.5673 140.478 36.4 141.564 36.4 142.566L36.1491 140.896C37.5988 140.896 38.7697 141.313 39.6618 142.148C40.5539 142.928 41 144.014 41 145.406C41 146.742 40.5818 147.856 39.7455 148.747C38.9091 149.582 37.8218 150 36.4836 150C35.0339 150 33.8909 149.527 33.0545 148.58C32.2739 147.578 31.8836 146.158 31.8836 144.32C31.8836 143.151 31.9673 141.954 32.1345 140.729C32.3576 139.448 32.7479 138.167 33.3055 136.886C33.9188 135.606 34.6994 134.381 35.6473 133.211Z" fill="#525866"/>
<path d="M261.236 329.789C260.679 330.513 260.121 330.903 259.564 330.958C258.95 331.07 258.448 330.958 258.058 330.624C257.612 330.346 257.361 329.9 257.305 329.288C257.25 328.675 257.501 328.007 258.058 327.283C258.95 326.114 259.592 324.916 259.982 323.691C260.316 322.522 260.484 321.436 260.484 320.434L260.735 322.104C259.285 322.104 258.114 321.687 257.222 320.852C256.33 320.072 255.884 318.986 255.884 317.594C255.884 316.258 256.302 315.144 257.138 314.253C257.975 313.418 259.062 313 260.4 313C261.85 313 262.993 313.473 263.829 314.42C264.61 315.422 265 316.842 265 318.68C265 319.849 264.916 321.046 264.749 322.271C264.526 323.552 264.136 324.833 263.578 326.114C262.965 327.394 262.184 328.619 261.236 329.789ZM247.353 329.789C246.795 330.513 246.238 330.903 245.68 330.958C245.067 331.07 244.565 330.958 244.175 330.624C243.728 330.346 243.478 329.9 243.422 329.288C243.366 328.675 243.617 328.007 244.175 327.283C245.067 326.114 245.708 324.916 246.098 323.691C246.433 322.522 246.6 321.436 246.6 320.434L246.851 322.104C245.401 322.104 244.23 321.687 243.338 320.852C242.446 320.072 242 318.986 242 317.594C242 316.258 242.418 315.144 243.255 314.253C244.091 313.418 245.178 313 246.516 313C247.966 313 249.109 313.473 249.945 314.42C250.726 315.422 251.116 316.842 251.116 318.68C251.116 319.849 251.033 321.046 250.865 322.271C250.642 323.552 250.252 324.833 249.695 326.114C249.081 327.394 248.301 328.619 247.353 329.789Z" fill="#525866"/>
<path d="M39.3352 191L34.4943 173.545H37.2642L40.6648 187.062H40.8267L44.3636 173.545H47.108L50.6449 187.071H50.8068L54.1989 173.545H56.9773L52.1278 191H49.4773L45.804 177.926H45.6676L41.9943 191H39.3352ZM62.807 191.264C61.5172 191.264 60.4064 190.989 59.4746 190.438C58.5485 189.881 57.8326 189.099 57.3269 188.094C56.8269 187.082 56.5769 185.898 56.5769 184.54C56.5769 183.199 56.8269 182.017 57.3269 180.994C57.8326 179.972 58.5371 179.173 59.4405 178.599C60.3496 178.026 61.4121 177.739 62.628 177.739C63.3666 177.739 64.0826 177.861 64.7757 178.105C65.4689 178.349 66.0911 178.733 66.6422 179.256C67.1934 179.778 67.628 180.457 67.9462 181.293C68.2644 182.122 68.4235 183.131 68.4235 184.318V185.222H58.0172V183.312H65.9263C65.9263 182.642 65.7899 182.048 65.5172 181.531C65.2445 181.009 64.861 180.597 64.3666 180.295C63.878 179.994 63.3041 179.844 62.6451 179.844C61.9291 179.844 61.3041 180.02 60.7701 180.372C60.2416 180.719 59.8326 181.173 59.5428 181.736C59.2587 182.293 59.1166 182.898 59.1166 183.551V185.043C59.1166 185.918 59.2701 186.662 59.5769 187.276C59.8894 187.889 60.324 188.358 60.8809 188.682C61.4377 189 62.0882 189.159 62.8326 189.159C63.3155 189.159 63.7559 189.091 64.1536 188.955C64.5513 188.812 64.8951 188.602 65.1848 188.324C65.4746 188.045 65.6962 187.702 65.8496 187.293L68.2615 187.727C68.0684 188.437 67.7218 189.06 67.2218 189.594C66.7274 190.122 66.1053 190.534 65.3553 190.83C64.611 191.119 63.7615 191.264 62.807 191.264ZM81.6511 196.182C80.6113 196.182 79.7164 196.045 78.9664 195.773C78.2221 195.5 77.6141 195.139 77.1426 194.69C76.671 194.241 76.3187 193.75 76.0857 193.216L78.2761 192.312C78.4295 192.562 78.634 192.827 78.8897 193.105C79.1511 193.389 79.5034 193.631 79.9465 193.83C80.3954 194.028 80.9721 194.128 81.6766 194.128C82.6426 194.128 83.4409 193.892 84.0715 193.42C84.7022 192.955 85.0176 192.21 85.0176 191.188V188.614H84.8556C84.7022 188.892 84.4806 189.202 84.1909 189.543C83.9068 189.884 83.5147 190.179 83.0147 190.429C82.5147 190.679 81.8641 190.804 81.063 190.804C80.0289 190.804 79.0971 190.562 78.2676 190.08C77.4437 189.591 76.7903 188.872 76.3073 187.923C75.8301 186.969 75.5914 185.795 75.5914 184.403C75.5914 183.011 75.8272 181.818 76.2988 180.824C76.7761 179.83 77.4295 179.068 78.259 178.54C79.0886 178.006 80.0289 177.739 81.0801 177.739C81.8926 177.739 82.5488 177.875 83.0488 178.148C83.5488 178.415 83.938 178.727 84.2164 179.085C84.5005 179.443 84.7193 179.759 84.8727 180.031H85.0602V177.909H87.5573V191.29C87.5573 192.415 87.296 193.338 86.7732 194.06C86.2505 194.781 85.5431 195.315 84.6511 195.662C83.7647 196.009 82.7647 196.182 81.6511 196.182ZM81.6255 188.69C82.3585 188.69 82.9778 188.52 83.4835 188.179C83.9948 187.832 84.3812 187.338 84.6426 186.696C84.9096 186.048 85.0431 185.273 85.0431 184.369C85.0431 183.489 84.9124 182.713 84.6511 182.043C84.3897 181.372 84.0062 180.849 83.5005 180.474C82.9948 180.094 82.3698 179.903 81.6255 179.903C80.8585 179.903 80.2193 180.102 79.7079 180.5C79.1965 180.892 78.8102 181.426 78.5488 182.102C78.2931 182.778 78.1653 183.534 78.1653 184.369C78.1653 185.227 78.296 185.98 78.5573 186.628C78.8187 187.276 79.2051 187.781 79.7164 188.145C80.2335 188.509 80.8698 188.69 81.6255 188.69ZM94.0646 191.29C93.2351 191.29 92.4851 191.136 91.8146 190.83C91.1441 190.517 90.6129 190.065 90.2209 189.474C89.8345 188.884 89.6413 188.159 89.6413 187.301C89.6413 186.562 89.7834 185.955 90.0674 185.477C90.3515 185 90.7351 184.622 91.218 184.344C91.701 184.065 92.2407 183.855 92.8373 183.713C93.4339 183.571 94.0419 183.463 94.6612 183.389C95.4453 183.298 96.0816 183.224 96.5703 183.168C97.0589 183.105 97.414 183.006 97.6356 182.869C97.8572 182.733 97.968 182.511 97.968 182.205V182.145C97.968 181.401 97.7578 180.824 97.3373 180.415C96.9226 180.006 96.3032 179.801 95.4794 179.801C94.6214 179.801 93.9453 179.991 93.451 180.372C92.9623 180.747 92.6243 181.165 92.4368 181.625L90.0419 181.08C90.326 180.284 90.7407 179.642 91.2862 179.153C91.8373 178.659 92.4709 178.301 93.1868 178.08C93.9027 177.852 94.6555 177.739 95.4453 177.739C95.968 177.739 96.522 177.801 97.1072 177.926C97.6981 178.045 98.2493 178.267 98.7606 178.591C99.2777 178.915 99.701 179.378 100.031 179.98C100.36 180.577 100.525 181.352 100.525 182.307V191H98.0362V189.21H97.9339C97.7691 189.54 97.522 189.864 97.1924 190.182C96.8629 190.5 96.4396 190.764 95.9226 190.974C95.4055 191.185 94.7862 191.29 94.0646 191.29ZM94.6186 189.244C95.3231 189.244 95.9254 189.105 96.4254 188.827C96.9311 188.548 97.3146 188.185 97.576 187.736C97.843 187.281 97.9765 186.795 97.9765 186.278V184.591C97.8856 184.682 97.7095 184.767 97.4481 184.847C97.1924 184.92 96.8998 184.986 96.5703 185.043C96.2407 185.094 95.9197 185.142 95.6072 185.188C95.2947 185.227 95.0334 185.261 94.8231 185.29C94.3288 185.352 93.8771 185.457 93.468 185.605C93.0646 185.753 92.7407 185.966 92.4964 186.244C92.2578 186.517 92.1385 186.881 92.1385 187.335C92.1385 187.966 92.3714 188.443 92.8373 188.767C93.3032 189.085 93.897 189.244 94.6186 189.244ZM103.199 191V177.909H105.747V191H103.199ZM104.486 175.889C104.043 175.889 103.662 175.741 103.344 175.446C103.031 175.145 102.875 174.787 102.875 174.372C102.875 173.952 103.031 173.594 103.344 173.298C103.662 172.997 104.043 172.847 104.486 172.847C104.929 172.847 105.307 172.997 105.619 173.298C105.938 173.594 106.097 173.952 106.097 174.372C106.097 174.787 105.938 175.145 105.619 175.446C105.307 175.741 104.929 175.889 104.486 175.889ZM111.004 183.227V191H108.456V177.909H110.902V180.04H111.064C111.365 179.347 111.836 178.79 112.478 178.369C113.126 177.949 113.941 177.739 114.924 177.739C115.816 177.739 116.598 177.926 117.268 178.301C117.939 178.67 118.458 179.222 118.828 179.955C119.197 180.687 119.382 181.594 119.382 182.673V191H116.833V182.98C116.833 182.031 116.586 181.29 116.092 180.756C115.598 180.216 114.919 179.946 114.055 179.946C113.464 179.946 112.939 180.074 112.478 180.33C112.024 180.585 111.663 180.96 111.396 181.455C111.135 181.943 111.004 182.534 111.004 183.227ZM127.721 191.264C126.432 191.264 125.321 190.989 124.389 190.438C123.463 189.881 122.747 189.099 122.241 188.094C121.741 187.082 121.491 185.898 121.491 184.54C121.491 183.199 121.741 182.017 122.241 180.994C122.747 179.972 123.451 179.173 124.355 178.599C125.264 178.026 126.326 177.739 127.542 177.739C128.281 177.739 128.997 177.861 129.69 178.105C130.383 178.349 131.005 178.733 131.557 179.256C132.108 179.778 132.542 180.457 132.861 181.293C133.179 182.122 133.338 183.131 133.338 184.318V185.222H122.932V183.312H130.841C130.841 182.642 130.704 182.048 130.432 181.531C130.159 181.009 129.775 180.597 129.281 180.295C128.792 179.994 128.219 179.844 127.559 179.844C126.844 179.844 126.219 180.02 125.684 180.372C125.156 180.719 124.747 181.173 124.457 181.736C124.173 182.293 124.031 182.898 124.031 183.551V185.043C124.031 185.918 124.184 186.662 124.491 187.276C124.804 187.889 125.238 188.358 125.795 188.682C126.352 189 127.003 189.159 127.747 189.159C128.23 189.159 128.67 189.091 129.068 188.955C129.466 188.812 129.809 188.602 130.099 188.324C130.389 188.045 130.611 187.702 130.764 187.293L133.176 187.727C132.983 188.437 132.636 189.06 132.136 189.594C131.642 190.122 131.02 190.534 130.27 190.83C129.525 191.119 128.676 191.264 127.721 191.264ZM140.346 191.256C139.289 191.256 138.346 190.986 137.516 190.446C136.692 189.901 136.045 189.125 135.573 188.119C135.107 187.108 134.874 185.895 134.874 184.48C134.874 183.065 135.11 181.855 135.582 180.849C136.059 179.844 136.712 179.074 137.542 178.54C138.371 178.006 139.312 177.739 140.363 177.739C141.175 177.739 141.829 177.875 142.323 178.148C142.823 178.415 143.209 178.727 143.482 179.085C143.761 179.443 143.977 179.759 144.13 180.031H144.283V173.545H146.832V191H144.343V188.963H144.13C143.977 189.241 143.755 189.56 143.465 189.918C143.181 190.276 142.789 190.588 142.289 190.855C141.789 191.122 141.141 191.256 140.346 191.256ZM140.908 189.082C141.641 189.082 142.261 188.889 142.766 188.503C143.278 188.111 143.664 187.568 143.925 186.875C144.192 186.182 144.326 185.375 144.326 184.455C144.326 183.545 144.195 182.75 143.934 182.068C143.673 181.386 143.289 180.855 142.783 180.474C142.278 180.094 141.653 179.903 140.908 179.903C140.141 179.903 139.502 180.102 138.991 180.5C138.479 180.898 138.093 181.44 137.832 182.128C137.576 182.815 137.448 183.591 137.448 184.455C137.448 185.33 137.579 186.116 137.84 186.815C138.102 187.514 138.488 188.068 138.999 188.477C139.516 188.881 140.153 189.082 140.908 189.082ZM155.346 191V189.091L161.252 182.972C161.883 182.307 162.403 181.724 162.812 181.224C163.227 180.719 163.537 180.239 163.741 179.784C163.946 179.33 164.048 178.847 164.048 178.335C164.048 177.756 163.912 177.256 163.639 176.835C163.366 176.409 162.994 176.082 162.522 175.855C162.051 175.622 161.519 175.506 160.929 175.506C160.304 175.506 159.758 175.634 159.292 175.889C158.826 176.145 158.468 176.506 158.218 176.972C157.968 177.437 157.843 177.983 157.843 178.608H155.329C155.329 177.545 155.573 176.616 156.062 175.821C156.551 175.026 157.221 174.409 158.073 173.972C158.926 173.528 159.894 173.307 160.98 173.307C162.076 173.307 163.042 173.526 163.877 173.963C164.718 174.395 165.375 174.986 165.846 175.736C166.318 176.48 166.554 177.321 166.554 178.259C166.554 178.906 166.431 179.54 166.187 180.159C165.948 180.778 165.531 181.469 164.934 182.23C164.338 182.986 163.508 183.903 162.446 184.983L158.977 188.614V188.741H166.835V191H155.346ZM175.422 191.29C174.075 191.284 172.924 190.929 171.97 190.224C171.015 189.52 170.285 188.494 169.78 187.148C169.274 185.801 169.021 184.179 169.021 182.281C169.021 180.389 169.274 178.773 169.78 177.432C170.291 176.091 171.024 175.068 171.978 174.364C172.939 173.659 174.086 173.307 175.422 173.307C176.757 173.307 177.902 173.662 178.856 174.372C179.811 175.077 180.541 176.099 181.047 177.44C181.558 178.776 181.814 180.389 181.814 182.281C181.814 184.185 181.561 185.81 181.055 187.156C180.549 188.497 179.819 189.523 178.865 190.233C177.91 190.938 176.763 191.29 175.422 191.29ZM175.422 189.014C176.603 189.014 177.527 188.438 178.192 187.284C178.862 186.131 179.197 184.463 179.197 182.281C179.197 180.832 179.044 179.608 178.737 178.608C178.436 177.602 178.001 176.841 177.433 176.324C176.87 175.801 176.2 175.54 175.422 175.54C174.245 175.54 173.322 176.119 172.652 177.278C171.981 178.437 171.643 180.105 171.638 182.281C171.638 183.736 171.788 184.966 172.089 185.972C172.396 186.972 172.831 187.73 173.393 188.247C173.956 188.759 174.632 189.014 175.422 189.014ZM190.194 191.29C188.847 191.284 187.697 190.929 186.742 190.224C185.788 189.52 185.057 188.494 184.552 187.148C184.046 185.801 183.793 184.179 183.793 182.281C183.793 180.389 184.046 178.773 184.552 177.432C185.063 176.091 185.796 175.068 186.751 174.364C187.711 173.659 188.859 173.307 190.194 173.307C191.529 173.307 192.674 173.662 193.628 174.372C194.583 175.077 195.313 176.099 195.819 177.44C196.33 178.776 196.586 180.389 196.586 182.281C196.586 184.185 196.333 185.81 195.827 187.156C195.322 188.497 194.592 189.523 193.637 190.233C192.682 190.938 191.535 191.29 190.194 191.29ZM190.194 189.014C191.376 189.014 192.299 188.438 192.964 187.284C193.634 186.131 193.969 184.463 193.969 182.281C193.969 180.832 193.816 179.608 193.509 178.608C193.208 177.602 192.773 176.841 192.205 176.324C191.643 175.801 190.972 175.54 190.194 175.54C189.018 175.54 188.094 176.119 187.424 177.278C186.753 178.437 186.415 180.105 186.41 182.281C186.41 183.736 186.56 184.966 186.861 185.972C187.168 186.972 187.603 187.73 188.165 188.247C188.728 188.759 189.404 189.014 190.194 189.014ZM201.267 186.56L201.25 183.449H201.693L206.909 177.909H209.96L204.011 184.216H203.611L201.267 186.56ZM198.923 191V173.545H201.472V191H198.923ZM207.19 191L202.503 184.778L204.259 182.997L210.318 191H207.19ZM41.2273 223.264C39.9602 223.264 38.8693 222.977 37.9545 222.403C37.0455 221.824 36.3466 221.026 35.858 220.009C35.3693 218.991 35.125 217.827 35.125 216.514C35.125 215.185 35.375 214.011 35.875 212.994C36.375 211.972 37.0795 211.173 37.9886 210.599C38.8977 210.026 39.9688 209.739 41.2017 209.739C42.196 209.739 43.0824 209.923 43.8608 210.293C44.6392 210.656 45.267 211.168 45.7443 211.827C46.2273 212.486 46.5142 213.256 46.6051 214.136H44.125C43.9886 213.523 43.6761 212.994 43.1875 212.551C42.7045 212.108 42.0568 211.886 41.2443 211.886C40.5341 211.886 39.9119 212.074 39.3778 212.449C38.8494 212.818 38.4375 213.347 38.142 214.034C37.8466 214.716 37.6989 215.523 37.6989 216.455C37.6989 217.409 37.8438 218.233 38.1335 218.926C38.4233 219.619 38.8324 220.156 39.3608 220.537C39.8949 220.918 40.5227 221.108 41.2443 221.108C41.7273 221.108 42.1648 221.02 42.5568 220.844C42.9545 220.662 43.2869 220.403 43.554 220.068C43.8267 219.733 44.017 219.33 44.125 218.858H46.6051C46.5142 219.705 46.2386 220.46 45.7784 221.125C45.3182 221.79 44.7017 222.312 43.929 222.693C43.1619 223.074 42.2614 223.264 41.2273 223.264ZM54.1245 223.264C52.8972 223.264 51.8262 222.983 50.9114 222.42C49.9966 221.858 49.2864 221.071 48.7807 220.06C48.275 219.048 48.0222 217.866 48.0222 216.514C48.0222 215.156 48.275 213.969 48.7807 212.952C49.2864 211.935 49.9966 211.145 50.9114 210.582C51.8262 210.02 52.8972 209.739 54.1245 209.739C55.3517 209.739 56.4228 210.02 57.3375 210.582C58.2523 211.145 58.9625 211.935 59.4682 212.952C59.9739 213.969 60.2267 215.156 60.2267 216.514C60.2267 217.866 59.9739 219.048 59.4682 220.06C58.9625 221.071 58.2523 221.858 57.3375 222.42C56.4228 222.983 55.3517 223.264 54.1245 223.264ZM54.133 221.125C54.9284 221.125 55.5875 220.915 56.1103 220.494C56.633 220.074 57.0193 219.514 57.2693 218.815C57.525 218.116 57.6529 217.347 57.6529 216.506C57.6529 215.67 57.525 214.903 57.2693 214.205C57.0193 213.5 56.633 212.935 56.1103 212.509C55.5875 212.082 54.9284 211.869 54.133 211.869C53.3318 211.869 52.6671 212.082 52.1387 212.509C51.6159 212.935 51.2267 213.5 50.9711 214.205C50.7211 214.903 50.5961 215.67 50.5961 216.506C50.5961 217.347 50.7211 218.116 50.9711 218.815C51.2267 219.514 51.6159 220.074 52.1387 220.494C52.6671 220.915 53.3318 221.125 54.133 221.125ZM62.3512 223V209.909H64.7972V212.04H64.9591C65.2319 211.318 65.6779 210.756 66.2972 210.352C66.9165 209.943 67.658 209.739 68.5216 209.739C69.3966 209.739 70.1296 209.943 70.7205 210.352C71.3171 210.761 71.7574 211.324 72.0415 212.04H72.1779C72.4904 211.341 72.9876 210.784 73.6694 210.369C74.3512 209.949 75.1637 209.739 76.1069 209.739C77.2944 209.739 78.2631 210.111 79.0131 210.855C79.7688 211.599 80.1466 212.722 80.1466 214.222V223H77.5984V214.46C77.5984 213.574 77.3569 212.932 76.8739 212.534C76.391 212.136 75.8143 211.938 75.1438 211.938C74.3143 211.938 73.6694 212.193 73.2091 212.705C72.7489 213.21 72.5188 213.861 72.5188 214.656V223H69.979V214.298C69.979 213.588 69.7574 213.017 69.3143 212.585C68.8711 212.153 68.2944 211.938 67.5841 211.938C67.1012 211.938 66.6552 212.065 66.2461 212.321C65.8427 212.571 65.516 212.92 65.266 213.369C65.0216 213.818 64.8995 214.338 64.8995 214.929V223H62.3512ZM82.8421 223V209.909H85.2882V212.04H85.4501C85.7228 211.318 86.1688 210.756 86.7882 210.352C87.4075 209.943 88.1489 209.739 89.0126 209.739C89.8876 209.739 90.6205 209.943 91.2114 210.352C91.808 210.761 92.2484 211.324 92.5325 212.04H92.6688C92.9813 211.341 93.4785 210.784 94.1603 210.369C94.8421 209.949 95.6546 209.739 96.5978 209.739C97.7853 209.739 98.7541 210.111 99.5041 210.855C100.26 211.599 100.638 212.722 100.638 214.222V223H98.0893V214.46C98.0893 213.574 97.8478 212.932 97.3649 212.534C96.8819 212.136 96.3052 211.938 95.6347 211.938C94.8052 211.938 94.1603 212.193 93.7001 212.705C93.2399 213.21 93.0097 213.861 93.0097 214.656V223H90.47V214.298C90.47 213.588 90.2484 213.017 89.8052 212.585C89.362 212.153 88.7853 211.938 88.0751 211.938C87.5921 211.938 87.1461 212.065 86.737 212.321C86.3336 212.571 86.0069 212.92 85.7569 213.369C85.5126 213.818 85.3904 214.338 85.3904 214.929V223H82.8421ZM111.626 217.571V209.909H114.183V223H111.677V220.733H111.54C111.239 221.432 110.756 222.014 110.092 222.48C109.433 222.94 108.611 223.17 107.629 223.17C106.788 223.17 106.043 222.986 105.396 222.616C104.754 222.241 104.248 221.688 103.879 220.955C103.515 220.222 103.333 219.315 103.333 218.236V209.909H105.881V217.929C105.881 218.821 106.129 219.531 106.623 220.06C107.117 220.588 107.759 220.852 108.549 220.852C109.026 220.852 109.501 220.733 109.972 220.494C110.45 220.256 110.844 219.895 111.157 219.412C111.475 218.929 111.631 218.315 111.626 217.571ZM119.435 215.227V223H116.887V209.909H119.333V212.04H119.494C119.796 211.347 120.267 210.79 120.909 210.369C121.557 209.949 122.372 209.739 123.355 209.739C124.247 209.739 125.029 209.926 125.699 210.301C126.369 210.67 126.889 211.222 127.259 211.955C127.628 212.687 127.813 213.594 127.813 214.673V223H125.264V214.98C125.264 214.031 125.017 213.29 124.523 212.756C124.029 212.216 123.35 211.946 122.486 211.946C121.895 211.946 121.369 212.074 120.909 212.33C120.455 212.585 120.094 212.96 119.827 213.455C119.565 213.943 119.435 214.534 119.435 215.227ZM130.51 223V209.909H133.059V223H130.51ZM131.797 207.889C131.354 207.889 130.973 207.741 130.655 207.446C130.343 207.145 130.186 206.787 130.186 206.372C130.186 205.952 130.343 205.594 130.655 205.298C130.973 204.997 131.354 204.847 131.797 204.847C132.24 204.847 132.618 204.997 132.931 205.298C133.249 205.594 133.408 205.952 133.408 206.372C133.408 206.787 133.249 207.145 132.931 207.446C132.618 207.741 132.24 207.889 131.797 207.889ZM141.878 209.909V211.955H134.727V209.909H141.878ZM136.645 206.773H139.193V219.156C139.193 219.651 139.267 220.023 139.415 220.273C139.562 220.517 139.753 220.685 139.986 220.776C140.224 220.861 140.483 220.903 140.761 220.903C140.966 220.903 141.145 220.889 141.298 220.861C141.451 220.832 141.571 220.81 141.656 220.793L142.116 222.898C141.969 222.955 141.758 223.011 141.486 223.068C141.213 223.131 140.872 223.165 140.463 223.17C139.792 223.182 139.167 223.062 138.588 222.812C138.008 222.562 137.54 222.176 137.182 221.653C136.824 221.131 136.645 220.474 136.645 219.685V206.773ZM145.587 227.909C145.207 227.909 144.86 227.878 144.548 227.815C144.235 227.759 144.002 227.696 143.849 227.628L144.462 225.54C144.928 225.665 145.343 225.719 145.707 225.702C146.07 225.685 146.391 225.548 146.67 225.293C146.954 225.037 147.204 224.619 147.42 224.04L147.735 223.17L142.945 209.909H145.673L148.988 220.068H149.124L152.44 209.909H155.175L149.78 224.747C149.53 225.429 149.212 226.006 148.826 226.477C148.44 226.955 147.979 227.313 147.445 227.551C146.911 227.79 146.292 227.909 145.587 227.909ZM165.32 223L161.468 209.909H164.101L166.666 219.523H166.794L169.368 209.909H172.002L174.559 219.48H174.686L177.235 209.909H179.868L176.024 223H173.425L170.766 213.548H170.57L167.911 223H165.32ZM181.567 223V209.909H184.115V223H181.567ZM182.853 207.889C182.41 207.889 182.03 207.741 181.711 207.446C181.399 207.145 181.243 206.787 181.243 206.372C181.243 205.952 181.399 205.594 181.711 205.298C182.03 204.997 182.41 204.847 182.853 204.847C183.297 204.847 183.674 204.997 183.987 205.298C184.305 205.594 184.464 205.952 184.464 206.372C184.464 206.787 184.305 207.145 183.987 207.446C183.674 207.741 183.297 207.889 182.853 207.889ZM192.934 209.909V211.955H185.783V209.909H192.934ZM187.701 206.773H190.249V219.156C190.249 219.651 190.323 220.023 190.471 220.273C190.619 220.517 190.809 220.685 191.042 220.776C191.28 220.861 191.539 220.903 191.817 220.903C192.022 220.903 192.201 220.889 192.354 220.861C192.508 220.832 192.627 220.81 192.712 220.793L193.173 222.898C193.025 222.955 192.815 223.011 192.542 223.068C192.269 223.131 191.928 223.165 191.519 223.17C190.849 223.182 190.224 223.062 189.644 222.812C189.065 222.562 188.596 222.176 188.238 221.653C187.88 221.131 187.701 220.474 187.701 219.685V206.773ZM197.862 215.227V223H195.314V205.545H197.828V212.04H197.99C198.297 211.335 198.766 210.776 199.396 210.361C200.027 209.946 200.851 209.739 201.868 209.739C202.766 209.739 203.55 209.923 204.22 210.293C204.896 210.662 205.419 211.213 205.788 211.946C206.163 212.673 206.351 213.582 206.351 214.673V223H203.803V214.98C203.803 214.02 203.555 213.276 203.061 212.747C202.567 212.213 201.879 211.946 200.999 211.946C200.396 211.946 199.857 212.074 199.379 212.33C198.908 212.585 198.536 212.96 198.263 213.455C197.996 213.943 197.862 214.534 197.862 215.227ZM209.032 223V209.909H211.58V223H209.032ZM210.318 207.889C209.875 207.889 209.495 207.741 209.176 207.446C208.864 207.145 208.708 206.787 208.708 206.372C208.708 205.952 208.864 205.594 209.176 205.298C209.495 204.997 209.875 204.847 210.318 204.847C210.762 204.847 211.139 204.997 211.452 205.298C211.77 205.594 211.929 205.952 211.929 206.372C211.929 206.787 211.77 207.145 211.452 207.446C211.139 207.741 210.762 207.889 210.318 207.889ZM216.836 215.227V223H214.288V209.909H216.734V212.04H216.896C217.197 211.347 217.669 210.79 218.311 210.369C218.959 209.949 219.774 209.739 220.757 209.739C221.649 209.739 222.43 209.926 223.101 210.301C223.771 210.67 224.291 211.222 224.66 211.955C225.03 212.687 225.214 213.594 225.214 214.673V223H222.666V214.98C222.666 214.031 222.419 213.29 221.924 212.756C221.43 212.216 220.751 211.946 219.887 211.946C219.297 211.946 218.771 212.074 218.311 212.33C217.856 212.585 217.495 212.96 217.228 213.455C216.967 213.943 216.836 214.534 216.836 215.227ZM233.509 223V221.091L239.416 214.972C240.046 214.307 240.566 213.724 240.975 213.224C241.39 212.719 241.7 212.239 241.904 211.784C242.109 211.33 242.211 210.847 242.211 210.335C242.211 209.756 242.075 209.256 241.802 208.835C241.529 208.409 241.157 208.082 240.685 207.855C240.214 207.622 239.683 207.506 239.092 207.506C238.467 207.506 237.921 207.634 237.455 207.889C236.989 208.145 236.631 208.506 236.381 208.972C236.131 209.437 236.006 209.983 236.006 210.608H233.492C233.492 209.545 233.737 208.616 234.225 207.821C234.714 207.026 235.384 206.409 236.237 205.972C237.089 205.528 238.058 205.307 239.143 205.307C240.239 205.307 241.205 205.526 242.041 205.963C242.881 206.395 243.538 206.986 244.009 207.736C244.481 208.48 244.717 209.321 244.717 210.259C244.717 210.906 244.595 211.54 244.35 212.159C244.112 212.778 243.694 213.469 243.097 214.23C242.501 214.986 241.671 215.903 240.609 216.983L237.14 220.614V220.741H244.998V223H233.509ZM38.5511 255L34.6989 241.909H37.3324L39.8977 251.523H40.0256L42.5994 241.909H45.233L47.7898 251.48H47.9176L50.4659 241.909H53.0994L49.2557 255H46.6562L43.9972 245.548H43.8011L41.142 255H38.5511ZM60.0414 255.264C58.7516 255.264 57.6408 254.989 56.709 254.438C55.7828 253.881 55.0669 253.099 54.5613 252.094C54.0613 251.082 53.8113 249.898 53.8113 248.54C53.8113 247.199 54.0613 246.017 54.5613 244.994C55.0669 243.972 55.7715 243.173 56.6749 242.599C57.584 242.026 58.6465 241.739 59.8624 241.739C60.601 241.739 61.3169 241.861 62.0101 242.105C62.7033 242.349 63.3255 242.733 63.8766 243.256C64.4277 243.778 64.8624 244.457 65.1806 245.293C65.4988 246.122 65.6578 247.131 65.6578 248.318V249.222H55.2516V247.312H63.1607C63.1607 246.642 63.0243 246.048 62.7516 245.531C62.4789 245.009 62.0953 244.597 61.601 244.295C61.1124 243.994 60.5385 243.844 59.8794 243.844C59.1635 243.844 58.5385 244.02 58.0044 244.372C57.476 244.719 57.0669 245.173 56.7772 245.736C56.4931 246.293 56.351 246.898 56.351 247.551V249.043C56.351 249.918 56.5044 250.662 56.8113 251.276C57.1238 251.889 57.5584 252.358 58.1152 252.682C58.672 253 59.3226 253.159 60.0669 253.159C60.5499 253.159 60.9902 253.091 61.388 252.955C61.7857 252.812 62.1294 252.602 62.4192 252.324C62.709 252.045 62.9306 251.702 63.084 251.293L65.4959 251.727C65.3027 252.437 64.9561 253.06 64.4561 253.594C63.9618 254.122 63.3397 254.534 62.5897 254.83C61.8453 255.119 60.9959 255.264 60.0414 255.264ZM73.4073 255.264C72.1175 255.264 71.0067 254.989 70.0749 254.438C69.1488 253.881 68.4329 253.099 67.9272 252.094C67.4272 251.082 67.1772 249.898 67.1772 248.54C67.1772 247.199 67.4272 246.017 67.9272 244.994C68.4329 243.972 69.1374 243.173 70.0408 242.599C70.9499 242.026 72.0124 241.739 73.2283 241.739C73.967 241.739 74.6829 241.861 75.3761 242.105C76.0692 242.349 76.6914 242.733 77.2425 243.256C77.7937 243.778 78.2283 244.457 78.5465 245.293C78.8647 246.122 79.0238 247.131 79.0238 248.318V249.222H68.6175V247.312H76.5266C76.5266 246.642 76.3903 246.048 76.1175 245.531C75.8448 245.009 75.4613 244.597 74.967 244.295C74.4783 243.994 73.9045 243.844 73.2454 243.844C72.5295 243.844 71.9045 244.02 71.3704 244.372C70.842 244.719 70.4329 245.173 70.1431 245.736C69.859 246.293 69.717 246.898 69.717 247.551V249.043C69.717 249.918 69.8704 250.662 70.1772 251.276C70.4897 251.889 70.9243 252.358 71.4812 252.682C72.038 253 72.6886 253.159 73.4329 253.159C73.9158 253.159 74.3562 253.091 74.7539 252.955C75.1516 252.812 75.4954 252.602 75.7851 252.324C76.0749 252.045 76.2965 251.702 76.4499 251.293L78.8618 251.727C78.6687 252.437 78.3221 253.06 77.8221 253.594C77.3278 254.122 76.7056 254.534 75.9556 254.83C75.2113 255.119 74.3618 255.264 73.4073 255.264ZM83.4749 250.56L83.4579 247.449H83.9011L89.117 241.909H92.1681L86.2193 248.216H85.8187L83.4749 250.56ZM81.1312 255V237.545H83.6795V255H81.1312ZM89.3982 255L84.7107 248.778L86.4664 246.997L92.5261 255H89.3982ZM103.58 245.105L101.271 245.514C101.174 245.219 101.021 244.937 100.81 244.67C100.606 244.403 100.327 244.185 99.9751 244.014C99.6228 243.844 99.1825 243.759 98.6541 243.759C97.9325 243.759 97.3302 243.92 96.8473 244.244C96.3643 244.562 96.1228 244.974 96.1228 245.48C96.1228 245.918 96.2848 246.27 96.6086 246.537C96.9325 246.804 97.4552 247.023 98.1768 247.193L100.256 247.67C101.461 247.949 102.359 248.378 102.95 248.957C103.54 249.537 103.836 250.29 103.836 251.216C103.836 252 103.609 252.699 103.154 253.312C102.705 253.92 102.077 254.398 101.271 254.744C100.469 255.091 99.5405 255.264 98.4836 255.264C97.0177 255.264 95.8217 254.952 94.8956 254.327C93.9694 253.696 93.4012 252.801 93.191 251.642L95.6541 251.267C95.8075 251.909 96.1228 252.395 96.6001 252.724C97.0774 253.048 97.6995 253.21 98.4666 253.21C99.3018 253.21 99.9694 253.037 100.469 252.69C100.969 252.338 101.219 251.909 101.219 251.403C101.219 250.994 101.066 250.651 100.759 250.372C100.458 250.094 99.995 249.884 99.37 249.741L97.1541 249.256C95.9325 248.977 95.0291 248.534 94.4439 247.926C93.8643 247.318 93.5745 246.548 93.5745 245.616C93.5745 244.844 93.7905 244.168 94.2223 243.588C94.6541 243.009 95.2507 242.557 96.012 242.233C96.7734 241.903 97.6456 241.739 98.6285 241.739C100.043 241.739 101.157 242.045 101.969 242.659C102.782 243.267 103.319 244.082 103.58 245.105ZM109.233 252.614L109.105 253.543C109.02 254.224 108.875 254.935 108.671 255.673C108.472 256.418 108.264 257.108 108.048 257.744C107.838 258.381 107.665 258.886 107.529 259.261H105.722C105.796 258.909 105.898 258.432 106.029 257.83C106.159 257.233 106.287 256.565 106.412 255.827C106.537 255.088 106.631 254.335 106.693 253.568L106.779 252.614H109.233ZM117.667 255V237.545H120.3V252.733H128.209V255H117.667ZM135.803 255.264C134.576 255.264 133.505 254.983 132.59 254.42C131.675 253.858 130.965 253.071 130.459 252.06C129.954 251.048 129.701 249.866 129.701 248.514C129.701 247.156 129.954 245.969 130.459 244.952C130.965 243.935 131.675 243.145 132.59 242.582C133.505 242.02 134.576 241.739 135.803 241.739C137.03 241.739 138.102 242.02 139.016 242.582C139.931 243.145 140.641 243.935 141.147 244.952C141.653 245.969 141.905 247.156 141.905 248.514C141.905 249.866 141.653 251.048 141.147 252.06C140.641 253.071 139.931 253.858 139.016 254.42C138.102 254.983 137.03 255.264 135.803 255.264ZM135.812 253.125C136.607 253.125 137.266 252.915 137.789 252.494C138.312 252.074 138.698 251.514 138.948 250.815C139.204 250.116 139.332 249.347 139.332 248.506C139.332 247.67 139.204 246.903 138.948 246.205C138.698 245.5 138.312 244.935 137.789 244.509C137.266 244.082 136.607 243.869 135.812 243.869C135.011 243.869 134.346 244.082 133.817 244.509C133.295 244.935 132.905 245.5 132.65 246.205C132.4 246.903 132.275 247.67 132.275 248.506C132.275 249.347 132.4 250.116 132.65 250.815C132.905 251.514 133.295 252.074 133.817 252.494C134.346 252.915 135.011 253.125 135.812 253.125ZM149.544 255.264C148.317 255.264 147.246 254.983 146.331 254.42C145.416 253.858 144.706 253.071 144.2 252.06C143.695 251.048 143.442 249.866 143.442 248.514C143.442 247.156 143.695 245.969 144.2 244.952C144.706 243.935 145.416 243.145 146.331 242.582C147.246 242.02 148.317 241.739 149.544 241.739C150.771 241.739 151.842 242.02 152.757 242.582C153.672 243.145 154.382 243.935 154.888 244.952C155.394 245.969 155.646 247.156 155.646 248.514C155.646 249.866 155.394 251.048 154.888 252.06C154.382 253.071 153.672 253.858 152.757 254.42C151.842 254.983 150.771 255.264 149.544 255.264ZM149.553 253.125C150.348 253.125 151.007 252.915 151.53 252.494C152.053 252.074 152.439 251.514 152.689 250.815C152.945 250.116 153.073 249.347 153.073 248.506C153.073 247.67 152.945 246.903 152.689 246.205C152.439 245.5 152.053 244.935 151.53 244.509C151.007 244.082 150.348 243.869 149.553 243.869C148.752 243.869 148.087 244.082 147.558 244.509C147.036 244.935 146.646 245.5 146.391 246.205C146.141 246.903 146.016 247.67 146.016 248.506C146.016 249.347 146.141 250.116 146.391 250.815C146.646 251.514 147.036 252.074 147.558 252.494C148.087 252.915 148.752 253.125 149.553 253.125ZM160.115 250.56L160.098 247.449H160.541L165.757 241.909H168.808L162.859 248.216H162.458L160.115 250.56ZM157.771 255V237.545H160.319V255H157.771ZM166.038 255L161.35 248.778L163.106 246.997L169.166 255H166.038ZM170.41 255V241.909H172.959V255H170.41ZM171.697 239.889C171.254 239.889 170.873 239.741 170.555 239.446C170.243 239.145 170.086 238.787 170.086 238.372C170.086 237.952 170.243 237.594 170.555 237.298C170.873 236.997 171.254 236.847 171.697 236.847C172.14 236.847 172.518 236.997 172.831 237.298C173.149 237.594 173.308 237.952 173.308 238.372C173.308 238.787 173.149 239.145 172.831 239.446C172.518 239.741 172.14 239.889 171.697 239.889ZM178.215 247.227V255H175.667V241.909H178.113V244.04H178.275C178.576 243.347 179.048 242.79 179.69 242.369C180.337 241.949 181.153 241.739 182.136 241.739C183.028 241.739 183.809 241.926 184.479 242.301C185.15 242.67 185.67 243.222 186.039 243.955C186.408 244.687 186.593 245.594 186.593 246.673V255H184.045V246.98C184.045 246.031 183.798 245.29 183.303 244.756C182.809 244.216 182.13 243.946 181.266 243.946C180.675 243.946 180.15 244.074 179.69 244.33C179.235 244.585 178.874 244.96 178.607 245.455C178.346 245.943 178.215 246.534 178.215 247.227ZM194.779 260.182C193.739 260.182 192.845 260.045 192.095 259.773C191.35 259.5 190.742 259.139 190.271 258.69C189.799 258.241 189.447 257.75 189.214 257.216L191.404 256.312C191.558 256.562 191.762 256.827 192.018 257.105C192.279 257.389 192.631 257.631 193.075 257.83C193.524 258.028 194.1 258.128 194.805 258.128C195.771 258.128 196.569 257.892 197.2 257.42C197.83 256.955 198.146 256.21 198.146 255.188V252.614H197.984C197.83 252.892 197.609 253.202 197.319 253.543C197.035 253.884 196.643 254.179 196.143 254.429C195.643 254.679 194.992 254.804 194.191 254.804C193.157 254.804 192.225 254.562 191.396 254.08C190.572 253.591 189.918 252.872 189.435 251.923C188.958 250.969 188.72 249.795 188.72 248.403C188.72 247.011 188.955 245.818 189.427 244.824C189.904 243.83 190.558 243.068 191.387 242.54C192.217 242.006 193.157 241.739 194.208 241.739C195.021 241.739 195.677 241.875 196.177 242.148C196.677 242.415 197.066 242.727 197.345 243.085C197.629 243.443 197.847 243.759 198.001 244.031H198.188V241.909H200.685V255.29C200.685 256.415 200.424 257.338 199.901 258.06C199.379 258.781 198.671 259.315 197.779 259.662C196.893 260.009 195.893 260.182 194.779 260.182ZM194.754 252.69C195.487 252.69 196.106 252.52 196.612 252.179C197.123 251.832 197.509 251.338 197.771 250.696C198.038 250.048 198.171 249.273 198.171 248.369C198.171 247.489 198.041 246.713 197.779 246.043C197.518 245.372 197.134 244.849 196.629 244.474C196.123 244.094 195.498 243.903 194.754 243.903C193.987 243.903 193.347 244.102 192.836 244.5C192.325 244.892 191.938 245.426 191.677 246.102C191.421 246.778 191.293 247.534 191.293 248.369C191.293 249.227 191.424 249.98 191.685 250.628C191.947 251.276 192.333 251.781 192.845 252.145C193.362 252.509 193.998 252.69 194.754 252.69ZM41.9432 273.909V275.955H34.5455V273.909H41.9432ZM36.5739 287V272.392C36.5739 271.574 36.7528 270.895 37.1108 270.355C37.4688 269.81 37.9432 269.403 38.5341 269.136C39.125 268.864 39.767 268.727 40.4602 268.727C40.9716 268.727 41.4091 268.77 41.7727 268.855C42.1364 268.935 42.4062 269.009 42.5824 269.077L41.9858 271.139C41.8665 271.105 41.7131 271.065 41.5256 271.02C41.3381 270.969 41.1108 270.943 40.8438 270.943C40.2244 270.943 39.7813 271.097 39.5142 271.403C39.2528 271.71 39.1222 272.153 39.1222 272.733V287H36.5739ZM48.851 287.264C47.6237 287.264 46.5527 286.983 45.638 286.42C44.7232 285.858 44.013 285.071 43.5073 284.06C43.0016 283.048 42.7487 281.866 42.7487 280.514C42.7487 279.156 43.0016 277.969 43.5073 276.952C44.013 275.935 44.7232 275.145 45.638 274.582C46.5527 274.02 47.6237 273.739 48.851 273.739C50.0783 273.739 51.1493 274.02 52.0641 274.582C52.9789 275.145 53.6891 275.935 54.1948 276.952C54.7005 277.969 54.9533 279.156 54.9533 280.514C54.9533 281.866 54.7005 283.048 54.1948 284.06C53.6891 285.071 52.9789 285.858 52.0641 286.42C51.1493 286.983 50.0783 287.264 48.851 287.264ZM48.8595 285.125C49.655 285.125 50.3141 284.915 50.8368 284.494C51.3595 284.074 51.7459 283.514 51.9959 282.815C52.2516 282.116 52.3794 281.347 52.3794 280.506C52.3794 279.67 52.2516 278.903 51.9959 278.205C51.7459 277.5 51.3595 276.935 50.8368 276.509C50.3141 276.082 49.655 275.869 48.8595 275.869C48.0584 275.869 47.3936 276.082 46.8652 276.509C46.3425 276.935 45.9533 277.5 45.6976 278.205C45.4476 278.903 45.3226 279.67 45.3226 280.506C45.3226 281.347 45.4476 282.116 45.6976 282.815C45.9533 283.514 46.3425 284.074 46.8652 284.494C47.3936 284.915 48.0584 285.125 48.8595 285.125ZM57.0778 287V273.909H59.5408V275.989H59.6772C59.9158 275.284 60.3363 274.73 60.9386 274.327C61.5465 273.918 62.234 273.713 63.0011 273.713C63.1601 273.713 63.3476 273.719 63.5636 273.73C63.7851 273.741 63.9584 273.756 64.0834 273.773V276.21C63.9812 276.182 63.7993 276.151 63.538 276.116C63.2766 276.077 63.0153 276.057 62.7539 276.057C62.1516 276.057 61.6147 276.185 61.1431 276.44C60.6772 276.69 60.3079 277.04 60.0351 277.489C59.7624 277.932 59.6261 278.437 59.6261 279.006V287H57.0778ZM68.6177 287L64.7654 273.909H67.3989L69.9643 283.523H70.0921L72.666 273.909H75.2995L77.8563 283.48H77.9842L80.5325 273.909H83.166L79.3222 287H76.7228L74.0637 277.548H73.8677L71.2086 287H68.6177ZM88.674 287.29C87.8444 287.29 87.0944 287.136 86.424 286.83C85.7535 286.517 85.2223 286.065 84.8302 285.474C84.4439 284.884 84.2507 284.159 84.2507 283.301C84.2507 282.562 84.3927 281.955 84.6768 281.477C84.9609 281 85.3444 280.622 85.8274 280.344C86.3103 280.065 86.8501 279.855 87.4467 279.713C88.0433 279.571 88.6512 279.463 89.2706 279.389C90.0547 279.298 90.691 279.224 91.1797 279.168C91.6683 279.105 92.0234 279.006 92.245 278.869C92.4666 278.733 92.5774 278.511 92.5774 278.205V278.145C92.5774 277.401 92.3672 276.824 91.9467 276.415C91.5319 276.006 90.9126 275.801 90.0887 275.801C89.2308 275.801 88.5547 275.991 88.0603 276.372C87.5717 276.747 87.2336 277.165 87.0461 277.625L84.6512 277.08C84.9353 276.284 85.3501 275.642 85.8956 275.153C86.4467 274.659 87.0802 274.301 87.7961 274.08C88.512 273.852 89.2649 273.739 90.0547 273.739C90.5774 273.739 91.1314 273.801 91.7166 273.926C92.3075 274.045 92.8586 274.267 93.37 274.591C93.887 274.915 94.3103 275.378 94.6399 275.98C94.9694 276.577 95.1342 277.352 95.1342 278.307V287H92.6456V285.21H92.5433C92.3785 285.54 92.1314 285.864 91.8018 286.182C91.4723 286.5 91.049 286.764 90.5319 286.974C90.0149 287.185 89.3956 287.29 88.674 287.29ZM89.228 285.244C89.9325 285.244 90.5348 285.105 91.0348 284.827C91.5405 284.548 91.924 284.185 92.1853 283.736C92.4524 283.281 92.5859 282.795 92.5859 282.278V280.591C92.495 280.682 92.3189 280.767 92.0575 280.847C91.8018 280.92 91.5092 280.986 91.1797 281.043C90.8501 281.094 90.5291 281.142 90.2166 281.188C89.9041 281.227 89.6427 281.261 89.4325 281.29C88.9382 281.352 88.4865 281.457 88.0774 281.605C87.674 281.753 87.3501 281.966 87.1058 282.244C86.8672 282.517 86.7478 282.881 86.7478 283.335C86.7478 283.966 86.9808 284.443 87.4467 284.767C87.9126 285.085 88.5064 285.244 89.228 285.244ZM97.8084 287V273.909H100.271V275.989H100.408C100.646 275.284 101.067 274.73 101.669 274.327C102.277 273.918 102.965 273.713 103.732 273.713C103.891 273.713 104.078 273.719 104.294 273.73C104.516 273.741 104.689 273.756 104.814 273.773V276.21C104.712 276.182 104.53 276.151 104.269 276.116C104.007 276.077 103.746 276.057 103.485 276.057C102.882 276.057 102.345 276.185 101.874 276.44C101.408 276.69 101.038 277.04 100.766 277.489C100.493 277.932 100.357 278.437 100.357 279.006V287H97.8084ZM110.731 287.256C109.674 287.256 108.731 286.986 107.902 286.446C107.078 285.901 106.43 285.125 105.958 284.119C105.493 283.108 105.26 281.895 105.26 280.48C105.26 279.065 105.495 277.855 105.967 276.849C106.444 275.844 107.098 275.074 107.927 274.54C108.757 274.006 109.697 273.739 110.748 273.739C111.561 273.739 112.214 273.875 112.708 274.148C113.208 274.415 113.595 274.727 113.868 275.085C114.146 275.443 114.362 275.759 114.515 276.031H114.669V269.545H117.217V287H114.728V284.963H114.515C114.362 285.241 114.14 285.56 113.85 285.918C113.566 286.276 113.174 286.588 112.674 286.855C112.174 287.122 111.527 287.256 110.731 287.256ZM111.294 285.082C112.027 285.082 112.646 284.889 113.152 284.503C113.663 284.111 114.049 283.568 114.311 282.875C114.578 282.182 114.711 281.375 114.711 280.455C114.711 279.545 114.581 278.75 114.319 278.068C114.058 277.386 113.674 276.855 113.169 276.474C112.663 276.094 112.038 275.903 111.294 275.903C110.527 275.903 109.887 276.102 109.376 276.5C108.865 276.898 108.478 277.44 108.217 278.128C107.961 278.815 107.833 279.591 107.833 280.455C107.833 281.33 107.964 282.116 108.225 282.815C108.487 283.514 108.873 284.068 109.385 284.477C109.902 284.881 110.538 285.082 111.294 285.082ZM131.876 273.909V275.955H124.726V273.909H131.876ZM126.643 270.773H129.192V283.156C129.192 283.651 129.266 284.023 129.413 284.273C129.561 284.517 129.751 284.685 129.984 284.776C130.223 284.861 130.481 284.903 130.76 284.903C130.964 284.903 131.143 284.889 131.297 284.861C131.45 284.832 131.57 284.81 131.655 284.793L132.115 286.898C131.967 286.955 131.757 287.011 131.484 287.068C131.212 287.131 130.871 287.165 130.462 287.17C129.791 287.182 129.166 287.062 128.587 286.812C128.007 286.562 127.538 286.176 127.18 285.653C126.822 285.131 126.643 284.474 126.643 283.685V270.773ZM139.349 287.264C138.122 287.264 137.051 286.983 136.136 286.42C135.221 285.858 134.511 285.071 134.005 284.06C133.499 283.048 133.247 281.866 133.247 280.514C133.247 279.156 133.499 277.969 134.005 276.952C134.511 275.935 135.221 275.145 136.136 274.582C137.051 274.02 138.122 273.739 139.349 273.739C140.576 273.739 141.647 274.02 142.562 274.582C143.477 275.145 144.187 275.935 144.693 276.952C145.198 277.969 145.451 279.156 145.451 280.514C145.451 281.866 145.198 283.048 144.693 284.06C144.187 285.071 143.477 285.858 142.562 286.42C141.647 286.983 140.576 287.264 139.349 287.264ZM139.357 285.125C140.153 285.125 140.812 284.915 141.335 284.494C141.857 284.074 142.244 283.514 142.494 282.815C142.749 282.116 142.877 281.347 142.877 280.506C142.877 279.67 142.749 278.903 142.494 278.205C142.244 277.5 141.857 276.935 141.335 276.509C140.812 276.082 140.153 275.869 139.357 275.869C138.556 275.869 137.891 276.082 137.363 276.509C136.84 276.935 136.451 277.5 136.195 278.205C135.945 278.903 135.82 279.67 135.82 280.506C135.82 281.347 135.945 282.116 136.195 282.815C136.451 283.514 136.84 284.074 137.363 284.494C137.891 284.915 138.556 285.125 139.357 285.125ZM158.721 287.264C157.454 287.264 156.363 286.977 155.449 286.403C154.54 285.824 153.841 285.026 153.352 284.009C152.863 282.991 152.619 281.827 152.619 280.514C152.619 279.185 152.869 278.011 153.369 276.994C153.869 275.972 154.574 275.173 155.483 274.599C156.392 274.026 157.463 273.739 158.696 273.739C159.69 273.739 160.576 273.923 161.355 274.293C162.133 274.656 162.761 275.168 163.238 275.827C163.721 276.486 164.008 277.256 164.099 278.136H161.619C161.483 277.523 161.17 276.994 160.682 276.551C160.199 276.108 159.551 275.886 158.738 275.886C158.028 275.886 157.406 276.074 156.872 276.449C156.343 276.818 155.932 277.347 155.636 278.034C155.341 278.716 155.193 279.523 155.193 280.455C155.193 281.409 155.338 282.233 155.628 282.926C155.917 283.619 156.326 284.156 156.855 284.537C157.389 284.918 158.017 285.108 158.738 285.108C159.221 285.108 159.659 285.02 160.051 284.844C160.449 284.662 160.781 284.403 161.048 284.068C161.321 283.733 161.511 283.33 161.619 282.858H164.099C164.008 283.705 163.733 284.46 163.272 285.125C162.812 285.79 162.196 286.312 161.423 286.693C160.656 287.074 159.755 287.264 158.721 287.264ZM171.619 287.264C170.391 287.264 169.32 286.983 168.405 286.42C167.491 285.858 166.78 285.071 166.275 284.06C165.769 283.048 165.516 281.866 165.516 280.514C165.516 279.156 165.769 277.969 166.275 276.952C166.78 275.935 167.491 275.145 168.405 274.582C169.32 274.02 170.391 273.739 171.619 273.739C172.846 273.739 173.917 274.02 174.832 274.582C175.746 275.145 176.457 275.935 176.962 276.952C177.468 277.969 177.721 279.156 177.721 280.514C177.721 281.866 177.468 283.048 176.962 284.06C176.457 285.071 175.746 285.858 174.832 286.42C173.917 286.983 172.846 287.264 171.619 287.264ZM171.627 285.125C172.423 285.125 173.082 284.915 173.604 284.494C174.127 284.074 174.513 283.514 174.763 282.815C175.019 282.116 175.147 281.347 175.147 280.506C175.147 279.67 175.019 278.903 174.763 278.205C174.513 277.5 174.127 276.935 173.604 276.509C173.082 276.082 172.423 275.869 171.627 275.869C170.826 275.869 170.161 276.082 169.633 276.509C169.11 276.935 168.721 277.5 168.465 278.205C168.215 278.903 168.09 279.67 168.09 280.506C168.09 281.347 168.215 282.116 168.465 282.815C168.721 283.514 169.11 284.074 169.633 284.494C170.161 284.915 170.826 285.125 171.627 285.125ZM182.394 279.227V287H179.845V273.909H182.291V276.04H182.453C182.754 275.347 183.226 274.79 183.868 274.369C184.516 273.949 185.331 273.739 186.314 273.739C187.206 273.739 187.987 273.926 188.658 274.301C189.328 274.67 189.848 275.222 190.217 275.955C190.587 276.687 190.771 277.594 190.771 278.673V287H188.223V278.98C188.223 278.031 187.976 277.29 187.482 276.756C186.987 276.216 186.308 275.946 185.445 275.946C184.854 275.946 184.328 276.074 183.868 276.33C183.413 276.585 183.053 276.96 182.786 277.455C182.524 277.943 182.394 278.534 182.394 279.227ZM199.58 273.909V275.955H192.429V273.909H199.58ZM194.347 270.773H196.895V283.156C196.895 283.651 196.969 284.023 197.117 284.273C197.264 284.517 197.455 284.685 197.688 284.776C197.926 284.861 198.185 284.903 198.463 284.903C198.668 284.903 198.847 284.889 199 284.861C199.154 284.832 199.273 284.81 199.358 284.793L199.818 286.898C199.671 286.955 199.46 287.011 199.188 287.068C198.915 287.131 198.574 287.165 198.165 287.17C197.495 287.182 196.87 287.062 196.29 286.812C195.71 286.562 195.242 286.176 194.884 285.653C194.526 285.131 194.347 284.474 194.347 283.685V270.773ZM201.679 287V273.909H204.227V287H201.679ZM202.966 271.889C202.522 271.889 202.142 271.741 201.824 271.446C201.511 271.145 201.355 270.787 201.355 270.372C201.355 269.952 201.511 269.594 201.824 269.298C202.142 268.997 202.522 268.847 202.966 268.847C203.409 268.847 203.787 268.997 204.099 269.298C204.417 269.594 204.576 269.952 204.576 270.372C204.576 270.787 204.417 271.145 204.099 271.446C203.787 271.741 203.409 271.889 202.966 271.889ZM209.484 279.227V287H206.935V273.909H209.381V276.04H209.543C209.844 275.347 210.316 274.79 210.958 274.369C211.606 273.949 212.421 273.739 213.404 273.739C214.296 273.739 215.077 273.926 215.748 274.301C216.418 274.67 216.938 275.222 217.307 275.955C217.677 276.687 217.861 277.594 217.861 278.673V287H215.313V278.98C215.313 278.031 215.066 277.29 214.572 276.756C214.077 276.216 213.398 275.946 212.535 275.946C211.944 275.946 211.418 276.074 210.958 276.33C210.503 276.585 210.143 276.96 209.876 277.455C209.614 277.943 209.484 278.534 209.484 279.227ZM228.852 281.571V273.909H231.408V287H228.903V284.733H228.766C228.465 285.432 227.982 286.014 227.318 286.48C226.658 286.94 225.837 287.17 224.854 287.17C224.014 287.17 223.269 286.986 222.622 286.616C221.979 286.241 221.474 285.688 221.104 284.955C220.741 284.222 220.559 283.315 220.559 282.236V273.909H223.107V281.929C223.107 282.821 223.354 283.531 223.849 284.06C224.343 284.588 224.985 284.852 225.775 284.852C226.252 284.852 226.727 284.733 227.198 284.494C227.675 284.256 228.07 283.895 228.383 283.412C228.701 282.929 228.857 282.315 228.852 281.571ZM239.754 287.264C238.465 287.264 237.354 286.989 236.422 286.438C235.496 285.881 234.78 285.099 234.274 284.094C233.774 283.082 233.524 281.898 233.524 280.54C233.524 279.199 233.774 278.017 234.274 276.994C234.78 275.972 235.485 275.173 236.388 274.599C237.297 274.026 238.36 273.739 239.576 273.739C240.314 273.739 241.03 273.861 241.723 274.105C242.416 274.349 243.039 274.733 243.59 275.256C244.141 275.778 244.576 276.457 244.894 277.293C245.212 278.122 245.371 279.131 245.371 280.318V281.222H234.965V279.312H242.874C242.874 278.642 242.737 278.048 242.465 277.531C242.192 277.009 241.808 276.597 241.314 276.295C240.826 275.994 240.252 275.844 239.593 275.844C238.877 275.844 238.252 276.02 237.718 276.372C237.189 276.719 236.78 277.173 236.49 277.736C236.206 278.293 236.064 278.898 236.064 279.551V281.043C236.064 281.918 236.218 282.662 236.524 283.276C236.837 283.889 237.272 284.358 237.828 284.682C238.385 285 239.036 285.159 239.78 285.159C240.263 285.159 240.703 285.091 241.101 284.955C241.499 284.812 241.843 284.602 242.132 284.324C242.422 284.045 242.644 283.702 242.797 283.293L245.209 283.727C245.016 284.437 244.669 285.06 244.169 285.594C243.675 286.122 243.053 286.534 242.303 286.83C241.558 287.119 240.709 287.264 239.754 287.264Z" fill="#525866"/>
<path d="M11 25.0288C11 20.1183 11 17.663 11.9557 15.7874C12.7963 14.1376 14.1376 12.7963 15.7874 11.9557C17.663 11 20.1183 11 25.0288 11H270.971C275.882 11 278.337 11 280.213 11.9557C281.862 12.7963 283.204 14.1376 284.044 15.7874C285 17.663 285 20.1183 285 25.0288V87.9605C285 92.8711 285 95.3263 284.044 97.2019C283.204 98.8517 281.862 100.193 280.213 101.034C278.337 101.989 275.882 101.989 270.971 101.989H25.0288C20.1183 101.989 17.663 101.989 15.7874 101.034C14.1376 100.193 12.7963 98.8517 11.9557 97.2019C11 95.3263 11 92.8711 11 87.9605V25.0288Z" fill="#F3F7FB"/>
<g clip-path="url(#clip0_1_29558)">
<rect x="24.1521" y="24.1519" width="32.1493" height="32.1493" rx="16.0747" fill="#F3FAC8"/>
<g clip-path="url(#clip1_1_29558)">
<path d="M43.0788 45.6898L42.9819 40.9013C44.675 40.8809 46.8831 40.524 48.7852 40.3659C48.7801 40.2027 48.8005 40.0395 48.8464 39.8814C48.8821 39.7335 48.9433 39.5907 49.0198 39.4633C49.3054 39.0247 50.0754 38.8513 50.3559 39.3664L51.7838 43.4613L50.9934 46.5262C50.9628 46.6536 50.9067 46.7709 50.8353 46.878C50.8353 46.878 50.5854 47.2911 50.3457 47.6532H43.9712C43.4205 47.1483 43.0992 46.4395 43.0788 45.6898Z" fill="#EFCDB1"/>
<path d="M50.8303 49.54C50.8354 49.7236 50.6467 49.8663 50.4122 49.8714H49.5809L43.7827 49.9173C43.5481 49.9173 43.3544 49.7745 43.3544 49.5961L43.3289 47.9285C43.3289 47.75 43.5175 47.6021 43.7521 47.6021L49.5809 47.5562L50.3765 47.546C50.6161 47.546 50.8048 47.6888 50.8099 47.8673L50.8303 49.54Z" fill="#D1D0DF"/>
<path d="M50.8302 49.54C50.8353 49.7236 50.6466 49.8664 50.412 49.8715H49.5808V47.5614L50.3763 47.5512C50.616 47.5512 50.8047 47.694 50.8098 47.8725L50.8302 49.54Z" fill="#B5B5C6"/>
<path d="M51.4887 64.5613H44.0549C46.5611 64.5613 48.7583 59.2252 49.969 49.7325L51.4289 49.6938L51.4887 64.5613Z" fill="#EFB703"/>
<path d="M50.6621 49.9069C49.8361 60.4313 46.2804 64.5612 43.6656 64.5612H42.4647L42.4023 49.907L50.6621 49.9069Z" fill="#FFC700"/>
<path d="M40.5746 42.0283L42.2626 45.8632L52.1405 41.5184C52.6249 41.3093 52.8442 40.7433 52.63 40.2639C52.63 40.2639 52.63 40.2639 52.63 40.2588L48.3566 30.5339L44.3738 32.2882C44.2922 32.3239 44.2004 32.2882 44.1647 32.2066C44.1545 32.1811 44.1494 32.1505 44.1545 32.1199C44.2055 31.7017 44.2565 30.9113 43.9761 30.4115C43.4559 29.4834 42.283 29.1519 41.3549 29.6721C40.4268 30.1922 40.0953 31.3651 40.6154 32.2933C40.8653 32.7369 41.2784 33.0633 41.7679 33.2061C41.8291 33.2214 41.8699 33.2826 41.8546 33.3438C41.8444 33.3846 41.8189 33.4152 41.7832 33.4305L37.6067 35.2612L39.4374 39.4276C39.4578 39.4888 39.5241 39.5194 39.5853 39.499C39.621 39.4837 39.6516 39.4531 39.6618 39.4174C39.9576 38.3924 41.0234 37.8008 42.0484 38.0966C43.0734 38.3924 43.665 39.4582 43.3692 40.4832C43.2315 40.9727 42.9 41.3858 42.4564 41.6357C41.9515 41.9162 41.1611 41.8652 40.7429 41.8091C40.6511 41.804 40.5746 41.8703 40.5695 41.9621C40.5593 41.9774 40.5644 42.0028 40.5746 42.0283Z" fill="#FFC700"/>
<path d="M40.7842 42.5025L42.2631 45.8632L52.1409 41.5183C52.6254 41.3092 52.8447 40.7432 52.6305 40.2638C52.6305 40.2638 52.6305 40.2638 52.6305 40.2587L52.4622 39.8763C52.0389 40.0955 51.6055 40.3046 51.1618 40.4984C47.8981 41.9365 44.3488 42.6198 40.7842 42.5025Z" fill="#EFB703"/>
<path d="M47.8062 44.5832C47.9081 44.3588 48.0305 44.1192 48.1733 43.8642C48.5864 43.1451 49.3054 42.8494 49.3054 42.8494C49.3054 42.8494 48.9944 40.9727 48.8975 40.3455C48.8312 39.9069 48.9128 39.4582 49.132 39.0706C49.4329 38.6014 50.2183 38.4076 50.5038 38.9431L51.8756 43.2369L51.0087 46.4905" fill="#EFCDB1"/>
<path d="M36.7958 36.0823L36.8927 40.8708C35.1996 40.8861 32.9915 41.2482 31.0894 41.4063C31.0894 41.5694 31.069 41.7326 31.0282 41.8907C30.9925 42.0386 30.9313 42.1763 30.8548 42.3089C30.5692 42.7474 29.7992 42.9208 29.5136 42.4058L28.0908 38.3108L28.8813 35.246C28.9119 35.1185 28.9679 34.9961 29.0393 34.889C29.0393 34.889 29.2892 34.481 29.5289 34.119H35.9034C36.4541 34.6238 36.7805 35.3327 36.7958 36.0823Z" fill="#EFCDB1"/>
<path d="M36.5464 33.8383L36.5209 32.1657C36.5209 31.9872 36.3271 31.8444 36.0925 31.8495L29.4631 31.9005C29.2285 31.9005 29.0398 32.0484 29.0398 32.2269L29.0653 33.8944C29.0653 34.078 29.2591 34.2208 29.4937 34.2157L36.1231 34.1647C36.3577 34.1647 36.5464 34.0168 36.5464 33.8383Z" fill="#D1D0DF"/>
<path d="M30.2943 34.2004H29.3611C29.1877 34.2004 29.0449 34.0576 29.0449 33.8843V33.8792V32.2983C29.0449 32.0892 29.2183 31.9158 29.4274 31.9158H30.2943V34.2004Z" fill="#B5B5C6"/>
<path d="M28.3613 19.1328H35.7951C33.2889 19.1328 31.0917 24.6377 29.881 31.4945L28.4161 31.5224L28.3613 19.1328Z" fill="#035D7C"/>
<path d="M29.6001 31.5224C30.4261 24.9146 32.491 19.1328 36.1879 19.1328H37.3896L37.4468 31.3548L29.6001 31.5224Z" fill="#02648E"/>
<path d="M43.3185 39.3561C43.5888 40.223 43.2166 41.1613 42.4312 41.6101C41.9264 41.8906 41.1359 41.8498 40.7178 41.7988C40.6311 41.7886 40.5546 41.8498 40.5444 41.9365C40.5393 41.962 40.5444 41.9926 40.5546 42.0181L42.0641 45.394C42.217 45.7357 42.0641 46.1385 41.7224 46.2915L38.1935 47.8724C38.1374 47.903 38.066 47.8775 38.0354 47.8214C38.0201 47.7857 38.0201 47.7449 38.0354 47.7143C38.5046 46.7556 38.1068 45.6031 37.1481 45.1339C36.1894 44.6647 35.0368 45.0625 34.5677 46.0212C34.3433 46.4751 34.3127 47.0004 34.4708 47.4797C34.6544 48.0254 35.2765 48.5149 35.6233 48.7597C35.6947 48.8158 35.71 48.9178 35.6539 48.9892C35.6386 49.0096 35.6182 49.0249 35.5978 49.0351L31.6252 50.8097L27.2192 40.9625C27.005 40.478 27.2192 39.912 27.7037 39.6927L37.0206 35.5263C37.3062 35.3937 37.6478 35.5212 37.7753 35.8119C37.7753 35.8119 37.7753 35.817 37.7804 35.817C38.2088 36.7808 39.0451 38.6422 39.397 39.4275C39.4174 39.4887 39.4888 39.5193 39.55 39.4989C39.5857 39.4836 39.6163 39.453 39.6214 39.4122C39.9069 38.3872 40.9727 37.7854 41.9978 38.071C42.625 38.2495 43.1248 38.7339 43.3185 39.3561Z" fill="#D22732"/>
<path d="M42.431 41.6101C41.9262 41.8906 41.1358 41.8498 40.7176 41.7988C40.6309 41.7886 40.5544 41.8498 40.5442 41.9365C40.5391 41.962 40.5442 41.9926 40.5544 42.0181L42.0639 45.394C42.2169 45.7357 42.0639 46.1385 41.7222 46.2915L38.1882 47.8775C38.1321 47.903 38.0607 47.8826 38.0301 47.8214C38.0148 47.7857 38.0148 47.7449 38.0352 47.7143C38.5044 46.7556 38.1066 45.6031 37.1479 45.1339C36.1892 44.6647 35.0367 45.0625 34.5675 46.0212C34.3431 46.4751 34.3125 47.0004 34.4706 47.4797C34.6542 48.0254 35.2763 48.52 35.6231 48.7597C35.6945 48.8158 35.7098 48.9178 35.6537 48.9892C35.6384 49.0096 35.618 49.0249 35.5976 49.0351L31.6251 50.8097L30.5898 48.4945C33.9505 46.0263 36.1892 41.6101 36.1892 36.5768C36.1892 36.3474 36.1841 36.123 36.1739 35.8986L37.0153 35.5263C37.3009 35.3937 37.6426 35.5212 37.77 35.8119C37.77 35.8119 37.77 35.817 37.7751 35.817C38.2035 36.7808 39.0398 38.6422 39.3917 39.4275C39.4121 39.4887 39.4835 39.5193 39.5447 39.4989C39.5804 39.4836 39.611 39.453 39.6161 39.4122C39.9017 38.3872 40.9675 37.7854 41.9925 38.071C42.6248 38.2444 43.1195 38.7289 43.3133 39.3561C43.5836 40.223 43.2164 41.1562 42.431 41.6101Z" fill="#C11F2F"/>
<path d="M32.069 37.1887C31.967 37.408 31.8446 37.6528 31.6967 37.9078C31.2887 38.6268 30.5697 38.9226 30.5697 38.9226C30.5697 38.9226 30.8808 40.7992 30.9777 41.4265C31.044 41.8651 30.9624 42.3138 30.7431 42.7014C30.4422 43.1654 29.6518 43.3643 29.3713 42.8289L27.9995 38.5299L28.8664 35.2815" fill="#EFCDB1"/>
</g>
</g>
<g filter="url(#filter0_dd_1_29558)">
<path d="M76.569 26.9563H78.0968V32.9345C78.094 33.4825 77.9778 33.9544 77.748 34.3502C77.5183 34.7432 77.1973 35.0463 76.7849 35.2594C76.3753 35.4697 75.8978 35.5749 75.3526 35.5749C74.8544 35.5749 74.4061 35.4863 74.0075 35.3092C73.6117 35.1293 73.2976 34.8636 73.0651 34.5121C72.8326 34.1606 72.7164 33.7233 72.7164 33.2002H74.2483C74.2511 33.4299 74.3009 33.6278 74.3978 33.7939C74.4974 33.9599 74.6344 34.0873 74.8088 34.1758C74.9831 34.2644 75.1838 34.3087 75.4107 34.3087C75.6571 34.3087 75.866 34.2575 76.0376 34.1551C76.2092 34.0499 76.3393 33.8949 76.4279 33.6901C76.5192 33.4853 76.5662 33.2334 76.569 32.9345V26.9563ZM82.3542 35.5832C81.7315 35.5832 81.1918 35.4462 80.7352 35.1722C80.2785 34.8982 79.9242 34.5149 79.6724 34.0222C79.4233 33.5296 79.2987 32.9539 79.2987 32.2952C79.2987 31.6365 79.4233 31.0594 79.6724 30.564C79.9242 30.0686 80.2785 29.6839 80.7352 29.4099C81.1918 29.1359 81.7315 28.9989 82.3542 28.9989C82.977 28.9989 83.5167 29.1359 83.9733 29.4099C84.43 29.6839 84.7829 30.0686 85.032 30.564C85.2838 31.0594 85.4098 31.6365 85.4098 32.2952C85.4098 32.9539 85.2838 33.5296 85.032 34.0222C84.7829 34.5149 84.43 34.8982 83.9733 35.1722C83.5167 35.4462 82.977 35.5832 82.3542 35.5832ZM82.3625 34.3792C82.7002 34.3792 82.9825 34.2865 83.2095 34.1011C83.4364 33.9129 83.6052 33.661 83.7159 33.3455C83.8294 33.03 83.8862 32.6785 83.8862 32.291C83.8862 31.9008 83.8294 31.5479 83.7159 31.2324C83.6052 30.9141 83.4364 30.6609 83.2095 30.4727C82.9825 30.2845 82.7002 30.1904 82.3625 30.1904C82.0166 30.1904 81.7287 30.2845 81.499 30.4727C81.2721 30.6609 81.1019 30.9141 80.9884 31.2324C80.8777 31.5479 80.8223 31.9008 80.8223 32.291C80.8223 32.6785 80.8777 33.03 80.9884 33.3455C81.1019 33.661 81.2721 33.9129 81.499 34.1011C81.7287 34.2865 82.0166 34.3792 82.3625 34.3792ZM86.5567 35.4586V29.0819H88.0596V35.4586H86.5567ZM87.3123 28.1769C87.0743 28.1769 86.8695 28.098 86.6979 27.9402C86.5263 27.7797 86.4405 27.5874 86.4405 27.3632C86.4405 27.1362 86.5263 26.9439 86.6979 26.7861C86.8695 26.6256 87.0743 26.5453 87.3123 26.5453C87.5531 26.5453 87.7579 26.6256 87.9267 26.7861C88.0983 26.9439 88.1841 27.1362 88.1841 27.3632C88.1841 27.5874 88.0983 27.7797 87.9267 27.9402C87.7579 28.098 87.5531 28.1769 87.3123 28.1769ZM90.9792 31.7223V35.4586H89.4764V29.0819H90.9128V30.1655H90.9875C91.1342 29.8084 91.3681 29.5247 91.6891 29.3144C92.0129 29.1041 92.4129 28.9989 92.8889 28.9989C93.329 28.9989 93.7123 29.093 94.0389 29.2812C94.3682 29.4694 94.6229 29.742 94.8028 30.099C94.9854 30.4561 95.0754 30.8892 95.0726 31.3985V35.4586H93.5698V31.6309C93.5698 31.2047 93.4591 30.8712 93.2376 30.6304C93.019 30.3896 92.7159 30.2692 92.3285 30.2692C92.0655 30.2692 91.8317 30.3274 91.6269 30.4436C91.4248 30.5571 91.2657 30.7218 91.1494 30.9376C91.036 31.1535 90.9792 31.4151 90.9792 31.7223ZM103.93 29.2936C103.891 28.9311 103.728 28.6488 103.44 28.4467C103.155 28.2447 102.784 28.1437 102.328 28.1437C102.007 28.1437 101.731 28.1921 101.501 28.289C101.272 28.3858 101.096 28.5173 100.974 28.6834C100.852 28.8494 100.79 29.039 100.787 29.2521C100.787 29.4293 100.828 29.5829 100.908 29.7129C100.991 29.843 101.103 29.9537 101.244 30.0451C101.385 30.1336 101.542 30.2084 101.713 30.2692C101.885 30.3301 102.058 30.3813 102.232 30.4229L103.029 30.6221C103.35 30.6969 103.659 30.7979 103.955 30.9252C104.254 31.0525 104.521 31.213 104.756 31.4068C104.994 31.6005 105.182 31.8344 105.321 32.1084C105.459 32.3824 105.528 32.7034 105.528 33.0715C105.528 33.5697 105.401 34.0084 105.146 34.3876C104.892 34.764 104.524 35.0587 104.042 35.2718C103.563 35.4822 102.984 35.5873 102.303 35.5873C101.641 35.5873 101.067 35.4849 100.58 35.2801C100.095 35.0753 99.7163 34.7764 99.4423 34.3834C99.171 33.9904 99.0244 33.5116 99.0022 32.947H100.518C100.54 33.2431 100.631 33.4894 100.792 33.6859C100.952 33.8824 101.161 34.0291 101.418 34.126C101.679 34.2229 101.969 34.2713 102.29 34.2713C102.625 34.2713 102.918 34.2215 103.17 34.1219C103.425 34.0194 103.624 33.8783 103.768 33.6984C103.912 33.5157 103.985 33.3026 103.988 33.0591C103.985 32.8377 103.92 32.655 103.793 32.5111C103.666 32.3644 103.487 32.2426 103.258 32.1457C103.031 32.0461 102.765 31.9575 102.46 31.88L101.493 31.6309C100.793 31.451 100.239 31.1784 99.8325 30.8131C99.4284 30.445 99.2264 29.9565 99.2264 29.3476C99.2264 28.8467 99.362 28.408 99.6332 28.0316C99.9072 27.6552 100.28 27.3632 100.75 27.1556C101.221 26.9453 101.753 26.8401 102.348 26.8401C102.952 26.8401 103.48 26.9453 103.934 27.1556C104.391 27.3632 104.749 27.6524 105.009 28.0233C105.27 28.3914 105.404 28.8148 105.412 29.2936H103.93ZM109.53 35.5832C108.89 35.5832 108.338 35.4503 107.873 35.1846C107.411 34.9162 107.055 34.537 106.806 34.0471C106.557 33.5545 106.432 32.9747 106.432 32.3076C106.432 31.6517 106.557 31.076 106.806 30.5806C107.058 30.0824 107.409 29.695 107.861 29.4182C108.312 29.1387 108.842 28.9989 109.451 28.9989C109.844 28.9989 110.215 29.0625 110.563 29.1899C110.915 29.3144 111.225 29.5081 111.493 29.7711C111.764 30.034 111.978 30.3689 112.133 30.7757C112.288 31.1798 112.365 31.6614 112.365 32.2205V32.6813H107.138V31.6683H110.924C110.922 31.3805 110.859 31.1245 110.738 30.9003C110.616 30.6733 110.446 30.4948 110.227 30.3647C110.011 30.2347 109.759 30.1696 109.471 30.1696C109.164 30.1696 108.894 30.2443 108.662 30.3938C108.429 30.5405 108.248 30.7342 108.118 30.975C107.991 31.213 107.926 31.4746 107.923 31.7596V32.6439C107.923 33.0148 107.991 33.3331 108.126 33.5988C108.262 33.8617 108.452 34.0637 108.695 34.2049C108.939 34.3433 109.224 34.4125 109.55 34.4125C109.769 34.4125 109.967 34.382 110.144 34.3211C110.321 34.2575 110.475 34.1648 110.605 34.043C110.735 33.9212 110.833 33.7704 110.9 33.5905L112.303 33.7482C112.214 34.1191 112.045 34.4429 111.796 34.7197C111.55 34.9937 111.234 35.2068 110.85 35.359C110.465 35.5085 110.025 35.5832 109.53 35.5832ZM116.289 35.5832C115.653 35.5832 115.106 35.4434 114.649 35.1639C114.196 34.8843 113.845 34.4983 113.599 34.0056C113.356 33.5102 113.234 32.9401 113.234 32.2952C113.234 31.6475 113.358 31.076 113.607 30.5806C113.857 30.0824 114.208 29.695 114.662 29.4182C115.119 29.1387 115.658 28.9989 116.281 28.9989C116.799 28.9989 117.257 29.0944 117.655 29.2853C118.056 29.4735 118.376 29.7406 118.614 30.0866C118.852 30.4298 118.988 30.8311 119.021 31.2905H117.585C117.526 30.9833 117.388 30.7273 117.169 30.5225C116.954 30.3149 116.664 30.2111 116.302 30.2111C115.995 30.2111 115.725 30.2942 115.492 30.4602C115.26 30.6235 115.078 30.8588 114.948 31.166C114.821 31.4732 114.757 31.8413 114.757 32.2703C114.757 32.7048 114.821 33.0784 114.948 33.3912C115.076 33.7012 115.254 33.9406 115.484 34.1094C115.716 34.2755 115.989 34.3585 116.302 34.3585C116.523 34.3585 116.721 34.317 116.895 34.2339C117.073 34.1481 117.221 34.025 117.34 33.8645C117.459 33.7039 117.54 33.5088 117.585 33.2791H119.021C118.985 33.7302 118.852 34.1302 118.622 34.4789C118.393 34.8248 118.08 35.0961 117.684 35.2926C117.288 35.4863 116.823 35.5832 116.289 35.5832ZM120.126 35.4586V29.0819H121.584V30.1447H121.65C121.766 29.7766 121.966 29.4929 122.248 29.2936C122.533 29.0916 122.858 28.9906 123.223 28.9906C123.307 28.9906 123.399 28.9947 123.502 29.003C123.607 29.0086 123.694 29.0183 123.763 29.0321V30.4145C123.7 30.3924 123.599 30.373 123.46 30.3564C123.325 30.3371 123.193 30.3274 123.066 30.3274C122.792 30.3274 122.545 30.3869 122.327 30.5059C122.111 30.6221 121.941 30.784 121.816 30.9916C121.692 31.1992 121.629 31.4386 121.629 31.7098V35.4586H120.126ZM127.193 35.5832C126.554 35.5832 126.002 35.4503 125.537 35.1846C125.075 34.9162 124.719 34.537 124.47 34.0471C124.221 33.5545 124.096 32.9747 124.096 32.3076C124.096 31.6517 124.221 31.076 124.47 30.5806C124.722 30.0824 125.073 29.695 125.525 29.4182C125.976 29.1387 126.506 28.9989 127.115 28.9989C127.508 28.9989 127.878 29.0625 128.227 29.1899C128.579 29.3144 128.889 29.5081 129.157 29.7711C129.428 30.034 129.641 30.3689 129.796 30.7757C129.951 31.1798 130.029 31.6614 130.029 32.2205V32.6813H124.802V31.6683H128.588C128.586 31.3805 128.523 31.1245 128.402 30.9003C128.28 30.6733 128.11 30.4948 127.891 30.3647C127.675 30.2347 127.423 30.1696 127.135 30.1696C126.828 30.1696 126.558 30.2443 126.326 30.3938C126.093 30.5405 125.912 30.7342 125.782 30.975C125.655 31.213 125.59 31.4746 125.587 31.7596V32.6439C125.587 33.0148 125.655 33.3331 125.79 33.5988C125.926 33.8617 126.115 34.0637 126.359 34.2049C126.603 34.3433 126.888 34.4125 127.214 34.4125C127.433 34.4125 127.631 34.382 127.808 34.3211C127.985 34.2575 128.139 34.1648 128.269 34.043C128.399 33.9212 128.497 33.7704 128.563 33.5905L129.967 33.7482C129.878 34.1191 129.709 34.4429 129.46 34.7197C129.214 34.9937 128.898 35.2068 128.514 35.359C128.129 35.5085 127.689 35.5832 127.193 35.5832ZM134.356 29.0819V30.2443H130.69V29.0819H134.356ZM131.595 27.5542H133.098V33.5406C133.098 33.7427 133.129 33.8977 133.189 34.0056C133.253 34.1108 133.336 34.1827 133.438 34.2215C133.541 34.2602 133.654 34.2796 133.779 34.2796C133.873 34.2796 133.959 34.2727 134.036 34.2589C134.117 34.245 134.177 34.2326 134.219 34.2215L134.472 35.3964C134.392 35.424 134.277 35.4545 134.128 35.4877C133.981 35.5209 133.801 35.5403 133.588 35.5458C133.212 35.5569 132.873 35.5002 132.571 35.3756C132.269 35.2483 132.03 35.0518 131.853 34.7861C131.678 34.5204 131.592 34.1883 131.595 33.7897V27.5542ZM145.6 29.825H144.047C144.003 29.5704 143.921 29.3448 143.802 29.1483C143.683 28.9491 143.535 28.7802 143.358 28.6419C143.181 28.5035 142.979 28.3997 142.752 28.3305C142.527 28.2585 142.285 28.2225 142.025 28.2225C141.563 28.2225 141.153 28.3388 140.796 28.5713C140.439 28.801 140.16 29.1387 139.958 29.5842C139.756 30.0271 139.655 30.5682 139.655 31.2075C139.655 31.8579 139.756 32.4059 139.958 32.8515C140.162 33.2943 140.442 33.6292 140.796 33.8562C141.153 34.0803 141.561 34.1924 142.021 34.1924C142.276 34.1924 142.514 34.1592 142.735 34.0928C142.959 34.0236 143.16 33.9226 143.337 33.7897C143.517 33.6569 143.668 33.4936 143.789 33.2999C143.914 33.1061 144 32.8847 144.047 32.6356L145.6 32.6439C145.541 33.048 145.415 33.4272 145.222 33.7814C145.031 34.1357 144.78 34.4484 144.47 34.7197C144.16 34.9881 143.798 35.1985 143.383 35.3507C142.967 35.5002 142.507 35.5749 142 35.5749C141.253 35.5749 140.586 35.4019 139.999 35.0559C139.412 34.71 138.95 34.2104 138.613 33.5572C138.275 32.9041 138.106 32.1208 138.106 31.2075C138.106 30.2914 138.276 29.5081 138.617 28.8577C138.957 28.2046 139.421 27.705 140.007 27.359C140.594 27.0131 141.258 26.8401 142 26.8401C142.473 26.8401 142.913 26.9065 143.32 27.0394C143.727 27.1722 144.09 27.3673 144.408 27.6247C144.726 27.8794 144.988 28.1921 145.193 28.563C145.4 28.9311 145.536 29.3518 145.6 29.825ZM148.318 31.7223V35.4586H146.815V26.9563H148.285V30.1655H148.359C148.509 29.8057 148.74 29.522 149.053 29.3144C149.368 29.1041 149.769 28.9989 150.257 28.9989C150.699 28.9989 151.086 29.0916 151.415 29.277C151.744 29.4625 151.999 29.7337 152.179 30.0907C152.361 30.4478 152.453 30.8837 152.453 31.3985V35.4586H150.95V31.6309C150.95 31.202 150.839 30.8684 150.618 30.6304C150.399 30.3896 150.092 30.2692 149.696 30.2692C149.43 30.2692 149.192 30.3274 148.982 30.4436C148.774 30.5571 148.611 30.7218 148.492 30.9376C148.376 31.1535 148.318 31.4151 148.318 31.7223ZM155.691 35.5873C155.287 35.5873 154.923 35.5154 154.599 35.3715C154.278 35.2248 154.023 35.0089 153.835 34.7238C153.65 34.4388 153.557 34.0873 153.557 33.6693C153.557 33.3095 153.624 33.012 153.756 32.7768C153.889 32.5415 154.071 32.3533 154.3 32.2122C154.53 32.071 154.789 31.9644 155.077 31.8925C155.367 31.8178 155.667 31.7638 155.977 31.7306C156.351 31.6918 156.654 31.6572 156.887 31.6268C157.119 31.5936 157.288 31.5438 157.393 31.4773C157.501 31.4081 157.555 31.3016 157.555 31.1577V31.1328C157.555 30.82 157.462 30.5778 157.277 30.4062C157.091 30.2347 156.824 30.1489 156.476 30.1489C156.108 30.1489 155.816 30.2291 155.6 30.3896C155.387 30.5502 155.243 30.7398 155.168 30.9584L153.765 30.7591C153.875 30.3717 154.058 30.0478 154.313 29.7877C154.567 29.5247 154.879 29.3282 155.247 29.1982C155.615 29.0653 156.022 28.9989 156.467 28.9989C156.775 28.9989 157.08 29.0349 157.385 29.1068C157.689 29.1788 157.967 29.2978 158.219 29.4639C158.471 29.6271 158.673 29.8499 158.825 30.1322C158.98 30.4145 159.058 30.7674 159.058 31.1909V35.4586H157.613V34.5827H157.563C157.472 34.7598 157.343 34.9259 157.177 35.0809C157.014 35.2331 156.808 35.3562 156.559 35.4503C156.312 35.5417 156.023 35.5873 155.691 35.5873ZM156.081 34.483C156.383 34.483 156.644 34.4235 156.866 34.3045C157.087 34.1827 157.258 34.0222 157.377 33.8229C157.498 33.6237 157.559 33.4064 157.559 33.1712V32.4197C157.512 32.4585 157.432 32.4945 157.318 32.5277C157.208 32.5609 157.083 32.5899 156.945 32.6149C156.806 32.6398 156.669 32.6619 156.534 32.6813C156.398 32.7007 156.281 32.7173 156.181 32.7311C155.957 32.7615 155.756 32.8114 155.579 32.8805C155.402 32.9497 155.262 33.0466 155.16 33.1712C155.057 33.2929 155.006 33.4507 155.006 33.6444C155.006 33.9212 155.107 34.1302 155.309 34.2713C155.511 34.4125 155.769 34.483 156.081 34.483ZM163.625 29.0819V30.2443H159.959V29.0819H163.625ZM160.864 27.5542H162.367V33.5406C162.367 33.7427 162.397 33.8977 162.458 34.0056C162.522 34.1108 162.605 34.1827 162.707 34.2215C162.81 34.2602 162.923 34.2796 163.048 34.2796C163.142 34.2796 163.227 34.2727 163.305 34.2589C163.385 34.245 163.446 34.2326 163.488 34.2215L163.741 35.3964C163.661 35.424 163.546 35.4545 163.396 35.4877C163.25 35.5209 163.07 35.5403 162.857 35.5458C162.48 35.5569 162.141 35.5002 161.84 35.3756C161.538 35.2483 161.298 35.0518 161.121 34.7861C160.947 34.5204 160.861 34.1883 160.864 33.7897V27.5542ZM173.286 29.6714C173.217 29.4472 173.122 29.2466 173 29.0695C172.881 28.8896 172.737 28.736 172.568 28.6086C172.402 28.4813 172.211 28.3858 171.995 28.3222C171.779 28.2558 171.544 28.2225 171.29 28.2225C170.833 28.2225 170.426 28.3374 170.069 28.5671C169.712 28.7968 169.431 29.1345 169.226 29.5801C169.024 30.0229 168.923 30.5626 168.923 31.1992C168.923 31.8413 169.024 32.3851 169.226 32.8307C169.428 33.2763 169.709 33.6154 170.069 33.8479C170.429 34.0776 170.847 34.1924 171.323 34.1924C171.755 34.1924 172.128 34.1094 172.444 33.9433C172.762 33.7773 173.007 33.542 173.179 33.2376C173.35 32.9304 173.436 32.5706 173.436 32.1582L173.785 32.2122H171.476V31.0082H174.926V32.0295C174.926 32.7574 174.771 33.387 174.461 33.9184C174.151 34.4498 173.725 34.8594 173.183 35.1473C172.64 35.4323 172.017 35.5749 171.315 35.5749C170.531 35.5749 169.843 35.3991 169.251 35.0476C168.662 34.6934 168.201 34.191 167.869 33.5406C167.539 32.8875 167.375 32.1125 167.375 31.2158C167.375 30.5294 167.472 29.9164 167.665 29.3767C167.862 28.837 168.136 28.3789 168.487 28.0025C168.839 27.6233 169.251 27.3355 169.724 27.139C170.198 26.9397 170.713 26.8401 171.269 26.8401C171.739 26.8401 172.178 26.9093 172.585 27.0477C172.992 27.1833 173.353 27.377 173.668 27.6289C173.987 27.8807 174.248 28.1797 174.453 28.5256C174.658 28.8716 174.792 29.2535 174.856 29.6714H173.286ZM176.221 35.4586V29.0819H177.678V30.1447H177.744C177.861 29.7766 178.06 29.4929 178.342 29.2936C178.627 29.0916 178.952 28.9906 179.318 28.9906C179.401 28.9906 179.493 28.9947 179.596 29.003C179.701 29.0086 179.788 29.0183 179.857 29.0321V30.4145C179.794 30.3924 179.693 30.373 179.554 30.3564C179.419 30.3371 179.287 30.3274 179.16 30.3274C178.886 30.3274 178.64 30.3869 178.421 30.5059C178.205 30.6221 178.035 30.784 177.91 30.9916C177.786 31.1992 177.724 31.4386 177.724 31.7098V35.4586H176.221ZM183.246 35.5832C182.623 35.5832 182.084 35.4462 181.627 35.1722C181.17 34.8982 180.816 34.5149 180.564 34.0222C180.315 33.5296 180.191 32.9539 180.191 32.2952C180.191 31.6365 180.315 31.0594 180.564 30.564C180.816 30.0686 181.17 29.6839 181.627 29.4099C182.084 29.1359 182.623 28.9989 183.246 28.9989C183.869 28.9989 184.409 29.1359 184.865 29.4099C185.322 29.6839 185.675 30.0686 185.924 30.564C186.176 31.0594 186.302 31.6365 186.302 32.2952C186.302 32.9539 186.176 33.5296 185.924 34.0222C185.675 34.5149 185.322 34.8982 184.865 35.1722C184.409 35.4462 183.869 35.5832 183.246 35.5832ZM183.254 34.3792C183.592 34.3792 183.874 34.2865 184.101 34.1011C184.328 33.9129 184.497 33.661 184.608 33.3455C184.721 33.03 184.778 32.6785 184.778 32.291C184.778 31.9008 184.721 31.5479 184.608 31.2324C184.497 30.9141 184.328 30.6609 184.101 30.4727C183.874 30.2845 183.592 30.1904 183.254 30.1904C182.909 30.1904 182.621 30.2845 182.391 30.4727C182.164 30.6609 181.994 30.9141 181.88 31.2324C181.77 31.5479 181.714 31.9008 181.714 32.291C181.714 32.6785 181.77 33.03 181.88 33.3455C181.994 33.661 182.164 33.9129 182.391 34.1011C182.621 34.2865 182.909 34.3792 183.254 34.3792ZM191.513 32.7768V29.0819H193.016V35.4586H191.559V34.3253H191.492C191.348 34.6823 191.112 34.9743 190.782 35.2012C190.456 35.4282 190.053 35.5417 189.574 35.5417C189.156 35.5417 188.787 35.449 188.466 35.2635C188.147 35.0753 187.898 34.8027 187.718 34.4457C187.539 34.0859 187.449 33.6513 187.449 33.1421V29.0819H188.951V32.9096C188.951 33.3137 189.062 33.6347 189.284 33.8728C189.505 34.1108 189.796 34.2298 190.155 34.2298C190.377 34.2298 190.591 34.1758 190.799 34.0679C191.006 33.9599 191.177 33.7994 191.31 33.5863C191.445 33.3704 191.513 33.1006 191.513 32.7768ZM194.433 37.8499V29.0819H195.911V30.1364H195.998C196.075 29.9814 196.185 29.8167 196.326 29.6424C196.467 29.4652 196.658 29.3144 196.899 29.1899C197.139 29.0625 197.447 28.9989 197.82 28.9989C198.313 28.9989 198.757 29.1248 199.153 29.3767C199.551 29.6258 199.867 29.9952 200.099 30.4851C200.335 30.9722 200.452 31.5701 200.452 32.2786C200.452 32.9788 200.337 33.5739 200.108 34.0637C199.878 34.5536 199.565 34.9272 199.169 35.1846C198.774 35.442 198.325 35.5707 197.824 35.5707C197.459 35.5707 197.156 35.5098 196.915 35.3881C196.674 35.2663 196.481 35.1196 196.334 34.948C196.19 34.7736 196.078 34.609 195.998 34.454H195.935V37.8499H194.433ZM195.906 32.2703C195.906 32.6827 195.965 33.0438 196.081 33.3538C196.2 33.6638 196.37 33.906 196.591 34.0803C196.816 34.2519 197.087 34.3377 197.405 34.3377C197.737 34.3377 198.015 34.2492 198.24 34.072C198.464 33.8921 198.633 33.6472 198.746 33.3372C198.862 33.0245 198.92 32.6688 198.92 32.2703C198.92 31.8745 198.864 31.523 198.75 31.2158C198.637 30.9086 198.468 30.6678 198.244 30.4934C198.02 30.3191 197.74 30.2319 197.405 30.2319C197.084 30.2319 196.811 30.3163 196.587 30.4851C196.363 30.654 196.193 30.8906 196.077 31.195C195.963 31.4995 195.906 31.8579 195.906 32.2703Z" fill="#0E121B"/>
</g>
<path d="M72.7828 49.3395V48.2098H78.7185V49.3395H76.419V55.6493H75.0822V49.3395H72.7828ZM80.9449 53.8984L80.9413 52.311H81.1519L83.1571 50.0697H84.6937L82.2272 52.8159H81.9547L80.9449 53.8984ZM79.7461 55.6493V48.2098H81.0611V55.6493H79.7461ZM83.2479 55.6493L81.4317 53.1101L82.318 52.1838L84.8208 55.6493H83.2479ZM86.3217 55.7292C86.1013 55.7292 85.9124 55.6517 85.755 55.4967C85.5976 55.3417 85.5201 55.1528 85.5225 54.93C85.5201 54.7121 85.5976 54.5256 85.755 54.3706C85.9124 54.2156 86.1013 54.1381 86.3217 54.1381C86.5348 54.1381 86.7201 54.2156 86.8775 54.3706C87.0373 54.5256 87.1184 54.7121 87.1208 54.93C87.1184 55.0778 87.0797 55.2122 87.0046 55.3333C86.932 55.4544 86.8351 55.5512 86.714 55.6239C86.5953 55.6941 86.4646 55.7292 86.3217 55.7292ZM90.6547 55.6493V54.6758L93.2374 52.1439C93.4845 51.8944 93.6903 51.6728 93.855 51.4791C94.0197 51.2854 94.1432 51.0977 94.2255 50.9161C94.3078 50.7344 94.349 50.5407 94.349 50.3348C94.349 50.0999 94.2957 49.8989 94.1892 49.7318C94.0826 49.5623 93.9361 49.4315 93.7496 49.3395C93.5632 49.2475 93.3513 49.2015 93.1139 49.2015C92.8693 49.2015 92.655 49.2523 92.471 49.354C92.2869 49.4533 92.144 49.595 92.0423 49.7791C91.943 49.9631 91.8934 50.1823 91.8934 50.4366H90.6111C90.6111 49.9643 90.7189 49.5538 90.9344 49.2051C91.1499 48.8564 91.4466 48.5864 91.8244 48.395C92.2046 48.2037 92.6405 48.1081 93.1321 48.1081C93.631 48.1081 94.0693 48.2013 94.4471 48.3878C94.8249 48.5743 95.1179 48.8297 95.3262 49.1543C95.5369 49.4788 95.6422 49.8493 95.6422 50.2658C95.6422 50.5443 95.5889 50.818 95.4824 51.0868C95.3758 51.3556 95.1881 51.6535 94.9193 51.9804C94.6529 52.3073 94.2788 52.7033 93.7969 53.1683L92.5146 54.4723V54.5232H95.7548V55.6493H90.6547ZM99.536 55.751C99.0517 55.751 98.6182 55.6602 98.2355 55.4786C97.8529 55.2945 97.549 55.0427 97.3238 54.723C97.101 54.4033 96.9823 54.0376 96.9678 53.626H98.2755C98.2997 53.9311 98.4317 54.1805 98.6714 54.3743C98.9112 54.5656 99.1994 54.6612 99.536 54.6612C99.8 54.6612 100.035 54.6007 100.241 54.4796C100.447 54.3585 100.609 54.1902 100.727 53.9747C100.846 53.7591 100.904 53.5133 100.902 53.2373C100.904 52.9563 100.845 52.7069 100.724 52.489C100.603 52.271 100.437 52.1003 100.226 51.9768C100.015 51.8508 99.7733 51.7879 99.4997 51.7879C99.2769 51.7854 99.0577 51.8266 98.8422 51.9114C98.6266 51.9961 98.4559 52.1075 98.33 52.2456L97.1131 52.0458L97.5018 48.2098H101.817V49.3359H98.617L98.4026 51.3084H98.4462C98.5843 51.1461 98.7792 51.0117 99.0311 50.9052C99.2829 50.7962 99.559 50.7417 99.8593 50.7417C100.31 50.7417 100.712 50.8482 101.065 51.0614C101.419 51.272 101.697 51.5627 101.901 51.9332C102.104 52.3037 102.206 52.7275 102.206 53.2046C102.206 53.6962 102.092 54.1345 101.864 54.5196C101.639 54.9022 101.326 55.2037 100.924 55.4241C100.524 55.642 100.062 55.751 99.536 55.751ZM103.939 55.7292C103.719 55.7292 103.53 55.6517 103.373 55.4967C103.215 55.3417 103.138 55.1528 103.14 54.93C103.138 54.7121 103.215 54.5256 103.373 54.3706C103.53 54.2156 103.719 54.1381 103.939 54.1381C104.152 54.1381 104.338 54.2156 104.495 54.3706C104.655 54.5256 104.736 54.7121 104.738 54.93C104.736 55.0778 104.697 55.2122 104.622 55.3333C104.55 55.4544 104.453 55.5512 104.332 55.6239C104.213 55.6941 104.082 55.7292 103.939 55.7292ZM108.483 55.791C107.885 55.791 107.372 55.6396 106.943 55.3369C106.517 55.0318 106.189 54.5922 105.959 54.0183C105.731 53.4419 105.617 52.7481 105.617 51.9368C105.62 51.1255 105.735 50.4353 105.962 49.8662C106.192 49.2947 106.52 48.8588 106.947 48.5585C107.375 48.2582 107.888 48.1081 108.483 48.1081C109.079 48.1081 109.591 48.2582 110.02 48.5585C110.448 48.8588 110.777 49.2947 111.004 49.8662C111.234 50.4378 111.349 51.128 111.349 51.9368C111.349 52.7505 111.234 53.4455 111.004 54.0219C110.777 54.5959 110.448 55.0342 110.02 55.3369C109.594 55.6396 109.081 55.791 108.483 55.791ZM108.483 54.654C108.948 54.654 109.315 54.4251 109.584 53.9674C109.855 53.5073 109.991 52.8304 109.991 51.9368C109.991 51.3459 109.929 50.8495 109.806 50.4475C109.682 50.0454 109.508 49.7427 109.282 49.5393C109.057 49.3335 108.791 49.2305 108.483 49.2305C108.021 49.2305 107.655 49.4606 107.386 49.9207C107.117 50.3784 106.982 51.0505 106.979 51.9368C106.977 52.5301 107.036 53.029 107.157 53.4334C107.281 53.8379 107.455 54.143 107.68 54.3488C107.906 54.5523 108.173 54.654 108.483 54.654ZM115.248 55.791C114.65 55.791 114.136 55.6396 113.707 55.3369C113.281 55.0318 112.953 54.5922 112.723 54.0183C112.495 53.4419 112.382 52.7481 112.382 51.9368C112.384 51.1255 112.499 50.4353 112.727 49.8662C112.957 49.2947 113.285 48.8588 113.711 48.5585C114.14 48.2582 114.652 48.1081 115.248 48.1081C115.843 48.1081 116.356 48.2582 116.784 48.5585C117.213 48.8588 117.541 49.2947 117.769 49.8662C117.999 50.4378 118.114 51.128 118.114 51.9368C118.114 52.7505 117.999 53.4455 117.769 54.0219C117.541 54.5959 117.213 55.0342 116.784 55.3369C116.358 55.6396 115.846 55.791 115.248 55.791ZM115.248 54.654C115.713 54.654 116.08 54.4251 116.348 53.9674C116.62 53.5073 116.755 52.8304 116.755 51.9368C116.755 51.3459 116.693 50.8495 116.57 50.4475C116.446 50.0454 116.272 49.7427 116.047 49.5393C115.822 49.3335 115.555 49.2305 115.248 49.2305C114.785 49.2305 114.419 49.4606 114.151 49.9207C113.882 50.3784 113.746 51.0505 113.744 51.9368C113.741 52.5301 113.801 53.029 113.922 53.4334C114.045 53.8379 114.22 54.143 114.445 54.3488C114.67 54.5523 114.938 54.654 115.248 54.654Z" fill="#1FC16B"/>
<path d="M19.7681 78.8813C19.7681 75.5812 19.7681 73.9312 20.4103 72.6707C20.9752 71.5619 21.8767 70.6605 22.9854 70.0956C24.2459 69.4533 25.8959 69.4533 29.196 69.4533H266.804C270.104 69.4533 271.754 69.4533 273.015 70.0956C274.123 70.6605 275.025 71.5619 275.59 72.6707C276.232 73.9312 276.232 75.5812 276.232 78.8813V83.7934C276.232 87.0935 276.232 88.7435 275.59 90.004C275.025 91.1127 274.123 92.0142 273.015 92.5791C271.754 93.2213 270.104 93.2213 266.804 93.2213H29.196C25.8959 93.2213 24.2459 93.2213 22.9854 92.5791C21.8767 92.0142 20.9752 91.1127 20.4103 90.004C19.7681 88.7435 19.7681 87.0935 19.7681 83.7934V78.8813Z" fill="white"/>
<g filter="url(#filter1_ddi_1_29558)">
<path d="M32.5529 77.3978H33.4538V82.7159C33.4538 83.1906 33.3666 83.5938 33.1923 83.9256C33.0179 84.2573 32.7721 84.5092 32.4549 84.6811C32.1376 84.8531 31.7635 84.9391 31.3324 84.9391C30.9255 84.9391 30.5635 84.8652 30.2462 84.7175C29.929 84.5673 29.6796 84.3542 29.4979 84.0781C29.3163 83.8021 29.2255 83.4739 29.2255 83.0937H30.1118C30.1118 83.3044 30.1639 83.4884 30.268 83.6459C30.3746 83.8008 30.5199 83.9219 30.704 84.0091C30.888 84.0963 31.0975 84.1399 31.3324 84.1399C31.5915 84.1399 31.8119 84.0854 31.9935 83.9764C32.1751 83.8674 32.3132 83.7076 32.4076 83.4969C32.5045 83.2838 32.5529 83.0235 32.5529 82.7159V77.3978ZM37.3512 84.9536C36.8475 84.9536 36.4056 84.8337 36.0253 84.594C35.6476 84.3542 35.3521 84.0188 35.139 83.5877C34.9283 83.1567 34.823 82.653 34.823 82.0766C34.823 81.4954 34.9283 80.988 35.139 80.5545C35.3521 80.121 35.6476 79.7844 36.0253 79.5447C36.4056 79.3049 36.8475 79.1851 37.3512 79.1851C37.8549 79.1851 38.2957 79.3049 38.6735 79.5447C39.0537 79.7844 39.3491 80.121 39.5598 80.5545C39.7729 80.988 39.8795 81.4954 39.8795 82.0766C39.8795 82.653 39.7729 83.1567 39.5598 83.5877C39.3491 84.0188 39.0537 84.3542 38.6735 84.594C38.2957 84.8337 37.8549 84.9536 37.3512 84.9536ZM37.3512 84.1835C37.7339 84.1835 38.0487 84.0854 38.2957 83.8892C38.5427 83.6931 38.7256 83.4352 38.8442 83.1155C38.9629 82.7958 39.0222 82.4495 39.0222 82.0766C39.0222 81.7036 38.9629 81.3561 38.8442 81.034C38.7256 80.7119 38.5427 80.4516 38.2957 80.253C38.0487 80.0544 37.7339 79.9552 37.3512 79.9552C36.9686 79.9552 36.6538 80.0544 36.4068 80.253C36.1597 80.4516 35.9769 80.7119 35.8582 81.034C35.7396 81.3561 35.6802 81.7036 35.6802 82.0766C35.6802 82.4495 35.7396 82.7958 35.8582 83.1155C35.9769 83.4352 36.1597 83.6931 36.4068 83.8892C36.6538 84.0854 36.9686 84.1835 37.3512 84.1835ZM41.1297 84.8373V79.2577H41.987V84.8373H41.1297ZM41.5656 78.3278C41.3985 78.3278 41.2544 78.2709 41.1333 78.157C41.0147 78.0432 40.9553 77.9064 40.9553 77.7466C40.9553 77.5867 41.0147 77.4499 41.1333 77.3361C41.2544 77.2223 41.3985 77.1653 41.5656 77.1653C41.7327 77.1653 41.8756 77.2223 41.9942 77.3361C42.1153 77.4499 42.1759 77.5867 42.1759 77.7466C42.1759 77.9064 42.1153 78.0432 41.9942 78.157C41.8756 78.2709 41.7327 78.3278 41.5656 78.3278ZM44.356 81.4808V84.8373H43.4987V79.2577H44.3269V80.1295H44.3996C44.5304 79.8462 44.7289 79.6185 44.9953 79.4466C45.2617 79.2722 45.6056 79.1851 46.027 79.1851C46.4048 79.1851 46.7353 79.2625 47.0187 79.4175C47.302 79.5701 47.5224 79.8026 47.6798 80.115C47.8372 80.425 47.9159 80.8173 47.9159 81.2919V84.8373H47.0586V81.3501C47.0586 80.9117 46.9448 80.5703 46.7172 80.3257C46.4895 80.0787 46.1771 79.9552 45.78 79.9552C45.5063 79.9552 45.2617 80.0145 45.0462 80.1332C44.8331 80.2518 44.6648 80.425 44.5413 80.6526C44.4177 80.8803 44.356 81.1563 44.356 81.4808ZM58.2581 77.3978V84.8373H57.3863L53.3323 78.9962H53.2597V84.8373H52.3588V77.3978H53.2306L57.2991 83.2535H57.3718V77.3978H58.2581ZM62.1528 84.9536C61.6491 84.9536 61.2071 84.8337 60.8269 84.594C60.4491 84.3542 60.1537 84.0188 59.9406 83.5877C59.7299 83.1567 59.6245 82.653 59.6245 82.0766C59.6245 81.4954 59.7299 80.988 59.9406 80.5545C60.1537 80.121 60.4491 79.7844 60.8269 79.5447C61.2071 79.3049 61.6491 79.1851 62.1528 79.1851C62.6565 79.1851 63.0973 79.3049 63.4751 79.5447C63.8553 79.7844 64.1507 80.121 64.3614 80.5545C64.5745 80.988 64.6811 81.4954 64.6811 82.0766C64.6811 82.653 64.5745 83.1567 64.3614 83.5877C64.1507 84.0188 63.8553 84.3542 63.4751 84.594C63.0973 84.8337 62.6565 84.9536 62.1528 84.9536ZM62.1528 84.1835C62.5354 84.1835 62.8503 84.0854 63.0973 83.8892C63.3443 83.6931 63.5271 83.4352 63.6458 83.1155C63.7645 82.7958 63.8238 82.4495 63.8238 82.0766C63.8238 81.7036 63.7645 81.3561 63.6458 81.034C63.5271 80.7119 63.3443 80.4516 63.0973 80.253C62.8503 80.0544 62.5354 79.9552 62.1528 79.9552C61.7702 79.9552 61.4553 80.0544 61.2083 80.253C60.9613 80.4516 60.7785 80.7119 60.6598 81.034C60.5411 81.3561 60.4818 81.7036 60.4818 82.0766C60.4818 82.4495 60.5411 82.7958 60.6598 83.1155C60.7785 83.4352 60.9613 83.6931 61.2083 83.8892C61.4553 84.0854 61.7702 84.1835 62.1528 84.1835ZM67.0056 84.8373L65.3055 79.2577H66.2064L67.4124 83.5296H67.4706L68.662 79.2577H69.5775L70.7544 83.5151H70.8125L72.0185 79.2577H72.9194L71.2194 84.8373H70.3766L69.1561 80.5509H69.0689L67.8483 84.8373H67.0056Z" fill="#0E121B"/>
<path d="M257.6 81.7027H265.638C265.839 81.7027 266.003 81.5391 266.003 81.3374C266.003 81.1356 265.839 80.972 265.638 80.972H257.6C257.398 80.972 257.235 81.1356 257.235 81.3374C257.235 81.5391 257.398 81.7027 257.6 81.7027Z" fill="#0E121B"/>
<path d="M265.121 81.3374L262.091 84.367C262.023 84.4356 261.984 84.5285 261.984 84.6254C261.984 84.7223 262.023 84.8152 262.091 84.8837C262.16 84.9522 262.253 84.9907 262.35 84.9907C262.446 84.9907 262.539 84.9522 262.608 84.8837L265.896 81.5957C266.039 81.453 266.039 81.2217 265.896 81.079L262.608 77.791C262.539 77.7225 262.446 77.684 262.35 77.684C262.253 77.684 262.16 77.7225 262.091 77.791C262.023 77.8596 261.984 77.9525 261.984 78.0494C261.984 78.1463 262.023 78.2392 262.091 78.3077L265.121 81.3374Z" fill="#0E121B"/>
</g>
<defs>
<filter id="filter0_dd_1_29558" x="63.5308" y="17.536" width="215.701" height="29.8453" filterUnits="userSpaceOnUse" color-interpolation-filters="sRGB">
<feFlood flood-opacity="0" result="BackgroundImageFix"/>
<feColorMatrix in="SourceAlpha" type="matrix" values="0 0 0 0 0 0 0 0 0 0 0 0 0 0 0 0 0 0 127 0" result="hardAlpha"/>
<feOffset dy="1"/>
<feGaussianBlur stdDeviation="1.5"/>
<feComposite in2="hardAlpha" operator="out"/>
<feColorMatrix type="matrix" values="0 0 0 0 0.560784 0 0 0 0 0.560784 0 0 0 0 0.560784 0 0 0 0.2 0"/>
<feBlend mode="normal" in2="BackgroundImageFix" result="effect1_dropShadow_1_29558"/>
<feColorMatrix in="SourceAlpha" type="matrix" values="0 0 0 0 0 0 0 0 0 0 0 0 0 0 0 0 0 0 127 0" result="hardAlpha"/>
<feMorphology radius="1" operator="dilate" in="SourceAlpha" result="effect2_dropShadow_1_29558"/>
<feOffset/>
<feComposite in2="hardAlpha" operator="out"/>
<feColorMatrix type="matrix" values="0 0 0 0 0.921569 0 0 0 0 0.921569 0 0 0 0 0.921569 0 0 0 1 0"/>
<feBlend mode="normal" in2="effect1_dropShadow_1_29558" result="effect2_dropShadow_1_29558"/>
<feBlend mode="normal" in="SourceGraphic" in2="effect2_dropShadow_1_29558" result="shape"/>
</filter>
<filter id="filter1_ddi_1_29558" x="16.7681" y="67.4533" width="262.464" height="29.768" filterUnits="userSpaceOnUse" color-interpolation-filters="sRGB">
<feFlood flood-opacity="0" result="BackgroundImageFix"/>
<feColorMatrix in="SourceAlpha" type="matrix" values="0 0 0 0 0 0 0 0 0 0 0 0 0 0 0 0 0 0 127 0" result="hardAlpha"/>
<feOffset dy="1"/>
<feGaussianBlur stdDeviation="1.5"/>
<feComposite in2="hardAlpha" operator="out"/>
<feColorMatrix type="matrix" values="0 0 0 0 0.560784 0 0 0 0 0.560784 0 0 0 0 0.560784 0 0 0 0.2 0"/>
<feBlend mode="normal" in2="BackgroundImageFix" result="effect1_dropShadow_1_29558"/>
<feColorMatrix in="SourceAlpha" type="matrix" values="0 0 0 0 0 0 0 0 0 0 0 0 0 0 0 0 0 0 127 0" result="hardAlpha"/>
<feMorphology radius="1" operator="dilate" in="SourceAlpha" result="effect2_dropShadow_1_29558"/>
<feOffset/>
<feComposite in2="hardAlpha" operator="out"/>
<feColorMatrix type="matrix" values="0 0 0 0 0.921569 0 0 0 0 0.921569 0 0 0 0 0.921569 0 0 0 1 0"/>
<feBlend mode="normal" in2="effect1_dropShadow_1_29558" result="effect2_dropShadow_1_29558"/>
<feBlend mode="normal" in="SourceGraphic" in2="effect2_dropShadow_1_29558" result="shape"/>
<feColorMatrix in="SourceAlpha" type="matrix" values="0 0 0 0 0 0 0 0 0 0 0 0 0 0 0 0 0 0 127 0" result="hardAlpha"/>
<feOffset dy="-2.4"/>
<feComposite in2="hardAlpha" operator="arithmetic" k2="-1" k3="1"/>
<feColorMatrix type="matrix" values="0 0 0 0 0.243137 0 0 0 0 0.243137 0 0 0 0 0.243137 0 0 0 0.04 0"/>
<feBlend mode="normal" in2="shape" result="effect3_innerShadow_1_29558"/>
</filter>
<clipPath id="clip0_1_29558">
<rect x="24.1521" y="24.1519" width="32.1493" height="32.1493" rx="16.0747" fill="white"/>
</clipPath>
<clipPath id="clip1_1_29558">
<rect width="26.4311" height="37.9947" fill="white" transform="translate(26.7095 21.6108)"/>
</clipPath>
</defs>
</svg>
