<svg width="308" height="285" viewBox="0 0 308 285" fill="none" xmlns="http://www.w3.org/2000/svg">
<rect x="12" y="102" width="296" height="183" rx="16" fill="#FAF6A7"/>
<path d="M39.544 144H37.4474L42.1584 130.909H44.4403L49.1513 144H47.0547L43.3537 133.287H43.2514L39.544 144ZM39.8956 138.874H46.6967V140.536H39.8956V138.874ZM54.5862 134.182V135.716H49.2233V134.182H54.5862ZM50.6615 131.83H52.5727V141.117C52.5727 141.488 52.6281 141.767 52.7389 141.955C52.8497 142.138 52.9924 142.263 53.1671 142.332C53.3461 142.396 53.54 142.428 53.7488 142.428C53.9022 142.428 54.0365 142.417 54.1515 142.396C54.2666 142.374 54.3561 142.357 54.42 142.344L54.7652 143.923C54.6544 143.966 54.4967 144.009 54.2921 144.051C54.0876 144.098 53.8319 144.124 53.5251 144.128C53.0223 144.136 52.5535 144.047 52.1188 143.859C51.6842 143.672 51.3326 143.382 51.0642 142.99C50.7957 142.598 50.6615 142.106 50.6615 141.513V131.83ZM61.0134 134.182V135.716H55.6505V134.182H61.0134ZM57.0887 131.83H58.9999V141.117C58.9999 141.488 59.0553 141.767 59.1661 141.955C59.2769 142.138 59.4197 142.263 59.5944 142.332C59.7734 142.396 59.9673 142.428 60.1761 142.428C60.3295 142.428 60.4637 142.417 60.5788 142.396C60.6938 142.374 60.7833 142.357 60.8473 142.344L61.1924 143.923C61.0816 143.966 60.924 144.009 60.7194 144.051C60.5149 144.098 60.2592 144.124 59.9524 144.128C59.4495 144.136 58.9808 144.047 58.5461 143.859C58.1115 143.672 57.7599 143.382 57.4914 142.99C57.223 142.598 57.0887 142.106 57.0887 141.513V131.83ZM66.9837 144.198C66.0164 144.198 65.1833 143.991 64.4844 143.578C63.7898 143.161 63.2529 142.575 62.8736 141.82C62.4986 141.062 62.3111 140.173 62.3111 139.155C62.3111 138.149 62.4986 137.263 62.8736 136.496C63.2529 135.729 63.7813 135.13 64.4588 134.7C65.1406 134.269 65.9375 134.054 66.8494 134.054C67.4034 134.054 67.9404 134.146 68.4602 134.329C68.9801 134.512 69.4467 134.8 69.8601 135.192C70.2735 135.584 70.5994 136.093 70.8381 136.719C71.0767 137.342 71.196 138.098 71.196 138.989V139.666H63.3914V138.234H69.3232C69.3232 137.732 69.2209 137.286 69.0164 136.898C68.8118 136.506 68.5242 136.197 68.1534 135.972C67.7869 135.746 67.3565 135.633 66.8622 135.633C66.3253 135.633 65.8565 135.765 65.456 136.029C65.0597 136.289 64.7529 136.63 64.5355 137.052C64.3225 137.469 64.2159 137.923 64.2159 138.413V139.532C64.2159 140.188 64.331 140.746 64.5611 141.207C64.7955 141.667 65.1215 142.018 65.5391 142.261C65.9567 142.5 66.4446 142.619 67.0029 142.619C67.3651 142.619 67.6953 142.568 67.9936 142.466C68.2919 142.359 68.5497 142.202 68.7671 141.993C68.9844 141.784 69.1506 141.526 69.2656 141.219L71.0746 141.545C70.9297 142.078 70.6698 142.545 70.2948 142.945C69.924 143.342 69.4574 143.651 68.8949 143.872C68.3367 144.089 67.6996 144.198 66.9837 144.198ZM74.9578 138.17V144H73.0466V134.182H74.8811V135.78H75.0026C75.2284 135.26 75.5821 134.842 76.0636 134.527C76.5494 134.212 77.1609 134.054 77.8982 134.054C78.5672 134.054 79.1531 134.195 79.656 134.476C80.1588 134.753 80.5487 135.166 80.8257 135.716C81.1027 136.266 81.2412 136.945 81.2412 137.755V144H79.33V137.985C79.33 137.273 79.1446 136.717 78.7739 136.317C78.4031 135.912 77.8939 135.71 77.2462 135.71C76.803 135.71 76.4088 135.805 76.0636 135.997C75.7227 136.189 75.4521 136.47 75.2519 136.841C75.0558 137.207 74.9578 137.651 74.9578 138.17ZM87.2098 144.192C86.4172 144.192 85.7098 143.989 85.0877 143.585C84.4698 143.175 83.984 142.594 83.6303 141.839C83.2809 141.081 83.1061 140.171 83.1061 139.11C83.1061 138.049 83.283 137.141 83.6367 136.387C83.9946 135.633 84.4847 135.055 85.1069 134.655C85.729 134.254 86.4343 134.054 87.2226 134.054C87.832 134.054 88.3221 134.156 88.6928 134.361C89.0678 134.561 89.3576 134.795 89.5621 135.064C89.7709 135.332 89.9328 135.569 90.0479 135.773H90.163V130.909H92.0742V144H90.2077V142.472H90.0479C89.9328 142.681 89.7667 142.92 89.5493 143.188C89.3363 143.457 89.0422 143.691 88.6672 143.891C88.2922 144.092 87.8064 144.192 87.2098 144.192ZM87.6317 142.562C88.1814 142.562 88.6459 142.417 89.0252 142.127C89.4087 141.833 89.6985 141.426 89.8945 140.906C90.0948 140.386 90.1949 139.781 90.1949 139.091C90.1949 138.409 90.0969 137.812 89.9009 137.301C89.7049 136.79 89.4172 136.391 89.038 136.106C88.6587 135.82 88.19 135.678 87.6317 135.678C87.0564 135.678 86.577 135.827 86.1935 136.125C85.81 136.423 85.5202 136.83 85.3242 137.346C85.1324 137.862 85.0365 138.443 85.0365 139.091C85.0365 139.747 85.1346 140.337 85.3306 140.862C85.5266 141.386 85.8164 141.801 86.1999 142.108C86.5877 142.411 87.065 142.562 87.6317 142.562ZM98.7635 144.198C97.7962 144.198 96.9631 143.991 96.2642 143.578C95.5696 143.161 95.0327 142.575 94.6534 141.82C94.2784 141.062 94.0909 140.173 94.0909 139.155C94.0909 138.149 94.2784 137.263 94.6534 136.496C95.0327 135.729 95.5611 135.13 96.2387 134.7C96.9205 134.269 97.7174 134.054 98.6293 134.054C99.1833 134.054 99.7202 134.146 100.24 134.329C100.76 134.512 101.227 134.8 101.64 135.192C102.053 135.584 102.379 136.093 102.618 136.719C102.857 137.342 102.976 138.098 102.976 138.989V139.666H95.1712V138.234H101.103C101.103 137.732 101.001 137.286 100.796 136.898C100.592 136.506 100.304 136.197 99.9333 135.972C99.5668 135.746 99.1364 135.633 98.6421 135.633C98.1051 135.633 97.6364 135.765 97.2358 136.029C96.8395 136.289 96.5327 136.63 96.3154 137.052C96.1023 137.469 95.9958 137.923 95.9958 138.413V139.532C95.9958 140.188 96.1108 140.746 96.3409 141.207C96.5753 141.667 96.9013 142.018 97.3189 142.261C97.7365 142.5 98.2245 142.619 98.7827 142.619C99.1449 142.619 99.4752 142.568 99.7735 142.466C100.072 142.359 100.33 142.202 100.547 141.993C100.764 141.784 100.93 141.526 101.045 141.219L102.854 141.545C102.71 142.078 102.45 142.545 102.075 142.945C101.704 143.342 101.237 143.651 100.675 143.872C100.117 144.089 99.4794 144.198 98.7635 144.198ZM109.058 144.198C108.091 144.198 107.258 143.991 106.559 143.578C105.864 143.161 105.327 142.575 104.948 141.82C104.573 141.062 104.385 140.173 104.385 139.155C104.385 138.149 104.573 137.263 104.948 136.496C105.327 135.729 105.856 135.13 106.533 134.7C107.215 134.269 108.012 134.054 108.924 134.054C109.478 134.054 110.015 134.146 110.535 134.329C111.054 134.512 111.521 134.8 111.934 135.192C112.348 135.584 112.674 136.093 112.912 136.719C113.151 137.342 113.27 138.098 113.27 138.989V139.666H105.466V138.234H111.397C111.397 137.732 111.295 137.286 111.091 136.898C110.886 136.506 110.598 136.197 110.228 135.972C109.861 135.746 109.431 135.633 108.937 135.633C108.4 135.633 107.931 135.765 107.53 136.029C107.134 136.289 106.827 136.63 106.61 137.052C106.397 137.469 106.29 137.923 106.29 138.413V139.532C106.29 140.188 106.405 140.746 106.635 141.207C106.87 141.667 107.196 142.018 107.613 142.261C108.031 142.5 108.519 142.619 109.077 142.619C109.439 142.619 109.77 142.568 110.068 142.466C110.366 142.359 110.624 142.202 110.841 141.993C111.059 141.784 111.225 141.526 111.34 141.219L113.149 141.545C113.004 142.078 112.744 142.545 112.369 142.945C111.998 143.342 111.532 143.651 110.969 143.872C110.411 144.089 109.774 144.198 109.058 144.198ZM119.768 144V130.909H124.434C125.448 130.909 126.29 131.084 126.959 131.433C127.632 131.783 128.135 132.266 128.468 132.884C128.8 133.498 128.966 134.207 128.966 135.013C128.966 135.814 128.798 136.519 128.461 137.129C128.129 137.734 127.626 138.205 126.953 138.541C126.284 138.878 125.442 139.046 124.428 139.046H120.893V137.346H124.249C124.888 137.346 125.408 137.254 125.808 137.071C126.213 136.888 126.509 136.621 126.697 136.272C126.884 135.923 126.978 135.503 126.978 135.013C126.978 134.518 126.882 134.09 126.691 133.728C126.503 133.366 126.207 133.089 125.802 132.897C125.401 132.701 124.875 132.603 124.223 132.603H121.743V144H119.768ZM126.23 138.094L129.465 144H127.215L124.044 138.094H126.23ZM133.803 144.217C133.181 144.217 132.619 144.102 132.116 143.872C131.613 143.638 131.215 143.299 130.921 142.856C130.631 142.413 130.486 141.869 130.486 141.226C130.486 140.672 130.592 140.216 130.806 139.858C131.019 139.5 131.306 139.217 131.668 139.008C132.031 138.799 132.435 138.641 132.883 138.535C133.33 138.428 133.786 138.347 134.251 138.292C134.839 138.224 135.316 138.168 135.683 138.126C136.049 138.079 136.315 138.004 136.482 137.902C136.648 137.8 136.731 137.634 136.731 137.403V137.359C136.731 136.8 136.573 136.368 136.258 136.061C135.947 135.754 135.482 135.601 134.864 135.601C134.221 135.601 133.714 135.744 133.343 136.029C132.977 136.31 132.723 136.624 132.582 136.969L130.786 136.56C130.999 135.963 131.31 135.482 131.72 135.115C132.133 134.744 132.608 134.476 133.145 134.31C133.682 134.139 134.247 134.054 134.839 134.054C135.231 134.054 135.646 134.101 136.085 134.195C136.529 134.284 136.942 134.45 137.325 134.693C137.713 134.936 138.031 135.283 138.278 135.735C138.525 136.183 138.649 136.764 138.649 137.48V144H136.782V142.658H136.705C136.582 142.905 136.396 143.148 136.149 143.386C135.902 143.625 135.585 143.823 135.197 143.981C134.809 144.138 134.345 144.217 133.803 144.217ZM134.219 142.683C134.747 142.683 135.199 142.579 135.574 142.37C135.953 142.161 136.241 141.888 136.437 141.552C136.637 141.211 136.737 140.847 136.737 140.459V139.193C136.669 139.261 136.537 139.325 136.341 139.385C136.149 139.44 135.93 139.489 135.683 139.532C135.435 139.57 135.195 139.607 134.96 139.641C134.726 139.67 134.53 139.696 134.372 139.717C134.002 139.764 133.663 139.843 133.356 139.954C133.053 140.065 132.81 140.224 132.627 140.433C132.448 140.638 132.359 140.911 132.359 141.251C132.359 141.724 132.533 142.082 132.883 142.325C133.232 142.564 133.678 142.683 134.219 142.683ZM145.507 134.182V135.716H140.144V134.182H145.507ZM141.583 131.83H143.494V141.117C143.494 141.488 143.549 141.767 143.66 141.955C143.771 142.138 143.914 142.263 144.088 142.332C144.267 142.396 144.461 142.428 144.67 142.428C144.823 142.428 144.958 142.417 145.073 142.396C145.188 142.374 145.277 142.357 145.341 142.344L145.686 143.923C145.575 143.966 145.418 144.009 145.213 144.051C145.009 144.098 144.753 144.124 144.446 144.128C143.943 144.136 143.475 144.047 143.04 143.859C142.605 143.672 142.254 143.382 141.985 142.99C141.717 142.598 141.583 142.106 141.583 141.513V131.83ZM151.478 144.198C150.51 144.198 149.677 143.991 148.978 143.578C148.284 143.161 147.747 142.575 147.367 141.82C146.992 141.062 146.805 140.173 146.805 139.155C146.805 138.149 146.992 137.263 147.367 136.496C147.747 135.729 148.275 135.13 148.953 134.7C149.634 134.269 150.431 134.054 151.343 134.054C151.897 134.054 152.434 134.146 152.954 134.329C153.474 134.512 153.941 134.8 154.354 135.192C154.767 135.584 155.093 136.093 155.332 136.719C155.571 137.342 155.69 138.098 155.69 138.989V139.666H147.885V138.234H153.817C153.817 137.732 153.715 137.286 153.51 136.898C153.306 136.506 153.018 136.197 152.647 135.972C152.281 135.746 151.85 135.633 151.356 135.633C150.819 135.633 150.35 135.765 149.95 136.029C149.554 136.289 149.247 136.63 149.029 137.052C148.816 137.469 148.71 137.923 148.71 138.413V139.532C148.71 140.188 148.825 140.746 149.055 141.207C149.289 141.667 149.615 142.018 150.033 142.261C150.451 142.5 150.938 142.619 151.497 142.619C151.859 142.619 152.189 142.568 152.487 142.466C152.786 142.359 153.044 142.202 153.261 141.993C153.478 141.784 153.644 141.526 153.759 141.219L155.568 141.545C155.424 142.078 155.164 142.545 154.789 142.945C154.418 143.342 153.951 143.651 153.389 143.872C152.83 144.089 152.193 144.198 151.478 144.198Z" fill="#525866"/>
<path d="M57.6818 253.636C54.303 253.636 51.303 253.068 48.6818 251.932C46.0758 250.795 44.0303 249.242 42.5455 247.273C41.0758 245.288 40.3485 243.038 40.3636 240.523C40.3485 238.568 40.7727 236.773 41.6364 235.136C42.5 233.5 43.6667 232.136 45.1364 231.045C46.6212 229.939 48.2727 229.235 50.0909 228.932V228.614C47.697 228.083 45.7576 226.864 44.2727 224.955C42.803 223.03 42.0758 220.811 42.0909 218.295C42.0758 215.902 42.7424 213.765 44.0909 211.886C45.4394 210.008 47.2879 208.53 49.6364 207.455C51.9848 206.364 54.6667 205.818 57.6818 205.818C60.6667 205.818 63.3258 206.364 65.6591 207.455C68.0076 208.53 69.8561 210.008 71.2045 211.886C72.5682 213.765 73.25 215.902 73.25 218.295C73.25 220.811 72.5 223.03 71 224.955C69.5152 226.864 67.5985 228.083 65.25 228.614V228.932C67.0682 229.235 68.7045 229.939 70.1591 231.045C71.6288 232.136 72.7955 233.5 73.6591 235.136C74.5379 236.773 74.9773 238.568 74.9773 240.523C74.9773 243.038 74.2348 245.288 72.75 247.273C71.2652 249.242 69.2197 250.795 66.6136 251.932C64.0227 253.068 61.0455 253.636 57.6818 253.636ZM57.6818 247.136C59.4242 247.136 60.9394 246.841 62.2273 246.25C63.5152 245.644 64.5152 244.795 65.2273 243.705C65.9394 242.614 66.303 241.356 66.3182 239.932C66.303 238.447 65.9167 237.136 65.1591 236C64.4167 234.848 63.3939 233.947 62.0909 233.295C60.803 232.644 59.3333 232.318 57.6818 232.318C56.0152 232.318 54.5303 232.644 53.2273 233.295C51.9242 233.947 50.8939 234.848 50.1364 236C49.3939 237.136 49.0303 238.447 49.0455 239.932C49.0303 241.356 49.3788 242.614 50.0909 243.705C50.803 244.78 51.803 245.621 53.0909 246.227C54.3939 246.833 55.9242 247.136 57.6818 247.136ZM57.6818 225.932C59.1061 225.932 60.3636 225.644 61.4545 225.068C62.5606 224.492 63.4318 223.689 64.0682 222.659C64.7045 221.629 65.0303 220.439 65.0455 219.091C65.0303 217.758 64.7121 216.591 64.0909 215.591C63.4697 214.576 62.6061 213.795 61.5 213.25C60.3939 212.689 59.1212 212.409 57.6818 212.409C56.2121 212.409 54.9167 212.689 53.7955 213.25C52.6894 213.795 51.8258 214.576 51.2045 215.591C50.5985 216.591 50.303 217.758 50.3182 219.091C50.303 220.439 50.6061 221.629 51.2273 222.659C51.8636 223.674 52.7348 224.477 53.8409 225.068C54.9621 225.644 56.2424 225.932 57.6818 225.932ZM84.1534 253L103.949 213.818V213.5H80.9716V206.455H112.676V213.659L92.9034 253H84.1534ZM144.898 244.273V241.818C144.898 240.015 145.277 238.356 146.034 236.841C146.807 235.326 147.928 234.106 149.398 233.182C150.867 232.258 152.648 231.795 154.739 231.795C156.89 231.795 158.693 232.258 160.148 233.182C161.602 234.091 162.701 235.303 163.443 236.818C164.201 238.333 164.58 240 164.58 241.818V244.273C164.58 246.076 164.201 247.735 163.443 249.25C162.686 250.765 161.572 251.985 160.102 252.909C158.648 253.833 156.86 254.295 154.739 254.295C152.617 254.295 150.822 253.833 149.352 252.909C147.883 251.985 146.769 250.765 146.011 249.25C145.269 247.735 144.898 246.076 144.898 244.273ZM150.83 241.818V244.273C150.83 245.47 151.117 246.568 151.693 247.568C152.269 248.568 153.284 249.068 154.739 249.068C156.208 249.068 157.216 248.576 157.761 247.591C158.322 246.591 158.602 245.485 158.602 244.273V241.818C158.602 240.606 158.337 239.5 157.807 238.5C157.277 237.485 156.254 236.977 154.739 236.977C153.314 236.977 152.307 237.485 151.716 238.5C151.125 239.5 150.83 240.606 150.83 241.818ZM121.239 217.636V215.182C121.239 213.364 121.625 211.697 122.398 210.182C123.17 208.667 124.292 207.455 125.761 206.545C127.231 205.621 129.011 205.159 131.102 205.159C133.239 205.159 135.034 205.621 136.489 206.545C137.958 207.455 139.064 208.667 139.807 210.182C140.549 211.697 140.92 213.364 140.92 215.182V217.636C140.92 219.455 140.542 221.121 139.784 222.636C139.042 224.136 137.936 225.341 136.466 226.25C134.996 227.159 133.208 227.614 131.102 227.614C128.966 227.614 127.163 227.159 125.693 226.25C124.239 225.341 123.133 224.129 122.375 222.614C121.617 221.098 121.239 219.439 121.239 217.636ZM127.216 215.182V217.636C127.216 218.848 127.496 219.955 128.057 220.955C128.633 221.939 129.648 222.432 131.102 222.432C132.557 222.432 133.557 221.939 134.102 220.955C134.663 219.955 134.943 218.848 134.943 217.636V215.182C134.943 213.97 134.678 212.864 134.148 211.864C133.617 210.848 132.602 210.341 131.102 210.341C129.663 210.341 128.655 210.848 128.08 211.864C127.504 212.879 127.216 213.985 127.216 215.182ZM123.83 253L155.83 206.455H161.511L129.511 253H123.83Z" fill="#0E121B"/>
<g filter="url(#filter0_d_1_29585)">
<path d="M15 17.0288C15 12.1183 15 9.66299 15.9557 7.78741C16.7963 6.13761 18.1376 4.79627 19.7874 3.95565C21.663 3 24.1183 3 29.0288 3H274.971C279.882 3 282.337 3 284.213 3.95565C285.862 4.79627 287.204 6.13761 288.044 7.78741C289 9.66299 289 12.1183 289 17.0288V79.9605C289 84.8711 289 87.3263 288.044 89.2019C287.204 90.8517 285.862 92.1931 284.213 93.0337C282.337 93.9893 279.882 93.9893 274.971 93.9893H29.0288C24.1183 93.9893 21.663 93.9893 19.7874 93.0337C18.1376 92.1931 16.7963 90.8517 15.9557 89.2019C15 87.3263 15 84.8711 15 79.9605V17.0288Z" fill="white"/>
<g clip-path="url(#clip0_1_29585)">
<path d="M58.6313 41.1696C60.155 38.6439 61.0321 35.6852 61.0321 32.5217C61.0321 23.2529 53.5081 15.7392 44.2267 15.7392C34.9454 15.7392 27.4214 23.2529 27.4214 32.5217C27.4214 35.6852 28.2984 38.6439 29.8221 41.1696H58.6313Z" fill="#5C45BF"/>
<path d="M44.2263 49.3042C46.7123 49.3042 49.0719 48.7646 51.1949 47.7972L44.2263 46.2001L37.2578 47.7972C39.3808 48.7646 41.7404 49.3042 44.2263 49.3042Z" fill="#DAE2FE"/>
<path d="M58.6309 35.8279L29.8218 40.9914V41.1696C31.5666 44.0618 34.1599 46.3854 37.2578 47.7971H51.1949C54.2928 46.3854 56.886 44.0618 58.6309 41.1696V35.8279Z" fill="#BEC8F7"/>
<path d="M58.6309 23.7858V35.8281C58.6309 40.9252 54.4934 45.0571 49.3894 45.0571H33.0525C31.7897 43.9337 30.6984 42.624 29.8218 41.1698V23.7858L30.9975 23.5399L44.2263 20.7739L57.4552 23.5399L58.6309 23.7858Z" fill="#E9EFFF"/>
<path d="M36.0846 40.9914V23.7858V22.4762L29.8218 23.7859V41.1696C30.6992 42.6239 31.7914 43.934 33.0541 45.0572H40.1559C37.9074 45.0572 36.0846 43.2369 36.0846 40.9914Z" fill="#DAE2FE"/>
<path d="M53.0606 41.477H47.1353C46.5412 41.477 45.9935 41.1561 45.7036 40.6382C45.4137 40.1203 45.4269 39.4863 45.7381 38.9809L50.4598 31.3123C50.6643 30.9801 50.6758 30.5733 50.4905 30.224C50.3886 30.032 50.1445 29.7065 49.6548 29.6844C49.6345 29.6835 49.6135 29.683 49.5925 29.683C48.9557 29.683 48.4049 30.1343 48.2826 30.756C48.1079 31.6438 47.2456 32.2221 46.3569 32.0476C45.468 31.8732 44.8889 31.0122 45.0635 30.1245C45.4872 27.9704 47.3919 26.407 49.5925 26.407C49.662 26.407 49.7325 26.4085 49.802 26.4116C51.3279 26.4802 52.6687 27.3321 53.3893 28.6902C54.1244 30.0755 54.0739 31.6973 53.2544 33.0283L50.0695 38.2009H53.0606C53.9665 38.2009 54.7009 38.9342 54.7009 39.8389C54.7009 40.7436 53.9665 41.477 53.0606 41.477Z" fill="#2D3C6B"/>
<path d="M48.4297 39.8389C48.4297 38.9342 49.1641 38.2009 50.07 38.2009L53.2549 33.0283C54.0744 31.6973 54.1248 30.0755 53.3898 28.6902C52.6691 27.332 51.3283 26.4802 49.8024 26.4116C49.7329 26.4085 49.6625 26.407 49.5929 26.407C47.3924 26.407 45.4877 27.9704 45.064 30.1245C44.8894 31.0122 45.4685 31.8732 46.3573 32.0476C47.2461 32.2221 48.1084 31.6437 48.283 30.756C48.4053 30.1343 48.9562 29.683 49.5929 29.683C49.614 29.683 49.635 29.6835 49.6553 29.6844C50.145 29.7065 50.389 30.032 50.491 30.224C50.6762 30.5733 50.6648 30.9801 50.4603 31.3123L45.7386 38.9809C45.4274 39.4863 45.4142 40.1203 45.7041 40.6382C45.994 41.1561 46.5416 41.477 47.1358 41.477H50.0699C49.1642 41.477 48.4297 40.7436 48.4297 39.8389Z" fill="#213159"/>
<path d="M38.7066 41.477C35.9746 41.477 33.752 39.2573 33.752 36.5291V31.3548C33.752 28.6266 35.9746 26.407 38.7066 26.407C41.4386 26.407 43.6612 28.6266 43.6612 31.3548V36.5291C43.6612 39.2573 41.4386 41.477 38.7066 41.477ZM38.7066 29.832C37.8657 29.832 37.1816 30.5151 37.1816 31.3548V36.5291C37.1816 37.3688 37.8657 38.052 38.7066 38.052C39.5475 38.052 40.2315 37.3688 40.2315 36.5291V31.3548C40.2315 30.5152 39.5474 29.832 38.7066 29.832Z" fill="#2D3C6B"/>
<path d="M29.8218 18.3422V23.7858H58.6309V18.3422C58.6309 16.8289 57.4025 15.6022 55.8872 15.6022H32.5655C31.0502 15.6022 29.8218 16.8289 29.8218 18.3422Z" fill="#FF596E"/>
<path d="M32.5655 15.6022C31.0502 15.6022 29.8218 16.8289 29.8218 18.3422V23.7858H36.0846V15.6022H32.5655Z" fill="#FF4155"/>
<path d="M55.8761 38.4165H54.8318C53.2578 38.4165 51.9819 39.6907 51.9819 41.2625V42.2111C51.9819 43.7829 50.706 45.0571 49.1321 45.0571H51.032C55.2291 45.0572 58.6316 41.6593 58.6316 37.4679V35.5729C58.6316 37.1131 57.4063 38.3667 55.8761 38.4165Z" fill="white"/>
<path d="M41.4378 17.639H40.0478C39.8584 17.639 39.7048 17.7923 39.7048 17.9815V21.4065C39.7048 21.5956 39.8584 21.749 40.0478 21.749C40.2372 21.749 40.3908 21.5956 40.3908 21.4065V20.0041H41.3274C41.5168 20.0041 41.6704 19.8507 41.6704 19.6616C41.6704 19.4724 41.5168 19.3191 41.3274 19.3191H40.3908V18.324H41.4378C41.6272 18.324 41.7808 18.1706 41.7808 17.9815C41.7808 17.7923 41.6273 17.639 41.4378 17.639Z" fill="white"/>
<path d="M44.5974 18.324C44.7869 18.324 44.9404 18.1706 44.9404 17.9815C44.9404 17.7923 44.7869 17.639 44.5974 17.639H43.1523C42.9629 17.639 42.8093 17.7923 42.8093 17.9815V21.4065C42.8093 21.5956 42.9629 21.749 43.1523 21.749H44.5974C44.7869 21.749 44.9404 21.5956 44.9404 21.4065C44.9404 21.2173 44.7869 21.064 44.5974 21.064H43.4953V20.0365H44.4908C44.6803 20.0365 44.8338 19.8831 44.8338 19.694C44.8338 19.5048 44.6803 19.3515 44.4908 19.3515H43.4953V18.324H44.5974Z" fill="white"/>
<path d="M48.212 19.4485C48.3551 19.2592 48.4411 19.0245 48.4411 18.7696C48.4411 18.1461 47.9332 17.639 47.3089 17.639H46.3127C46.1232 17.639 45.9697 17.7923 45.9697 17.9815V21.4065C45.9697 21.4976 46.0061 21.5849 46.0708 21.6492C46.135 21.7131 46.222 21.749 46.3127 21.749H46.3142C46.3142 21.749 47.2303 21.7449 47.4829 21.7449C48.181 21.7449 48.749 21.1777 48.749 20.4805C48.7491 20.0545 48.5363 19.6777 48.212 19.4485ZM47.3089 18.324C47.555 18.324 47.7552 18.5238 47.7552 18.7696C47.7552 19.0153 47.555 19.2151 47.3089 19.2151C47.2368 19.2151 47.1019 19.2156 46.9542 19.216H46.6557V18.324H47.3089ZM47.483 21.0599C47.3319 21.0599 46.9441 21.0614 46.6557 21.0626V19.9022C46.7511 19.9018 46.8557 19.9014 46.9547 19.901H47.4829C47.8028 19.901 48.0631 20.1609 48.0631 20.4804C48.0631 20.7999 47.8029 21.0599 47.483 21.0599Z" fill="white"/>
<path d="M33.023 14.2321C32.4548 14.2321 31.9941 14.6922 31.9941 15.2596V18.6846C31.9941 19.2521 32.4548 19.7121 33.023 19.7121C33.5913 19.7121 34.0519 19.2521 34.0519 18.6846V15.2596C34.0519 14.6922 33.5913 14.2321 33.023 14.2321Z" fill="#FFC839"/>
<path d="M36.7957 14.2321C36.2275 14.2321 35.7668 14.6922 35.7668 15.2596V18.6846C35.7668 19.2521 36.2275 19.7121 36.7957 19.7121C37.364 19.7121 37.8246 19.2521 37.8246 18.6846V15.2596C37.8246 14.6922 37.364 14.2321 36.7957 14.2321Z" fill="#FFC839"/>
<path d="M55.4305 14.2321C54.8623 14.2321 54.4016 14.6922 54.4016 15.2596V18.6846C54.4016 19.2521 54.8623 19.7121 55.4305 19.7121C55.9987 19.7121 56.4594 19.2521 56.4594 18.6846V15.2596C56.4594 14.6922 55.9987 14.2321 55.4305 14.2321Z" fill="#FFDD40"/>
<path d="M51.6576 14.2321C51.0893 14.2321 50.6287 14.6922 50.6287 15.2596V18.6846C50.6287 19.2521 51.0893 19.7121 51.6576 19.7121C52.2258 19.7121 52.6865 19.2521 52.6865 18.6846V15.2596C52.6865 14.6922 52.2258 14.2321 51.6576 14.2321Z" fill="#FFDD40"/>
<path d="M36.9918 39.7643C36.9918 38.8186 37.7596 38.0518 38.7066 38.0518C37.8658 38.0518 37.1817 37.3687 37.1817 36.5289V31.3547C37.1817 30.515 37.8658 29.8318 38.7066 29.8318C37.7596 29.8318 36.9918 29.0651 36.9918 28.1193C36.9918 27.2031 37.7123 26.455 38.6182 26.4091C35.927 26.4566 33.752 28.6561 33.752 31.3547V36.5289C33.752 39.2276 35.927 41.4272 38.6182 41.4746C37.7123 41.4287 36.9918 40.6805 36.9918 39.7643Z" fill="#213159"/>
<path d="M38.7071 26.4411L38.707 26.4407V26.4411L38.7031 26.3848L38.7036 26.3727L38.7071 26.4411Z" fill="black"/>
<path d="M38.707 41.4769C38.7054 41.4769 38.7039 41.4767 38.7024 41.4767C38.7039 41.4768 38.7054 41.4769 38.707 41.4769Z" fill="white"/>
<path d="M38.7072 41.5111L38.7033 41.5111L38.7024 41.4425L38.7072 41.5111Z" fill="black"/>
</g>
<g filter="url(#filter1_dd_1_29585)">
<path d="M81.8352 21.2937C81.7965 20.9311 81.6332 20.6488 81.3453 20.4468C81.0603 20.2447 80.6894 20.1437 80.2327 20.1437C79.9117 20.1437 79.6363 20.1922 79.4066 20.289C79.1769 20.3859 79.0011 20.5174 78.8793 20.6834C78.7576 20.8495 78.6953 21.0391 78.6925 21.2522C78.6925 21.4293 78.7327 21.5829 78.8129 21.713C78.8959 21.8431 79.008 21.9538 79.1492 22.0451C79.2903 22.1337 79.4467 22.2084 79.6183 22.2693C79.7899 22.3302 79.9629 22.3814 80.1372 22.4229L80.9343 22.6222C81.2554 22.6969 81.564 22.7979 81.8601 22.9252C82.159 23.0526 82.4261 23.2131 82.6614 23.4068C82.8994 23.6006 83.0876 23.8344 83.226 24.1084C83.3644 24.3824 83.4336 24.7035 83.4336 25.0716C83.4336 25.5698 83.3062 26.0084 83.0516 26.3876C82.797 26.764 82.4289 27.0588 81.9473 27.2719C81.4685 27.4822 80.8887 27.5874 80.2078 27.5874C79.5464 27.5874 78.9721 27.485 78.4849 27.2802C78.0006 27.0754 77.6214 26.7765 77.3474 26.3835C77.0762 25.9904 76.9295 25.5116 76.9074 24.947H78.4227C78.4448 25.2432 78.5361 25.4895 78.6967 25.686C78.8572 25.8825 79.0662 26.0292 79.3236 26.1261C79.5837 26.2229 79.8743 26.2714 80.1954 26.2714C80.5303 26.2714 80.8236 26.2215 81.0755 26.1219C81.3301 26.0195 81.5294 25.8784 81.6733 25.6985C81.8172 25.5158 81.8906 25.3027 81.8933 25.0591C81.8906 24.8377 81.8255 24.655 81.6982 24.5111C81.5709 24.3644 81.3924 24.2427 81.1627 24.1458C80.9357 24.0461 80.67 23.9576 80.3656 23.8801L79.3983 23.631C78.6981 23.4511 78.1445 23.1785 77.7377 22.8131C77.3336 22.445 77.1316 21.9566 77.1316 21.3477C77.1316 20.8467 77.2672 20.408 77.5384 20.0316C77.8124 19.6552 78.1847 19.3632 78.6552 19.1557C79.1257 18.9453 79.6584 18.8401 80.2535 18.8401C80.8568 18.8401 81.3855 18.9453 81.8394 19.1557C82.296 19.3632 82.6545 19.6525 82.9146 20.0233C83.1748 20.3914 83.309 20.8149 83.3173 21.2937H81.8352ZM88.676 24.7768V21.082H90.1788V27.4587H88.7216V26.3253H88.6552C88.5113 26.6824 88.2747 26.9744 87.9453 27.2013C87.6187 27.4283 87.216 27.5417 86.7372 27.5417C86.3193 27.5417 85.9498 27.449 85.6288 27.2636C85.3105 27.0754 85.0614 26.8028 84.8815 26.4457C84.7016 26.0859 84.6116 25.6514 84.6116 25.1421V21.082H86.1145V24.9097C86.1145 25.3137 86.2252 25.6348 86.4466 25.8728C86.668 26.1108 86.9586 26.2298 87.3184 26.2298C87.5398 26.2298 87.7543 26.1759 87.9619 26.0679C88.1695 25.96 88.3397 25.7995 88.4726 25.5864C88.6082 25.3705 88.676 25.1006 88.676 24.7768ZM91.5956 27.4587V21.082H93.0321V22.1655H93.1068C93.2396 21.8002 93.4597 21.5151 93.7669 21.3103C94.0741 21.1027 94.4408 20.9989 94.867 20.9989C95.2988 20.9989 95.6627 21.1041 95.9589 21.3145C96.2578 21.522 96.4681 21.8057 96.5899 22.1655H96.6563C96.7975 21.8112 97.0355 21.5289 97.3704 21.3186C97.708 21.1055 98.108 20.9989 98.5702 20.9989C99.1569 20.9989 99.6357 21.1844 100.007 21.5552C100.377 21.9261 100.563 22.4672 100.563 23.1785V27.4587H99.0559V23.411C99.0559 23.0152 98.9507 22.726 98.7404 22.5433C98.53 22.3579 98.2727 22.2651 97.9682 22.2651C97.6056 22.2651 97.322 22.3786 97.1171 22.6056C96.9151 22.8298 96.8141 23.1217 96.8141 23.4815V27.4587H95.3403V23.3487C95.3403 23.0193 95.2407 22.7564 95.0414 22.5599C94.8449 22.3634 94.5875 22.2651 94.2692 22.2651C94.0533 22.2651 93.8568 22.3205 93.6797 22.4312C93.5026 22.5391 93.3614 22.6928 93.2562 22.892C93.1511 23.0885 93.0985 23.3182 93.0985 23.5812V27.4587H91.5956ZM101.959 27.4587V21.082H103.395V22.1655H103.47C103.603 21.8002 103.823 21.5151 104.13 21.3103C104.437 21.1027 104.804 20.9989 105.23 20.9989C105.662 20.9989 106.026 21.1041 106.322 21.3145C106.621 21.522 106.831 21.8057 106.953 22.1655H107.02C107.161 21.8112 107.399 21.5289 107.734 21.3186C108.071 21.1055 108.471 20.9989 108.933 20.9989C109.52 20.9989 109.999 21.1844 110.37 21.5552C110.741 21.9261 110.926 22.4672 110.926 23.1785V27.4587H109.419V23.411C109.419 23.0152 109.314 22.726 109.104 22.5433C108.893 22.3579 108.636 22.2651 108.332 22.2651C107.969 22.2651 107.685 22.3786 107.48 22.6056C107.278 22.8298 107.177 23.1217 107.177 23.4815V27.4587H105.704V23.3487C105.704 23.0193 105.604 22.7564 105.405 22.5599C105.208 22.3634 104.951 22.2651 104.633 22.2651C104.417 22.2651 104.22 22.3205 104.043 22.4312C103.866 22.5391 103.725 22.6928 103.62 22.892C103.514 23.0885 103.462 23.3182 103.462 23.5812V27.4587H101.959ZM115.145 27.5832C114.506 27.5832 113.954 27.4504 113.489 27.1847C113.027 26.9162 112.671 26.5371 112.422 26.0472C112.173 25.5545 112.048 24.9747 112.048 24.3077C112.048 23.6518 112.173 23.0761 112.422 22.5807C112.674 22.0825 113.025 21.695 113.476 21.4182C113.928 21.1387 114.458 20.9989 115.066 20.9989C115.459 20.9989 115.83 21.0626 116.179 21.1899C116.531 21.3145 116.841 21.5082 117.109 21.7711C117.38 22.034 117.593 22.3689 117.748 22.7758C117.903 23.1799 117.981 23.6614 117.981 24.2205V24.6813H112.754V23.6684H116.54C116.537 23.3805 116.475 23.1245 116.353 22.9003C116.232 22.6734 116.061 22.4949 115.843 22.3648C115.627 22.2347 115.375 22.1697 115.087 22.1697C114.78 22.1697 114.51 22.2444 114.278 22.3938C114.045 22.5405 113.864 22.7343 113.734 22.9751C113.606 23.2131 113.541 23.4746 113.539 23.7597V24.644C113.539 25.0148 113.606 25.3331 113.742 25.5988C113.878 25.8617 114.067 26.0638 114.311 26.2049C114.554 26.3433 114.839 26.4125 115.166 26.4125C115.385 26.4125 115.583 26.3821 115.76 26.3212C115.937 26.2575 116.09 26.1648 116.221 26.043C116.351 25.9212 116.449 25.7704 116.515 25.5905L117.919 25.7483C117.83 26.1191 117.661 26.443 117.412 26.7197C117.166 26.9937 116.85 27.2068 116.465 27.3591C116.081 27.5085 115.641 27.5832 115.145 27.5832ZM119.124 27.4587V21.082H120.581V22.1448H120.647C120.763 21.7767 120.963 21.493 121.245 21.2937C121.53 21.0917 121.855 20.9906 122.221 20.9906C122.304 20.9906 122.396 20.9948 122.499 21.0031C122.604 21.0086 122.691 21.0183 122.76 21.0321V22.4146C122.697 22.3925 122.596 22.3731 122.457 22.3565C122.322 22.3371 122.19 22.3274 122.063 22.3274C121.789 22.3274 121.543 22.3869 121.324 22.5059C121.108 22.6222 120.938 22.7841 120.813 22.9917C120.689 23.1992 120.626 23.4386 120.626 23.7099V27.4587H119.124ZM128.257 27.4587L125.858 18.9564H127.514L129.046 25.2044H129.125L130.76 18.9564H132.267L133.907 25.2086H133.982L135.514 18.9564H137.17L134.771 27.4587H133.251L131.549 21.493H131.483L129.777 27.4587H128.257ZM140.216 27.5832C139.576 27.5832 139.024 27.4504 138.559 27.1847C138.097 26.9162 137.741 26.5371 137.492 26.0472C137.243 25.5545 137.119 24.9747 137.119 24.3077C137.119 23.6518 137.243 23.0761 137.492 22.5807C137.744 22.0825 138.096 21.695 138.547 21.4182C138.998 21.1387 139.528 20.9989 140.137 20.9989C140.53 20.9989 140.901 21.0626 141.249 21.1899C141.601 21.3145 141.911 21.5082 142.179 21.7711C142.451 22.034 142.664 22.3689 142.819 22.7758C142.974 23.1799 143.051 23.6614 143.051 24.2205V24.6813H137.824V23.6684H141.611C141.608 23.3805 141.546 23.1245 141.424 22.9003C141.302 22.6734 141.132 22.4949 140.913 22.3648C140.697 22.2347 140.445 22.1697 140.158 22.1697C139.85 22.1697 139.58 22.2444 139.348 22.3938C139.116 22.5405 138.934 22.7343 138.804 22.9751C138.677 23.2131 138.612 23.4746 138.609 23.7597V24.644C138.609 25.0148 138.677 25.3331 138.812 25.5988C138.948 25.8617 139.138 26.0638 139.381 26.2049C139.625 26.3433 139.91 26.4125 140.236 26.4125C140.455 26.4125 140.653 26.3821 140.83 26.3212C141.007 26.2575 141.161 26.1648 141.291 26.043C141.421 25.9212 141.519 25.7704 141.586 25.5905L142.989 25.7483C142.9 26.1191 142.731 26.443 142.482 26.7197C142.236 26.9937 141.921 27.2068 141.536 27.3591C141.151 27.5085 140.711 27.5832 140.216 27.5832ZM144.26 27.4587V18.9564H145.763V22.1365H145.825C145.903 21.9815 146.012 21.8168 146.153 21.6424C146.295 21.4653 146.486 21.3145 146.726 21.1899C146.967 21.0626 147.274 20.9989 147.648 20.9989C148.141 20.9989 148.585 21.1249 148.981 21.3767C149.379 21.6258 149.695 21.9953 149.927 22.4852C150.162 22.9723 150.28 23.5701 150.28 24.2786C150.28 24.9789 150.165 25.5739 149.935 26.0638C149.706 26.5537 149.393 26.9273 148.997 27.1847C148.601 27.4421 148.153 27.5708 147.652 27.5708C147.287 27.5708 146.984 27.5099 146.743 27.3881C146.502 27.2663 146.308 27.1197 146.162 26.9481C146.018 26.7737 145.906 26.609 145.825 26.454H145.738V27.4587H144.26ZM145.734 24.2703C145.734 24.6827 145.792 25.0439 145.909 25.3539C146.028 25.6639 146.198 25.906 146.419 26.0804C146.643 26.252 146.915 26.3378 147.233 26.3378C147.565 26.3378 147.843 26.2492 148.067 26.0721C148.291 25.8922 148.46 25.6472 148.574 25.3373C148.69 25.0245 148.748 24.6689 148.748 24.2703C148.748 23.8746 148.691 23.5231 148.578 23.2158C148.464 22.9086 148.296 22.6678 148.071 22.4935C147.847 22.3191 147.568 22.2319 147.233 22.2319C146.912 22.2319 146.639 22.3164 146.415 22.4852C146.191 22.654 146.021 22.8906 145.904 23.1951C145.791 23.4995 145.734 23.8579 145.734 24.2703ZM151.429 27.4587V21.082H152.932V27.4587H151.429ZM152.185 20.1769C151.947 20.1769 151.742 20.0981 151.57 19.9403C151.399 19.7798 151.313 19.5874 151.313 19.3632C151.313 19.1363 151.399 18.9439 151.57 18.7862C151.742 18.6257 151.947 18.5454 152.185 18.5454C152.425 18.5454 152.63 18.6257 152.799 18.7862C152.971 18.9439 153.056 19.1363 153.056 19.3632C153.056 19.5874 152.971 19.7798 152.799 19.9403C152.63 20.0981 152.425 20.1769 152.185 20.1769ZM155.852 23.7223V27.4587H154.349V21.082H155.785V22.1655H155.86C156.007 21.8085 156.24 21.5248 156.562 21.3145C156.885 21.1041 157.285 20.9989 157.761 20.9989C158.201 20.9989 158.585 21.093 158.911 21.2812C159.241 21.4694 159.495 21.7421 159.675 22.0991C159.858 22.4561 159.948 22.8893 159.945 23.3985V27.4587H158.442V23.631C158.442 23.2048 158.331 22.8713 158.11 22.6305C157.891 22.3897 157.588 22.2693 157.201 22.2693C156.938 22.2693 156.704 22.3274 156.499 22.4437C156.297 22.5571 156.138 22.7218 156.022 22.9377C155.908 23.1536 155.852 23.4151 155.852 23.7223ZM163.179 27.5874C162.775 27.5874 162.411 27.5154 162.087 27.3715C161.766 27.2248 161.512 27.0089 161.323 26.7239C161.138 26.4388 161.045 26.0873 161.045 25.6694C161.045 25.3096 161.112 25.0121 161.245 24.7768C161.377 24.5416 161.559 24.3534 161.788 24.2122C162.018 24.0711 162.277 23.9645 162.565 23.8925C162.855 23.8178 163.156 23.7638 163.466 23.7306C163.839 23.6919 164.142 23.6573 164.375 23.6268C164.607 23.5936 164.776 23.5438 164.881 23.4774C164.989 23.4082 165.043 23.3016 165.043 23.1577V23.1328C165.043 22.8201 164.95 22.5779 164.765 22.4063C164.58 22.2347 164.312 22.1489 163.964 22.1489C163.596 22.1489 163.304 22.2292 163.088 22.3897C162.875 22.5502 162.731 22.7398 162.656 22.9585L161.253 22.7592C161.364 22.3717 161.546 22.0479 161.801 21.7877C162.055 21.5248 162.367 21.3283 162.735 21.1982C163.103 21.0654 163.51 20.9989 163.955 20.9989C164.263 20.9989 164.569 21.0349 164.873 21.1069C165.177 21.1788 165.456 21.2978 165.707 21.4639C165.959 21.6272 166.161 21.85 166.314 22.1323C166.469 22.4146 166.546 22.7675 166.546 23.1909V27.4587H165.101V26.5827H165.051C164.96 26.7599 164.831 26.9259 164.665 27.0809C164.502 27.2331 164.296 27.3563 164.047 27.4504C163.8 27.5417 163.511 27.5874 163.179 27.5874ZM163.569 26.4831C163.871 26.4831 164.133 26.4236 164.354 26.3046C164.575 26.1828 164.746 26.0223 164.865 25.823C164.986 25.6237 165.047 25.4065 165.047 25.1712V24.4198C165 24.4585 164.92 24.4945 164.807 24.5277C164.696 24.5609 164.571 24.59 164.433 24.6149C164.295 24.6398 164.158 24.662 164.022 24.6813C163.886 24.7007 163.769 24.7173 163.669 24.7311C163.445 24.7616 163.244 24.8114 163.067 24.8806C162.89 24.9498 162.75 25.0467 162.648 25.1712C162.545 25.293 162.494 25.4507 162.494 25.6445C162.494 25.9212 162.595 26.1302 162.797 26.2714C162.999 26.4125 163.257 26.4831 163.569 26.4831ZM167.929 27.4587V21.082H169.386V22.1448H169.452C169.568 21.7767 169.768 21.493 170.05 21.2937C170.335 21.0917 170.66 20.9906 171.026 20.9906C171.109 20.9906 171.201 20.9948 171.304 21.0031C171.409 21.0086 171.496 21.0183 171.565 21.0321V22.4146C171.502 22.3925 171.401 22.3731 171.262 22.3565C171.127 22.3371 170.995 22.3274 170.868 22.3274C170.594 22.3274 170.348 22.3869 170.129 22.5059C169.913 22.6222 169.743 22.7841 169.618 22.9917C169.494 23.1992 169.431 23.4386 169.431 23.7099V27.4587H167.929Z" fill="#0E121B"/>
</g>
<path d="M77.1933 47.6494V40.2099H81.8067V41.1761H78.3158V43.4428H81.4761V44.4055H78.3158V47.6494H77.1933ZM83.1789 47.6494V40.2099H85.8307C86.407 40.2099 86.8853 40.3091 87.2655 40.5077C87.6482 40.7063 87.9339 40.9812 88.1228 41.3323C88.3117 41.681 88.4061 42.0843 88.4061 42.542C88.4061 42.9972 88.3105 43.398 88.1192 43.7443C87.9303 44.0882 87.6445 44.3558 87.2619 44.5471C86.8817 44.7385 86.4034 44.8341 85.827 44.8341H83.8182V43.8679H85.7253C86.0886 43.8679 86.384 43.8158 86.6117 43.7117C86.8417 43.6075 87.01 43.4562 87.1166 43.2576C87.2231 43.059 87.2764 42.8205 87.2764 42.542C87.2764 42.261 87.2219 42.0177 87.113 41.8118C87.0064 41.606 86.8381 41.4486 86.608 41.3396C86.3804 41.2282 86.0813 41.1725 85.7108 41.1725H84.3013V47.6494H83.1789ZM86.8514 44.2929L88.6895 47.6494H87.4108L85.6091 44.2929H86.8514ZM89.7638 47.6494V40.2099H94.428V41.1761H90.8863V43.4428H94.1847V44.4055H90.8863V46.6831H94.4716V47.6494H89.7638ZM95.9192 47.6494V40.2099H100.583V41.1761H97.0417V43.4428H100.34V44.4055H97.0417V46.6831H100.627V47.6494H95.9192Z" fill="#FF8447"/>
<path d="M23.7681 70.7563C23.7681 67.4999 23.7681 65.8718 24.4018 64.628C24.9592 63.534 25.8487 62.6445 26.9427 62.0871C28.1865 61.4533 29.8147 61.4533 33.071 61.4533H270.929C274.186 61.4533 275.814 61.4533 277.057 62.0871C278.151 62.6445 279.041 63.534 279.598 64.628C280.232 65.8718 280.232 67.4999 280.232 70.7563V75.9184C280.232 79.1747 280.232 80.8029 279.598 82.0467C279.041 83.1407 278.151 84.0302 277.057 84.5876C275.814 85.2213 274.186 85.2213 270.929 85.2213H33.071C29.8147 85.2213 28.1865 85.2213 26.9427 84.5876C25.8487 84.0302 24.9592 83.1407 24.4018 82.0467C23.7681 80.8029 23.7681 79.1747 23.7681 75.9184V70.7563Z" fill="#F5F7FA"/>
<g filter="url(#filter2_ddi_1_29585)">
<path d="M36.5529 69.3978H37.4538V74.7159C37.4538 75.1906 37.3666 75.5938 37.1923 75.9256C37.0179 76.2573 36.7721 76.5092 36.4549 76.6811C36.1376 76.8531 35.7635 76.9391 35.3324 76.9391C34.9255 76.9391 34.5635 76.8652 34.2462 76.7175C33.929 76.5673 33.6796 76.3542 33.4979 76.0781C33.3163 75.8021 33.2255 75.4739 33.2255 75.0937H34.1118C34.1118 75.3044 34.1639 75.4884 34.268 75.6459C34.3746 75.8008 34.5199 75.9219 34.704 76.0091C34.888 76.0963 35.0975 76.1399 35.3324 76.1399C35.5915 76.1399 35.8119 76.0854 35.9935 75.9764C36.1751 75.8674 36.3132 75.7076 36.4076 75.4969C36.5045 75.2838 36.5529 75.0235 36.5529 74.7159V69.3978ZM41.3512 76.9536C40.8475 76.9536 40.4056 76.8337 40.0253 76.594C39.6476 76.3542 39.3521 76.0188 39.139 75.5877C38.9283 75.1567 38.823 74.653 38.823 74.0766C38.823 73.4954 38.9283 72.988 39.139 72.5545C39.3521 72.121 39.6476 71.7844 40.0253 71.5447C40.4056 71.3049 40.8475 71.1851 41.3512 71.1851C41.8549 71.1851 42.2957 71.3049 42.6735 71.5447C43.0537 71.7844 43.3491 72.121 43.5598 72.5545C43.7729 72.988 43.8795 73.4954 43.8795 74.0766C43.8795 74.653 43.7729 75.1567 43.5598 75.5877C43.3491 76.0188 43.0537 76.3542 42.6735 76.594C42.2957 76.8337 41.8549 76.9536 41.3512 76.9536ZM41.3512 76.1835C41.7339 76.1835 42.0487 76.0854 42.2957 75.8892C42.5427 75.6931 42.7256 75.4352 42.8442 75.1155C42.9629 74.7958 43.0222 74.4495 43.0222 74.0766C43.0222 73.7036 42.9629 73.3561 42.8442 73.034C42.7256 72.7119 42.5427 72.4516 42.2957 72.253C42.0487 72.0544 41.7339 71.9552 41.3512 71.9552C40.9686 71.9552 40.6538 72.0544 40.4068 72.253C40.1597 72.4516 39.9769 72.7119 39.8582 73.034C39.7396 73.3561 39.6802 73.7036 39.6802 74.0766C39.6802 74.4495 39.7396 74.7958 39.8582 75.1155C39.9769 75.4352 40.1597 75.6931 40.4068 75.8892C40.6538 76.0854 40.9686 76.1835 41.3512 76.1835ZM45.1297 76.8373V71.2577H45.987V76.8373H45.1297ZM45.5656 70.3278C45.3985 70.3278 45.2544 70.2709 45.1333 70.157C45.0147 70.0432 44.9553 69.9064 44.9553 69.7466C44.9553 69.5867 45.0147 69.4499 45.1333 69.3361C45.2544 69.2223 45.3985 69.1653 45.5656 69.1653C45.7327 69.1653 45.8756 69.2223 45.9942 69.3361C46.1153 69.4499 46.1759 69.5867 46.1759 69.7466C46.1759 69.9064 46.1153 70.0432 45.9942 70.157C45.8756 70.2709 45.7327 70.3278 45.5656 70.3278ZM48.356 73.4808V76.8373H47.4987V71.2577H48.3269V72.1295H48.3996C48.5304 71.8462 48.7289 71.6185 48.9953 71.4466C49.2617 71.2722 49.6056 71.1851 50.027 71.1851C50.4048 71.1851 50.7353 71.2625 51.0187 71.4175C51.302 71.5701 51.5224 71.8026 51.6798 72.115C51.8372 72.425 51.9159 72.8173 51.9159 73.2919V76.8373H51.0586V73.3501C51.0586 72.9117 50.9448 72.5703 50.7172 72.3257C50.4895 72.0787 50.1771 71.9552 49.78 71.9552C49.5063 71.9552 49.2617 72.0145 49.0462 72.1332C48.8331 72.2518 48.6648 72.425 48.5413 72.6526C48.4177 72.8803 48.356 73.1563 48.356 73.4808ZM62.2581 69.3978V76.8373H61.3863L57.3323 70.9962H57.2597V76.8373H56.3588V69.3978H57.2306L61.2991 75.2535H61.3718V69.3978H62.2581ZM66.1528 76.9536C65.6491 76.9536 65.2071 76.8337 64.8269 76.594C64.4491 76.3542 64.1537 76.0188 63.9406 75.5877C63.7299 75.1567 63.6245 74.653 63.6245 74.0766C63.6245 73.4954 63.7299 72.988 63.9406 72.5545C64.1537 72.121 64.4491 71.7844 64.8269 71.5447C65.2071 71.3049 65.6491 71.1851 66.1528 71.1851C66.6565 71.1851 67.0973 71.3049 67.4751 71.5447C67.8553 71.7844 68.1507 72.121 68.3614 72.5545C68.5745 72.988 68.6811 73.4954 68.6811 74.0766C68.6811 74.653 68.5745 75.1567 68.3614 75.5877C68.1507 76.0188 67.8553 76.3542 67.4751 76.594C67.0973 76.8337 66.6565 76.9536 66.1528 76.9536ZM66.1528 76.1835C66.5354 76.1835 66.8503 76.0854 67.0973 75.8892C67.3443 75.6931 67.5271 75.4352 67.6458 75.1155C67.7645 74.7958 67.8238 74.4495 67.8238 74.0766C67.8238 73.7036 67.7645 73.3561 67.6458 73.034C67.5271 72.7119 67.3443 72.4516 67.0973 72.253C66.8503 72.0544 66.5354 71.9552 66.1528 71.9552C65.7702 71.9552 65.4553 72.0544 65.2083 72.253C64.9613 72.4516 64.7785 72.7119 64.6598 73.034C64.5411 73.3561 64.4818 73.7036 64.4818 74.0766C64.4818 74.4495 64.5411 74.7958 64.6598 75.1155C64.7785 75.4352 64.9613 75.6931 65.2083 75.8892C65.4553 76.0854 65.7702 76.1835 66.1528 76.1835ZM71.0056 76.8373L69.3055 71.2577H70.2064L71.4124 75.5296H71.4706L72.662 71.2577H73.5775L74.7544 75.5151H74.8125L76.0185 71.2577H76.9194L75.2194 76.8373H74.3766L73.1561 72.5509H73.0689L71.8483 76.8373H71.0056Z" fill="#0E121B"/>
<path d="M261.6 73.7027H269.637C269.839 73.7027 270.003 73.5391 270.003 73.3374C270.003 73.1356 269.839 72.972 269.637 72.972H261.6C261.398 72.972 261.235 73.1356 261.235 73.3374C261.235 73.5391 261.398 73.7027 261.6 73.7027Z" fill="#0E121B"/>
<path d="M269.121 73.3374L266.091 76.367C266.023 76.4356 265.984 76.5285 265.984 76.6254C265.984 76.7223 266.023 76.8152 266.091 76.8837C266.16 76.9522 266.253 76.9907 266.349 76.9907C266.446 76.9907 266.539 76.9522 266.608 76.8837L269.896 73.5957C270.038 73.453 270.038 73.2217 269.896 73.079L266.608 69.791C266.539 69.7225 266.446 69.684 266.349 69.684C266.253 69.684 266.16 69.7225 266.091 69.791C266.023 69.8596 265.984 69.9525 265.984 70.0494C265.984 70.1463 266.023 70.2392 266.091 70.3077L269.121 73.3374Z" fill="#0E121B"/>
</g>
</g>
<defs>
<filter id="filter0_d_1_29585" x="0.386666" y="0.0773335" width="303.227" height="120.216" filterUnits="userSpaceOnUse" color-interpolation-filters="sRGB">
<feFlood flood-opacity="0" result="BackgroundImageFix"/>
<feColorMatrix in="SourceAlpha" type="matrix" values="0 0 0 0 0 0 0 0 0 0 0 0 0 0 0 0 0 0 127 0" result="hardAlpha"/>
<feMorphology radius="8.768" operator="erode" in="SourceAlpha" result="effect1_dropShadow_1_29585"/>
<feOffset dy="11.6907"/>
<feGaussianBlur stdDeviation="11.6907"/>
<feComposite in2="hardAlpha" operator="out"/>
<feColorMatrix type="matrix" values="0 0 0 0 0.054902 0 0 0 0 0.0705882 0 0 0 0 0.105882 0 0 0 0.1 0"/>
<feBlend mode="normal" in2="BackgroundImageFix" result="effect1_dropShadow_1_29585"/>
<feBlend mode="normal" in="SourceGraphic" in2="effect1_dropShadow_1_29585" result="shape"/>
</filter>
<filter id="filter1_dd_1_29585" x="67.5308" y="9.53603" width="215.701" height="29.8453" filterUnits="userSpaceOnUse" color-interpolation-filters="sRGB">
<feFlood flood-opacity="0" result="BackgroundImageFix"/>
<feColorMatrix in="SourceAlpha" type="matrix" values="0 0 0 0 0 0 0 0 0 0 0 0 0 0 0 0 0 0 127 0" result="hardAlpha"/>
<feOffset dy="1"/>
<feGaussianBlur stdDeviation="1.5"/>
<feComposite in2="hardAlpha" operator="out"/>
<feColorMatrix type="matrix" values="0 0 0 0 0.560784 0 0 0 0 0.560784 0 0 0 0 0.560784 0 0 0 0.2 0"/>
<feBlend mode="normal" in2="BackgroundImageFix" result="effect1_dropShadow_1_29585"/>
<feColorMatrix in="SourceAlpha" type="matrix" values="0 0 0 0 0 0 0 0 0 0 0 0 0 0 0 0 0 0 127 0" result="hardAlpha"/>
<feMorphology radius="1" operator="dilate" in="SourceAlpha" result="effect2_dropShadow_1_29585"/>
<feOffset/>
<feComposite in2="hardAlpha" operator="out"/>
<feColorMatrix type="matrix" values="0 0 0 0 0.921569 0 0 0 0 0.921569 0 0 0 0 0.921569 0 0 0 1 0"/>
<feBlend mode="normal" in2="effect1_dropShadow_1_29585" result="effect2_dropShadow_1_29585"/>
<feBlend mode="normal" in="SourceGraphic" in2="effect2_dropShadow_1_29585" result="shape"/>
</filter>
<filter id="filter2_ddi_1_29585" x="20.7681" y="59.4533" width="262.464" height="29.768" filterUnits="userSpaceOnUse" color-interpolation-filters="sRGB">
<feFlood flood-opacity="0" result="BackgroundImageFix"/>
<feColorMatrix in="SourceAlpha" type="matrix" values="0 0 0 0 0 0 0 0 0 0 0 0 0 0 0 0 0 0 127 0" result="hardAlpha"/>
<feOffset dy="1"/>
<feGaussianBlur stdDeviation="1.5"/>
<feComposite in2="hardAlpha" operator="out"/>
<feColorMatrix type="matrix" values="0 0 0 0 0.560784 0 0 0 0 0.560784 0 0 0 0 0.560784 0 0 0 0.2 0"/>
<feBlend mode="normal" in2="BackgroundImageFix" result="effect1_dropShadow_1_29585"/>
<feColorMatrix in="SourceAlpha" type="matrix" values="0 0 0 0 0 0 0 0 0 0 0 0 0 0 0 0 0 0 127 0" result="hardAlpha"/>
<feMorphology radius="1" operator="dilate" in="SourceAlpha" result="effect2_dropShadow_1_29585"/>
<feOffset/>
<feComposite in2="hardAlpha" operator="out"/>
<feColorMatrix type="matrix" values="0 0 0 0 0.921569 0 0 0 0 0.921569 0 0 0 0 0.921569 0 0 0 1 0"/>
<feBlend mode="normal" in2="effect1_dropShadow_1_29585" result="effect2_dropShadow_1_29585"/>
<feBlend mode="normal" in="SourceGraphic" in2="effect2_dropShadow_1_29585" result="shape"/>
<feColorMatrix in="SourceAlpha" type="matrix" values="0 0 0 0 0 0 0 0 0 0 0 0 0 0 0 0 0 0 127 0" result="hardAlpha"/>
<feOffset dy="-2.4"/>
<feComposite in2="hardAlpha" operator="arithmetic" k2="-1" k3="1"/>
<feColorMatrix type="matrix" values="0 0 0 0 0.243137 0 0 0 0 0.243137 0 0 0 0 0.243137 0 0 0 0.04 0"/>
<feBlend mode="normal" in2="shape" result="effect3_innerShadow_1_29585"/>
</filter>
<clipPath id="clip0_1_29585">
<rect width="35.072" height="35.072" fill="white" transform="translate(26.6907 14.2321)"/>
</clipPath>
</defs>
</svg>
