<svg width="116" height="24" viewBox="0 0 116 24" fill="none" xmlns="http://www.w3.org/2000/svg">
<g clip-path="url(#clip0_162_30267)">
<path d="M2.375 7.007V12.1424C3.26485 9.05928 6.08704 6.93594 9.29601 6.93594H18.1707C20.0893 6.93594 21.6446 5.38066 21.6446 3.46211C21.6446 1.54357 20.0893 -0.0117188 18.1707 -0.0117188H9.39371C5.51738 -0.0117188 2.375 3.13067 2.375 7.007Z" fill="#2EA378"/>
<path d="M18.1707 -0.0117188H14.5291C7.81659 -0.0117188 2.375 5.42987 2.375 12.1424C3.26485 9.05928 6.08704 6.93594 9.29601 6.93594H18.1707C20.0893 6.93594 21.6446 5.38066 21.6446 3.46211C21.6446 1.54357 20.0893 -0.0117188 18.1707 -0.0117188Z" fill="#37C390"/>
<path d="M15.0959 8.55859H10.1153C8.25669 8.55859 6.75 10.0653 6.75 11.9239C6.75 13.7825 8.25668 15.2892 10.1153 15.2892H15.0959C16.9545 15.2892 18.4612 13.7825 18.4612 11.9239C18.4612 10.0653 16.9545 8.55859 15.0959 8.55859Z" fill="#2EA378"/>
<path d="M9.22455 15.596V20.5793C9.22455 22.4751 7.68773 24.0119 5.79196 24.0119C3.8962 24.0119 2.35938 22.4751 2.35938 20.5793V15.3769C2.35938 11.6261 5.40001 8.58545 9.15081 8.58545H15.8474C12.1304 8.79699 9.22455 11.8729 9.22455 15.596Z" fill="#37C390"/>
</g>
<path d="M29.078 17V11.022C29.078 9.762 29.4747 8.782 30.268 8.082C31.0613 7.382 32.1627 7.032 33.572 7.032C34.1413 7.032 34.6687 7.09267 35.154 7.214C35.6487 7.326 36.078 7.494 36.442 7.718L35.742 9.51C35.4433 9.314 35.1167 9.174 34.762 9.09C34.4167 9.006 34.0713 8.964 33.726 8.964C32.942 8.964 32.3493 9.13667 31.948 9.482C31.5467 9.818 31.346 10.3267 31.346 11.008V17H29.078ZM30.492 13.43V11.61H35.378V13.43H30.492ZM40.3233 17.112C39.4739 17.112 38.8113 16.888 38.3353 16.44C37.8593 15.992 37.6213 15.348 37.6213 14.508V6.612H39.8053V14.382C39.8053 14.6993 39.8846 14.9467 40.0433 15.124C40.2113 15.292 40.4446 15.376 40.7433 15.376C40.8646 15.376 40.9813 15.362 41.0933 15.334C41.2053 15.306 41.2939 15.2733 41.3593 15.236L41.4573 16.93C41.2706 16.986 41.0793 17.028 40.8833 17.056C40.6966 17.0933 40.5099 17.112 40.3233 17.112ZM46.1308 17.112C45.2721 17.112 44.5161 16.944 43.8628 16.608C43.2188 16.272 42.7194 15.8147 42.3648 15.236C42.0101 14.648 41.8328 13.9807 41.8328 13.234C41.8328 12.478 42.0054 11.8107 42.3508 11.232C42.7054 10.644 43.1861 10.1867 43.7928 9.86C44.3994 9.524 45.0901 9.356 45.8648 9.356C46.5741 9.356 47.2228 9.50533 47.8108 9.804C48.3988 10.1027 48.8701 10.5367 49.2248 11.106C49.5794 11.6753 49.7568 12.3613 49.7568 13.164L43.6808 14.34L43.6528 13.066L48.4688 12.142L47.7268 12.898C47.7268 12.5247 47.6474 12.198 47.4888 11.918C47.3301 11.638 47.1108 11.4187 46.8308 11.26C46.5601 11.092 46.2381 11.008 45.8648 11.008C45.4914 11.008 45.1601 11.092 44.8708 11.26C44.5908 11.4187 44.3714 11.6567 44.2128 11.974C44.0541 12.282 43.9748 12.66 43.9748 13.108C43.9748 13.6027 44.0634 14.018 44.2408 14.354C44.4181 14.69 44.6701 14.942 44.9968 15.11C45.3328 15.278 45.7294 15.362 46.1868 15.362C46.5881 15.362 46.9381 15.3013 47.2368 15.18C47.5354 15.0587 47.8154 14.8767 48.0768 14.634L49.2388 15.894C48.8934 16.286 48.4594 16.5893 47.9368 16.804C47.4141 17.0093 46.8121 17.112 46.1308 17.112ZM50.0677 17L53.4417 12.576L53.3997 13.78L50.1657 9.468H52.6157L54.6597 12.282L53.7357 12.31L55.8497 9.468H58.1737L54.9257 13.738V12.562L58.2857 17H55.8077L53.6657 14.004L54.5757 14.13L52.4477 17H50.0677ZM63.7979 17.112C63.1632 17.112 62.6079 16.972 62.1319 16.692C61.6559 16.412 61.2826 15.9873 61.0119 15.418C60.7506 14.8393 60.6199 14.1113 60.6199 13.234C60.6199 12.3473 60.7459 11.6193 60.9979 11.05C61.2499 10.4807 61.6139 10.056 62.0899 9.776C62.5659 9.496 63.1352 9.356 63.7979 9.356C64.5072 9.356 65.1419 9.51933 65.7019 9.846C66.2712 10.1633 66.7192 10.6113 67.0459 11.19C67.3819 11.7687 67.5499 12.45 67.5499 13.234C67.5499 14.0273 67.3819 14.7133 67.0459 15.292C66.7192 15.8707 66.2712 16.3187 65.7019 16.636C65.1419 16.9533 64.5072 17.112 63.7979 17.112ZM59.3459 19.716V9.468H61.4319V11.008L61.3899 13.248L61.5299 15.474V19.716H59.3459ZM63.4199 15.32C63.7839 15.32 64.1059 15.236 64.3859 15.068C64.6752 14.9 64.9039 14.662 65.0719 14.354C65.2492 14.0367 65.3379 13.6633 65.3379 13.234C65.3379 12.7953 65.2492 12.422 65.0719 12.114C64.9039 11.806 64.6752 11.568 64.3859 11.4C64.1059 11.232 63.7839 11.148 63.4199 11.148C63.0559 11.148 62.7292 11.232 62.4399 11.4C62.1506 11.568 61.9219 11.806 61.7539 12.114C61.5859 12.422 61.5019 12.7953 61.5019 13.234C61.5019 13.6633 61.5859 14.0367 61.7539 14.354C61.9219 14.662 62.1506 14.9 62.4399 15.068C62.7292 15.236 63.0559 15.32 63.4199 15.32ZM72.5959 17.112C71.7932 17.112 71.0792 16.944 70.4539 16.608C69.8379 16.272 69.3479 15.8147 68.9839 15.236C68.6292 14.648 68.4519 13.9807 68.4519 13.234C68.4519 12.478 68.6292 11.8107 68.9839 11.232C69.3479 10.644 69.8379 10.1867 70.4539 9.86C71.0792 9.524 71.7932 9.356 72.5959 9.356C73.3892 9.356 74.0986 9.524 74.7239 9.86C75.3492 10.1867 75.8392 10.6393 76.1939 11.218C76.5486 11.7967 76.7259 12.4687 76.7259 13.234C76.7259 13.9807 76.5486 14.648 76.1939 15.236C75.8392 15.8147 75.3492 16.272 74.7239 16.608C74.0986 16.944 73.3892 17.112 72.5959 17.112ZM72.5959 15.32C72.9599 15.32 73.2866 15.236 73.5759 15.068C73.8652 14.9 74.0939 14.662 74.2619 14.354C74.4299 14.0367 74.5139 13.6633 74.5139 13.234C74.5139 12.7953 74.4299 12.422 74.2619 12.114C74.0939 11.806 73.8652 11.568 73.5759 11.4C73.2866 11.232 72.9599 11.148 72.5959 11.148C72.2319 11.148 71.9052 11.232 71.6159 11.4C71.3266 11.568 71.0932 11.806 70.9159 12.114C70.7479 12.422 70.6639 12.7953 70.6639 13.234C70.6639 13.6633 70.7479 14.0367 70.9159 14.354C71.0932 14.662 71.3266 14.9 71.6159 15.068C71.9052 15.236 72.2319 15.32 72.5959 15.32ZM78.1857 17V9.468H80.3697V17H78.1857ZM79.2777 8.418C78.8764 8.418 78.5497 8.30133 78.2977 8.068C78.0457 7.83467 77.9197 7.54533 77.9197 7.2C77.9197 6.85467 78.0457 6.56533 78.2977 6.332C78.5497 6.09867 78.8764 5.982 79.2777 5.982C79.6791 5.982 80.0057 6.094 80.2577 6.318C80.5097 6.53267 80.6357 6.81267 80.6357 7.158C80.6357 7.522 80.5097 7.82533 80.2577 8.068C80.0151 8.30133 79.6884 8.418 79.2777 8.418ZM86.9747 9.356C87.572 9.356 88.104 9.47733 88.5707 9.72C89.0467 9.95333 89.42 10.3173 89.6907 10.812C89.9613 11.2973 90.0967 11.9227 90.0967 12.688V17H87.9127V13.024C87.9127 12.4173 87.7773 11.9693 87.5067 11.68C87.2453 11.3907 86.872 11.246 86.3867 11.246C86.0413 11.246 85.7287 11.3207 85.4487 11.47C85.178 11.61 84.9633 11.8293 84.8047 12.128C84.6553 12.4267 84.5807 12.8093 84.5807 13.276V17H82.3967V9.468H84.4827V11.554L84.0907 10.924C84.3613 10.42 84.7487 10.0327 85.2527 9.762C85.7567 9.49133 86.3307 9.356 86.9747 9.356ZM94.8484 17.112C93.9524 17.112 93.257 16.888 92.7624 16.44C92.277 15.9827 92.0344 15.306 92.0344 14.41V7.802H94.2184V14.382C94.2184 14.6993 94.2977 14.9467 94.4564 15.124C94.6244 15.292 94.853 15.376 95.1424 15.376C95.4877 15.376 95.7864 15.2827 96.0384 15.096L96.6124 16.636C96.3884 16.7947 96.1177 16.916 95.8004 17C95.4924 17.0747 95.175 17.112 94.8484 17.112ZM93.2384 11.316V9.636H96.0804V11.316H93.2384Z" fill="#525866"/>
<defs>
<clipPath id="clip0_162_30267">
<rect width="24" height="24" fill="white"/>
</clipPath>
</defs>
</svg>
