<svg width="1440" height="1094" viewBox="0 0 1440 1094" fill="none" xmlns="http://www.w3.org/2000/svg">
<rect width="1440" height="1094" fill="url(#paint0_linear_60_10883)"/>
<path d="M989.575 130.342C989.575 130.342 985.091 127.879 986.878 125.938C988.665 123.997 992.812 123.81 992.812 123.81C992.812 123.81 991.295 120.712 992.508 119.293C993.722 117.912 997.06 118.136 997.06 118.136C997.06 118.136 999.859 108.804 1008.09 108.057C1016.35 107.311 1025.15 113.881 1023.02 126.498C1023.02 126.498 1027.61 126.871 1024.34 130.342C1024.34 130.342 1027.68 130.492 1027.61 131.126C1027.54 131.761 1012.13 133.105 1001.34 133.105C990.553 133.105 989.575 130.342 989.575 130.342Z" fill="white"/>
<path opacity="0.8" d="M986.438 126.908C986.27 126.759 986.101 126.647 986 126.535C986.202 126.46 986.405 126.348 986.607 126.274C989.169 125.191 993.519 124.034 996.924 126.796C996.924 126.796 995.34 119.965 1002.18 121.309C1002.18 121.309 1008.25 106.191 1021.61 115.336C1021.74 115.411 1021.84 115.523 1021.98 115.598C1022.08 115.672 1022.18 115.747 1022.28 115.822L1021.84 115.859C1023.19 118.696 1023.7 122.28 1022.99 126.535C1022.99 126.535 1027.57 126.946 1024.3 130.38C1024.3 130.38 1027.64 130.529 1027.57 131.164C1027.51 131.798 1012.1 133.142 1001.27 133.142C990.451 133.142 989.507 130.38 989.507 130.38C989.507 130.38 986.405 128.588 986.438 126.908Z" fill="#F7F7F7"/>
<path d="M1024.34 130.342C1027.61 126.871 1023.02 126.498 1023.02 126.498C1023.73 122.242 1023.22 118.659 1021.87 115.822C1019.72 136.278 1003.94 127.804 1003.94 127.804C994.867 132.881 988.427 128.513 986.438 126.908C986.404 128.588 989.573 130.342 989.573 130.342C989.573 130.342 990.551 133.105 1001.34 133.105C1012.16 133.105 1027.57 131.761 1027.64 131.126C1027.67 130.492 1024.34 130.342 1024.34 130.342Z" fill="#B1C8ED"/>
<path d="M1005.89 130.006C1010.21 131.948 1015.23 131.649 1019.11 128.737C1019.38 128.551 1019.65 128.364 1019.92 128.177C1019.44 128.663 1019.01 129.185 1018.5 129.559C1014.93 132.619 1009.6 132.769 1005.89 130.006Z" fill="white"/>
<path d="M993.18 127.505C994.63 125.602 997.731 125.415 999.114 127.505C997.158 126.423 995.169 126.609 993.18 127.505Z" fill="white"/>
<path d="M998.34 124.519C1001.64 120.898 1007.21 120.786 1010.51 124.519C1006.57 121.794 1002.32 121.906 998.34 124.519Z" fill="white"/>
<path d="M362.366 205.313C362.366 205.313 356.884 202.302 359.069 199.929C361.254 197.556 366.323 197.327 366.323 197.327C366.323 197.327 364.469 193.54 365.952 191.806C367.436 190.117 371.517 190.391 371.517 190.391C371.517 190.391 374.938 178.983 384.995 178.07C395.094 177.157 405.852 185.189 403.255 200.613C403.255 200.613 408.861 201.069 404.863 205.313C404.863 205.313 408.943 205.496 408.861 206.272C408.779 207.047 389.942 208.69 376.752 208.69C363.562 208.69 362.366 205.313 362.366 205.313Z" fill="white"/>
<path opacity="0.8" d="M358.536 201.115C358.33 200.933 358.124 200.796 358 200.659C358.247 200.567 358.495 200.431 358.742 200.339C361.875 199.016 367.192 197.601 371.355 200.978C371.355 200.978 369.418 192.627 377.785 194.27C377.785 194.27 385.204 175.788 401.527 186.969C401.692 187.06 401.815 187.197 401.98 187.288C402.104 187.379 402.228 187.471 402.351 187.562L401.815 187.608C403.464 191.076 404.082 195.457 403.217 200.659C403.217 200.659 408.823 201.161 404.824 205.359C404.824 205.359 408.905 205.542 408.823 206.317C408.74 207.093 389.903 208.736 376.672 208.736C363.441 208.736 362.287 205.359 362.287 205.359C362.287 205.359 358.495 203.169 358.536 201.115Z" fill="#F7F7F7"/>
<path d="M404.865 205.313C408.863 201.069 403.258 200.613 403.258 200.613C404.123 195.411 403.505 191.03 401.856 187.562C399.218 212.569 379.928 202.21 379.928 202.21C368.84 208.416 360.967 203.077 358.535 201.115C358.494 203.168 362.369 205.313 362.369 205.313C362.369 205.313 363.564 208.69 376.754 208.69C389.985 208.69 408.822 207.047 408.905 206.271C408.946 205.496 404.865 205.313 404.865 205.313Z" fill="#B1C8ED"/>
<path d="M382.32 204.903C387.596 207.275 393.738 206.91 398.478 203.351C398.808 203.123 399.137 202.895 399.467 202.667C398.89 203.26 398.354 203.899 397.736 204.355C393.367 208.097 386.854 208.279 382.32 204.903Z" fill="white"/>
<path d="M366.781 201.845C368.554 199.518 372.346 199.289 374.036 201.845C371.645 200.522 369.213 200.75 366.781 201.845Z" fill="white"/>
<path d="M373.086 198.194C377.125 193.768 383.926 193.631 387.966 198.194C383.143 194.863 377.95 195 373.086 198.194Z" fill="white"/>
<defs>
<linearGradient id="paint0_linear_60_10883" x1="1074.99" y1="-0.625998" x2="1075.93" y2="1094.63" gradientUnits="userSpaceOnUse">
<stop offset="0.0014881" stop-color="#CAE7FF"/>
<stop offset="0.3551" stop-color="#E1F2FE"/>
<stop offset="1" stop-color="white"/>
</linearGradient>
</defs>
</svg>
