<svg width="27" height="27" viewBox="0 0 27 27" fill="none" xmlns="http://www.w3.org/2000/svg">
<g clip-path="url(#clip0_659_1153)">
<path d="M2.66846 7.8828V13.6601C3.66954 10.1916 6.84449 7.80288 10.4546 7.80288H20.4387C22.597 7.80288 24.3467 6.05318 24.3467 3.89482C24.3467 1.73645 22.597 -0.0132446 20.4386 -0.0132446H10.5645C6.20364 -0.0132446 2.66846 3.52193 2.66846 7.8828Z" fill="#2EA378"/>
<path d="M20.4386 -0.0132446H16.3419C8.79024 -0.0132446 2.66846 6.10854 2.66846 13.6601C3.66954 10.1916 6.84449 7.80288 10.4546 7.80288H20.4387C22.597 7.80288 24.3467 6.05318 24.3467 3.89482C24.3467 1.73645 22.597 -0.0132446 20.4386 -0.0132446Z" fill="#37C390"/>
<path d="M16.9795 9.62817H11.3763C9.28536 9.62817 7.59033 11.3232 7.59033 13.4141C7.59033 15.505 9.28535 17.2001 11.3763 17.2001H16.9795C19.0704 17.2001 20.7654 15.505 20.7654 13.4141C20.7654 11.3232 19.0704 9.62817 16.9795 9.62817Z" fill="#2EA378"/>
<path d="M10.3766 17.5453V23.1515C10.3766 25.2843 8.64771 27.0132 6.51498 27.0132C4.38224 27.0132 2.65332 25.2843 2.65332 23.1515V17.2988C2.65332 13.0792 6.07403 9.65845 10.2937 9.65845H17.8274C13.6457 9.89643 10.3766 13.3568 10.3766 17.5453Z" fill="#37C390"/>
</g>
<defs>
<clipPath id="clip0_659_1153">
<rect width="27" height="27" fill="white"/>
</clipPath>
</defs>
</svg>
