<svg width="25" height="25" viewBox="0 0 25 25" fill="none" xmlns="http://www.w3.org/2000/svg">
<path d="M19.5508 3.19824H17.3008V2.44824C17.3008 2.24933 17.2218 2.05856 17.0811 1.91791C16.9405 1.77726 16.7497 1.69824 16.5508 1.69824C16.3519 1.69824 16.1611 1.77726 16.0205 1.91791C15.8798 2.05856 15.8008 2.24933 15.8008 2.44824V3.19824H8.30078V2.44824C8.30078 2.24933 8.22176 2.05856 8.08111 1.91791C7.94046 1.77726 7.74969 1.69824 7.55078 1.69824C7.35187 1.69824 7.1611 1.77726 7.02045 1.91791C6.8798 2.05856 6.80078 2.24933 6.80078 2.44824V3.19824H4.55078C4.15296 3.19824 3.77143 3.35628 3.49012 3.63758C3.20882 3.91889 3.05078 4.30042 3.05078 4.69824V19.6982C3.05078 20.0961 3.20882 20.4776 3.49012 20.7589C3.77143 21.0402 4.15296 21.1982 4.55078 21.1982H19.5508C19.9486 21.1982 20.3301 21.0402 20.6114 20.7589C20.8927 20.4776 21.0508 20.0961 21.0508 19.6982V4.69824C21.0508 4.30042 20.8927 3.91889 20.6114 3.63758C20.3301 3.35628 19.9486 3.19824 19.5508 3.19824ZM6.80078 4.69824V5.44824C6.80078 5.64715 6.8798 5.83792 7.02045 5.97857C7.1611 6.11922 7.35187 6.19824 7.55078 6.19824C7.74969 6.19824 7.94046 6.11922 8.08111 5.97857C8.22176 5.83792 8.30078 5.64715 8.30078 5.44824V4.69824H15.8008V5.44824C15.8008 5.64715 15.8798 5.83792 16.0205 5.97857C16.1611 6.11922 16.3519 6.19824 16.5508 6.19824C16.7497 6.19824 16.9405 6.11922 17.0811 5.97857C17.2218 5.83792 17.3008 5.64715 17.3008 5.44824V4.69824H19.5508V7.69824H4.55078V4.69824H6.80078ZM19.5508 19.6982H4.55078V9.19824H19.5508V19.6982Z" fill="#525866"/>
</svg>
