<svg width="1440" height="151" viewBox="0 0 1440 151" fill="none" xmlns="http://www.w3.org/2000/svg">
<path opacity="0.3" d="M-56.5172 440H-114V382.5M-56.5172 440V382.5M-56.5172 440H0.965514M-114 382.5H-56.5172M-114 382.5V325M-56.5172 382.5H0.965514M-56.5172 382.5V325M0.965514 440V382.5M0.965514 440H58.4483M0.965514 382.5H58.4483M0.965514 382.5V325M-56.5172 325H-114M-56.5172 325H0.965514M-56.5172 325V267.5M-114 325V267.5M58.4483 440V382.5M58.4483 440H115.931M58.4483 382.5H115.931M58.4483 382.5V325M0.965514 325H58.4483M0.965514 325V267.5M115.931 440V382.5M115.931 440H173.414M115.931 382.5H173.414M115.931 382.5V325M58.4483 325H115.931M58.4483 325V267.5M173.414 440V382.5M173.414 440H230.897M173.414 382.5H230.897M173.414 382.5V325M115.931 325H173.414M115.931 325V267.5M230.897 440V382.5M230.897 440H288.379M230.897 382.5H288.379M230.897 382.5V325M173.414 325H230.897M173.414 325V267.5M288.379 440V382.5M288.379 440H345.862M288.379 382.5H345.862M288.379 382.5V325M230.897 325H288.379M230.897 325V267.5M345.862 440V382.5M345.862 440H403.345M345.862 382.5H403.345M345.862 382.5V325M288.379 325H345.862M288.379 325V267.5M403.345 440V382.5M403.345 440H460.828M403.345 382.5H460.828M403.345 382.5V325M345.862 325H403.345M345.862 325V267.5M460.828 440V382.5M460.828 440H518.31M460.828 382.5H518.31M460.828 382.5V325M403.345 325H460.828M403.345 325V267.5M518.31 440V382.5M518.31 440H575.793M518.31 382.5H575.793M518.31 382.5V325M460.828 325H518.31M460.828 325V267.5M575.793 440V382.5M575.793 440H633.276M575.793 382.5H633.276M575.793 382.5V325M518.31 325H575.793M518.31 325V267.5M633.276 440V382.5M633.276 440H690.759M633.276 382.5H690.759M633.276 382.5V325M575.793 325H633.276M575.793 325V267.5M690.759 440V382.5M690.759 440H748.241M690.759 382.5H748.241M690.759 382.5V325M633.276 325H690.759M633.276 325V267.5M748.241 440V382.5M748.241 440H805.724M748.241 382.5H805.724M748.241 382.5V325M690.759 325H748.241M690.759 325V267.5M805.724 440V382.5M805.724 440H863.207M805.724 382.5H863.207M805.724 382.5V325M748.241 325H805.724M748.241 325V267.5M863.207 440V382.5M863.207 440H920.69M863.207 382.5H920.69M863.207 382.5V325M805.724 325H863.207M805.724 325V267.5M920.69 440V382.5M920.69 440H978.172M920.69 382.5H978.172M920.69 382.5V325M863.207 325H920.69M863.207 325V267.5M978.172 440V382.5M978.172 440H1035.66M978.172 382.5H1035.66M978.172 382.5V325M920.69 325H978.172M920.69 325V267.5M1035.66 440V382.5M1035.66 440H1093.14M1035.66 382.5H1093.14M1035.66 382.5V325M978.172 325H1035.66M978.172 325V267.5M1093.14 440V382.5M1093.14 440H1150.62M1093.14 382.5H1150.62M1093.14 382.5V325M1035.66 325H1093.14M1035.66 325V267.5M1150.62 440V382.5M1150.62 440H1208.1M1150.62 382.5H1208.1M1150.62 382.5V325M1093.14 325H1150.62M1093.14 325V267.5M1208.1 440V382.5M1208.1 440H1265.59M1208.1 382.5H1265.59M1208.1 382.5V325M1150.62 325H1208.1M1150.62 325V267.5M1265.59 440V382.5M1265.59 440H1323.07M1265.59 382.5H1323.07M1265.59 382.5V325M1208.1 325H1265.59M1208.1 325V267.5M1323.07 440V382.5M1323.07 440H1380.55M1323.07 382.5H1380.55M1323.07 382.5V325M1265.59 325H1323.07M1265.59 325V267.5M1380.55 440V382.5M1380.55 440H1438.03M1380.55 382.5H1438.03M1380.55 382.5V325M1323.07 325H1380.55M1323.07 325V267.5M1438.03 440V382.5M1438.03 440H1495.52M1438.03 382.5H1495.52M1438.03 382.5V325M1380.55 325H1438.03M1380.55 325V267.5M1495.52 440V382.5M1495.52 440H1553V382.5M1495.52 382.5H1553M1495.52 382.5V325M1438.03 325H1495.52M1438.03 325V267.5M1553 382.5V325M1495.52 325H1553M1495.52 325V267.5M1553 325V267.5M-56.5172 267.5H-114M-56.5172 267.5H0.965514M-56.5172 267.5V210M-114 267.5V210M0.965514 267.5H58.4483M0.965514 267.5V210M58.4483 267.5H115.931M58.4483 267.5V210M115.931 267.5H173.414M115.931 267.5V210M173.414 267.5H230.897M173.414 267.5V210M230.897 267.5H288.379M230.897 267.5V210M288.379 267.5H345.862M288.379 267.5V210M345.862 267.5H403.345M345.862 267.5V210M403.345 267.5H460.828M403.345 267.5V210M460.828 267.5H518.31M460.828 267.5V210M518.31 267.5H575.793M518.31 267.5V210M575.793 267.5H633.276M575.793 267.5V210M633.276 267.5H690.759M633.276 267.5V210M690.759 267.5H748.241M690.759 267.5V210M748.241 267.5H805.724M748.241 267.5V210M805.724 267.5H863.207M805.724 267.5V210M863.207 267.5H920.69M863.207 267.5V210M920.69 267.5H978.172M920.69 267.5V210M978.172 267.5H1035.66M978.172 267.5V210M1035.66 267.5H1093.14M1035.66 267.5V210M1093.14 267.5H1150.62M1093.14 267.5V210M1150.62 267.5H1208.1M1150.62 267.5V210M1208.1 267.5H1265.59M1208.1 267.5V210M1265.59 267.5H1323.07M1265.59 267.5V210M1323.07 267.5H1380.55M1323.07 267.5V210M1380.55 267.5H1438.03M1380.55 267.5V210M1438.03 267.5H1495.52M1438.03 267.5V210M1495.52 267.5H1553M1495.52 267.5V210M1553 267.5V210M-56.5172 210H-114M-56.5172 210H0.965514M-56.5172 210V152.5M-114 210V152.5M0.965514 210H58.4483M0.965514 210V152.5M58.4483 210H115.931M58.4483 210V152.5M115.931 210H173.414M115.931 210V152.5M173.414 210H230.897M173.414 210V152.5M230.897 210H288.379M230.897 210V152.5M288.379 210H345.862M288.379 210V152.5M345.862 210H403.345M345.862 210V152.5M403.345 210H460.828M403.345 210V152.5M460.828 210H518.31M460.828 210V152.5M518.31 210H575.793M518.31 210V152.5M575.793 210H633.276M575.793 210V152.5M633.276 210H690.759M633.276 210V152.5M690.759 210H748.241M690.759 210V152.5M748.241 210H805.724M748.241 210V152.5M805.724 210H863.207M805.724 210V152.5M863.207 210H920.69M863.207 210V152.5M920.69 210H978.172M920.69 210V152.5M978.172 210H1035.66M978.172 210V152.5M1035.66 210H1093.14M1035.66 210V152.5M1093.14 210H1150.62M1093.14 210V152.5M1150.62 210H1208.1M1150.62 210V152.5M1208.1 210H1265.59M1208.1 210V152.5M1265.59 210H1323.07M1265.59 210V152.5M1323.07 210H1380.55M1323.07 210V152.5M1380.55 210H1438.03M1380.55 210V152.5M1438.03 210H1495.52M1438.03 210V152.5M1495.52 210H1553M1495.52 210V152.5M1553 210V152.5M-56.5172 152.5H-114M-56.5172 152.5H0.965514M-56.5172 152.5V95M-114 152.5V95M0.965514 152.5H58.4483M0.965514 152.5V95M58.4483 152.5H115.931M58.4483 152.5V95M115.931 152.5H173.414M115.931 152.5V95M173.414 152.5H230.897M173.414 152.5V95M230.897 152.5H288.379M230.897 152.5V95M288.379 152.5H345.862M288.379 152.5V95M345.862 152.5H403.345M345.862 152.5V95M403.345 152.5H460.828M403.345 152.5V95M460.828 152.5H518.31M460.828 152.5V95M518.31 152.5H575.793M518.31 152.5V95M575.793 152.5H633.276M575.793 152.5V95M633.276 152.5H690.759M633.276 152.5V95M690.759 152.5H748.241M690.759 152.5V95M748.241 152.5H805.724M748.241 152.5V95M805.724 152.5H863.207M805.724 152.5V95M863.207 152.5H920.69M863.207 152.5V95M920.69 152.5H978.172M920.69 152.5V95M978.172 152.5H1035.66M978.172 152.5V95M1035.66 152.5H1093.14M1035.66 152.5V95M1093.14 152.5H1150.62M1093.14 152.5V95M1150.62 152.5H1208.1M1150.62 152.5V95M1208.1 152.5H1265.59M1208.1 152.5V95M1265.59 152.5H1323.07M1265.59 152.5V95M1323.07 152.5H1380.55M1323.07 152.5V95M1380.55 152.5H1438.03M1380.55 152.5V95M1438.03 152.5H1495.52M1438.03 152.5V95M1495.52 152.5H1553M1495.52 152.5V95M1553 152.5V95M-56.5172 95H-114M-56.5172 95H0.965514M-56.5172 95V37.5M-114 95V37.5M0.965514 95H58.4483M0.965514 95V37.5M58.4483 95H115.931M58.4483 95V37.5M115.931 95H173.414M115.931 95V37.5M173.414 95H230.897M173.414 95V37.5M230.897 95H288.379M230.897 95V37.5M288.379 95H345.862M288.379 95V37.5M345.862 95H403.345M345.862 95V37.5M403.345 95H460.828M403.345 95V37.5M460.828 95H518.31M460.828 95V37.5M518.31 95H575.793M518.31 95V37.5M575.793 95H633.276M575.793 95V37.5M633.276 95H690.759M633.276 95V37.5M690.759 95H748.241M690.759 95V37.5M748.241 95H805.724M748.241 95V37.5M805.724 95H863.207M805.724 95V37.5M863.207 95H920.69M863.207 95V37.5M920.69 95H978.172M920.69 95V37.5M978.172 95H1035.66M978.172 95V37.5M1035.66 95H1093.14M1035.66 95V37.5M1093.14 95H1150.62M1093.14 95V37.5M1150.62 95H1208.1M1150.62 95V37.5M1208.1 95H1265.59M1208.1 95V37.5M1265.59 95H1323.07M1265.59 95V37.5M1323.07 95H1380.55M1323.07 95V37.5M1380.55 95H1438.03M1380.55 95V37.5M1438.03 95H1495.52M1438.03 95V37.5M1495.52 95H1553M1495.52 95V37.5M1553 95V37.5M-56.5172 37.5H-114M-56.5172 37.5H0.965514M-56.5172 37.5V-20M-114 37.5V-20M0.965514 37.5H58.4483M0.965514 37.5V-20M58.4483 37.5H115.931M58.4483 37.5V-20M115.931 37.5H173.414M115.931 37.5V-20M173.414 37.5H230.897M173.414 37.5V-20M230.897 37.5H288.379M230.897 37.5V-20M288.379 37.5H345.862M288.379 37.5V-20M345.862 37.5H403.345M345.862 37.5V-20M403.345 37.5H460.828M403.345 37.5V-20M460.828 37.5H518.31M460.828 37.5V-20M518.31 37.5H575.793M518.31 37.5V-20M575.793 37.5H633.276M575.793 37.5V-20M633.276 37.5H690.759M633.276 37.5V-20M690.759 37.5H748.241M690.759 37.5V-20M748.241 37.5H805.724M748.241 37.5V-20M805.724 37.5H863.207M805.724 37.5V-20M863.207 37.5H920.69M863.207 37.5V-20M920.69 37.5H978.172M920.69 37.5V-20M978.172 37.5H1035.66M978.172 37.5V-20M1035.66 37.5H1093.14M1035.66 37.5V-20M1093.14 37.5H1150.62M1093.14 37.5V-20M1150.62 37.5H1208.1M1150.62 37.5V-20M1208.1 37.5H1265.59M1208.1 37.5V-20M1265.59 37.5H1323.07M1265.59 37.5V-20M1323.07 37.5H1380.55M1323.07 37.5V-20M1380.55 37.5H1438.03M1380.55 37.5V-20M1438.03 37.5H1495.52M1438.03 37.5V-20M1495.52 37.5H1553M1495.52 37.5V-20M1553 37.5V-20M-56.5172 -20H-114M-56.5172 -20H0.965514M-56.5172 -20V-77.5M-114 -20V-77.5M0.965514 -20H58.4483M0.965514 -20V-77.5M58.4483 -20H115.931M58.4483 -20V-77.5M115.931 -20H173.414M115.931 -20V-77.5M173.414 -20H230.897M173.414 -20V-77.5M230.897 -20H288.379M230.897 -20V-77.5M288.379 -20H345.862M288.379 -20V-77.5M345.862 -20H403.345M345.862 -20V-77.5M403.345 -20H460.828M403.345 -20V-77.5M460.828 -20H518.31M460.828 -20V-77.5M518.31 -20H575.793M518.31 -20V-77.5M575.793 -20H633.276M575.793 -20V-77.5M633.276 -20H690.759M633.276 -20V-77.5M690.759 -20H748.241M690.759 -20V-77.5M748.241 -20H805.724M748.241 -20V-77.5M805.724 -20H863.207M805.724 -20V-77.5M863.207 -20H920.69M863.207 -20V-77.5M920.69 -20H978.172M920.69 -20V-77.5M978.172 -20H1035.66M978.172 -20V-77.5M1035.66 -20H1093.14M1035.66 -20V-77.5M1093.14 -20H1150.62M1093.14 -20V-77.5M1150.62 -20H1208.1M1150.62 -20V-77.5M1208.1 -20H1265.59M1208.1 -20V-77.5M1265.59 -20H1323.07M1265.59 -20V-77.5M1323.07 -20H1380.55M1323.07 -20V-77.5M1380.55 -20H1438.03M1380.55 -20V-77.5M1438.03 -20H1495.52M1438.03 -20V-77.5M1495.52 -20H1553M1495.52 -20V-77.5M1553 -20V-77.5M-56.5172 -77.5H-114M-56.5172 -77.5H0.965514M-56.5172 -77.5V-135M-114 -77.5V-135M0.965514 -77.5H58.4483M0.965514 -77.5V-135M58.4483 -77.5H115.931M58.4483 -77.5V-135M115.931 -77.5H173.414M115.931 -77.5V-135M173.414 -77.5H230.897M173.414 -77.5V-135M230.897 -77.5H288.379M230.897 -77.5V-135M288.379 -77.5H345.862M288.379 -77.5V-135M345.862 -77.5H403.345M345.862 -77.5V-135M403.345 -77.5H460.828M403.345 -77.5V-135M460.828 -77.5H518.31M460.828 -77.5V-135M518.31 -77.5H575.793M518.31 -77.5V-135M575.793 -77.5H633.276M575.793 -77.5V-135M633.276 -77.5H690.759M633.276 -77.5V-135M690.759 -77.5H748.241M690.759 -77.5V-135M748.241 -77.5H805.724M748.241 -77.5V-135M805.724 -77.5H863.207M805.724 -77.5V-135M863.207 -77.5H920.69M863.207 -77.5V-135M920.69 -77.5H978.172M920.69 -77.5V-135M978.172 -77.5H1035.66M978.172 -77.5V-135M1035.66 -77.5H1093.14M1035.66 -77.5V-135M1093.14 -77.5H1150.62M1093.14 -77.5V-135M1150.62 -77.5H1208.1M1150.62 -77.5V-135M1208.1 -77.5H1265.59M1208.1 -77.5V-135M1265.59 -77.5H1323.07M1265.59 -77.5V-135M1323.07 -77.5H1380.55M1323.07 -77.5V-135M1380.55 -77.5H1438.03M1380.55 -77.5V-135M1438.03 -77.5H1495.52M1438.03 -77.5V-135M1495.52 -77.5H1553M1495.52 -77.5V-135M1553 -77.5V-135M-56.5172 -135H-114M-56.5172 -135H0.965514M-56.5172 -135V-192.5M-114 -135V-192.5M0.965514 -135H58.4483M0.965514 -135V-192.5M58.4483 -135H115.931M58.4483 -135V-192.5M115.931 -135H173.414M115.931 -135V-192.5M173.414 -135H230.897M173.414 -135V-192.5M230.897 -135H288.379M230.897 -135V-192.5M288.379 -135H345.862M288.379 -135V-192.5M345.862 -135H403.345M345.862 -135V-192.5M403.345 -135H460.828M403.345 -135V-192.5M460.828 -135H518.31M460.828 -135V-192.5M518.31 -135H575.793M518.31 -135V-192.5M575.793 -135H633.276M575.793 -135V-192.5M633.276 -135H690.759M633.276 -135V-192.5M690.759 -135H748.241M690.759 -135V-192.5M748.241 -135H805.724M748.241 -135V-192.5M805.724 -135H863.207M805.724 -135V-192.5M863.207 -135H920.69M863.207 -135V-192.5M920.69 -135H978.172M920.69 -135V-192.5M978.172 -135H1035.66M978.172 -135V-192.5M1035.66 -135H1093.14M1035.66 -135V-192.5M1093.14 -135H1150.62M1093.14 -135V-192.5M1150.62 -135H1208.1M1150.62 -135V-192.5M1208.1 -135H1265.59M1208.1 -135V-192.5M1265.59 -135H1323.07M1265.59 -135V-192.5M1323.07 -135H1380.55M1323.07 -135V-192.5M1380.55 -135H1438.03M1380.55 -135V-192.5M1438.03 -135H1495.52M1438.03 -135V-192.5M1495.52 -135H1553M1495.52 -135V-192.5M1553 -135V-192.5M-56.5172 -192.5H-114M-56.5172 -192.5H0.965514M-56.5172 -192.5V-250M-114 -192.5V-250H-56.5172M0.965514 -192.5H58.4483M0.965514 -192.5V-250M58.4483 -192.5H115.931M58.4483 -192.5V-250M115.931 -192.5H173.414M115.931 -192.5V-250M173.414 -192.5H230.897M173.414 -192.5V-250M230.897 -192.5H288.379M230.897 -192.5V-250M288.379 -192.5H345.862M288.379 -192.5V-250M345.862 -192.5H403.345M345.862 -192.5V-250M403.345 -192.5H460.828M403.345 -192.5V-250M460.828 -192.5H518.31M460.828 -192.5V-250M518.31 -192.5H575.793M518.31 -192.5V-250M575.793 -192.5H633.276M575.793 -192.5V-250M633.276 -192.5H690.759M633.276 -192.5V-250M690.759 -192.5H748.241M690.759 -192.5V-250M748.241 -192.5H805.724M748.241 -192.5V-250M805.724 -192.5H863.207M805.724 -192.5V-250M863.207 -192.5H920.69M863.207 -192.5V-250M920.69 -192.5H978.172M920.69 -192.5V-250M978.172 -192.5H1035.66M978.172 -192.5V-250M1035.66 -192.5H1093.14M1035.66 -192.5V-250M1093.14 -192.5H1150.62M1093.14 -192.5V-250M1150.62 -192.5H1208.1M1150.62 -192.5V-250M1208.1 -192.5H1265.59M1208.1 -192.5V-250M1265.59 -192.5H1323.07M1265.59 -192.5V-250M1323.07 -192.5H1380.55M1323.07 -192.5V-250M1380.55 -192.5H1438.03M1380.55 -192.5V-250M1438.03 -192.5H1495.52M1438.03 -192.5V-250M1495.52 -192.5H1553M1495.52 -192.5V-250M1553 -192.5V-250H1495.52M-56.5172 -250H0.965514M0.965514 -250H58.4483M58.4483 -250H115.931M115.931 -250H173.414M173.414 -250H230.897M230.897 -250H288.379M288.379 -250H345.862M345.862 -250H403.345M403.345 -250H460.828M460.828 -250H518.31M518.31 -250H575.793M575.793 -250H633.276M633.276 -250H690.759M690.759 -250H748.241M748.241 -250H805.724M805.724 -250H863.207M863.207 -250H920.69M920.69 -250H978.172M978.172 -250H1035.66M1035.66 -250H1093.14M1093.14 -250H1150.62M1150.62 -250H1208.1M1208.1 -250H1265.59M1265.59 -250H1323.07M1323.07 -250H1380.55M1380.55 -250H1438.03M1438.03 -250H1495.52" stroke="url(#paint0_radial_472_49856)" stroke-opacity="0.56"/>
<defs>
<radialGradient id="paint0_radial_472_49856" cx="0" cy="0" r="1" gradientUnits="userSpaceOnUse" gradientTransform="translate(719.5 388.692) rotate(-90) scale(858.187 618.624)">
<stop stop-color="#CDD0D5"/>
<stop offset="0.574718" stop-opacity="0"/>
</radialGradient>
</defs>
</svg>
