<svg width="142" height="35" viewBox="0 0 142 35" fill="none" xmlns="http://www.w3.org/2000/svg">
<g clip-path="url(#clip0_40000001_60577)">
<path d="M3.45898 10.2185V17.7076C4.75668 13.2114 8.87236 10.1149 13.5521 10.1149H26.4944C29.2923 10.1149 31.5604 7.84673 31.5604 5.04885C31.5604 2.25098 29.2923 -0.0171509 26.4944 -0.0171509H13.6946C8.04163 -0.0171509 3.45898 4.56549 3.45898 10.2185Z" fill="#2EA378"/>
<path d="M26.4944 -0.0171509H21.1837C11.3946 -0.0171509 3.45898 7.9185 3.45898 17.7076C4.75668 13.2114 8.87236 10.1149 13.5521 10.1149H26.4944C29.2923 10.1149 31.5604 7.84673 31.5604 5.04885C31.5604 2.25098 29.2923 -0.0171509 26.4944 -0.0171509Z" fill="#37C390"/>
<path d="M22.01 12.481H14.7466C12.0361 12.481 9.83887 14.6782 9.83887 17.3887C9.83887 20.0991 12.0361 22.2964 14.7466 22.2964H22.01C24.7204 22.2964 26.9177 20.0991 26.9177 17.3887C26.9177 14.6782 24.7204 12.481 22.01 12.481Z" fill="#2EA378"/>
<path d="M13.4512 22.7439V30.0113C13.4512 32.7759 11.21 35.0171 8.44531 35.0171C5.68065 35.0171 3.43945 32.7759 3.43945 30.0113V22.4244C3.43946 16.9545 7.87371 12.5202 13.3436 12.5202H23.1095C17.6888 12.8287 13.4512 17.3144 13.4512 22.7439Z" fill="#37C390"/>
</g>
<path d="M42.4051 24.5V15.7821C42.4051 13.9446 42.9836 12.5154 44.1405 11.4946C45.2975 10.4738 46.9036 9.96334 48.9588 9.96334C49.7891 9.96334 50.5581 10.0518 51.2659 10.2288C51.9873 10.3921 52.6134 10.6371 53.1443 10.9638L52.1234 13.5771C51.6879 13.2913 51.2115 13.0871 50.6943 12.9646C50.1906 12.8421 49.687 12.7808 49.1834 12.7808C48.0401 12.7808 47.1758 13.0326 46.5905 13.5363C46.0052 14.0263 45.7126 14.7681 45.7126 15.7617V24.5H42.4051ZM44.4672 19.2938V16.6396H51.5926V19.2938H44.4672ZM58.8045 24.6633C57.5658 24.6633 56.5995 24.3367 55.9053 23.6833C55.2111 23.03 54.864 22.0908 54.864 20.8658V9.35084H58.049V20.6821C58.049 21.1449 58.1647 21.5056 58.3961 21.7642C58.6411 22.0092 58.9814 22.1317 59.417 22.1317C59.5939 22.1317 59.764 22.1113 59.9274 22.0704C60.0907 22.0296 60.22 21.9819 60.3153 21.9275L60.4582 24.3979C60.186 24.4796 59.907 24.5408 59.6211 24.5817C59.3489 24.6361 59.0767 24.6633 58.8045 24.6633ZM67.2737 24.6633C66.0215 24.6633 64.919 24.4183 63.9662 23.9283C63.027 23.4383 62.2988 22.7714 61.7816 21.9275C61.2644 21.07 61.0058 20.0968 61.0058 19.0079C61.0058 17.9054 61.2576 16.9322 61.7612 16.0883C62.2784 15.2308 62.9794 14.5639 63.8641 14.0875C64.7488 13.5975 65.7561 13.3525 66.8858 13.3525C67.9202 13.3525 68.8662 13.5703 69.7237 14.0058C70.5812 14.4414 71.2686 15.0743 71.7858 15.9046C72.303 16.7349 72.5616 17.7353 72.5616 18.9058L63.7008 20.6208L63.66 18.7629L70.6833 17.4154L69.6012 18.5179C69.6012 17.9735 69.4855 17.4971 69.2541 17.0888C69.0227 16.6804 68.7029 16.3606 68.2945 16.1292C67.8998 15.8842 67.4302 15.7617 66.8858 15.7617C66.3413 15.7617 65.8581 15.8842 65.4362 16.1292C65.0279 16.3606 64.708 16.7076 64.4766 17.1704C64.2452 17.6196 64.1295 18.1708 64.1295 18.8242C64.1295 19.5456 64.2588 20.1513 64.5175 20.6413C64.7761 21.1313 65.1436 21.4988 65.62 21.7438C66.11 21.9888 66.6884 22.1113 67.3554 22.1113C67.9406 22.1113 68.4511 22.0228 68.8866 21.8458C69.3222 21.6689 69.7305 21.4035 70.1116 21.0496L71.8062 22.8871C71.3026 23.4588 70.6697 23.9011 69.9075 24.2142C69.1452 24.5136 68.2673 24.6633 67.2737 24.6633ZM73.0151 24.5L77.9355 18.0483L77.8743 19.8042L73.158 13.5158H76.7309L79.7118 17.6196L78.3643 17.6604L81.4472 13.5158H84.8363L80.0997 19.7429V18.0279L84.9997 24.5H81.3859L78.2622 20.1308L79.5893 20.3146L76.4859 24.5H73.0151ZM93.0383 24.6633C92.1127 24.6633 91.3028 24.4592 90.6087 24.0508C89.9145 23.6425 89.3701 23.0232 88.9753 22.1929C88.5942 21.349 88.4037 20.2874 88.4037 19.0079C88.4037 17.7149 88.5874 16.6532 88.9549 15.8229C89.3224 14.9926 89.8533 14.3733 90.5474 13.965C91.2416 13.5567 92.0719 13.3525 93.0383 13.3525C94.0727 13.3525 94.9983 13.5907 95.8149 14.0671C96.6452 14.5299 97.2985 15.1832 97.7749 16.0271C98.2649 16.871 98.5099 17.8646 98.5099 19.0079C98.5099 20.1649 98.2649 21.1653 97.7749 22.0092C97.2985 22.8531 96.6452 23.5064 95.8149 23.9692C94.9983 24.4319 94.0727 24.6633 93.0383 24.6633ZM86.5458 28.4608V13.5158H89.5878V15.7617L89.5266 19.0283L89.7308 22.2746V28.4608H86.5458ZM92.487 22.05C93.0178 22.05 93.4874 21.9275 93.8958 21.6825C94.3177 21.4375 94.6512 21.0904 94.8962 20.6413C95.1548 20.1785 95.2841 19.634 95.2841 19.0079C95.2841 18.3682 95.1548 17.8238 94.8962 17.3746C94.6512 16.9254 94.3177 16.5783 93.8958 16.3333C93.4874 16.0883 93.0178 15.9658 92.487 15.9658C91.9562 15.9658 91.4798 16.0883 91.0578 16.3333C90.6359 16.5783 90.3024 16.9254 90.0574 17.3746C89.8124 17.8238 89.6899 18.3682 89.6899 19.0079C89.6899 19.634 89.8124 20.1785 90.0574 20.6413C90.3024 21.0904 90.6359 21.4375 91.0578 21.6825C91.4798 21.9275 91.9562 22.05 92.487 22.05ZM105.869 24.6633C104.698 24.6633 103.657 24.4183 102.745 23.9283C101.847 23.4383 101.132 22.7714 100.601 21.9275C100.084 21.07 99.8254 20.0968 99.8254 19.0079C99.8254 17.9054 100.084 16.9322 100.601 16.0883C101.132 15.2308 101.847 14.5639 102.745 14.0875C103.657 13.5975 104.698 13.3525 105.869 13.3525C107.026 13.3525 108.06 13.5975 108.972 14.0875C109.884 14.5639 110.599 15.224 111.116 16.0679C111.633 16.9118 111.892 17.8918 111.892 19.0079C111.892 20.0968 111.633 21.07 111.116 21.9275C110.599 22.7714 109.884 23.4383 108.972 23.9283C108.06 24.4183 107.026 24.6633 105.869 24.6633ZM105.869 22.05C106.4 22.05 106.876 21.9275 107.298 21.6825C107.72 21.4375 108.053 21.0904 108.298 20.6413C108.543 20.1785 108.666 19.634 108.666 19.0079C108.666 18.3682 108.543 17.8238 108.298 17.3746C108.053 16.9254 107.72 16.5783 107.298 16.3333C106.876 16.0883 106.4 15.9658 105.869 15.9658C105.338 15.9658 104.861 16.0883 104.44 16.3333C104.018 16.5783 103.677 16.9254 103.419 17.3746C103.174 17.8238 103.051 18.3682 103.051 19.0079C103.051 19.634 103.174 20.1785 103.419 20.6413C103.677 21.0904 104.018 21.4375 104.44 21.6825C104.861 21.9275 105.338 22.05 105.869 22.05ZM114.021 24.5V13.5158H117.206V24.5H114.021ZM115.613 11.9846C115.028 11.9846 114.551 11.8144 114.184 11.4742C113.816 11.1339 113.633 10.7119 113.633 10.2083C113.633 9.70472 113.816 9.28278 114.184 8.9425C114.551 8.60222 115.028 8.43209 115.613 8.43209C116.198 8.43209 116.675 8.59542 117.042 8.92209C117.41 9.23514 117.593 9.64348 117.593 10.1471C117.593 10.6779 117.41 11.1203 117.042 11.4742C116.688 11.8144 116.212 11.9846 115.613 11.9846ZM126.838 13.3525C127.709 13.3525 128.485 13.5294 129.165 13.8833C129.859 14.2236 130.404 14.7544 130.799 15.4758C131.193 16.1836 131.391 17.0956 131.391 18.2117V24.5H128.206V18.7017C128.206 17.8169 128.008 17.1636 127.614 16.7417C127.232 16.3197 126.688 16.1088 125.98 16.1088C125.477 16.1088 125.021 16.2176 124.612 16.4354C124.218 16.6396 123.905 16.9594 123.673 17.395C123.455 17.8306 123.346 18.3886 123.346 19.0692V24.5H120.161V13.5158H123.204V16.5579L122.632 15.6392C123.027 14.9042 123.591 14.3393 124.326 13.9446C125.061 13.5499 125.899 13.3525 126.838 13.3525ZM138.32 24.6633C137.014 24.6633 135.999 24.3367 135.278 23.6833C134.57 23.0164 134.216 22.0296 134.216 20.7229V11.0863H137.401V20.6821C137.401 21.1449 137.517 21.5056 137.749 21.7642C137.994 22.0092 138.327 22.1317 138.749 22.1317C139.253 22.1317 139.688 21.9956 140.056 21.7233L140.893 23.9692C140.566 24.2006 140.171 24.3775 139.709 24.5C139.259 24.6089 138.797 24.6633 138.32 24.6633ZM135.972 16.2108V13.7608H140.117V16.2108H135.972Z" fill="#0E121B"/>
<defs>
<clipPath id="clip0_40000001_60577">
<rect width="35" height="35" fill="white"/>
</clipPath>
</defs>
</svg>
